<?xml version="1.0" encoding="utf-8"?>
<!-- Generator: Adobe Illustrator 24.3.0, SVG Export Plug-In . SVG Version: 6.00 Build 0)  -->
<svg version="1.1" id="Livello_1" xmlns="http://www.w3.org/2000/svg" xmlns:xlink="http://www.w3.org/1999/xlink" x="0px" y="0px"
	 viewBox="0 0 56.6 56.8" style="enable-background:new 0 0 56.6 56.8;" xml:space="preserve">
<style type="text/css">
	.st0{fill-rule:evenodd;clip-rule:evenodd;fill:#CC2C24;}
	.st1{fill-rule:evenodd;clip-rule:evenodd;fill:#008B29;}
	.st2{fill-rule:evenodd;clip-rule:evenodd;fill:#005B8C;}
	.st3{fill:none;stroke:#1D1D1B;stroke-width:0.72;stroke-linecap:round;stroke-linejoin:round;}
	.st4{fill:none;stroke:#1D1D1B;stroke-width:0.72;stroke-linecap:round;stroke-linejoin:bevel;}
</style>
<g id="Livello_2_1_">
	<g id="Livello_1-2">
		<polygon class="st0" points="39.7,38.6 47,40.3 37.9,40.3 		"/>
		<polygon class="st0" points="39.7,38.6 46.1,38.6 47,40.3 		"/>
		<polygon class="st0" points="10.7,38.6 18.8,40.3 9.7,40.3 		"/>
		<polygon class="st0" points="10.7,38.6 16.9,38.6 18.8,40.3 		"/>
		<polygon class="st0" points="37.9,40.3 47.9,41.8 35.8,41.8 		"/>
		<polygon class="st0" points="37.9,40.3 47,40.3 47.9,41.8 		"/>
		<polygon class="st0" points="9.7,40.3 21,41.8 8.9,41.8 		"/>
		<polygon class="st0" points="9.7,40.3 18.8,40.3 21,41.8 		"/>
		<polygon class="st0" points="35.8,41.8 48.5,42.8 33.4,42.8 		"/>
		<polygon class="st0" points="35.8,41.8 47.9,41.8 48.5,42.8 		"/>
		<polygon class="st0" points="8.9,41.8 23.3,42.8 8.3,42.8 		"/>
		<polygon class="st0" points="8.9,41.8 21,41.8 23.3,42.8 		"/>
		<polygon class="st0" points="33.4,42.8 48.8,43.4 31,43.4 		"/>
		<polygon class="st0" points="33.4,42.8 48.5,42.8 48.8,43.4 		"/>
		<polygon class="st0" points="8.3,42.8 25.8,43.4 7.9,43.4 		"/>
		<polygon class="st0" points="8.3,42.8 23.3,42.8 25.8,43.4 		"/>
		<polygon class="st0" points="31,43.4 48.8,43.6 30.2,43.6 		"/>
		<polygon class="st0" points="31,43.4 48.8,43.4 48.8,43.6 		"/>
		<polygon class="st0" points="7.9,43.4 26.4,43.6 7.8,43.6 		"/>
		<polygon class="st0" points="7.9,43.4 25.8,43.4 26.4,43.6 		"/>
		<polygon class="st0" points="30.2,43.6 48.7,43.7 28.3,43.7 		"/>
		<polygon class="st0" points="30.2,43.6 48.8,43.6 48.7,43.7 		"/>
		<polygon class="st0" points="7.8,43.6 28.3,43.7 7.9,43.7 		"/>
		<polygon class="st0" points="7.8,43.6 26.4,43.6 28.3,43.7 		"/>
		<polygon class="st0" points="7.9,43.7 46.7,46.1 10.1,46.1 		"/>
		<polygon class="st0" points="7.9,43.7 48.7,43.7 46.7,46.1 		"/>
		<polygon class="st0" points="10.1,46.1 44.2,48.4 12.6,48.4 		"/>
		<polygon class="st0" points="10.1,46.1 46.7,46.1 44.2,48.4 		"/>
		<polygon class="st0" points="12.6,48.4 41.4,50.3 15.4,50.3 		"/>
		<polygon class="st0" points="12.6,48.4 44.2,48.4 41.4,50.3 		"/>
		<polygon class="st0" points="15.4,50.3 38.3,51.8 18.4,51.8 		"/>
		<polygon class="st0" points="15.4,50.3 41.4,50.3 38.3,51.8 		"/>
		<polygon class="st0" points="18.4,51.8 35,53 21.6,53 		"/>
		<polygon class="st0" points="18.4,51.8 38.3,51.8 35,53 		"/>
		<polygon class="st0" points="25,53.6 31.8,53.6 28.3,53.9 		"/>
		<polygon class="st0" points="21.6,53 31.8,53.6 25,53.6 		"/>
		<polygon class="st0" points="21.6,53 35,53 31.8,53.6 		"/>
		<polygon class="st1" points="25.6,3 25.8,3.6 22.2,3.6 		"/>
		<polygon class="st1" points="22.2,3.6 26.4,4.7 19,4.7 		"/>
		<polygon class="st1" points="22.2,3.6 25.8,3.6 26.4,4.7 		"/>
		<polygon class="st1" points="19,4.7 27.2,6.1 16,6.1 		"/>
		<polygon class="st1" points="19,4.7 26.4,4.7 27.2,6.1 		"/>
		<polygon class="st1" points="16,6.1 28.3,7.9 13.1,7.9 		"/>
		<polygon class="st1" points="16,6.1 27.2,6.1 28.3,7.9 		"/>
		<path class="st1" d="M13.1,7.9L13.1,7.9z"/>
		<polygon class="st1" points="13.1,7.9 27.1,10.2 10.6,10.2 		"/>
		<polygon class="st1" points="13.1,7.9 28.3,7.9 27.1,10.2 		"/>
		<polygon class="st1" points="10.6,10.2 25.7,12.7 8.3,12.7 		"/>
		<polygon class="st1" points="10.6,10.2 27.1,10.2 25.7,12.7 		"/>
		<polygon class="st1" points="8.3,12.7 25.2,13.4 7.8,13.4 		"/>
		<polygon class="st1" points="8.3,12.7 25.7,12.7 25.2,13.4 		"/>
		<polygon class="st1" points="7.8,13.4 22.7,14.2 7.2,14.2 		"/>
		<polygon class="st1" points="7.8,13.4 25.2,13.4 22.7,14.2 		"/>
		<polygon class="st1" points="7.2,14.2 20.4,15.4 6.5,15.4 		"/>
		<polygon class="st1" points="7.2,14.2 22.7,14.2 20.4,15.4 		"/>
		<polygon class="st1" points="6.5,15.4 20.2,15.5 6.4,15.5 		"/>
		<polygon class="st1" points="6.5,15.4 20.4,15.4 20.2,15.5 		"/>
		<polygon class="st1" points="6.4,15.5 18.2,16.8 5.6,16.8 		"/>
		<polygon class="st1" points="6.4,15.5 20.2,15.5 18.2,16.8 		"/>
		<polygon class="st1" points="5.6,16.8 16.7,18.5 4.8,18.5 		"/>
		<polygon class="st1" points="5.6,16.8 18.2,16.8 16.7,18.5 		"/>
		<polygon class="st1" points="4.8,18.5 16.4,18.7 4.8,18.7 		"/>
		<polygon class="st1" points="4.8,18.5 16.7,18.5 16.4,18.7 		"/>
		<polygon class="st1" points="4.8,18.7 15,20.9 4,20.9 		"/>
		<polygon class="st1" points="4.8,18.7 16.4,18.7 15,20.9 		"/>
		<polygon class="st1" points="4,20.9 14.6,21.7 3.7,21.7 		"/>
		<polygon class="st1" points="4,20.9 15,20.9 14.6,21.7 		"/>
		<polygon class="st1" points="3.7,21.7 13.9,23.3 3.5,23.3 		"/>
		<polygon class="st1" points="3.7,21.7 14.6,21.7 13.9,23.3 		"/>
		<polygon class="st1" points="3.5,23.3 13.4,25 3.1,25 		"/>
		<polygon class="st1" points="3.5,23.3 13.9,23.3 13.4,25 		"/>
		<polygon class="st1" points="3.1,25 13.3,25.8 3,25.8 		"/>
		<polygon class="st1" points="3.1,25 13.4,25 13.3,25.8 		"/>
		<polygon class="st1" points="3,25.8 13.1,28.3 2.9,28.3 		"/>
		<polygon class="st1" points="3,25.8 13.3,25.8 13.1,28.3 		"/>
		<polygon class="st1" points="2.9,28.3 13.2,30.8 3,30.8 		"/>
		<polygon class="st1" points="2.9,28.3 13.1,28.3 13.2,30.8 		"/>
		<polygon class="st1" points="3,30.8 13.6,31.9 3.1,31.9 		"/>
		<polygon class="st1" points="3,30.8 13.2,30.8 13.6,31.9 		"/>
		<polygon class="st1" points="3.1,31.9 13.8,33.1 3.4,33.1 		"/>
		<polygon class="st1" points="3.1,31.9 13.6,31.9 13.8,33.1 		"/>
		<polygon class="st1" points="3.4,33.1 12.6,35.3 3.8,35.3 		"/>
		<polygon class="st1" points="3.4,33.1 13.8,33.1 12.6,35.3 		"/>
		<polygon class="st1" points="3.8,35.3 10.7,38.6 4.9,38.6 		"/>
		<polygon class="st1" points="3.8,35.3 12.6,35.3 10.7,38.6 		"/>
		<polygon class="st2" points="31.2,3 34.6,3.6 30.8,3.6 		"/>
		<polygon class="st2" points="30.8,3.6 37.8,4.7 30.2,4.7 		"/>
		<polygon class="st2" points="30.8,3.6 34.6,3.6 37.8,4.7 		"/>
		<polygon class="st2" points="30.2,4.7 40.8,6.1 29.4,6.1 		"/>
		<polygon class="st2" points="30.2,4.7 37.8,4.7 40.8,6.1 		"/>
		<polygon class="st2" points="29.4,6.1 43.7,7.9 28.3,7.9 		"/>
		<polygon class="st2" points="29.4,6.1 40.8,6.1 43.7,7.9 		"/>
		<path class="st2" d="M28.3,7.9L28.3,7.9z"/>
		<polygon class="st2" points="28.3,7.9 46.2,10.2 29.6,10.2 		"/>
		<polygon class="st2" points="28.3,7.9 43.7,7.9 46.2,10.2 		"/>
		<polygon class="st2" points="29.6,10.2 48.5,12.7 31.1,12.7 		"/>
		<polygon class="st2" points="29.6,10.2 46.2,10.2 48.5,12.7 		"/>
		<polygon class="st2" points="31.1,12.7 49,13.4 31.4,13.4 		"/>
		<polygon class="st2" points="31.1,12.7 48.5,12.7 49,13.4 		"/>
		<polygon class="st2" points="31.4,13.4 49.4,14.2 34,14.2 		"/>
		<polygon class="st2" points="31.4,13.4 49,13.4 49.4,14.2 		"/>
		<polygon class="st2" points="34,14.2 50.3,15.4 36.4,15.4 		"/>
		<polygon class="st2" points="34,14.2 49.4,14.2 50.3,15.4 		"/>
		<polygon class="st2" points="36.4,15.4 50.4,15.5 36.6,15.5 		"/>
		<polygon class="st2" points="36.4,15.4 50.3,15.4 50.4,15.5 		"/>
		<polygon class="st2" points="36.6,15.5 51,16.8 38.4,16.8 		"/>
		<polygon class="st2" points="36.6,15.5 50.4,15.5 51,16.8 		"/>
		<polygon class="st2" points="38.4,16.8 51.8,18.5 40,18.5 		"/>
		<polygon class="st2" points="38.4,16.8 51,16.8 51.8,18.5 		"/>
		<polygon class="st2" points="40,18.5 52,18.7 40.2,18.7 		"/>
		<polygon class="st2" points="40,18.5 51.8,18.5 52,18.7 		"/>
		<polygon class="st2" points="40.2,18.7 52.7,20.9 41.8,20.9 		"/>
		<polygon class="st2" points="40.2,18.7 52,18.7 52.7,20.9 		"/>
		<polygon class="st2" points="41.8,20.9 52.9,21.7 42.1,21.7 		"/>
		<polygon class="st2" points="41.8,20.9 52.7,20.9 52.9,21.7 		"/>
		<polygon class="st2" points="42.1,21.7 53.3,23.3 42.8,23.3 		"/>
		<polygon class="st2" points="42.1,21.7 52.9,21.7 53.3,23.3 		"/>
		<polygon class="st2" points="42.8,23.3 53.6,25 43.2,25 		"/>
		<polygon class="st2" points="42.8,23.3 53.3,23.3 53.6,25 		"/>
		<polygon class="st2" points="43.2,25 53.6,25.8 43.4,25.8 		"/>
		<polygon class="st2" points="43.2,25 53.6,25 53.6,25.8 		"/>
		<polygon class="st2" points="43.4,25.8 53.9,28.3 43.7,28.3 		"/>
		<polygon class="st2" points="43.4,25.8 53.6,25.8 53.9,28.3 		"/>
		<polygon class="st2" points="43.7,28.3 53.8,30.8 43.4,30.8 		"/>
		<polygon class="st2" points="43.7,28.3 53.9,28.3 53.8,30.8 		"/>
		<polygon class="st2" points="43.4,30.8 53.6,31.9 43.2,31.9 		"/>
		<polygon class="st2" points="43.4,30.8 53.8,30.8 53.6,31.9 		"/>
		<polygon class="st2" points="43.2,31.9 53.4,33.1 42.8,33.1 		"/>
		<polygon class="st2" points="43.2,31.9 53.6,31.9 53.4,33.1 		"/>
		<polygon class="st2" points="42.8,33.1 52.9,35.3 44.2,35.3 		"/>
		<polygon class="st2" points="42.8,33.1 53.4,33.1 52.9,35.3 		"/>
		<polygon class="st2" points="44.2,35.3 51.7,38.6 46.1,38.6 		"/>
		<polygon class="st2" points="44.2,35.3 52.9,35.3 51.7,38.6 		"/>
		<line class="st3" x1="28.3" y1="7.9" x2="31.4" y2="13.4"/>
		<polyline class="st4" points="43.6,28.3 43.4,26.6 43.2,24.8 42.7,23.3 42,21.6 41.2,20.2 40.2,18.7 39,17.4 37.7,16.3 36.2,15.4 
			34.7,14.5 33.1,13.8 31.4,13.4 		"/>
		<polyline class="st4" points="42.8,33.2 43.1,32 43.3,30.8 43.6,29.6 43.6,28.4 		"/>
		<polyline class="st3" points="42.8,33.1 46.1,38.6 51.7,38.6 		"/>
		<polyline class="st4" points="51.6,38.6 52.3,37 52.8,35.3 53.3,33.6 53.5,31.9 53.8,30.2 53.8,28.4 		"/>
		<polyline class="st4" points="53.8,28.3 53.6,26 53.3,23.8 52.8,21.5 52.1,19.2 51.1,17.2 50,15.1 48.7,13.2 47.3,11.4 45.7,9.7 
			43.9,8.2 42,6.8 40,5.8 37.9,4.8 35.8,4 33.5,3.4 31.2,3 		"/>
		<line class="st3" x1="31.2" y1="3" x2="28.3" y2="7.9"/>
		<line class="st3" x1="46.1" y1="38.6" x2="39.7" y2="38.6"/>
		<polyline class="st4" points="16.9,38.5 18.2,39.7 19.7,40.9 21.2,41.9 22.9,42.6 24.7,43.1 26.5,43.4 28.3,43.6 30.1,43.4 
			31.9,43.1 33.7,42.6 35.4,41.9 37,40.9 38.4,39.7 39.7,38.5 		"/>
		<polyline class="st3" points="16.9,38.6 10.7,38.6 7.8,43.6 		"/>
		<polyline class="st4" points="7.8,43.4 9.5,45.5 11.4,47.3 13.4,49 15.7,50.4 18,51.6 20.5,52.6 23,53.2 25.7,53.6 28.3,53.8 
			31,53.6 33.6,53.2 36.1,52.6 38.6,51.6 40.9,50.4 43.2,49 45.2,47.3 47.2,45.5 48.8,43.4 		"/>
		<path class="st3" d="M6.2,41.2l-1.4,2.5 M48.8,43.6L46,38.6"/>
		<polyline class="st4" points="4.9,43.7 6.5,46 8.3,48 10.3,49.9 12.6,51.6 15,53 17.5,54.2 20,55.2 22.8,55.8 25.6,56.3 
			28.3,56.4 31.1,56.3 33.8,55.8 36.6,55.2 39.1,54.2 41.6,53 44,51.6 46.3,49.9 48.4,48 50.2,46 51.7,43.7 		"/>
		<path class="st3" d="M41.6,36h-3.1 M52,43.7l-1.6-2.5"/>
		<polyline class="st4" points="18.1,36 19.2,37.2 20.5,38.4 21.8,39.2 23.4,40.1 25,40.6 26.6,40.9 28.3,41 30,40.9 31.7,40.6 
			33.2,40.1 34.8,39.2 36.1,38.4 37.4,37.2 38.5,36 		"/>
		<path class="st3" d="M50.4,41.2h3 M18.1,36h-3"/>
		<polyline class="st4" points="53.3,41 54.1,39 55,37 55.6,34.8 55.9,32.6 56.2,30.5 56.3,28.3 		"/>
		<polyline class="st4" points="56.3,28.3 56.2,25.7 55.8,23 55.2,20.5 54.2,18 53.2,15.6 51.8,13.2 50.3,11 48.6,9.1 46.7,7.2 
			44.6,5.6 42.4,4.2 40,2.9 37.6,1.9 35,1.2 32.4,0.7 29.8,0.4 		"/>
		<path class="st3" d="M28.3,13.1l1.6,2.6 M29.8,0.4l-1.4,2.5"/>
		<polyline class="st4" points="41,28.3 40.9,26.8 40.7,25.3 40.2,23.8 39.6,22.4 38.8,21.1 37.8,19.9 36.7,18.8 35.5,17.9 34.2,17 
			32.9,16.4 31.3,16 29.9,15.7 		"/>
		<polyline class="st4" points="40,33.5 40.4,32.3 40.8,31 40.9,29.8 41,28.4 		"/>
		<line class="st3" x1="40.1" y1="33.4" x2="41.6" y2="36"/>
		<polyline class="st4" points="25.4,3.1 23.2,3.5 20.9,4.1 18.7,4.9 16.7,5.9 14.6,7 12.7,8.3 10.9,9.8 9.4,11.5 7.9,13.3 
			6.6,15.2 5.5,17.3 4.6,19.3 3.8,21.6 3.4,23.9 3,26.2 2.9,28.4 		"/>
		<polyline class="st4" points="2.9,28.3 2.9,30.1 3.1,31.8 3.4,33.5 3.8,35.2 4.3,36.8 5,38.5 		"/>
		<polyline class="st3" points="4.9,38.6 10.7,38.6 13.8,33.1 		"/>
		<polyline class="st4" points="13.1,28.4 13.1,29.6 13.3,30.8 13.6,32 13.8,33.2 		"/>
		<polyline class="st4" points="25.2,13.4 23.5,13.8 22,14.5 20.4,15.4 19,16.3 17.6,17.4 16.4,18.7 15.5,20.2 14.6,21.6 13.9,23.3 
			13.4,24.8 13.2,26.6 13.1,28.3 		"/>
		<polyline class="st3" points="25.2,13.4 28.3,7.9 25.6,3 		"/>
		<line class="st3" x1="15.1" y1="36" x2="16.7" y2="33.4"/>
		<polyline class="st4" points="15.6,28.3 15.7,29.6 15.8,30.8 16.2,32.2 16.7,33.4 		"/>
		<polyline class="st4" points="26.8,15.8 25.3,16.1 23.8,16.6 22.4,17.2 21.1,18 19.9,19 18.8,20 17.9,21.2 17,22.6 16.4,23.9 
			16,25.4 15.7,26.9 15.6,28.4 		"/>
		<path class="st3" d="M28.3,2.9l-1.4-2.5 M26.9,15.7l1.4-2.6"/>
		<polyline class="st4" points="26.9,0.4 24.2,0.7 21.6,1.2 19.1,1.9 16.7,2.9 14.3,4.2 12,5.6 10,7.2 8,9.1 6.4,11 4.8,13.2 
			3.5,15.6 2.4,18 1.4,20.5 0.8,23 0.5,25.7 0.4,28.3 		"/>
		<polyline class="st4" points="0.4,28.3 0.5,30.5 0.7,32.6 1.1,34.8 1.7,37 2.5,39 3.4,41 		"/>
		<line class="st3" x1="3.4" y1="41.2" x2="6.2" y2="41.2"/>
	</g>
</g>
</svg>
