<?xml version="1.0" encoding="utf-8"?>
<!-- Generator: Adobe Illustrator 23.0.3, SVG Export Plug-In . SVG Version: 6.00 Build 0)  -->
<svg version="1.1" id="Livello_1" xmlns="http://www.w3.org/2000/svg" xmlns:xlink="http://www.w3.org/1999/xlink" x="0px" y="0px"
	 viewBox="0 0 281.2 56.8" style="enable-background:new 0 0 281.2 56.8;" xml:space="preserve">
<style type="text/css">
	.st0{fill:none;}
	.st1{enable-background:new    ;}
	.st2{fill:#FFFFFF;}
	.st3{font-family:'Abel-Regular';}
	.st4{font-size:12px;}
	.st5{letter-spacing:4;}
</style>
<rect x="119" y="21.9" class="st0" width="162.2" height="24.1"/>
<path class="st0" d="M33.9,24.9h217.9v12H33.9V24.9z"/>
<g class="st1">
	<path class="st2" d="M34.4,28.8H37v-2.6h0.8v2.6h2.6v0.8h-2.6v2.6H37v-2.6h-2.6V28.8z"/>
	<path class="st2" d="M45.3,31.9v1.5h-0.8v-1.5h-3.4v-0.4l3.7-6.6h0.4v6.2h0.7v0.7H45.3z M44.6,27l-2.3,4.2h2.3V27z"/>
	<path class="st2" d="M47.9,33.3v-0.7h2v-7l-2,0.8v-0.7l2-0.8h0.8v7.7h2v0.7H47.9z"/>
	<path class="st2" d="M56.6,29.8c0-0.7,0.1-1.3,0.2-1.8s0.3-1.1,0.5-1.6s0.5-0.9,0.8-1.4s0.6-0.8,1-1.2l0.4,0.4
		c-0.3,0.3-0.6,0.7-0.9,1.1s-0.5,0.8-0.7,1.3s-0.3,1-0.5,1.5s-0.2,1.1-0.2,1.6c0,0.6,0.1,1.1,0.2,1.6s0.3,1,0.5,1.5s0.4,0.9,0.7,1.3
		s0.6,0.8,0.9,1.1l-0.4,0.4c-0.4-0.4-0.7-0.7-1-1.2s-0.6-0.9-0.8-1.4s-0.4-1-0.5-1.6S56.6,30.5,56.6,29.8z"/>
	<path class="st2" d="M65,32.2c-0.1,0.2-0.3,0.5-0.4,0.7s-0.4,0.3-0.7,0.4s-0.5,0.2-0.8,0.2h-0.4c-0.3,0-0.6-0.1-0.8-0.2
		s-0.5-0.3-0.7-0.4s-0.3-0.4-0.4-0.7s-0.2-0.5-0.2-0.8v-4.5c0-0.3,0.1-0.6,0.2-0.8s0.3-0.5,0.4-0.7s0.4-0.3,0.7-0.4s0.5-0.2,0.8-0.2
		h0.4c0.3,0,0.6,0.1,0.8,0.2s0.5,0.3,0.7,0.4s0.3,0.4,0.4,0.7s0.2,0.5,0.2,0.8v4.5C65.2,31.7,65.2,32,65,32.2z M64.5,26.9
		c0-0.2,0-0.4-0.1-0.5s-0.2-0.3-0.3-0.4s-0.3-0.2-0.4-0.3s-0.3-0.1-0.5-0.1h-0.3c-0.2,0-0.4,0-0.5,0.1s-0.3,0.2-0.4,0.3
		s-0.2,0.3-0.3,0.4s-0.1,0.3-0.1,0.5v4.5c0,0.2,0,0.4,0.1,0.5s0.2,0.3,0.3,0.4s0.3,0.2,0.4,0.3s0.3,0.1,0.5,0.1h0.3
		c0.2,0,0.4,0,0.5-0.1s0.3-0.2,0.4-0.3s0.2-0.3,0.3-0.4s0.1-0.3,0.1-0.5V26.9z"/>
	<path class="st2" d="M69.3,29.8c0,0.6-0.1,1.3-0.2,1.8s-0.3,1.1-0.5,1.6s-0.5,0.9-0.8,1.4s-0.6,0.8-1,1.2l-0.4-0.4
		c0.3-0.3,0.6-0.7,0.9-1.1s0.5-0.8,0.7-1.3s0.3-1,0.5-1.5s0.2-1.1,0.2-1.6c0-0.6-0.1-1.1-0.2-1.6s-0.3-1-0.5-1.5s-0.4-0.9-0.7-1.3
		s-0.6-0.8-0.9-1.1l0.4-0.4c0.4,0.4,0.7,0.7,1,1.2s0.6,0.9,0.8,1.4s0.4,1,0.5,1.6S69.3,29.2,69.3,29.8z"/>
	<path class="st2" d="M75.3,32.2c-0.1,0.2-0.3,0.5-0.4,0.7s-0.4,0.3-0.7,0.4s-0.5,0.2-0.8,0.2h-0.4c-0.3,0-0.6-0.1-0.8-0.2
		s-0.5-0.3-0.7-0.4s-0.3-0.4-0.4-0.7S71,31.7,71,31.4v-0.2l0.8-0.1v0.3c0,0.2,0,0.4,0.1,0.5s0.2,0.3,0.3,0.4s0.3,0.2,0.4,0.3
		s0.3,0.1,0.5,0.1h0.3c0.2,0,0.4,0,0.5-0.1s0.3-0.2,0.4-0.3s0.2-0.3,0.3-0.4s0.1-0.3,0.1-0.5v-2.1c-0.2,0.2-0.4,0.4-0.7,0.5
		c-0.3,0.1-0.6,0.2-0.9,0.2h-0.1c-0.3,0-0.6-0.1-0.8-0.2c-0.2-0.1-0.5-0.3-0.7-0.4s-0.3-0.4-0.4-0.7S71,28.2,71,27.9v-1.1
		c0-0.3,0.1-0.6,0.2-0.8s0.3-0.5,0.4-0.7s0.4-0.3,0.7-0.4s0.5-0.2,0.8-0.2h0.4c0.3,0,0.6,0.1,0.8,0.2s0.5,0.3,0.7,0.4
		s0.3,0.4,0.4,0.7s0.2,0.5,0.2,0.8v4.5C75.5,31.7,75.5,32,75.3,32.2z M74.8,26.9c0-0.2,0-0.4-0.1-0.5s-0.2-0.3-0.3-0.4
		s-0.3-0.2-0.4-0.3s-0.3-0.1-0.5-0.1h-0.3c-0.2,0-0.4,0-0.5,0.1s-0.3,0.2-0.4,0.3s-0.2,0.3-0.3,0.4s-0.1,0.3-0.1,0.5v1.1
		c0,0.2,0,0.4,0.1,0.5s0.2,0.3,0.3,0.4s0.3,0.2,0.4,0.3s0.3,0.1,0.5,0.1h0.3c0.2,0,0.4,0,0.5-0.1s0.3-0.2,0.4-0.3s0.2-0.3,0.3-0.4
		s0.1-0.3,0.1-0.5V26.9z"/>
	<path class="st2" d="M77.2,33.3v-0.7h2v-7l-2,0.8v-0.7l2-0.8h0.8v7.7h2v0.7H77.2z"/>
	<path class="st2" d="M90.5,32.2c-0.1,0.2-0.3,0.5-0.4,0.7s-0.4,0.3-0.7,0.4s-0.5,0.2-0.8,0.2h-0.4c-0.3,0-0.6-0.1-0.8-0.2
		s-0.5-0.3-0.7-0.4s-0.3-0.4-0.4-0.7s-0.2-0.5-0.2-0.8v-0.2l0.8-0.1v0.3c0,0.2,0,0.4,0.1,0.5s0.2,0.3,0.3,0.4s0.3,0.2,0.4,0.3
		s0.3,0.1,0.5,0.1h0.3c0.2,0,0.4,0,0.5-0.1s0.3-0.2,0.4-0.3s0.2-0.3,0.3-0.4s0.1-0.3,0.1-0.5v-2.1c-0.2,0.2-0.4,0.4-0.7,0.5
		c-0.3,0.1-0.6,0.2-0.9,0.2h-0.1c-0.3,0-0.6-0.1-0.8-0.2c-0.2-0.1-0.5-0.3-0.7-0.4s-0.3-0.4-0.4-0.7s-0.2-0.5-0.2-0.8v-1.1
		c0-0.3,0.1-0.6,0.2-0.8s0.3-0.5,0.4-0.7s0.4-0.3,0.7-0.4s0.5-0.2,0.8-0.2h0.4c0.3,0,0.6,0.1,0.8,0.2s0.5,0.3,0.7,0.4
		s0.3,0.4,0.4,0.7s0.2,0.5,0.2,0.8v4.5C90.6,31.7,90.6,32,90.5,32.2z M89.9,26.9c0-0.2,0-0.4-0.1-0.5s-0.2-0.3-0.3-0.4
		s-0.3-0.2-0.4-0.3s-0.3-0.1-0.5-0.1h-0.3c-0.2,0-0.4,0-0.5,0.1s-0.3,0.2-0.4,0.3s-0.2,0.3-0.3,0.4s-0.1,0.3-0.1,0.5v1.1
		c0,0.2,0,0.4,0.1,0.5s0.2,0.3,0.3,0.4s0.3,0.2,0.4,0.3s0.3,0.1,0.5,0.1h0.3c0.2,0,0.4,0,0.5-0.1s0.3-0.2,0.4-0.3s0.2-0.3,0.3-0.4
		s0.1-0.3,0.1-0.5V26.9z"/>
	<path class="st2" d="M96.7,32.2c-0.1,0.2-0.3,0.5-0.4,0.7s-0.4,0.3-0.7,0.4s-0.5,0.2-0.8,0.2h-0.4c-0.3,0-0.6-0.1-0.8-0.2
		s-0.5-0.3-0.7-0.4s-0.3-0.4-0.4-0.7s-0.2-0.5-0.2-0.8v-0.2l0.8-0.1v0.3c0,0.2,0,0.4,0.1,0.5s0.2,0.3,0.3,0.4s0.3,0.2,0.4,0.3
		s0.3,0.1,0.5,0.1h0.3c0.2,0,0.4,0,0.5-0.1s0.3-0.2,0.4-0.3s0.2-0.3,0.3-0.4s0.1-0.3,0.1-0.5v-2.1c-0.2,0.2-0.4,0.4-0.7,0.5
		c-0.3,0.1-0.6,0.2-0.9,0.2h-0.1c-0.3,0-0.6-0.1-0.8-0.2c-0.2-0.1-0.5-0.3-0.7-0.4s-0.3-0.4-0.4-0.7s-0.2-0.5-0.2-0.8v-1.1
		c0-0.3,0.1-0.6,0.2-0.8s0.3-0.5,0.4-0.7s0.4-0.3,0.7-0.4s0.5-0.2,0.8-0.2h0.4c0.3,0,0.6,0.1,0.8,0.2s0.5,0.3,0.7,0.4
		s0.3,0.4,0.4,0.7s0.2,0.5,0.2,0.8v4.5C96.8,31.7,96.8,32,96.7,32.2z M96.1,26.9c0-0.2,0-0.4-0.1-0.5s-0.2-0.3-0.3-0.4
		s-0.3-0.2-0.4-0.3s-0.3-0.1-0.5-0.1h-0.3c-0.2,0-0.4,0-0.5,0.1s-0.3,0.2-0.4,0.3s-0.2,0.3-0.3,0.4s-0.1,0.3-0.1,0.5v1.1
		c0,0.2,0,0.4,0.1,0.5s0.2,0.3,0.3,0.4s0.3,0.2,0.4,0.3s0.3,0.1,0.5,0.1h0.3c0.2,0,0.4,0,0.5-0.1s0.3-0.2,0.4-0.3s0.2-0.3,0.3-0.4
		s0.1-0.3,0.1-0.5V26.9z"/>
	<path class="st2" d="M102.7,32.2c-0.1,0.2-0.3,0.5-0.4,0.7s-0.4,0.3-0.7,0.4s-0.5,0.2-0.8,0.2h-0.4c-0.3,0-0.6-0.1-0.8-0.2
		S99.2,33,99,32.9s-0.3-0.4-0.4-0.7s-0.2-0.5-0.2-0.8v-0.1h0.8v0.1c0,0.2,0,0.4,0.1,0.5s0.2,0.3,0.3,0.4s0.3,0.2,0.4,0.3
		s0.3,0.1,0.5,0.1h0.3c0.2,0,0.4,0,0.5-0.1s0.3-0.2,0.4-0.3s0.2-0.3,0.3-0.4s0.1-0.3,0.1-0.5v-1.6c0-0.2,0-0.4-0.1-0.5
		s-0.2-0.3-0.3-0.4s-0.3-0.2-0.4-0.3s-0.3-0.1-0.5-0.1h-0.3c-0.2,0-0.4,0-0.5,0.1s-0.3,0.2-0.4,0.3s-0.2,0.3-0.3,0.4
		s-0.1,0.3-0.1,0.5h-0.8l0.5-4.8h3.6v0.7h-2.9l-0.3,2.6c0.2-0.2,0.4-0.3,0.6-0.4s0.5-0.1,0.8-0.1h0.1c0.3,0,0.6,0.1,0.8,0.2
		s0.5,0.3,0.7,0.4s0.3,0.4,0.4,0.7s0.2,0.5,0.2,0.8v1.6C102.9,31.7,102.8,32,102.7,32.2z"/>
	<path class="st2" d="M107.4,33.3v-0.7h2v-7l-2,0.8v-0.7l2-0.8h0.8v7.7h2v0.7H107.4z"/>
	<path class="st2" d="M113.6,33.3v-0.7h2v-7l-2,0.8v-0.7l2-0.8h0.8v7.7h2v0.7H113.6z"/>
	<path class="st2" d="M124.4,25.5c-0.2,0-0.4,0-0.5,0.1s-0.3,0.2-0.4,0.3s-0.2,0.3-0.3,0.4s-0.1,0.3-0.1,0.5v0.3l-0.8-0.1v-0.2
		c0-0.3,0.1-0.6,0.2-0.8s0.3-0.5,0.4-0.7s0.4-0.3,0.7-0.4s0.5-0.2,0.8-0.2h0.4c0.3,0,0.6,0.1,0.8,0.2s0.5,0.2,0.7,0.4
		s0.3,0.4,0.4,0.7s0.2,0.6,0.2,0.9c0,0.3,0,0.7-0.1,1s-0.2,0.7-0.4,1s-0.3,0.6-0.6,0.9c-0.2,0.3-0.4,0.6-0.6,0.9
		c-0.5,0.6-1.1,1.2-1.7,1.8h3.5v0.7h-4.7v-0.6c0.7-0.6,1.4-1.2,2-1.9c0.2-0.3,0.5-0.6,0.7-0.9c0.2-0.3,0.4-0.6,0.6-1s0.3-0.7,0.4-1
		s0.2-0.7,0.2-1c0-0.2,0-0.5-0.1-0.6s-0.2-0.3-0.3-0.5s-0.3-0.2-0.4-0.3s-0.3-0.1-0.5-0.1H124.4z"/>
	<path class="st2" d="M130.3,25.5c-0.2,0-0.4,0-0.5,0.1s-0.3,0.2-0.4,0.3s-0.2,0.3-0.3,0.4s-0.1,0.3-0.1,0.5v0.3l-0.8-0.1v-0.2
		c0-0.3,0.1-0.6,0.2-0.8s0.3-0.5,0.4-0.7s0.4-0.3,0.7-0.4s0.5-0.2,0.8-0.2h0.4c0.3,0,0.6,0.1,0.8,0.2s0.5,0.2,0.7,0.4
		s0.3,0.4,0.4,0.7s0.2,0.6,0.2,0.9c0,0.3,0,0.7-0.1,1s-0.2,0.7-0.4,1s-0.3,0.6-0.6,0.9c-0.2,0.3-0.4,0.6-0.6,0.9
		c-0.5,0.6-1.1,1.2-1.7,1.8h3.5v0.7H128v-0.6c0.7-0.6,1.4-1.2,2-1.9c0.2-0.3,0.5-0.6,0.7-0.9c0.2-0.3,0.4-0.6,0.6-1s0.3-0.7,0.4-1
		s0.2-0.7,0.2-1c0-0.2,0-0.5-0.1-0.6s-0.2-0.3-0.3-0.5s-0.3-0.2-0.4-0.3s-0.3-0.1-0.5-0.1H130.3z"/>
</g>
<text transform="matrix(1 0 0 1 133.5005 33.3455)" class="st2 st3 st4 st5"> </text>
<g class="st1">
	<path class="st2" d="M159.4,25.9v-1h0.8v1H159.4z M159.4,33.3v-6h0.7v6H159.4z"/>
	<path class="st2" d="M165.1,33.3V29c0-0.1,0-0.3-0.1-0.4s-0.1-0.2-0.2-0.3s-0.2-0.2-0.3-0.2s-0.3-0.1-0.4-0.1h-0.5
		c-0.1,0-0.3,0-0.4,0.1s-0.2,0.1-0.3,0.2s-0.2,0.2-0.2,0.3s-0.1,0.3-0.1,0.4v4.4h-0.7v-6h0.2l0.4,0.6c0.2-0.2,0.4-0.4,0.6-0.5
		s0.5-0.2,0.8-0.2h0.2c0.2,0,0.5,0,0.7,0.1s0.4,0.2,0.6,0.4s0.3,0.3,0.4,0.6s0.1,0.4,0.1,0.7v4.4H165.1z"/>
	<path class="st2" d="M169.3,25.6c-0.1,0-0.2,0-0.3,0.1s-0.2,0.1-0.3,0.2s-0.1,0.2-0.2,0.3s-0.1,0.2-0.1,0.3v0.8h1.4V28h-1.4v5.3
		h-0.7V28h-1.1v-0.7h1.1v-0.8c0-0.2,0-0.4,0.1-0.6s0.2-0.4,0.3-0.5s0.3-0.3,0.5-0.3s0.4-0.1,0.6-0.1h0.7v0.7H169.3z"/>
	<path class="st2" d="M174.6,32.4c-0.1,0.2-0.2,0.4-0.4,0.6s-0.3,0.3-0.6,0.4s-0.4,0.1-0.7,0.1h-0.5c-0.2,0-0.5,0-0.7-0.1
		s-0.4-0.2-0.6-0.4s-0.3-0.3-0.4-0.6s-0.1-0.4-0.1-0.7V29c0-0.2,0-0.5,0.1-0.7s0.2-0.4,0.4-0.6s0.3-0.3,0.6-0.4s0.4-0.1,0.7-0.1h0.5
		c0.2,0,0.5,0,0.7,0.1s0.4,0.2,0.6,0.4s0.3,0.3,0.4,0.6s0.1,0.4,0.1,0.7v2.7C174.7,31.9,174.7,32.2,174.6,32.4z M174,29
		c0-0.1,0-0.3-0.1-0.4s-0.1-0.2-0.2-0.3s-0.2-0.2-0.3-0.2s-0.3-0.1-0.4-0.1h-0.5c-0.1,0-0.3,0-0.4,0.1s-0.2,0.1-0.3,0.2
		s-0.2,0.2-0.2,0.3s-0.1,0.3-0.1,0.4v2.8c0,0.1,0,0.3,0.1,0.4s0.1,0.2,0.2,0.3s0.2,0.2,0.3,0.2s0.3,0.1,0.4,0.1h0.5
		c0.1,0,0.3,0,0.4-0.1s0.2-0.1,0.3-0.2s0.2-0.2,0.2-0.3s0.1-0.3,0.1-0.4V29z"/>
	<path class="st2" d="M183.1,31.9c-0.1,0.4,0,0.7,0.1,0.9s0.4,0.3,0.7,0.3c0.2,0,0.5-0.1,0.7-0.3s0.4-0.4,0.6-0.7s0.3-0.7,0.4-1.1
		s0.2-0.9,0.2-1.4c0-0.6-0.1-1.1-0.3-1.6s-0.4-0.9-0.7-1.3s-0.7-0.6-1.2-0.8s-1-0.3-1.6-0.3c-0.5,0-0.9,0.1-1.4,0.2
		s-0.8,0.3-1.2,0.6s-0.7,0.5-1,0.9s-0.6,0.7-0.8,1.1s-0.4,0.9-0.5,1.3c-0.1,0.5-0.2,1-0.2,1.5c0,0.6,0.1,1.1,0.2,1.6
		s0.4,0.9,0.7,1.3s0.7,0.7,1.1,0.9s1,0.3,1.6,0.3c0.2,0,0.4,0,0.6,0s0.4-0.1,0.6-0.1s0.4-0.1,0.5-0.2s0.3-0.1,0.4-0.2l0.2,0.6
		c-0.2,0.1-0.4,0.2-0.6,0.3s-0.4,0.2-0.6,0.2s-0.4,0.1-0.6,0.1s-0.4,0-0.6,0c-0.7,0-1.3-0.1-1.8-0.4s-1-0.6-1.4-1s-0.6-0.9-0.8-1.5
		s-0.3-1.2-0.3-1.8c0-0.6,0.1-1.1,0.2-1.7c0.1-0.5,0.3-1,0.6-1.5s0.6-0.9,0.9-1.3s0.8-0.7,1.2-1s0.9-0.5,1.4-0.7s1-0.2,1.6-0.2
		c0.7,0,1.3,0.1,1.9,0.4s1,0.6,1.4,1s0.7,0.9,0.9,1.5s0.3,1.2,0.3,1.8c0,0.3,0,0.6-0.1,1s-0.1,0.7-0.2,1s-0.2,0.6-0.4,0.9
		s-0.3,0.5-0.5,0.7s-0.4,0.4-0.7,0.5s-0.5,0.2-0.9,0.2c-0.2,0-0.4,0-0.6-0.1s-0.3-0.1-0.4-0.2s-0.2-0.2-0.3-0.3s-0.2-0.2-0.2-0.4
		c-0.2,0.2-0.4,0.4-0.7,0.5s-0.5,0.2-0.8,0.2h-0.2c-0.2,0-0.4,0-0.6-0.1s-0.3-0.2-0.5-0.3s-0.2-0.3-0.3-0.5s-0.1-0.4-0.1-0.6
		c0,0,0-0.1,0-0.1s0-0.1,0-0.1l0.4-2.7c0-0.2,0.1-0.5,0.2-0.7s0.3-0.4,0.5-0.6s0.4-0.3,0.6-0.4s0.5-0.1,0.7-0.1h0.2
		c0.3,0,0.6,0.1,0.8,0.2s0.4,0.3,0.5,0.5l0.5-0.6h0.2L183.1,31.9z M179.8,31.7C179.8,31.8,179.8,31.8,179.8,31.7c0,0.1,0,0.1,0,0.1
		c0,0.1,0,0.2,0.1,0.4s0.1,0.2,0.2,0.3s0.2,0.1,0.3,0.2s0.2,0.1,0.4,0.1h0.5c0.1,0,0.3,0,0.4-0.1s0.3-0.1,0.4-0.2s0.2-0.2,0.3-0.3
		s0.1-0.3,0.1-0.4l0.4-2.8c0,0,0,0,0-0.1s0-0.1,0-0.1c0-0.1,0-0.2-0.1-0.4s-0.1-0.2-0.2-0.3s-0.2-0.1-0.3-0.2s-0.2-0.1-0.4-0.1h-0.5
		c-0.1,0-0.3,0-0.4,0.1s-0.3,0.1-0.4,0.2s-0.2,0.2-0.3,0.3s-0.1,0.3-0.1,0.4L179.8,31.7z"/>
	<path class="st2" d="M189.9,28c-0.1,0-0.3,0-0.4,0.1s-0.2,0.1-0.3,0.2s-0.2,0.2-0.2,0.3s-0.1,0.3-0.1,0.4v4.3h-0.7v-6h0.2l0.4,0.6
		c0.2-0.2,0.4-0.4,0.6-0.5s0.5-0.2,0.8-0.2h0.4V28H189.9z"/>
	<path class="st2" d="M195.5,32.4c-0.1,0.2-0.2,0.4-0.4,0.6s-0.3,0.3-0.6,0.4s-0.4,0.1-0.7,0.1h-0.5c-0.2,0-0.5,0-0.7-0.1
		s-0.4-0.2-0.6-0.4s-0.3-0.3-0.4-0.6s-0.1-0.4-0.1-0.7V29c0-0.2,0-0.5,0.1-0.7s0.2-0.4,0.4-0.6s0.3-0.3,0.6-0.4s0.4-0.1,0.7-0.1h0.5
		c0.2,0,0.5,0,0.7,0.1s0.4,0.2,0.6,0.4s0.3,0.3,0.4,0.6s0.1,0.4,0.1,0.7v2.7C195.6,31.9,195.6,32.2,195.5,32.4z M194.9,29
		c0-0.1,0-0.3-0.1-0.4s-0.1-0.2-0.2-0.3s-0.2-0.2-0.3-0.2s-0.3-0.1-0.4-0.1h-0.5c-0.1,0-0.3,0-0.4,0.1s-0.2,0.1-0.3,0.2
		s-0.2,0.2-0.2,0.3s-0.1,0.3-0.1,0.4v2.8c0,0.1,0,0.3,0.1,0.4s0.1,0.2,0.2,0.3s0.2,0.2,0.3,0.2s0.3,0.1,0.4,0.1h0.5
		c0.1,0,0.3,0,0.4-0.1s0.2-0.1,0.3-0.2s0.2-0.2,0.2-0.3s0.1-0.3,0.1-0.4V29z"/>
	<path class="st2" d="M200.8,33.3l-0.4-0.6c-0.2,0.2-0.4,0.4-0.6,0.5s-0.5,0.2-0.8,0.2h-0.2c-0.2,0-0.5,0-0.7-0.1s-0.4-0.2-0.6-0.4
		s-0.3-0.3-0.4-0.6s-0.1-0.4-0.1-0.7v-4.4h0.7v4.4c0,0.1,0,0.3,0.1,0.4s0.1,0.2,0.2,0.3s0.2,0.2,0.3,0.2s0.3,0.1,0.4,0.1h0.5
		c0.1,0,0.3,0,0.4-0.1s0.2-0.1,0.3-0.2s0.2-0.2,0.2-0.3s0.1-0.3,0.1-0.4v-4.4h0.7v6H200.8z"/>
	<path class="st2" d="M205.8,33.3V29c0-0.1,0-0.3-0.1-0.4s-0.1-0.2-0.2-0.3s-0.2-0.2-0.3-0.2s-0.3-0.1-0.4-0.1h-0.5
		c-0.1,0-0.3,0-0.4,0.1s-0.2,0.1-0.3,0.2s-0.2,0.2-0.2,0.3s-0.1,0.3-0.1,0.4v4.4h-0.7v-6h0.2l0.4,0.6c0.2-0.2,0.4-0.4,0.6-0.5
		s0.5-0.2,0.8-0.2h0.2c0.2,0,0.5,0,0.7,0.1s0.4,0.2,0.6,0.4s0.3,0.3,0.4,0.6s0.1,0.4,0.1,0.7v4.4H205.8z"/>
	<path class="st2" d="M211.7,33.3l-0.4-0.6c-0.2,0.2-0.4,0.4-0.6,0.5s-0.5,0.2-0.8,0.2h-0.2c-0.2,0-0.5,0-0.7-0.1s-0.4-0.2-0.6-0.4
		s-0.3-0.3-0.4-0.6s-0.1-0.4-0.1-0.7V29c0-0.2,0-0.5,0.1-0.7s0.2-0.4,0.4-0.6s0.3-0.3,0.6-0.4s0.4-0.1,0.7-0.1h0.2
		c0.3,0,0.5,0.1,0.8,0.2s0.4,0.3,0.6,0.5v-2.9h0.7v8.4H211.7z M211.2,29c0-0.1,0-0.3-0.1-0.4s-0.1-0.2-0.2-0.3s-0.2-0.2-0.3-0.2
		s-0.3-0.1-0.4-0.1h-0.5c-0.1,0-0.3,0-0.4,0.1s-0.2,0.1-0.3,0.2s-0.2,0.2-0.2,0.3s-0.1,0.3-0.1,0.4v2.8c0,0.1,0,0.3,0.1,0.4
		s0.1,0.2,0.2,0.3s0.2,0.2,0.3,0.2s0.3,0.1,0.4,0.1h0.5c0.1,0,0.3,0,0.4-0.1s0.2-0.1,0.3-0.2s0.2-0.2,0.2-0.3s0.1-0.3,0.1-0.4V29z"
		/>
	<path class="st2" d="M213.3,29.7V29h2.2v0.7H213.3z"/>
	<path class="st2" d="M221,31.8c0,0.2,0,0.5-0.1,0.7s-0.2,0.4-0.4,0.5s-0.4,0.3-0.6,0.3s-0.5,0.1-0.7,0.1h-0.5c-0.2,0-0.5,0-0.7-0.1
		s-0.4-0.2-0.6-0.4s-0.3-0.3-0.4-0.6s-0.1-0.4-0.1-0.7v-0.2l0.7-0.1v0.4c0,0.1,0,0.3,0.1,0.4s0.1,0.2,0.2,0.3s0.2,0.2,0.4,0.2
		s0.3,0.1,0.4,0.1h0.5c0.1,0,0.3,0,0.4-0.1s0.3-0.1,0.4-0.2s0.2-0.2,0.2-0.3s0.1-0.2,0.1-0.4c0-0.2,0-0.4-0.1-0.5s-0.2-0.3-0.4-0.3
		s-0.3-0.2-0.5-0.2s-0.4-0.1-0.6-0.2s-0.4-0.1-0.6-0.2s-0.4-0.2-0.5-0.3s-0.3-0.3-0.4-0.5s-0.1-0.4-0.1-0.7c0-0.2,0-0.5,0.1-0.7
		s0.2-0.4,0.4-0.5s0.3-0.3,0.6-0.3s0.4-0.1,0.7-0.1h0.4c0.2,0,0.5,0,0.7,0.1s0.4,0.2,0.6,0.4s0.3,0.3,0.4,0.6s0.1,0.4,0.1,0.7v0
		l-0.7,0.1V29c0-0.1,0-0.3-0.1-0.4s-0.1-0.2-0.2-0.3s-0.2-0.2-0.3-0.2s-0.3-0.1-0.4-0.1h-0.4c-0.1,0-0.3,0-0.4,0.1s-0.2,0.1-0.3,0.2
		s-0.2,0.2-0.2,0.3s-0.1,0.2-0.1,0.4c0,0.2,0,0.4,0.1,0.5s0.2,0.2,0.4,0.3s0.3,0.2,0.5,0.2c0.2,0.1,0.4,0.1,0.6,0.2s0.4,0.1,0.6,0.2
		s0.4,0.2,0.5,0.3s0.3,0.3,0.4,0.5S221,31.5,221,31.8z"/>
	<path class="st2" d="M226.3,34.8c-0.1,0.2-0.2,0.4-0.4,0.5s-0.3,0.3-0.6,0.3s-0.4,0.1-0.7,0.1h-0.3c-0.2,0-0.5,0-0.7-0.1
		s-0.4-0.2-0.6-0.3s-0.3-0.3-0.4-0.5s-0.1-0.4-0.1-0.7v0c0-0.2,0-0.4,0.1-0.6s0.2-0.4,0.4-0.5c-0.2-0.1-0.3-0.3-0.4-0.5
		s-0.2-0.4-0.2-0.6c0-0.2,0-0.4,0.1-0.6s0.2-0.3,0.4-0.4c-0.2-0.2-0.3-0.4-0.4-0.6s-0.2-0.5-0.2-0.8V29c0-0.2,0-0.5,0.1-0.7
		s0.2-0.4,0.4-0.6s0.3-0.3,0.6-0.4s0.4-0.1,0.7-0.1h0.3c0.3,0,0.6,0.1,0.8,0.2s0.5,0.3,0.6,0.5l0.4-0.6h0.2v2.1c0,0.2,0,0.5-0.1,0.7
		s-0.2,0.4-0.4,0.6s-0.3,0.3-0.6,0.4s-0.4,0.1-0.7,0.1h-1c-0.1,0-0.2,0-0.2,0s-0.1,0.1-0.2,0.1s-0.1,0.1-0.1,0.2s0,0.2,0,0.2
		s0,0.2,0,0.2s0.1,0.1,0.1,0.2s0.1,0.1,0.2,0.1s0.2,0,0.2,0h1c0.2,0,0.5,0,0.7,0.1s0.4,0.2,0.6,0.3s0.3,0.3,0.4,0.5s0.1,0.4,0.1,0.7
		v0C226.4,34.3,226.4,34.6,226.3,34.8z M225.8,29c0-0.1,0-0.3-0.1-0.4s-0.1-0.2-0.2-0.3s-0.2-0.2-0.3-0.2s-0.3-0.1-0.4-0.1h-0.6
		c-0.1,0-0.3,0-0.4,0.1s-0.2,0.1-0.3,0.2s-0.2,0.2-0.2,0.3s-0.1,0.3-0.1,0.4v0.5c0,0.1,0,0.3,0.1,0.4c0.1,0.1,0.1,0.2,0.2,0.3
		s0.2,0.2,0.3,0.2s0.3,0.1,0.4,0.1h0.6c0.1,0,0.3,0,0.4-0.1s0.2-0.1,0.3-0.2s0.2-0.2,0.2-0.3c0.1-0.1,0.1-0.3,0.1-0.4V29z M225.7,34
		c0-0.1,0-0.3-0.1-0.4s-0.1-0.2-0.2-0.3s-0.2-0.1-0.3-0.2s-0.3-0.1-0.4-0.1h-0.4c-0.1,0-0.3,0-0.4,0.1s-0.2,0.1-0.3,0.2
		s-0.2,0.2-0.2,0.3s-0.1,0.2-0.1,0.4v0.1c0,0.1,0,0.3,0.1,0.4s0.1,0.2,0.2,0.3s0.2,0.1,0.3,0.2s0.3,0.1,0.4,0.1h0.4
		c0.1,0,0.3,0,0.4-0.1s0.2-0.1,0.3-0.2s0.2-0.2,0.2-0.3S225.7,34.3,225.7,34L225.7,34z"/>
	<path class="st2" d="M228,25.9v-1h0.8v1H228z M228,33.3v-6h0.7v6H228z"/>
	<path class="st2" d="M230.3,33.3v-0.9h0.9v0.9H230.3z"/>
	<path class="st2" d="M236.7,32.4c-0.1,0.2-0.2,0.4-0.4,0.6s-0.3,0.3-0.6,0.4s-0.4,0.1-0.7,0.1h-0.5c-0.2,0-0.5,0-0.7-0.1
		s-0.4-0.2-0.6-0.4s-0.3-0.3-0.4-0.6s-0.1-0.4-0.1-0.7V29c0-0.2,0-0.5,0.1-0.7s0.2-0.4,0.4-0.6s0.3-0.3,0.6-0.4s0.4-0.1,0.7-0.1h0.5
		c0.2,0,0.5,0,0.7,0.1s0.4,0.2,0.6,0.4s0.3,0.3,0.4,0.6s0.1,0.4,0.1,0.7v0.2l-0.7,0.1V29c0-0.1,0-0.3-0.1-0.4s-0.1-0.2-0.2-0.3
		s-0.2-0.2-0.3-0.2s-0.3-0.1-0.4-0.1h-0.5c-0.1,0-0.3,0-0.4,0.1s-0.2,0.1-0.3,0.2s-0.2,0.2-0.2,0.3s-0.1,0.3-0.1,0.4v2.8
		c0,0.1,0,0.3,0.1,0.4s0.1,0.2,0.2,0.3s0.2,0.2,0.3,0.2s0.3,0.1,0.4,0.1h0.5c0.1,0,0.3,0,0.4-0.1s0.2-0.1,0.3-0.2s0.2-0.2,0.2-0.3
		s0.1-0.3,0.1-0.4v-0.4l0.7,0.1v0.2C236.8,31.9,236.8,32.2,236.7,32.4z"/>
	<path class="st2" d="M242.1,32.4c-0.1,0.2-0.2,0.4-0.4,0.6s-0.3,0.3-0.6,0.4s-0.4,0.1-0.7,0.1H240c-0.2,0-0.5,0-0.7-0.1
		s-0.4-0.2-0.6-0.4s-0.3-0.3-0.4-0.6s-0.1-0.4-0.1-0.7V29c0-0.2,0-0.5,0.1-0.7s0.2-0.4,0.4-0.6s0.3-0.3,0.6-0.4s0.4-0.1,0.7-0.1h0.5
		c0.2,0,0.5,0,0.7,0.1s0.4,0.2,0.6,0.4s0.3,0.3,0.4,0.6s0.1,0.4,0.1,0.7v2.7C242.3,31.9,242.2,32.2,242.1,32.4z M241.5,29
		c0-0.1,0-0.3-0.1-0.4s-0.1-0.2-0.2-0.3S241,28,240.9,28s-0.3-0.1-0.4-0.1H240c-0.1,0-0.3,0-0.4,0.1s-0.2,0.1-0.3,0.2
		s-0.2,0.2-0.2,0.3S239,28.8,239,29v2.8c0,0.1,0,0.3,0.1,0.4s0.1,0.2,0.2,0.3s0.2,0.2,0.3,0.2s0.3,0.1,0.4,0.1h0.5
		c0.1,0,0.3,0,0.4-0.1s0.2-0.1,0.3-0.2s0.2-0.2,0.2-0.3s0.1-0.3,0.1-0.4V29z"/>
	<path class="st2" d="M250,33.3V29c0-0.1,0-0.3-0.1-0.4s-0.1-0.2-0.2-0.3s-0.2-0.2-0.3-0.2s-0.3-0.1-0.4-0.1h-0.4
		c-0.1,0-0.3,0-0.4,0.1s-0.2,0.1-0.3,0.2s-0.2,0.2-0.2,0.3s-0.1,0.3-0.1,0.4v4.4h-0.7V29c0-0.1,0-0.3-0.1-0.4s-0.1-0.2-0.2-0.3
		s-0.2-0.2-0.3-0.2s-0.3-0.1-0.4-0.1h-0.4c-0.1,0-0.3,0-0.4,0.1s-0.2,0.1-0.3,0.2s-0.2,0.2-0.2,0.3s-0.1,0.3-0.1,0.4v4.4h-0.7v-6
		h0.2l0.4,0.6c0.2-0.2,0.4-0.4,0.6-0.5s0.5-0.2,0.8-0.2h0.1c0.3,0,0.6,0.1,0.9,0.3s0.5,0.4,0.6,0.7c0.1-0.1,0.2-0.3,0.3-0.4
		s0.2-0.2,0.4-0.3s0.3-0.1,0.4-0.2s0.3-0.1,0.5-0.1h0.1c0.2,0,0.5,0,0.7,0.1s0.4,0.2,0.6,0.4s0.3,0.3,0.4,0.6s0.1,0.4,0.1,0.7v4.4
		H250z"/>
</g>
</svg>
