<?xml version="1.0" encoding="utf-8"?>
<!-- Generator: Adobe Illustrator 23.0.3, SVG Export Plug-In . SVG Version: 6.00 Build 0)  -->
<svg version="1.1" id="Livello_1" xmlns="http://www.w3.org/2000/svg" xmlns:xlink="http://www.w3.org/1999/xlink" x="0px" y="0px"
	 viewBox="0 0 276.1 51.7" style="enable-background:new 0 0 276.1 51.7;" xml:space="preserve">
<style type="text/css">
	.st0{fill-rule:evenodd;clip-rule:evenodd;fill:#646464;stroke:#646464;stroke-width:0.1;stroke-miterlimit:10;}
	.st1{fill:#646464;stroke:#646464;stroke-width:0.1;stroke-miterlimit:10;}
</style>
<g>
	<g id="Livello_1-2">
		<polygon class="st0" points="224.8,0.4 253.8,0.6 224.8,0.6 		"/>
		<polygon class="st0" points="224.8,0.4 250.3,0.4 253.8,0.6 		"/>
		<polygon class="st0" points="192.5,0.5 199.3,0.8 189,0.8 		"/>
		<polygon class="st0" points="192.5,0.5 196,0.5 199.3,0.8 		"/>
		<polygon class="st0" points="80.2,0.5 87.1,0.8 76.8,0.8 		"/>
		<polygon class="st0" points="80.2,0.5 83.6,0.5 87.1,0.8 		"/>
		<polygon class="st0" points="24.1,0.5 31,0.8 20.6,0.8 		"/>
		<polygon class="st0" points="24.1,0.5 27.6,0.5 31,0.8 		"/>
		<polygon class="st0" points="224.8,0.6 257.2,1.3 224.8,1.3 		"/>
		<polygon class="st0" points="224.8,0.6 253.8,0.6 257.2,1.3 		"/>
		<polygon class="st0" points="189,0.8 202.7,1.8 185.6,1.8 		"/>
		<polygon class="st0" points="189,0.8 199.3,0.8 202.7,1.8 		"/>
		<polygon class="st0" points="76.8,0.8 90.5,1.8 73.4,1.8 		"/>
		<polygon class="st0" points="76.8,0.8 87.1,0.8 90.5,1.8 		"/>
		<polygon class="st0" points="20.6,0.8 34.3,1.8 17.3,1.8 		"/>
		<polygon class="st0" points="20.6,0.8 31,0.8 34.3,1.8 		"/>
		<polygon class="st0" points="224.8,1.3 260.5,2.5 224.8,2.5 		"/>
		<polygon class="st0" points="224.8,1.3 257.2,1.3 260.5,2.5 		"/>
		<polygon class="st0" points="185.6,1.8 205.9,3.2 182.4,3.2 		"/>
		<polygon class="st0" points="185.6,1.8 202.7,1.8 205.9,3.2 		"/>
		<polygon class="st0" points="73.4,1.8 93.7,3.2 70.2,3.2 		"/>
		<polygon class="st0" points="73.4,1.8 90.5,1.8 93.7,3.2 		"/>
		<polygon class="st0" points="17.3,1.8 37.6,3.2 14,3.2 		"/>
		<polygon class="st0" points="17.3,1.8 34.3,1.8 37.6,3.2 		"/>
		<polygon class="st0" points="224.8,2.5 263.5,4.1 224.8,4.1 		"/>
		<polygon class="st0" points="224.8,2.5 260.5,2.5 263.5,4.1 		"/>
		<polygon class="st0" points="182.4,3.2 208.9,5 179.5,5 		"/>
		<polygon class="st0" points="182.4,3.2 205.9,3.2 208.9,5 		"/>
		<polygon class="st0" points="70.2,3.2 96.6,5 67.2,5 		"/>
		<polygon class="st0" points="70.2,3.2 93.7,3.2 96.6,5 		"/>
		<polygon class="st0" points="14,3.2 40.6,5 11,5 		"/>
		<polygon class="st0" points="14,3.2 37.6,3.2 40.6,5 		"/>
		<polygon class="st0" points="224.8,4.1 266.4,6.1 224.8,6.1 		"/>
		<polygon class="st0" points="224.8,4.1 263.5,4.1 266.4,6.1 		"/>
		<polygon class="st0" points="179.5,5 211.6,7.2 176.8,7.2 		"/>
		<polygon class="st0" points="179.5,5 208.9,5 211.6,7.2 		"/>
		<polygon class="st0" points="67.2,5 99.4,7.2 64.6,7.2 		"/>
		<polygon class="st0" points="67.2,5 96.6,5 99.4,7.2 		"/>
		<polygon class="st0" points="11,5 43.2,7.2 8.4,7.2 		"/>
		<polygon class="st0" points="11,5 40.6,5 43.2,7.2 		"/>
		<polygon class="st0" points="224.8,6.1 268.9,8.5 224.8,8.5 		"/>
		<polygon class="st0" points="224.8,6.1 266.4,6.1 268.9,8.5 		"/>
		<polygon class="st0" points="176.8,7.2 214,9.7 174.4,9.7 		"/>
		<polygon class="st0" points="176.8,7.2 211.6,7.2 214,9.7 		"/>
		<polygon class="st0" points="64.6,7.2 101.8,9.7 62.2,9.7 		"/>
		<polygon class="st0" points="64.6,7.2 99.4,7.2 101.8,9.7 		"/>
		<polygon class="st0" points="8.4,7.2 45.6,9.7 6,9.7 		"/>
		<polygon class="st0" points="8.4,7.2 43.2,7.2 45.6,9.7 		"/>
		<polygon class="st0" points="224.8,8.5 270.7,10.6 224.8,10.6 		"/>
		<polygon class="st0" points="224.8,8.5 268.9,8.5 270.7,10.6 		"/>
		<polygon class="st0" points="174.4,9.7 214.6,10.6 173.9,10.6 		"/>
		<polygon class="st0" points="174.4,9.7 214,9.7 214.6,10.6 		"/>
		<polygon class="st0" points="62.2,9.7 102.2,10.6 61.6,10.6 		"/>
		<polygon class="st0" points="62.2,9.7 101.8,9.7 102.2,10.6 		"/>
		<polygon class="st0" points="6,9.7 46.2,10.6 5.5,10.6 		"/>
		<polygon class="st0" points="6,9.7 45.6,9.7 46.2,10.6 		"/>
		<polygon class="st0" points="250.3,10.6 270.8,10.8 253,10.8 		"/>
		<polygon class="st0" points="250.3,10.6 270.7,10.6 270.8,10.8 		"/>
		<polygon class="st0" points="194.2,10.6 214.7,10.8 196.8,10.8 		"/>
		<polygon class="st0" points="194.2,10.6 214.6,10.6 214.7,10.8 		"/>
		<polygon class="st0" points="173.9,10.6 191.5,10.8 173.6,10.8 		"/>
		<polygon class="st0" points="173.9,10.6 194.2,10.6 191.5,10.8 		"/>
		<polygon class="st0" points="82,10.6 102.5,10.8 84.6,10.8 		"/>
		<polygon class="st0" points="82,10.6 102.2,10.6 102.5,10.8 		"/>
		<polygon class="st0" points="61.6,10.6 79.3,10.8 61.4,10.8 		"/>
		<polygon class="st0" points="61.6,10.6 82,10.6 79.3,10.8 		"/>
		<polygon class="st0" points="25.8,10.6 46.3,10.8 28.4,10.8 		"/>
		<polygon class="st0" points="25.8,10.6 46.2,10.6 46.3,10.8 		"/>
		<polygon class="st0" points="5.5,10.6 23.2,10.8 5.3,10.8 		"/>
		<polygon class="st0" points="5.5,10.6 25.8,10.6 23.2,10.8 		"/>
		<polygon class="st0" points="253,10.8 271.2,11.2 254.3,11.2 		"/>
		<polygon class="st0" points="253,10.8 270.8,10.8 271.2,11.2 		"/>
		<polygon class="st0" points="254.3,11.2 271.3,11.5 255.6,11.5 		"/>
		<polygon class="st0" points="254.3,11.2 271.2,11.2 271.3,11.5 		"/>
		<polygon class="st0" points="196.8,10.8 215.2,11.5 199.4,11.5 		"/>
		<polygon class="st0" points="196.8,10.8 214.7,10.8 215.2,11.5 		"/>
		<polygon class="st0" points="173.6,10.8 189,11.5 173.2,11.5 		"/>
		<polygon class="st0" points="173.6,10.8 191.5,10.8 189,11.5 		"/>
		<polygon class="st0" points="84.6,10.8 103,11.5 87.1,11.5 		"/>
		<polygon class="st0" points="84.6,10.8 102.5,10.8 103,11.5 		"/>
		<polygon class="st0" points="61.4,10.8 76.7,11.5 61,11.5 		"/>
		<polygon class="st0" points="61.4,10.8 79.3,10.8 76.7,11.5 		"/>
		<polygon class="st0" points="28.4,10.8 46.8,11.5 31.1,11.5 		"/>
		<polygon class="st0" points="28.4,10.8 46.3,10.8 46.8,11.5 		"/>
		<polygon class="st0" points="5.3,10.8 20.5,11.5 4.8,11.5 		"/>
		<polygon class="st0" points="5.3,10.8 23.2,10.8 20.5,11.5 		"/>
		<polygon class="st0" points="255.6,11.5 272,12.6 258,12.6 		"/>
		<polygon class="st0" points="255.6,11.5 271.3,11.5 272,12.6 		"/>
		<polygon class="st0" points="199.4,11.5 216,12.6 201.8,12.6 		"/>
		<polygon class="st0" points="199.4,11.5 215.2,11.5 216,12.6 		"/>
		<polygon class="st0" points="173.2,11.5 186.5,12.6 172.4,12.6 		"/>
		<polygon class="st0" points="173.2,11.5 189,11.5 186.5,12.6 		"/>
		<polygon class="st0" points="87.1,11.5 103.7,12.6 89.6,12.6 		"/>
		<polygon class="st0" points="87.1,11.5 103,11.5 103.7,12.6 		"/>
		<polygon class="st0" points="61,11.5 74.3,12.6 60.1,12.6 		"/>
		<polygon class="st0" points="61,11.5 76.7,11.5 74.3,12.6 		"/>
		<polygon class="st0" points="31.1,11.5 47.6,12.6 33.5,12.6 		"/>
		<polygon class="st0" points="31.1,11.5 46.8,11.5 47.6,12.6 		"/>
		<polygon class="st0" points="4.8,11.5 18.1,12.6 4,12.6 		"/>
		<polygon class="st0" points="4.8,11.5 20.5,11.5 18.1,12.6 		"/>
		<path class="st0" d="M201.8,12.6L201.8,12.6z"/>
		<path class="st0" d="M172.4,12.6L172.4,12.6z"/>
		<path class="st0" d="M89.6,12.6L89.6,12.6z"/>
		<path class="st0" d="M60.1,12.6L60.1,12.6z"/>
		<path class="st0" d="M33.5,12.6L33.5,12.6z"/>
		<path class="st0" d="M4,12.6L4,12.6z"/>
		<polygon class="st0" points="258,12.6 273,14.2 260.2,14.2 		"/>
		<polygon class="st0" points="258,12.6 272,12.6 273,14.2 		"/>
		<path class="st0" d="M260.2,14.2L260.2,14.2z"/>
		<polygon class="st0" points="201.8,12.6 216.7,14.2 204,14.2 		"/>
		<polygon class="st0" points="201.8,12.6 216,12.6 216.7,14.2 		"/>
		<polygon class="st0" points="172.4,12.6 184.3,14.2 171.6,14.2 		"/>
		<polygon class="st0" points="172.4,12.6 186.5,12.6 184.3,14.2 		"/>
		<polygon class="st0" points="89.6,12.6 104.5,14.2 91.8,14.2 		"/>
		<polygon class="st0" points="89.6,12.6 103.7,12.6 104.5,14.2 		"/>
		<polygon class="st0" points="60.1,12.6 72.1,14.2 59.4,14.2 		"/>
		<polygon class="st0" points="60.1,12.6 74.3,12.6 72.1,14.2 		"/>
		<polygon class="st0" points="33.5,12.6 48.4,14.2 35.6,14.2 		"/>
		<polygon class="st0" points="33.5,12.6 47.6,12.6 48.4,14.2 		"/>
		<polygon class="st0" points="4,12.6 16,14.2 3.2,14.2 		"/>
		<polygon class="st0" points="4,12.6 18.1,12.6 16,14.2 		"/>
		<polygon class="st0" points="204,14.2 217.6,15.7 205.6,15.7 		"/>
		<polygon class="st0" points="204,14.2 216.7,14.2 217.6,15.7 		"/>
		<polygon class="st0" points="171.6,14.2 182.8,15.7 170.8,15.7 		"/>
		<polygon class="st0" points="171.6,14.2 184.3,14.2 182.8,15.7 		"/>
		<polygon class="st0" points="91.8,14.2 105.4,15.7 93.4,15.7 		"/>
		<polygon class="st0" points="91.8,14.2 104.5,14.2 105.4,15.7 		"/>
		<polygon class="st0" points="59.4,14.2 70.6,15.7 58.6,15.7 		"/>
		<polygon class="st0" points="59.4,14.2 72.1,14.2 70.6,15.7 		"/>
		<polygon class="st0" points="35.6,14.2 49.2,15.7 37.2,15.7 		"/>
		<polygon class="st0" points="35.6,14.2 48.4,14.2 49.2,15.7 		"/>
		<polygon class="st0" points="3.2,14.2 14.4,15.7 2.4,15.7 		"/>
		<polygon class="st0" points="3.2,14.2 16,14.2 14.4,15.7 		"/>
		<polygon class="st0" points="260.2,14.2 273.8,16.1 262.1,16.1 		"/>
		<polygon class="st0" points="260.2,14.2 273,14.2 273.8,16.1 		"/>
		<polygon class="st0" points="205.6,15.7 217.7,16.1 205.9,16.1 		"/>
		<polygon class="st0" points="205.6,15.7 217.6,15.7 217.7,16.1 		"/>
		<polygon class="st0" points="170.8,15.7 182.4,16.1 170.6,16.1 		"/>
		<polygon class="st0" points="170.8,15.7 182.8,15.7 182.4,16.1 		"/>
		<polygon class="st0" points="93.4,15.7 105.5,16.1 93.6,16.1 		"/>
		<polygon class="st0" points="93.4,15.7 105.4,15.7 105.5,16.1 		"/>
		<polygon class="st0" points="58.6,15.7 70.2,16.1 58.4,16.1 		"/>
		<polygon class="st0" points="58.6,15.7 70.6,15.7 70.2,16.1 		"/>
		<polygon class="st0" points="37.2,15.7 49.3,16.1 37.6,16.1 		"/>
		<polygon class="st0" points="37.2,15.7 49.2,15.7 49.3,16.1 		"/>
		<polygon class="st0" points="2.4,15.7 14,16.1 2.3,16.1 		"/>
		<polygon class="st0" points="2.4,15.7 14.4,15.7 14,16.1 		"/>
		<polygon class="st0" points="262.1,16.1 274.3,17.3 262.9,17.3 		"/>
		<polygon class="st0" points="262.1,16.1 273.8,16.1 274.3,17.3 		"/>
		<polygon class="st0" points="262.9,17.3 274.6,18.2 263.5,18.2 		"/>
		<polygon class="st0" points="262.9,17.3 274.3,17.3 274.6,18.2 		"/>
		<polygon class="st0" points="205.9,16.1 218.5,18.2 207.5,18.2 		"/>
		<polygon class="st0" points="205.9,16.1 217.7,16.1 218.5,18.2 		"/>
		<polygon class="st0" points="170.6,16.1 181,18.2 169.9,18.2 		"/>
		<polygon class="st0" points="170.6,16.1 182.4,16.1 181,18.2 		"/>
		<polygon class="st0" points="93.6,16.1 106.2,18.2 95.2,18.2 		"/>
		<polygon class="st0" points="93.6,16.1 105.5,16.1 106.2,18.2 		"/>
		<polygon class="st0" points="58.4,16.1 68.6,18.2 57.6,18.2 		"/>
		<polygon class="st0" points="58.4,16.1 70.2,16.1 68.6,18.2 		"/>
		<polygon class="st0" points="37.6,16.1 50.2,18.2 39.1,18.2 		"/>
		<polygon class="st0" points="37.6,16.1 49.3,16.1 50.2,18.2 		"/>
		<polygon class="st0" points="2.3,16.1 12.6,18.2 1.6,18.2 		"/>
		<polygon class="st0" points="2.3,16.1 14,16.1 12.6,18.2 		"/>
		<polygon class="st0" points="207.5,18.2 218.8,19 207.8,19 		"/>
		<polygon class="st0" points="207.5,18.2 218.5,18.2 218.8,19 		"/>
		<polygon class="st0" points="169.9,18.2 180.6,19 169.6,19 		"/>
		<polygon class="st0" points="169.9,18.2 181,18.2 180.6,19 		"/>
		<polygon class="st0" points="95.2,18.2 106.4,19 95.5,19 		"/>
		<polygon class="st0" points="95.2,18.2 106.2,18.2 106.4,19 		"/>
		<polygon class="st0" points="57.6,18.2 68.3,19 57.4,19 		"/>
		<polygon class="st0" points="57.6,18.2 68.6,18.2 68.3,19 		"/>
		<polygon class="st0" points="39.1,18.2 50.4,19 39.5,19 		"/>
		<polygon class="st0" points="39.1,18.2 50.2,18.2 50.4,19 		"/>
		<polygon class="st0" points="1.6,18.2 12.2,19 1.2,19 		"/>
		<polygon class="st0" points="1.6,18.2 12.6,18.2 12.2,19 		"/>
		<polygon class="st0" points="263.5,18.2 275.3,20.6 264.7,20.6 		"/>
		<polygon class="st0" points="263.5,18.2 274.6,18.2 275.3,20.6 		"/>
		<polygon class="st0" points="207.8,19 219.1,20.6 208.6,20.6 		"/>
		<polygon class="st0" points="207.8,19 218.8,19 219.1,20.6 		"/>
		<polygon class="st0" points="169.6,19 179.8,20.6 169.3,20.6 		"/>
		<polygon class="st0" points="169.6,19 180.6,19 179.8,20.6 		"/>
		<polygon class="st0" points="95.5,19 106.8,20.6 96.4,20.6 		"/>
		<polygon class="st0" points="95.5,19 106.4,19 106.8,20.6 		"/>
		<polygon class="st0" points="57.4,19 67.6,20.6 57,20.6 		"/>
		<polygon class="st0" points="57.4,19 68.3,19 67.6,20.6 		"/>
		<polygon class="st0" points="39.5,19 50.8,20.6 40.2,20.6 		"/>
		<polygon class="st0" points="39.5,19 50.4,19 50.8,20.6 		"/>
		<polygon class="st0" points="1.2,19 11.4,20.6 1,20.6 		"/>
		<polygon class="st0" points="1.2,19 12.2,19 11.4,20.6 		"/>
		<path class="st0" d="M264.7,20.6L264.7,20.6z"/>
		<polygon class="st0" points="208.6,20.6 219.5,22.4 209,22.4 		"/>
		<polygon class="st0" points="208.6,20.6 219.1,20.6 219.5,22.4 		"/>
		<polygon class="st0" points="169.3,20.6 179.3,22.4 169,22.4 		"/>
		<polygon class="st0" points="169.3,20.6 179.8,20.6 179.3,22.4 		"/>
		<polygon class="st0" points="96.4,20.6 107.2,22.4 96.8,22.4 		"/>
		<polygon class="st0" points="96.4,20.6 106.8,20.6 107.2,22.4 		"/>
		<polygon class="st0" points="57,20.6 67.1,22.4 56.6,22.4 		"/>
		<polygon class="st0" points="57,20.6 67.6,20.6 67.1,22.4 		"/>
		<polygon class="st0" points="40.2,20.6 51.1,22.4 40.7,22.4 		"/>
		<polygon class="st0" points="40.2,20.6 50.8,20.6 51.1,22.4 		"/>
		<polygon class="st0" points="1,20.6 10.9,22.4 0.5,22.4 		"/>
		<polygon class="st0" points="1,20.6 11.4,20.6 10.9,22.4 		"/>
		<polygon class="st0" points="264.7,20.6 275.6,23.2 265.3,23.2 		"/>
		<polygon class="st0" points="264.7,20.6 275.3,20.6 275.6,23.2 		"/>
		<polygon class="st0" points="209,22.4 219.5,23.2 209.3,23.2 		"/>
		<polygon class="st0" points="209,22.4 219.5,22.4 219.5,23.2 		"/>
		<polygon class="st0" points="169,22.4 179.2,23.2 168.8,23.2 		"/>
		<polygon class="st0" points="169,22.4 179.3,22.4 179.2,23.2 		"/>
		<polygon class="st0" points="96.8,22.4 107.3,23.2 97,23.2 		"/>
		<polygon class="st0" points="96.8,22.4 107.2,22.4 107.3,23.2 		"/>
		<polygon class="st0" points="56.6,22.4 66.8,23.2 56.6,23.2 		"/>
		<polygon class="st0" points="56.6,22.4 67.1,22.4 66.8,23.2 		"/>
		<polygon class="st0" points="40.7,22.4 51.1,23.2 40.9,23.2 		"/>
		<polygon class="st0" points="40.7,22.4 51.1,22.4 51.1,23.2 		"/>
		<polygon class="st0" points="0.5,22.4 10.7,23.2 0.5,23.2 		"/>
		<polygon class="st0" points="0.5,22.4 10.9,22.4 10.7,23.2 		"/>
		<polygon class="st0" points="265.3,23.2 275.8,24.1 265.4,24.1 		"/>
		<polygon class="st0" points="265.3,23.2 275.6,23.2 275.8,24.1 		"/>
		<polygon class="st0" points="265.4,24.1 275.8,25.9 265.6,25.9 		"/>
		<polygon class="st0" points="265.4,24.1 275.8,24.1 275.8,25.9 		"/>
		<polygon class="st0" points="209.3,23.2 219.7,25.9 209.5,25.9 		"/>
		<polygon class="st0" points="209.3,23.2 219.5,23.2 219.7,25.9 		"/>
		<polygon class="st0" points="168.8,23.2 178.9,25.9 168.7,25.9 		"/>
		<polygon class="st0" points="168.8,23.2 179.2,23.2 178.9,25.9 		"/>
		<polygon class="st0" points="153.4,0.4 163.6,25.9 153.4,25.9 		"/>
		<polygon class="st0" points="153.4,0.4 163.6,0.4 163.6,25.9 		"/>
		<polygon class="st0" points="112.6,0.4 122.8,25.9 112.6,25.9 		"/>
		<polygon class="st0" points="112.6,0.4 122.8,0.4 122.8,25.9 		"/>
		<polygon class="st0" points="97,23.2 107.4,25.9 97.2,25.9 		"/>
		<polygon class="st0" points="97,23.2 107.3,23.2 107.4,25.9 		"/>
		<polygon class="st0" points="56.6,23.2 66.6,25.9 56.4,25.9 		"/>
		<polygon class="st0" points="56.6,23.2 66.8,23.2 66.6,25.9 		"/>
		<polygon class="st0" points="40.9,23.2 51.4,25.9 41.2,25.9 		"/>
		<polygon class="st0" points="40.9,23.2 51.1,23.2 51.4,25.9 		"/>
		<polygon class="st0" points="0.5,23.2 10.6,25.9 0.4,25.9 		"/>
		<polygon class="st0" points="0.5,23.2 10.7,23.2 10.6,25.9 		"/>
		<polygon class="st0" points="265.6,25.9 275.8,27.6 265.4,27.6 		"/>
		<polygon class="st0" points="265.6,25.9 275.8,25.9 275.8,27.6 		"/>
		<polygon class="st0" points="265.4,27.6 275.6,28.6 265.3,28.6 		"/>
		<polygon class="st0" points="265.4,27.6 275.8,27.6 275.6,28.6 		"/>
		<polygon class="st0" points="153.4,25.9 163.4,28.6 153.1,28.6 		"/>
		<polygon class="st0" points="153.4,25.9 163.6,25.9 163.4,28.6 		"/>
		<polygon class="st0" points="112.6,25.9 123,28.6 112.7,28.6 		"/>
		<polygon class="st0" points="112.6,25.9 122.8,25.9 123,28.6 		"/>
		<polygon class="st0" points="97.2,25.9 107.3,28.6 97,28.6 		"/>
		<polygon class="st0" points="97.2,25.9 107.4,25.9 107.3,28.6 		"/>
		<polygon class="st0" points="56.4,25.9 66.8,28.6 56.6,28.6 		"/>
		<polygon class="st0" points="56.4,25.9 66.6,25.9 66.8,28.6 		"/>
		<polygon class="st0" points="153.1,28.6 163.3,29.4 152.9,29.4 		"/>
		<polygon class="st0" points="153.1,28.6 163.4,28.6 163.3,29.4 		"/>
		<polygon class="st0" points="112.7,28.6 123.2,29.4 112.8,29.4 		"/>
		<polygon class="st0" points="112.7,28.6 123,28.6 123.2,29.4 		"/>
		<polygon class="st0" points="97,28.6 107.2,29.4 96.8,29.4 		"/>
		<polygon class="st0" points="97,28.6 107.3,28.6 107.2,29.4 		"/>
		<polygon class="st0" points="56.6,28.6 67.1,29.4 56.6,29.4 		"/>
		<polygon class="st0" points="56.6,28.6 66.8,28.6 67.1,29.4 		"/>
		<polygon class="st0" points="265.3,28.6 275.3,31.1 264.7,31.1 		"/>
		<polygon class="st0" points="265.3,28.6 275.6,28.6 275.3,31.1 		"/>
		<path class="st0" d="M264.7,31.1L264.7,31.1z"/>
		<polygon class="st0" points="152.9,29.4 163,31.1 152.4,31.1 		"/>
		<polygon class="st0" points="152.9,29.4 163.3,29.4 163,31.1 		"/>
		<polygon class="st0" points="112.8,29.4 123.7,31.1 113.2,31.1 		"/>
		<polygon class="st0" points="112.8,29.4 123.2,29.4 123.7,31.1 		"/>
		<polygon class="st0" points="96.8,29.4 106.8,31.1 96.4,31.1 		"/>
		<polygon class="st0" points="96.8,29.4 107.2,29.4 106.8,31.1 		"/>
		<polygon class="st0" points="56.6,29.4 67.6,31.1 57,31.1 		"/>
		<polygon class="st0" points="56.6,29.4 67.1,29.4 67.6,31.1 		"/>
		<polygon class="st0" points="152.4,31.1 162.6,32.8 151.7,32.8 		"/>
		<polygon class="st0" points="152.4,31.1 163,31.1 162.6,32.8 		"/>
		<polygon class="st0" points="113.2,31.1 124.4,32.8 113.5,32.8 		"/>
		<polygon class="st0" points="113.2,31.1 123.7,31.1 124.4,32.8 		"/>
		<polygon class="st0" points="96.4,31.1 106.4,32.8 95.5,32.8 		"/>
		<polygon class="st0" points="96.4,31.1 106.8,31.1 106.4,32.8 		"/>
		<polygon class="st0" points="57,31.1 68.3,32.8 57.4,32.8 		"/>
		<polygon class="st0" points="57,31.1 67.6,31.1 68.3,32.8 		"/>
		<polygon class="st0" points="264.7,31.1 274.6,33.5 263.5,33.5 		"/>
		<polygon class="st0" points="264.7,31.1 275.3,31.1 274.6,33.5 		"/>
		<polygon class="st0" points="151.7,32.8 162.4,33.5 151.3,33.5 		"/>
		<polygon class="st0" points="151.7,32.8 162.6,32.8 162.4,33.5 		"/>
		<polygon class="st0" points="113.5,32.8 124.8,33.5 113.8,33.5 		"/>
		<polygon class="st0" points="113.5,32.8 124.4,32.8 124.8,33.5 		"/>
		<polygon class="st0" points="95.5,32.8 106.2,33.5 95.2,33.5 		"/>
		<polygon class="st0" points="95.5,32.8 106.4,32.8 106.2,33.5 		"/>
		<polygon class="st0" points="57.4,32.8 68.6,33.5 57.6,33.5 		"/>
		<polygon class="st0" points="57.4,32.8 68.3,32.8 68.6,33.5 		"/>
		<polygon class="st0" points="263.5,33.5 274.3,34.4 262.9,34.4 		"/>
		<polygon class="st0" points="263.5,33.5 274.6,33.5 274.3,34.4 		"/>
		<polygon class="st0" points="262.9,34.4 273.8,35.8 262.1,35.8 		"/>
		<polygon class="st0" points="262.9,34.4 274.3,34.4 273.8,35.8 		"/>
		<polygon class="st0" points="151.3,33.5 161.5,35.8 149.8,35.8 		"/>
		<polygon class="st0" points="151.3,33.5 162.4,33.5 161.5,35.8 		"/>
		<polygon class="st0" points="113.8,33.5 126.4,35.8 114.6,35.8 		"/>
		<polygon class="st0" points="113.8,33.5 124.8,33.5 126.4,35.8 		"/>
		<polygon class="st0" points="95.2,33.5 105.5,35.8 93.6,35.8 		"/>
		<polygon class="st0" points="95.2,33.5 106.2,33.5 105.5,35.8 		"/>
		<polygon class="st0" points="57.6,33.5 70.2,35.8 58.4,35.8 		"/>
		<polygon class="st0" points="57.6,33.5 68.6,33.5 70.2,35.8 		"/>
		<polygon class="st0" points="149.8,35.8 161.4,36 149.4,36 		"/>
		<polygon class="st0" points="149.8,35.8 161.5,35.8 161.4,36 		"/>
		<polygon class="st0" points="114.6,35.8 126.6,36 114.6,36 		"/>
		<polygon class="st0" points="114.6,35.8 126.4,35.8 126.6,36 		"/>
		<polygon class="st0" points="93.6,35.8 105.4,36 93.4,36 		"/>
		<polygon class="st0" points="93.6,35.8 105.5,35.8 105.4,36 		"/>
		<polygon class="st0" points="58.4,35.8 70.6,36 58.6,36 		"/>
		<polygon class="st0" points="58.4,35.8 70.2,35.8 70.6,36 		"/>
		<polygon class="st0" points="0.4,25.9 25.8,36.1 0.4,36.1 		"/>
		<polygon class="st0" points="0.4,25.9 25.8,25.9 25.8,36.1 		"/>
		<polygon class="st0" points="262.1,35.8 273,37.6 260.2,37.6 		"/>
		<polygon class="st0" points="262.1,35.8 273.8,35.8 273,37.6 		"/>
		<polygon class="st0" points="149.4,36 160.7,37.6 147.8,37.6 		"/>
		<polygon class="st0" points="149.4,36 161.4,36 160.7,37.6 		"/>
		<polygon class="st0" points="114.6,36 128.2,37.6 115.4,37.6 		"/>
		<polygon class="st0" points="114.6,36 126.6,36 128.2,37.6 		"/>
		<polygon class="st0" points="93.4,36 104.5,37.6 91.8,37.6 		"/>
		<polygon class="st0" points="93.4,36 105.4,36 104.5,37.6 		"/>
		<polygon class="st0" points="58.6,36 72.1,37.6 59.4,37.6 		"/>
		<polygon class="st0" points="58.6,36 70.6,36 72.1,37.6 		"/>
		<path class="st0" d="M260.2,37.6L260.2,37.6z"/>
		<polygon class="st0" points="147.8,37.6 159.8,39.1 145.7,39.1 		"/>
		<polygon class="st0" points="147.8,37.6 160.7,37.6 159.8,39.1 		"/>
		<polygon class="st0" points="115.4,37.6 130.4,39.1 116.3,39.1 		"/>
		<polygon class="st0" points="115.4,37.6 128.2,37.6 130.4,39.1 		"/>
		<polygon class="st0" points="91.8,37.6 103.7,39.1 89.6,39.1 		"/>
		<polygon class="st0" points="91.8,37.6 104.5,37.6 103.7,39.1 		"/>
		<polygon class="st0" points="59.4,37.6 74.3,39.1 60.1,39.1 		"/>
		<polygon class="st0" points="59.4,37.6 72.1,37.6 74.3,39.1 		"/>
		<polygon class="st0" points="260.2,37.6 272,39.1 258,39.1 		"/>
		<polygon class="st0" points="260.2,37.6 273,37.6 272,39.1 		"/>
		<path class="st0" d="M145.7,39.1L145.7,39.1z"/>
		<path class="st0" d="M116.3,39.1L116.3,39.1z"/>
		<path class="st0" d="M89.6,39.1L89.6,39.1z"/>
		<path class="st0" d="M60.1,39.1L60.1,39.1z"/>
		<polygon class="st0" points="258,39.1 271.3,40.3 255.6,40.3 		"/>
		<polygon class="st0" points="258,39.1 272,39.1 271.3,40.3 		"/>
		<polygon class="st0" points="145.7,39.1 159,40.3 143.3,40.3 		"/>
		<polygon class="st0" points="145.7,39.1 159.8,39.1 159,40.3 		"/>
		<polygon class="st0" points="116.3,39.1 132.8,40.3 117,40.3 		"/>
		<polygon class="st0" points="116.3,39.1 130.4,39.1 132.8,40.3 		"/>
		<polygon class="st0" points="89.6,39.1 103,40.3 87.1,40.3 		"/>
		<polygon class="st0" points="89.6,39.1 103.7,39.1 103,40.3 		"/>
		<polygon class="st0" points="60.1,39.1 76.7,40.3 61,40.3 		"/>
		<polygon class="st0" points="60.1,39.1 74.3,39.1 76.7,40.3 		"/>
		<polygon class="st0" points="255.6,40.3 271.2,40.6 254.3,40.6 		"/>
		<polygon class="st0" points="255.6,40.3 271.3,40.3 271.2,40.6 		"/>
		<polygon class="st0" points="254.3,40.6 270.8,40.9 253,40.9 		"/>
		<polygon class="st0" points="254.3,40.6 271.2,40.6 270.8,40.9 		"/>
		<polygon class="st0" points="143.3,40.3 158.5,40.9 140.8,40.9 		"/>
		<polygon class="st0" points="143.3,40.3 159,40.3 158.5,40.9 		"/>
		<polygon class="st0" points="117,40.3 135.4,40.9 117.6,40.9 		"/>
		<polygon class="st0" points="117,40.3 132.8,40.3 135.4,40.9 		"/>
		<polygon class="st0" points="87.1,40.3 102.5,40.9 84.6,40.9 		"/>
		<polygon class="st0" points="87.1,40.3 103,40.3 102.5,40.9 		"/>
		<polygon class="st0" points="61,40.3 79.3,40.9 61.4,40.9 		"/>
		<polygon class="st0" points="61,40.3 76.7,40.3 79.3,40.9 		"/>
		<polygon class="st0" points="253,40.9 270.7,41.2 250.3,41.2 		"/>
		<polygon class="st0" points="253,40.9 270.8,40.9 270.7,41.2 		"/>
		<polygon class="st0" points="140.8,40.9 158.4,41.2 138,41.2 		"/>
		<polygon class="st0" points="140.8,40.9 158.5,40.9 158.4,41.2 		"/>
		<polygon class="st0" points="117.6,40.9 138,41.2 117.7,41.2 		"/>
		<polygon class="st0" points="117.6,40.9 135.4,40.9 138,41.2 		"/>
		<polygon class="st0" points="84.6,40.9 102.2,41.2 82,41.2 		"/>
		<polygon class="st0" points="84.6,40.9 102.5,40.9 102.2,41.2 		"/>
		<polygon class="st0" points="61.4,40.9 82,41.2 61.6,41.2 		"/>
		<polygon class="st0" points="61.4,40.9 79.3,40.9 82,41.2 		"/>
		<polygon class="st0" points="117.7,41.2 157.8,42 118.3,42 		"/>
		<polygon class="st0" points="117.7,41.2 158.4,41.2 157.8,42 		"/>
		<polygon class="st0" points="61.6,41.2 101.8,42 62.2,42 		"/>
		<polygon class="st0" points="61.6,41.2 102.2,41.2 101.8,42 		"/>
		<polygon class="st0" points="224.8,41.2 268.9,43.3 224.8,43.3 		"/>
		<polygon class="st0" points="224.8,41.2 270.7,41.2 268.9,43.3 		"/>
		<polygon class="st0" points="118.3,42 155.5,44.5 120.6,44.5 		"/>
		<polygon class="st0" points="118.3,42 157.8,42 155.5,44.5 		"/>
		<polygon class="st0" points="62.2,42 99.4,44.5 64.6,44.5 		"/>
		<polygon class="st0" points="62.2,42 101.8,42 99.4,44.5 		"/>
		<polygon class="st0" points="224.8,43.3 266.4,45.7 224.8,45.7 		"/>
		<polygon class="st0" points="224.8,43.3 268.9,43.3 266.4,45.7 		"/>
		<polygon class="st0" points="120.6,44.5 152.8,46.7 123.4,46.7 		"/>
		<polygon class="st0" points="120.6,44.5 155.5,44.5 152.8,46.7 		"/>
		<polygon class="st0" points="64.6,44.5 96.6,46.7 67.2,46.7 		"/>
		<polygon class="st0" points="64.6,44.5 99.4,44.5 96.6,46.7 		"/>
		<polygon class="st0" points="224.8,45.7 263.5,47.6 224.8,47.6 		"/>
		<polygon class="st0" points="224.8,45.7 266.4,45.7 263.5,47.6 		"/>
		<polygon class="st0" points="123.4,46.7 149.8,48.5 126.4,48.5 		"/>
		<polygon class="st0" points="123.4,46.7 152.8,46.7 149.8,48.5 		"/>
		<polygon class="st0" points="67.2,46.7 93.7,48.5 70.2,48.5 		"/>
		<polygon class="st0" points="67.2,46.7 96.6,46.7 93.7,48.5 		"/>
		<polygon class="st0" points="224.8,47.6 260.5,49.3 224.8,49.3 		"/>
		<polygon class="st0" points="224.8,47.6 263.5,47.6 260.5,49.3 		"/>
		<polygon class="st0" points="126.4,48.5 146.6,49.9 129.5,49.9 		"/>
		<polygon class="st0" points="126.4,48.5 149.8,48.5 146.6,49.9 		"/>
		<polygon class="st0" points="70.2,48.5 90.5,49.9 73.4,49.9 		"/>
		<polygon class="st0" points="70.2,48.5 93.7,48.5 90.5,49.9 		"/>
		<polygon class="st0" points="224.8,49.3 257.2,50.4 224.8,50.4 		"/>
		<polygon class="st0" points="224.8,49.3 260.5,49.3 257.2,50.4 		"/>
		<polygon class="st0" points="129.5,49.9 143.3,50.9 132.8,50.9 		"/>
		<polygon class="st0" points="129.5,49.9 146.6,49.9 143.3,50.9 		"/>
		<polygon class="st0" points="73.4,49.9 87.1,50.9 76.8,50.9 		"/>
		<polygon class="st0" points="73.4,49.9 90.5,49.9 87.1,50.9 		"/>
		<polygon class="st0" points="224.8,50.4 253.8,51.1 224.8,51.1 		"/>
		<polygon class="st0" points="224.8,50.4 257.2,50.4 253.8,51.1 		"/>
		<polygon class="st0" points="132.8,50.9 139.8,51.4 136.3,51.4 		"/>
		<polygon class="st0" points="132.8,50.9 143.3,50.9 139.8,51.4 		"/>
		<polygon class="st0" points="76.8,50.9 83.6,51.4 80.2,51.4 		"/>
		<polygon class="st0" points="76.8,50.9 87.1,50.9 83.6,51.4 		"/>
		<polygon class="st0" points="224.8,51.1 250.3,51.4 224.8,51.4 		"/>
		<polygon class="st0" points="224.8,51.1 253.8,51.1 250.3,51.4 		"/>
		<polygon class="st0" points="209.5,25.9 219.7,51.4 209.5,51.4 		"/>
		<polygon class="st0" points="209.5,25.9 219.7,25.9 219.7,51.4 		"/>
		<polygon class="st0" points="168.7,25.9 178.9,51.4 168.7,51.4 		"/>
		<polygon class="st0" points="168.7,25.9 178.9,25.9 178.9,51.4 		"/>
		<polygon class="st0" points="0.4,36.1 10.6,51.4 0.4,51.4 		"/>
		<polygon class="st0" points="0.4,36.1 10.6,36.1 10.6,51.4 		"/>
		<polyline class="st1" points="224.8,0.4 224.8,10.6 250.3,10.6 		"/>
		<polyline class="st1" points="250.3,41.2 224.8,41.2 224.8,51.4 250.3,51.4 		"/>
		<line class="st1" x1="250.3" y1="0.4" x2="224.8" y2="0.4"/>
		<polyline class="st1" points="168.7,51.4 178.9,51.4 178.9,25.9 		"/>
		<polyline class="st1" points="209.5,25.9 209.5,51.4 219.7,51.4 219.7,25.9 		"/>
		<path class="st1" d="M112.6,0.4v25.6 M168.7,25.9v25.4"/>
		<polyline class="st1" points="163.6,25.9 163.6,0.4 153.4,0.4 153.4,25.9 		"/>
		<polyline class="st1" points="122.8,25.9 122.8,0.4 112.6,0.4 		"/>
		<polyline class="st1" points="0.4,51.4 10.6,51.4 10.6,36.1 25.8,36.1 25.8,25.9 10.6,25.9 		"/>
		<line class="st1" x1="41.2" y1="25.9" x2="51.4" y2="25.9"/>
		<line class="st1" x1="0.4" y1="25.9" x2="0.4" y2="51.4"/>
	</g>
</g>
</svg>
