<?xml version="1.0" encoding="utf-8"?>
<!-- Generator: Adobe Illustrator 23.0.3, SVG Export Plug-In . SVG Version: 6.00 Build 0)  -->
<svg version="1.1" id="Livello_1" xmlns="http://www.w3.org/2000/svg" xmlns:xlink="http://www.w3.org/1999/xlink" x="0px" y="0px"
	 viewBox="0 0 276.1 51.7" style="enable-background:new 0 0 276.1 51.7;" xml:space="preserve">
<style type="text/css">
	.st0{fill-rule:evenodd;clip-rule:evenodd;fill:#B3B3B3;}
</style>
<path class="st0" d="M0.1,25.9v25.8h10.2V36.2h15.3V25.9H10.3c0-5.5,2.9-10.7,7.7-13.4c4.7-2.8,10.6-2.8,15.3,0
	c4.8,2.7,7.7,7.8,7.7,13.4h10.2c0-9.2-4.9-17.7-12.7-22.3c-7.9-4.6-17.7-4.6-25.6,0C4.9,8.2,0.1,16.7,0.1,25.9z M97.1,25.9
	c0-8.5-6.8-15.5-15.3-15.5c-8.5,0-15.4,7-15.4,15.5c0,8.5,6.8,15.5,15.4,15.5C90.3,41.3,97.1,34.4,97.1,25.9z M107.4,25.9
	c0-14.2-11.4-25.8-25.5-25.8c-14.2,0-25.6,11.6-25.6,25.8c0,14.2,11.4,25.8,25.6,25.8C95.9,51.6,107.4,40.1,107.4,25.9z M122.7,0.1
	h-10.2v25.8c0,9.2,4.8,17.7,12.7,22.3c8,4.6,17.7,4.6,25.6,0c8-4.5,12.8-13.1,12.8-22.3V0.1h-10.2v25.8c0,5.5-3,10.6-7.7,13.4
	c-4.8,2.8-10.6,2.8-15.4,0c-4.7-2.8-7.7-7.9-7.7-13.4V0.1z M168.7,25.9v25.8h10.2V25.9c0-5.5,3-10.7,7.7-13.4
	c4.8-2.8,10.6-2.8,15.4,0c4.7,2.7,7.7,7.8,7.7,13.4v25.8h10.2V25.9c0-9.2-4.9-17.7-12.8-22.3c-7.9-4.6-17.6-4.6-25.5,0
	C173.6,8.2,168.7,16.7,168.7,25.9z M250.5,0.1h-25.6v10.3h25.6c5.5,0,10.6,3,13.3,7.7c2.7,4.8,2.7,10.7,0,15.5
	c-2.8,4.8-7.8,7.7-13.3,7.7h-25.6v10.3h25.6c9.2,0,17.6-4.9,22.2-12.9c4.5-8,4.5-17.8,0-25.8C268.1,5,259.6,0.1,250.5,0.1z"/>
</svg>
