<?xml version="1.0" encoding="utf-8"?>
<!-- Generator: Adobe Illustrator 23.0.3, SVG Export Plug-In . SVG Version: 6.00 Build 0)  -->
<svg version="1.1" id="Livello_1" xmlns="http://www.w3.org/2000/svg" xmlns:xlink="http://www.w3.org/1999/xlink" x="0px" y="0px"
	 viewBox="0 0 281.2 56.8" style="enable-background:new 0 0 281.2 56.8;" xml:space="preserve">
<style type="text/css">
	.st0{fill:none;stroke:#FFFFFF;stroke-width:0.41;stroke-linecap:round;stroke-linejoin:round;}
	.st1{fill:#E20E18;}
	.st2{fill:#1B9DD9;}
	.st3{fill:#54AE32;}
</style>
<g>
	<g id="Livello_1-2">
		<path class="st0" d="M62.3,40.9"/>
		<polygon class="st1" points="102.1,38.4 105,43.3 103.7,44.9 102.3,46.5 100.7,47.8 99.1,49.1 97.3,50.2 95.5,51.2 93.6,52 
			91.6,52.7 89.6,53.2 87.5,53.5 85.5,53.7 83.4,53.7 81.3,53.5 79.3,53.2 77.3,52.7 75.3,52 73.4,51.2 71.6,50.2 69.8,49.1 
			68.2,47.8 66.6,46.5 65.2,44.9 63.9,43.3 66.7,38.4 73,38.4 74.2,39.5 75.4,40.5 76.8,41.4 78.2,42.2 79.7,42.7 81.2,43.2 
			82.8,43.4 84.4,43.5 86.1,43.4 87.6,43.2 89.2,42.7 90.7,42.2 92.1,41.4 93.4,40.5 94.7,39.5 95.8,38.4 		"/>
		<polygon class="st2" points="99,33 102.1,38.4 107.8,38.4 108.6,36.4 109.2,34.4 109.6,32.4 109.9,30.3 110,28.2 109.9,26.1 
			109.6,24.1 109.2,22 108.6,20 107.9,18.1 107,16.2 105.9,14.5 104.8,12.8 103.5,11.2 102,9.7 100.4,8.3 98.8,7.1 97,6 95.2,5 
			93.3,4.3 91.3,3.6 89.3,3.1 87.3,2.8 84.4,7.8 87.6,13.2 89.1,13.6 90.6,14.2 92.1,14.9 93.4,15.8 94.7,16.8 95.8,17.9 96.8,19.2 
			97.7,20.5 98.4,21.9 99,23.5 99.4,25 99.7,26.6 99.8,28.2 99.7,29.8 99.4,31.4 		"/>
		<polygon class="st3" points="69.9,33 66.7,38.4 61,38.4 60.3,36.4 59.7,34.4 59.3,32.4 59,30.3 58.9,28.2 59,26.1 59.3,24.1 
			59.6,22 60.2,20 61,18.1 61.8,16.2 62.9,14.5 64.1,12.8 65.4,11.2 66.8,9.7 68.4,8.3 70.1,7.1 71.8,6 73.6,5 75.5,4.3 77.5,3.6 
			79.5,3.1 81.6,2.8 84.4,7.8 81.3,13.2 79.7,13.6 78.2,14.2 76.8,14.9 75.5,15.8 74.2,16.8 73.1,17.9 72,19.2 71.2,20.5 70.5,21.9 
			69.9,23.5 69.5,25 69.2,26.6 69.1,28.2 69.2,29.8 69.5,31.4 		"/>
		<polyline class="st0" points="102.1,38.4 105,43.3 103.7,44.9 102.3,46.5 100.7,47.8 99.1,49.1 97.3,50.2 95.5,51.2 93.6,52 
			91.6,52.7 89.6,53.2 87.5,53.5 85.5,53.7 83.4,53.7 81.3,53.5 79.3,53.2 77.3,52.7 75.3,52 73.4,51.2 71.6,50.2 69.8,49.1 
			68.2,47.8 66.6,46.5 65.2,44.9 63.9,43.3 66.7,38.4 73,38.4 74.2,39.5 75.4,40.5 76.8,41.4 78.2,42.2 79.7,42.7 81.2,43.2 
			82.8,43.4 84.4,43.5 86.1,43.4 87.6,43.2 89.2,42.7 90.7,42.2 92.1,41.4 93.4,40.5 94.7,39.5 95.8,38.4 102.1,38.4 		"/>
		<polyline class="st0" points="99,33 102.1,38.4 107.8,38.4 108.6,36.4 109.2,34.4 109.6,32.4 109.9,30.3 110,28.2 109.9,26.1 
			109.6,24.1 109.2,22 108.6,20 107.9,18.1 107,16.2 105.9,14.5 104.8,12.8 103.5,11.2 102,9.7 100.4,8.3 98.8,7.1 97,6 95.2,5 
			93.3,4.3 91.3,3.6 89.3,3.1 87.3,2.8 84.4,7.8 87.6,13.2 89.1,13.6 90.6,14.2 92.1,14.9 93.4,15.8 94.7,16.8 95.8,17.9 96.8,19.2 
			97.7,20.5 98.4,21.9 99,23.5 99.4,25 99.7,26.6 99.8,28.2 99.7,29.8 99.4,31.4 99,33 		"/>
		<polyline class="st0" points="69.9,33 66.7,38.4 61,38.4 60.3,36.4 59.7,34.4 59.3,32.4 59,30.3 58.9,28.2 59,26.1 59.3,24.1 
			59.6,22 60.2,20 61,18.1 61.8,16.2 62.9,14.5 64.1,12.8 65.4,11.2 66.8,9.7 68.4,8.3 70.1,7.1 71.8,6 73.6,5 75.5,4.3 77.5,3.6 
			79.5,3.1 81.6,2.8 84.4,7.8 81.3,13.2 79.7,13.6 78.2,14.2 76.8,14.9 75.5,15.8 74.2,16.8 73.1,17.9 72,19.2 71.2,20.5 70.5,21.9 
			69.9,23.5 69.5,25 69.2,26.6 69.1,28.2 69.2,29.8 69.5,31.4 69.9,33 		"/>
	</g>
</g>
</svg>
