<?xml version="1.0" encoding="utf-8"?>
<!-- Generator: Adobe Illustrator 23.0.3, SVG Export Plug-In . SVG Version: 6.00 Build 0)  -->
<svg version="1.1" id="Livello_1" xmlns="http://www.w3.org/2000/svg" xmlns:xlink="http://www.w3.org/1999/xlink" x="0px" y="0px"
	 viewBox="0 0 2069.3 2069.3" style="enable-background:new 0 0 2069.3 2069.3;" xml:space="preserve">
<style type="text/css">
	.st0{fill:#1D1D1B;stroke:#FFFFFF;stroke-width:0.216;stroke-linejoin:bevel;}
	.st1{fill-rule:evenodd;clip-rule:evenodd;fill:#FFFFFF;}
	.st2{fill:#1D1D1B;}
</style>
<ellipse class="st0" cx="1034.9" cy="1033.1" rx="19.6" ry="17.7"/>
<path class="st1" d="M1050.1,1032.2c0-8.5-6.9-15.4-15.4-15.4c-8.6,0-15.4,6.9-15.4,15.4c0,8.5,6.9,15.4,15.4,15.4
	C1043.3,1047.6,1050.1,1040.7,1050.1,1032.2z M1060.4,1032.2c0-14.1-11.5-25.6-25.6-25.6c-14.2,0-25.7,11.5-25.7,25.6
	c0,14.1,11.5,25.6,25.7,25.6C1048.9,1057.8,1060.4,1046.3,1060.4,1032.2z"/>
<polygon class="st2" points="450.2,0 1618.8,0 1034.7,1011.5 "/>
<title>Risorsa 1</title>
<polygon class="st2" points="1010.4,1043.1 1016.5,1043 1011.5,1051.3 "/>
<polygon class="st2" points="0,1043.4 1016.5,1043 425.4,2069.3 0,2069.3 "/>
<polygon class="st2" points="1052.9,1043 2069.3,1043 2069.3,2069.3 1645.2,2069.3 "/>
<polygon class="st2" points="1017.7,1042.2 1034.6,1013 1051.7,1042.2 "/>
<title>Risorsa 1</title>
</svg>
