<?xml version="1.0" encoding="utf-8"?>
<!-- Generator: Adobe Illustrator 23.0.3, SVG Export Plug-In . SVG Version: 6.00 Build 0)  -->
<svg version="1.1" id="Livello_1" xmlns="http://www.w3.org/2000/svg" xmlns:xlink="http://www.w3.org/1999/xlink" x="0px" y="0px"
	 viewBox="0 0 281.2 56.8" style="enable-background:new 0 0 281.2 56.8;" xml:space="preserve">
<style type="text/css">
	.st0{fill:#646464;stroke:#666666;stroke-width:0.72;stroke-linecap:round;stroke-linejoin:round;stroke-miterlimit:10;}
	.st1{fill:none;stroke:#646464;stroke-width:12;stroke-linecap:round;stroke-linejoin:bevel;stroke-miterlimit:10;}
	.st2{fill:#646464;stroke:#646464;stroke-width:0.72;stroke-linecap:round;stroke-linejoin:round;stroke-miterlimit:10;}
</style>
<rect x="228.2" y="0.9" class="st0" width="11.2" height="39.4"/>
<circle class="st1" cx="89.8" cy="28.4" r="22.1"/>
<polyline class="st2" points="45.3,28.5 45.2,26.2 44.8,24.2 44,22.1 43.1,20.1 41.9,18.4 40.5,16.7 38.8,15.3 37.1,14.1 35.1,13.2 
	33.1,12.4 31,12 28.8,11.9 26.5,12 24.5,12.4 22.4,13.2 20.5,14.1 18.7,15.3 17,16.7 15.6,18.4 14.4,20.1 13.5,22.1 12.7,24.2 
	12.3,26.2 12.2,28.5 12.2,56.1 1.1,56.1 1.1,28.5 1.3,25.6 1.8,22.7 2.4,19.9 3.5,17.2 4.8,14.6 6.3,12.2 8.2,9.9 10.2,7.9 12.5,6 
	14.9,4.5 17.5,3.2 20.2,2.1 23,1.5 25.9,1 28.8,0.8 31.6,1 34.5,1.5 37.4,2.1 40,3.2 42.6,4.5 45,6 47.3,7.9 49.3,9.9 51.2,12.2 
	52.7,14.6 54,17.2 55.1,19.9 55.7,22.7 56.3,25.6 56.4,28.5 56.5,28.5 56.5,56.1 45.4,56.1 45.4,28.5 "/>
<polyline class="st2" points="167.3,28.5 167.3,0.7 178.4,0.7 178.4,28.5 178.5,28.5 178.6,30.7 179,32.8 179.8,34.8 180.7,36.7 
	181.9,38.5 183.3,40.2 185,41.6 186.8,42.8 188.7,43.7 190.7,44.5 192.8,44.9 195,45 197.3,44.9 199.3,44.5 201.4,43.7 203.4,42.8 
	205.1,41.6 206.8,40.2 208.2,38.5 209.4,36.7 210.3,34.8 211.1,32.8 211.5,30.7 211.6,28.5 211.6,0.7 222.7,0.7 222.7,28.5 
	222.5,31.3 222,34.2 221.4,36.9 220.3,39.7 219,42.1 217.5,44.6 215.6,46.8 213.7,48.9 211.5,50.7 209,52.3 206.5,53.6 203.8,54.6 
	201,55.4 198.2,55.9 195.3,56.1 192.4,55.9 189.6,55.6 186.8,54.8 184.1,53.9 181.5,52.6 179.1,51 176.8,49.3 174.8,47.2 172.9,45 
	172.8,45 170.8,47.2 168.8,49.3 166.5,51 164.2,52.6 161.5,53.9 158.8,54.8 156.1,55.6 153.2,55.9 150.3,56.1 147.5,55.9 
	144.6,55.4 141.9,54.6 139.1,53.6 136.7,52.3 134.2,50.7 132,48.9 130,46.8 128.2,44.6 126.6,42.1 125.3,39.7 124.3,36.9 
	123.6,34.2 123.1,31.3 123,28.5 123,0.7 134.1,0.7 134.1,28.5 134.2,30.7 134.6,32.8 135.4,34.8 136.3,36.7 137.4,38.5 138.9,40.2 
	140.6,41.6 142.4,42.8 144.2,43.7 146.3,44.5 148.4,44.9 150.6,45 152.8,44.9 154.9,44.5 157,43.7 158.9,42.8 160.6,41.6 
	162.3,40.2 163.8,38.5 164.9,36.7 165.9,34.8 166.6,32.8 167,30.7 167.2,28.5 "/>
<circle class="st0" cx="233.8" cy="50" r="6.1"/>
</svg>
