<?xml version="1.0" encoding="utf-8"?>
<!-- Generator: Adobe Illustrator 23.0.3, SVG Export Plug-In . SVG Version: 6.00 Build 0)  -->
<svg version="1.1" id="Livello_1" xmlns="http://www.w3.org/2000/svg" xmlns:xlink="http://www.w3.org/1999/xlink" x="0px" y="0px"
	 viewBox="0 0 281.2 56.8" style="enable-background:new 0 0 281.2 56.8;" xml:space="preserve">
<style type="text/css">
	.st0{fill-rule:evenodd;clip-rule:evenodd;fill:#FFFFFF;}
	.st1{fill:none;stroke:#FFFFFF;stroke-width:0.72;stroke-linecap:round;stroke-linejoin:bevel;}
</style>
<g>
	<g id="Livello_1-2_2_">
		<g id="Livello_1-2-2">
			<polygon class="st0" points="82.7,2.9 89.7,3.3 79.4,3.3 			"/>
			<polygon class="st0" points="82.7,2.9 86.2,2.9 89.7,3.3 			"/>
			<polygon class="st0" points="79.4,3.3 93.1,4.3 76,4.3 			"/>
			<polygon class="st0" points="79.4,3.3 89.7,3.3 93.1,4.3 			"/>
			<polygon class="st0" points="76,4.3 96.3,5.7 72.8,5.7 			"/>
			<polygon class="st0" points="76,4.3 93.1,4.3 96.3,5.7 			"/>
			<polygon class="st0" points="72.8,5.7 99.2,7.5 69.8,7.5 			"/>
			<polygon class="st0" points="72.8,5.7 96.3,5.7 99.2,7.5 			"/>
			<polygon class="st0" points="69.8,7.5 101.9,9.7 67.1,9.7 			"/>
			<polygon class="st0" points="69.8,7.5 99.2,7.5 101.9,9.7 			"/>
			<polygon class="st0" points="67.1,9.7 104.3,12.2 64.7,12.2 			"/>
			<polygon class="st0" points="67.1,9.7 101.9,9.7 104.3,12.2 			"/>
			<polygon class="st0" points="64.7,12.2 104.8,13 64.1,13 			"/>
			<polygon class="st0" points="64.7,12.2 104.3,12.2 104.8,13 			"/>
			<polygon class="st0" points="84.5,13 105.1,13.3 87.2,13.3 			"/>
			<polygon class="st0" points="84.5,13 104.8,13 105.1,13.3 			"/>
			<polygon class="st0" points="64.1,13 81.9,13.3 64,13.3 			"/>
			<polygon class="st0" points="64.1,13 84.5,13 81.9,13.3 			"/>
			<polygon class="st0" points="87.2,13.3 105.5,14 89.7,14 			"/>
			<polygon class="st0" points="87.2,13.3 105.1,13.3 105.5,14 			"/>
			<polygon class="st0" points="64,13.3 79.3,14 63.5,14 			"/>
			<polygon class="st0" points="64,13.3 81.9,13.3 79.3,14 			"/>
			<polygon class="st0" points="89.7,14 106.3,15.1 92.2,15.1 			"/>
			<polygon class="st0" points="89.7,14 105.5,14 106.3,15.1 			"/>
			<polygon class="st0" points="63.5,14 76.9,15.1 62.7,15.1 			"/>
			<polygon class="st0" points="63.5,14 79.3,14 76.9,15.1 			"/>
			<polygon class="st0" points="92.2,15.1 107.1,16.6 94.4,16.6 			"/>
			<polygon class="st0" points="92.2,15.1 106.3,15.1 107.1,16.6 			"/>
			<polygon class="st0" points="62.7,15.1 74.7,16.6 62,16.6 			"/>
			<polygon class="st0" points="62.7,15.1 76.9,15.1 74.7,16.6 			"/>
			<polygon class="st0" points="94.4,16.6 107.9,18.2 95.9,18.2 			"/>
			<polygon class="st0" points="94.4,16.6 107.1,16.6 107.9,18.2 			"/>
			<polygon class="st0" points="62,16.6 73.1,18.2 61.1,18.2 			"/>
			<polygon class="st0" points="62,16.6 74.7,16.6 73.1,18.2 			"/>
			<polygon class="st0" points="95.9,18.2 108.1,18.5 96.2,18.5 			"/>
			<polygon class="st0" points="95.9,18.2 107.9,18.2 108.1,18.5 			"/>
			<polygon class="st0" points="61.1,18.2 72.8,18.5 61,18.5 			"/>
			<polygon class="st0" points="61.1,18.2 73.1,18.2 72.8,18.5 			"/>
			<polygon class="st0" points="96.2,18.5 108.8,20.7 97.7,20.7 			"/>
			<polygon class="st0" points="96.2,18.5 108.1,18.5 108.8,20.7 			"/>
			<polygon class="st0" points="61,18.5 71.2,20.7 60.2,20.7 			"/>
			<polygon class="st0" points="61,18.5 72.8,18.5 71.2,20.7 			"/>
			<polygon class="st0" points="97.7,20.7 109,21.4 98.1,21.4 			"/>
			<polygon class="st0" points="97.7,20.7 108.8,20.7 109,21.4 			"/>
			<polygon class="st0" points="60.2,20.7 70.9,21.4 59.9,21.4 			"/>
			<polygon class="st0" points="60.2,20.7 71.2,20.7 70.9,21.4 			"/>
			<polygon class="st0" points="98.1,21.4 109.4,23.1 98.9,23.1 			"/>
			<polygon class="st0" points="98.1,21.4 109,21.4 109.4,23.1 			"/>
			<polygon class="st0" points="59.9,21.4 70.1,23.1 59.6,23.1 			"/>
			<polygon class="st0" points="59.9,21.4 70.9,21.4 70.1,23.1 			"/>
			<polygon class="st0" points="98.9,23.1 109.7,24.9 99.4,24.9 			"/>
			<polygon class="st0" points="98.9,23.1 109.4,23.1 109.7,24.9 			"/>
			<polygon class="st0" points="59.6,23.1 69.7,24.9 59.2,24.9 			"/>
			<polygon class="st0" points="59.6,23.1 70.1,23.1 69.7,24.9 			"/>
			<polygon class="st0" points="99.4,24.9 109.9,25.6 99.5,25.6 			"/>
			<polygon class="st0" points="99.4,24.9 109.7,24.9 109.9,25.6 			"/>
			<polygon class="st0" points="59.2,24.9 69.4,25.6 59.2,25.6 			"/>
			<polygon class="st0" points="59.2,24.9 69.7,24.9 69.4,25.6 			"/>
			<polygon class="st0" points="99.5,25.6 110,28.4 99.8,28.4 			"/>
			<polygon class="st0" points="99.5,25.6 109.9,25.6 110,28.4 			"/>
			<polygon class="st0" points="59.2,25.6 69.2,28.4 59,28.4 			"/>
			<polygon class="st0" points="59.2,25.6 69.4,25.6 69.2,28.4 			"/>
			<polygon class="st0" points="99.8,28.4 109.9,31 99.5,31 			"/>
			<polygon class="st0" points="99.8,28.4 110,28.4 109.9,31 			"/>
			<polygon class="st0" points="59,28.4 69.4,31 59.2,31 			"/>
			<polygon class="st0" points="59,28.4 69.2,28.4 69.4,31 			"/>
			<polygon class="st0" points="99.5,31 109.7,31.9 99.4,31.9 			"/>
			<polygon class="st0" points="99.5,31 109.9,31 109.7,31.9 			"/>
			<polygon class="st0" points="59.2,31 69.7,31.9 59.2,31.9 			"/>
			<polygon class="st0" points="59.2,31 69.4,31 69.7,31.9 			"/>
			<polygon class="st0" points="99.4,31.9 109.4,33.5 98.9,33.5 			"/>
			<polygon class="st0" points="99.4,31.9 109.7,31.9 109.4,33.5 			"/>
			<polygon class="st0" points="59.2,31.9 70.1,33.5 59.6,33.5 			"/>
			<polygon class="st0" points="59.2,31.9 69.7,31.9 70.1,33.5 			"/>
			<polygon class="st0" points="98.9,33.5 109,35.2 98.1,35.2 			"/>
			<polygon class="st0" points="98.9,33.5 109.4,33.5 109,35.2 			"/>
			<polygon class="st0" points="59.6,33.5 70.9,35.2 59.9,35.2 			"/>
			<polygon class="st0" points="59.6,33.5 70.1,33.5 70.9,35.2 			"/>
			<polygon class="st0" points="98.1,35.2 108.8,35.9 97.7,35.9 			"/>
			<polygon class="st0" points="98.1,35.2 109,35.2 108.8,35.9 			"/>
			<polygon class="st0" points="59.9,35.2 71.2,35.9 60.2,35.9 			"/>
			<polygon class="st0" points="59.9,35.2 70.9,35.2 71.2,35.9 			"/>
			<polygon class="st0" points="97.7,35.9 108.1,38.2 96.2,38.2 			"/>
			<polygon class="st0" points="97.7,35.9 108.8,35.9 108.1,38.2 			"/>
			<polygon class="st0" points="60.2,35.9 72.8,38.2 61,38.2 			"/>
			<polygon class="st0" points="60.2,35.9 71.2,35.9 72.8,38.2 			"/>
			<polygon class="st0" points="96.2,38.2 107.9,38.5 95.9,38.5 			"/>
			<polygon class="st0" points="96.2,38.2 108.1,38.2 107.9,38.5 			"/>
			<polygon class="st0" points="61,38.2 73.1,38.5 61.1,38.5 			"/>
			<polygon class="st0" points="61,38.2 72.8,38.2 73.1,38.5 			"/>
			<polygon class="st0" points="95.9,38.5 107.1,40 94.4,40 			"/>
			<polygon class="st0" points="95.9,38.5 107.9,38.5 107.1,40 			"/>
			<polygon class="st0" points="61.1,38.5 74.7,40 62,40 			"/>
			<polygon class="st0" points="61.1,38.5 73.1,38.5 74.7,40 			"/>
			<polygon class="st0" points="94.4,40 106.3,41.6 92.2,41.6 			"/>
			<polygon class="st0" points="94.4,40 107.1,40 106.3,41.6 			"/>
			<polygon class="st0" points="62,40 76.9,41.6 62.7,41.6 			"/>
			<polygon class="st0" points="62,40 74.7,40 76.9,41.6 			"/>
			<polygon class="st0" points="92.2,41.6 105.5,42.8 89.7,42.8 			"/>
			<polygon class="st0" points="92.2,41.6 106.3,41.6 105.5,42.8 			"/>
			<polygon class="st0" points="62.7,41.6 79.3,42.8 63.5,42.8 			"/>
			<polygon class="st0" points="62.7,41.6 76.9,41.6 79.3,42.8 			"/>
			<polygon class="st0" points="89.7,42.8 105.1,43.4 87.2,43.4 			"/>
			<polygon class="st0" points="89.7,42.8 105.5,42.8 105.1,43.4 			"/>
			<polygon class="st0" points="63.5,42.8 81.9,43.4 64,43.4 			"/>
			<polygon class="st0" points="63.5,42.8 79.3,42.8 81.9,43.4 			"/>
			<polygon class="st0" points="87.2,43.4 104.8,43.6 84.5,43.6 			"/>
			<polygon class="st0" points="87.2,43.4 105.1,43.4 104.8,43.6 			"/>
			<polygon class="st0" points="64,43.4 84.5,43.6 64.1,43.6 			"/>
			<polygon class="st0" points="64,43.4 81.9,43.4 84.5,43.6 			"/>
			<polygon class="st0" points="64.1,43.6 104.3,44.5 64.7,44.5 			"/>
			<polygon class="st0" points="64.1,43.6 104.8,43.6 104.3,44.5 			"/>
			<polygon class="st0" points="64.7,44.5 101.9,47 67.1,47 			"/>
			<polygon class="st0" points="64.7,44.5 104.3,44.5 101.9,47 			"/>
			<polygon class="st0" points="67.1,47 99.2,49.1 69.8,49.1 			"/>
			<polygon class="st0" points="67.1,47 101.9,47 99.2,49.1 			"/>
			<polygon class="st0" points="69.8,49.1 96.3,50.9 72.8,50.9 			"/>
			<polygon class="st0" points="69.8,49.1 99.2,49.1 96.3,50.9 			"/>
			<polygon class="st0" points="72.8,50.9 93.1,52.4 76,52.4 			"/>
			<polygon class="st0" points="72.8,50.9 96.3,50.9 93.1,52.4 			"/>
			<polygon class="st0" points="76,52.4 89.7,53.3 79.4,53.3 			"/>
			<polygon class="st0" points="76,52.4 93.1,52.4 89.7,53.3 			"/>
			<polygon class="st0" points="79.4,53.3 86.2,53.8 82.7,53.8 			"/>
			<polygon class="st0" points="79.4,53.3 89.7,53.3 86.2,53.8 			"/>
			<polygon class="st1" points="99.8,28.4 99.7,26.3 99.2,24.3 98.5,22.3 97.6,20.5 96.4,18.8 95,17.2 93.3,15.9 91.5,14.8 89.7,14 
				87.7,13.5 85.6,13.1 83.5,13.1 81.4,13.5 79.4,14 77.6,14.8 75.8,15.9 74.1,17.2 72.7,18.8 71.5,20.5 70.6,22.3 69.9,24.3 
				69.4,26.3 69.3,28.4 69.4,30.4 69.9,32.5 70.6,34.5 71.5,36.3 72.7,38 74.1,39.5 75.8,40.9 77.6,41.9 79.4,42.8 81.4,43.3 
				83.5,43.6 85.6,43.6 87.7,43.3 89.7,42.8 91.5,41.9 93.3,40.9 95,39.5 96.4,38 97.6,36.3 98.5,34.5 99.2,32.5 99.7,30.4 			"/>
			<polygon class="st1" points="110,28.4 109.9,25.7 109.4,23.1 108.8,20.5 107.8,18.1 106.6,15.7 105.2,13.4 103.5,11.3 101.6,9.4 
				99.5,7.7 97.3,6.3 94.9,5.1 92.5,4.1 89.8,3.5 87.2,3.1 84.5,2.9 81.9,3.1 79.3,3.5 76.6,4.1 74.2,5.1 71.8,6.3 69.5,7.7 
				67.5,9.4 65.6,11.3 63.9,13.4 62.5,15.7 61.3,18.1 60.3,20.5 59.7,23.1 59.2,25.7 59.1,28.4 59.2,31 59.7,33.7 60.3,36.3 
				61.3,38.7 62.5,41.1 63.9,43.4 65.6,45.4 67.5,47.3 69.5,49 71.8,50.5 74.2,51.7 76.6,52.6 79.3,53.2 81.9,53.7 84.5,53.8 
				87.2,53.7 89.8,53.2 92.5,52.6 94.9,51.7 97.3,50.5 99.5,49 101.6,47.3 103.5,45.4 105.2,43.4 106.6,41.1 107.8,38.7 108.8,36.3 
				109.4,33.7 109.9,31 			"/>
		</g>
	</g>
</g>
</svg>
