<svg xmlns="http://www.w3.org/2000/svg" viewBox="0 0 281.16 56.76"><defs><style>.cls-1{fill:#fff;fill-rule:evenodd;}.cls-2,.cls-3{fill:none;stroke:#fff;stroke-linecap:round;stroke-width:0.72px;}.cls-2{stroke-linejoin:round;}.cls-3{stroke-linejoin:bevel;}</style></defs><g id="Livello_2" data-name="Livello 2"><g id="Livello_1-2" data-name="Livello 1"><polygon class="cls-1" points="227.4 2.88 256.32 3.12 227.4 3.12 227.4 2.88"/><polygon class="cls-1" points="227.4 2.88 252.84 2.88 256.32 3.12 227.4 2.88"/><polygon class="cls-1" points="195 2.88 201.96 3.36 191.52 3.36 195 2.88"/><polygon class="cls-1" points="195 2.88 198.48 2.88 201.96 3.36 195 2.88"/><polygon class="cls-1" points="26.64 2.88 33.6 3.36 23.16 3.36 26.64 2.88"/><polygon class="cls-1" points="26.64 2.88 30.12 2.88 33.6 3.36 26.64 2.88"/><polygon class="cls-1" points="227.4 3.12 259.8 3.84 227.4 3.84 227.4 3.12"/><polygon class="cls-1" points="227.4 3.12 256.32 3.12 259.8 3.84 227.4 3.12"/><polygon class="cls-1" points="191.52 3.36 205.32 4.32 188.28 4.32 191.52 3.36"/><polygon class="cls-1" points="191.52 3.36 201.96 3.36 205.32 4.32 191.52 3.36"/><polygon class="cls-1" points="23.16 3.36 36.96 4.32 19.8 4.32 23.16 3.36"/><polygon class="cls-1" points="23.16 3.36 33.6 3.36 36.96 4.32 23.16 3.36"/><polygon class="cls-1" points="227.4 3.84 263.04 5.04 227.4 5.04 227.4 3.84"/><polygon class="cls-1" points="227.4 3.84 259.8 3.84 263.04 5.04 227.4 3.84"/><polygon class="cls-1" points="188.28 4.32 208.56 5.76 185.04 5.76 188.28 4.32"/><polygon class="cls-1" points="188.28 4.32 205.32 4.32 208.56 5.76 188.28 4.32"/><polygon class="cls-1" points="19.8 4.32 40.08 5.76 16.68 5.76 19.8 4.32"/><polygon class="cls-1" points="19.8 4.32 36.96 4.32 40.08 5.76 19.8 4.32"/><polygon class="cls-1" points="227.4 5.04 266.16 6.6 227.4 6.6 227.4 5.04"/><polygon class="cls-1" points="227.4 5.04 263.04 5.04 266.16 6.6 227.4 5.04"/><polygon class="cls-1" points="185.04 5.76 211.44 7.56 182.04 7.56 185.04 5.76"/><polygon class="cls-1" points="185.04 5.76 208.56 5.76 211.44 7.56 185.04 5.76"/><polygon class="cls-1" points="16.68 5.76 43.08 7.56 13.68 7.56 16.68 5.76"/><polygon class="cls-1" points="16.68 5.76 40.08 5.76 43.08 7.56 16.68 5.76"/><polygon class="cls-1" points="227.4 6.6 269.04 8.64 227.4 8.64 227.4 6.6"/><polygon class="cls-1" points="227.4 6.6 266.16 6.6 269.04 8.64 227.4 6.6"/><polygon class="cls-1" points="182.04 7.56 214.2 9.72 179.4 9.72 182.04 7.56"/><polygon class="cls-1" points="182.04 7.56 211.44 7.56 214.2 9.72 182.04 7.56"/><polygon class="cls-1" points="13.68 7.56 45.84 9.72 11.04 9.72 13.68 7.56"/><polygon class="cls-1" points="13.68 7.56 43.08 7.56 45.84 9.72 13.68 7.56"/><polygon class="cls-1" points="227.4 8.64 271.56 10.92 227.4 10.92 227.4 8.64"/><polygon class="cls-1" points="227.4 8.64 269.04 8.64 271.56 10.92 227.4 8.64"/><polygon class="cls-1" points="179.4 9.72 216.6 12.24 177 12.24 179.4 9.72"/><polygon class="cls-1" points="179.4 9.72 214.2 9.72 216.6 12.24 179.4 9.72"/><polygon class="cls-1" points="11.04 9.72 48.24 12.24 8.64 12.24 11.04 9.72"/><polygon class="cls-1" points="11.04 9.72 45.84 9.72 48.24 12.24 11.04 9.72"/><polygon class="cls-1" points="227.4 10.92 273.24 13.08 227.4 13.08 227.4 10.92"/><polygon class="cls-1" points="227.4 10.92 271.56 10.92 273.24 13.08 227.4 10.92"/><polygon class="cls-1" points="177 12.24 217.08 13.08 176.4 13.08 177 12.24"/><polygon class="cls-1" points="177 12.24 216.6 12.24 217.08 13.08 177 12.24"/><polygon class="cls-1" points="8.64 12.24 48.72 13.08 8.04 13.08 8.64 12.24"/><polygon class="cls-1" points="8.64 12.24 48.24 12.24 48.72 13.08 8.64 12.24"/><polygon class="cls-1" points="252.84 13.08 273.48 13.32 255.6 13.32 252.84 13.08"/><polygon class="cls-1" points="252.84 13.08 273.24 13.08 273.48 13.32 252.84 13.08"/><polygon class="cls-1" points="196.8 13.08 217.32 13.32 199.44 13.32 196.8 13.08"/><polygon class="cls-1" points="196.8 13.08 217.08 13.08 217.32 13.32 196.8 13.08"/><polygon class="cls-1" points="176.4 13.08 194.16 13.32 176.28 13.32 176.4 13.08"/><polygon class="cls-1" points="176.4 13.08 196.8 13.08 194.16 13.32 176.4 13.08"/><polygon class="cls-1" points="28.44 13.08 48.96 13.32 31.08 13.32 28.44 13.08"/><polygon class="cls-1" points="28.44 13.08 48.72 13.08 48.96 13.32 28.44 13.08"/><polygon class="cls-1" points="8.04 13.08 25.68 13.32 7.92 13.32 8.04 13.08"/><polygon class="cls-1" points="8.04 13.08 28.44 13.08 25.68 13.32 8.04 13.08"/><polygon class="cls-1" points="255.6 13.32 273.72 13.68 256.92 13.68 255.6 13.32"/><polygon class="cls-1" points="255.6 13.32 273.48 13.32 273.72 13.68 255.6 13.32"/><polygon class="cls-1" points="256.92 13.68 273.96 14.04 258.12 14.04 256.92 13.68"/><polygon class="cls-1" points="256.92 13.68 273.72 13.68 273.96 14.04 256.92 13.68"/><polygon class="cls-1" points="199.44 13.32 217.8 14.04 201.96 14.04 199.44 13.32"/><polygon class="cls-1" points="199.44 13.32 217.32 13.32 217.8 14.04 199.44 13.32"/><polygon class="cls-1" points="176.28 13.32 191.52 14.04 175.8 14.04 176.28 13.32"/><polygon class="cls-1" points="176.28 13.32 194.16 13.32 191.52 14.04 176.28 13.32"/><polygon class="cls-1" points="31.08 13.32 49.44 14.04 33.6 14.04 31.08 13.32"/><polygon class="cls-1" points="31.08 13.32 48.96 13.32 49.44 14.04 31.08 13.32"/><polygon class="cls-1" points="7.92 13.32 23.16 14.04 7.44 14.04 7.92 13.32"/><polygon class="cls-1" points="7.92 13.32 25.68 13.32 23.16 14.04 7.92 13.32"/><polygon class="cls-1" points="258.12 14.04 274.56 15.12 260.52 15.12 258.12 14.04"/><polygon class="cls-1" points="258.12 14.04 273.96 14.04 274.56 15.12 258.12 14.04"/><polygon class="cls-1" points="201.96 14.04 218.52 15.12 204.36 15.12 201.96 14.04"/><polygon class="cls-1" points="201.96 14.04 217.8 14.04 218.52 15.12 201.96 14.04"/><polygon class="cls-1" points="175.8 14.04 189.12 15.12 174.96 15.12 175.8 14.04"/><polygon class="cls-1" points="175.8 14.04 191.52 14.04 189.12 15.12 175.8 14.04"/><polygon class="cls-1" points="33.6 14.04 50.16 15.12 36 15.12 33.6 14.04"/><polygon class="cls-1" points="33.6 14.04 49.44 14.04 50.16 15.12 33.6 14.04"/><polygon class="cls-1" points="7.44 14.04 20.76 15.12 6.6 15.12 7.44 14.04"/><polygon class="cls-1" points="7.44 14.04 23.16 14.04 20.76 15.12 7.44 14.04"/><path class="cls-1" d="M204.36,15.12h0Z"/><path class="cls-1" d="M175,15.12h0Z"/><path class="cls-1" d="M36,15.12h0Z"/><path class="cls-1" d="M6.6,15.12h0Z"/><polygon class="cls-1" points="260.52 15.12 275.52 16.68 262.68 16.68 260.52 15.12"/><polygon class="cls-1" points="260.52 15.12 274.56 15.12 275.52 16.68 260.52 15.12"/><path class="cls-1" d="M262.68,16.68h0Z"/><polygon class="cls-1" points="204.36 15.12 219.36 16.68 206.64 16.68 204.36 15.12"/><polygon class="cls-1" points="204.36 15.12 218.52 15.12 219.36 16.68 204.36 15.12"/><polygon class="cls-1" points="174.96 15.12 186.96 16.68 174.12 16.68 174.96 15.12"/><polygon class="cls-1" points="174.96 15.12 189.12 15.12 186.96 16.68 174.96 15.12"/><polygon class="cls-1" points="36 15.12 51 16.68 38.28 16.68 36 15.12"/><polygon class="cls-1" points="36 15.12 50.16 15.12 51 16.68 36 15.12"/><polygon class="cls-1" points="6.6 15.12 18.6 16.68 5.76 16.68 6.6 15.12"/><polygon class="cls-1" points="6.6 15.12 20.76 15.12 18.6 16.68 6.6 15.12"/><polygon class="cls-1" points="206.64 16.68 220.2 18.24 208.2 18.24 206.64 16.68"/><polygon class="cls-1" points="206.64 16.68 219.36 16.68 220.2 18.24 206.64 16.68"/><polygon class="cls-1" points="174.12 16.68 185.4 18.24 173.4 18.24 174.12 16.68"/><polygon class="cls-1" points="174.12 16.68 186.96 16.68 185.4 18.24 174.12 16.68"/><polygon class="cls-1" points="38.28 16.68 51.84 18.24 39.84 18.24 38.28 16.68"/><polygon class="cls-1" points="38.28 16.68 51 16.68 51.84 18.24 38.28 16.68"/><polygon class="cls-1" points="5.76 16.68 17.04 18.24 5.04 18.24 5.76 16.68"/><polygon class="cls-1" points="5.76 16.68 18.6 16.68 17.04 18.24 5.76 16.68"/><polygon class="cls-1" points="262.68 16.68 276.36 18.6 264.6 18.6 262.68 16.68"/><polygon class="cls-1" points="262.68 16.68 275.52 16.68 276.36 18.6 262.68 16.68"/><polygon class="cls-1" points="208.2 18.24 220.32 18.6 208.44 18.6 208.2 18.24"/><polygon class="cls-1" points="208.2 18.24 220.2 18.24 220.32 18.6 208.2 18.24"/><polygon class="cls-1" points="173.4 18.24 185.04 18.6 173.28 18.6 173.4 18.24"/><polygon class="cls-1" points="173.4 18.24 185.4 18.24 185.04 18.6 173.4 18.24"/><polygon class="cls-1" points="39.84 18.24 51.96 18.6 40.08 18.6 39.84 18.24"/><polygon class="cls-1" points="39.84 18.24 51.84 18.24 51.96 18.6 39.84 18.24"/><polygon class="cls-1" points="5.04 18.24 16.68 18.6 4.92 18.6 5.04 18.24"/><polygon class="cls-1" points="5.04 18.24 17.04 18.24 16.68 18.6 5.04 18.24"/><polygon class="cls-1" points="264.6 18.6 276.96 19.8 265.56 19.8 264.6 18.6"/><polygon class="cls-1" points="264.6 18.6 276.36 18.6 276.96 19.8 264.6 18.6"/><polygon class="cls-1" points="265.56 19.8 277.2 20.76 266.16 20.76 265.56 19.8"/><polygon class="cls-1" points="265.56 19.8 276.96 19.8 277.2 20.76 265.56 19.8"/><polygon class="cls-1" points="208.44 18.6 221.04 20.76 210 20.76 208.44 18.6"/><polygon class="cls-1" points="208.44 18.6 220.32 18.6 221.04 20.76 208.44 18.6"/><polygon class="cls-1" points="173.28 18.6 183.48 20.76 172.44 20.76 173.28 18.6"/><polygon class="cls-1" points="173.28 18.6 185.04 18.6 183.48 20.76 173.28 18.6"/><polygon class="cls-1" points="40.08 18.6 52.68 20.76 41.64 20.76 40.08 18.6"/><polygon class="cls-1" points="40.08 18.6 51.96 18.6 52.68 20.76 40.08 18.6"/><polygon class="cls-1" points="4.92 18.6 15.12 20.76 4.08 20.76 4.92 18.6"/><polygon class="cls-1" points="4.92 18.6 16.68 18.6 15.12 20.76 4.92 18.6"/><polygon class="cls-1" points="210 20.76 221.28 21.48 210.36 21.48 210 20.76"/><polygon class="cls-1" points="210 20.76 221.04 20.76 221.28 21.48 210 20.76"/><polygon class="cls-1" points="172.44 20.76 183.12 21.48 172.2 21.48 172.44 20.76"/><polygon class="cls-1" points="172.44 20.76 183.48 20.76 183.12 21.48 172.44 20.76"/><polygon class="cls-1" points="41.64 20.76 52.92 21.48 42 21.48 41.64 20.76"/><polygon class="cls-1" points="41.64 20.76 52.68 20.76 52.92 21.48 41.64 20.76"/><polygon class="cls-1" points="4.08 20.76 14.76 21.48 3.84 21.48 4.08 20.76"/><polygon class="cls-1" points="4.08 20.76 15.12 20.76 14.76 21.48 4.08 20.76"/><polygon class="cls-1" points="266.16 20.76 277.8 23.16 267.24 23.16 266.16 20.76"/><polygon class="cls-1" points="266.16 20.76 277.2 20.76 277.8 23.16 266.16 20.76"/><polygon class="cls-1" points="210.36 21.48 221.64 23.16 211.2 23.16 210.36 21.48"/><polygon class="cls-1" points="210.36 21.48 221.28 21.48 221.64 23.16 210.36 21.48"/><polygon class="cls-1" points="172.2 21.48 182.4 23.16 171.84 23.16 172.2 21.48"/><polygon class="cls-1" points="172.2 21.48 183.12 21.48 182.4 23.16 172.2 21.48"/><polygon class="cls-1" points="42 21.48 53.28 23.16 42.72 23.16 42 21.48"/><polygon class="cls-1" points="42 21.48 52.92 21.48 53.28 23.16 42 21.48"/><polygon class="cls-1" points="3.84 21.48 14.04 23.16 3.48 23.16 3.84 21.48"/><polygon class="cls-1" points="3.84 21.48 14.76 21.48 14.04 23.16 3.84 21.48"/><path class="cls-1" d="M267.24,23.16h0Z"/><polygon class="cls-1" points="267.24 23.16 277.8 23.16 277.92 23.16 267.24 23.16"/><polygon class="cls-1" points="211.2 23.16 222 24.96 211.56 24.96 211.2 23.16"/><polygon class="cls-1" points="211.2 23.16 221.64 23.16 222 24.96 211.2 23.16"/><polygon class="cls-1" points="171.84 23.16 181.92 24.96 171.48 24.96 171.84 23.16"/><polygon class="cls-1" points="171.84 23.16 182.4 23.16 181.92 24.96 171.84 23.16"/><polygon class="cls-1" points="42.72 23.16 53.64 24.96 43.2 24.96 42.72 23.16"/><polygon class="cls-1" points="42.72 23.16 53.28 23.16 53.64 24.96 42.72 23.16"/><polygon class="cls-1" points="3.48 23.16 13.56 24.96 3.12 24.96 3.48 23.16"/><polygon class="cls-1" points="3.48 23.16 14.04 23.16 13.56 24.96 3.48 23.16"/><polygon class="cls-1" points="267.24 23.16 278.16 25.68 267.96 25.68 267.24 23.16"/><polygon class="cls-1" points="267.24 23.16 277.92 23.16 278.16 25.68 267.24 23.16"/><polygon class="cls-1" points="211.56 24.96 222.12 25.68 211.8 25.68 211.56 24.96"/><polygon class="cls-1" points="211.56 24.96 222 24.96 222.12 25.68 211.56 24.96"/><polygon class="cls-1" points="171.48 24.96 181.68 25.68 171.48 25.68 171.48 24.96"/><polygon class="cls-1" points="171.48 24.96 181.92 24.96 181.68 25.68 171.48 24.96"/><polygon class="cls-1" points="43.2 24.96 53.76 25.68 43.44 25.68 43.2 24.96"/><polygon class="cls-1" points="43.2 24.96 53.64 24.96 53.76 25.68 43.2 24.96"/><polygon class="cls-1" points="3.12 24.96 13.32 25.68 3.12 25.68 3.12 24.96"/><polygon class="cls-1" points="3.12 24.96 13.56 24.96 13.32 25.68 3.12 24.96"/><polygon class="cls-1" points="267.96 25.68 278.28 26.64 268.08 26.64 267.96 25.68"/><polygon class="cls-1" points="267.96 25.68 278.16 25.68 278.28 26.64 267.96 25.68"/><polygon class="cls-1" points="268.08 26.64 278.28 28.44 268.2 28.44 268.08 26.64"/><polygon class="cls-1" points="268.08 26.64 278.28 26.64 278.28 28.44 268.08 26.64"/><polygon class="cls-1" points="211.8 25.68 222.24 28.44 212.04 28.44 211.8 25.68"/><polygon class="cls-1" points="211.8 25.68 222.12 25.68 222.24 28.44 211.8 25.68"/><polygon class="cls-1" points="171.48 25.68 181.44 28.44 171.24 28.44 171.48 25.68"/><polygon class="cls-1" points="171.48 25.68 181.68 25.68 181.44 28.44 171.48 25.68"/><polygon class="cls-1" points="156 2.88 166.2 28.44 156 28.44 156 2.88"/><polygon class="cls-1" points="156 2.88 166.2 2.88 166.2 28.44 156 2.88"/><polygon class="cls-1" points="115.08 2.88 125.28 28.44 115.08 28.44 115.08 2.88"/><polygon class="cls-1" points="115.08 2.88 125.28 2.88 125.28 28.44 115.08 2.88"/><polygon class="cls-1" points="43.44 25.68 53.88 28.44 43.68 28.44 43.44 25.68"/><polygon class="cls-1" points="43.44 25.68 53.76 25.68 53.88 28.44 43.44 25.68"/><polygon class="cls-1" points="3.12 25.68 13.08 28.44 2.88 28.44 3.12 25.68"/><polygon class="cls-1" points="3.12 25.68 13.32 25.68 13.08 28.44 3.12 25.68"/><polygon class="cls-1" points="268.2 28.44 278.28 30.12 268.08 30.12 268.2 28.44"/><polygon class="cls-1" points="268.2 28.44 278.28 28.44 278.28 30.12 268.2 28.44"/><polygon class="cls-1" points="268.08 30.12 278.16 31.08 267.96 31.08 268.08 30.12"/><polygon class="cls-1" points="268.08 30.12 278.28 30.12 278.16 31.08 268.08 30.12"/><polygon class="cls-1" points="156 28.44 165.96 31.08 155.76 31.08 156 28.44"/><polygon class="cls-1" points="156 28.44 166.2 28.44 165.96 31.08 156 28.44"/><polygon class="cls-1" points="115.08 28.44 125.52 31.08 115.32 31.08 115.08 28.44"/><polygon class="cls-1" points="115.08 28.44 125.28 28.44 125.52 31.08 115.08 28.44"/><polygon class="cls-1" points="155.76 31.08 165.96 31.8 155.52 31.8 155.76 31.08"/><polygon class="cls-1" points="155.76 31.08 165.96 31.08 165.96 31.8 155.76 31.08"/><polygon class="cls-1" points="115.32 31.08 125.76 31.8 115.32 31.8 115.32 31.08"/><polygon class="cls-1" points="115.32 31.08 125.52 31.08 125.76 31.8 115.32 31.08"/><polygon class="cls-1" points="267.96 31.08 277.92 33.6 267.24 33.6 267.96 31.08"/><polygon class="cls-1" points="267.96 31.08 278.16 31.08 277.92 33.6 267.96 31.08"/><path class="cls-1" d="M267.24,33.6h0Z"/><polygon class="cls-1" points="267.24 33.6 277.92 33.6 277.8 33.6 267.24 33.6"/><polygon class="cls-1" points="155.52 31.8 165.6 33.6 155.04 33.6 155.52 31.8"/><polygon class="cls-1" points="155.52 31.8 165.96 31.8 165.6 33.6 155.52 31.8"/><polygon class="cls-1" points="115.32 31.8 126.24 33.6 115.68 33.6 115.32 31.8"/><polygon class="cls-1" points="115.32 31.8 125.76 31.8 126.24 33.6 115.32 31.8"/><polygon class="cls-1" points="155.04 33.6 165.24 35.28 154.2 35.28 155.04 33.6"/><polygon class="cls-1" points="155.04 33.6 165.6 33.6 165.24 35.28 155.04 33.6"/><polygon class="cls-1" points="115.68 33.6 127.08 35.28 116.04 35.28 115.68 33.6"/><polygon class="cls-1" points="115.68 33.6 126.24 33.6 127.08 35.28 115.68 33.6"/><polygon class="cls-1" points="267.24 33.6 277.2 36 266.16 36 267.24 33.6"/><polygon class="cls-1" points="267.24 33.6 277.8 33.6 277.2 36 267.24 33.6"/><polygon class="cls-1" points="154.2 35.28 164.88 36 153.84 36 154.2 35.28"/><polygon class="cls-1" points="154.2 35.28 165.24 35.28 164.88 36 154.2 35.28"/><polygon class="cls-1" points="116.04 35.28 127.44 36 116.4 36 116.04 35.28"/><polygon class="cls-1" points="116.04 35.28 127.08 35.28 127.44 36 116.04 35.28"/><polygon class="cls-1" points="266.16 36 276.96 36.96 265.56 36.96 266.16 36"/><polygon class="cls-1" points="266.16 36 277.2 36 276.96 36.96 266.16 36"/><polygon class="cls-1" points="265.56 36.96 276.36 38.16 264.6 38.16 265.56 36.96"/><polygon class="cls-1" points="265.56 36.96 276.96 36.96 276.36 38.16 265.56 36.96"/><polygon class="cls-1" points="153.84 36 164.16 38.16 152.4 38.16 153.84 36"/><polygon class="cls-1" points="153.84 36 164.88 36 164.16 38.16 153.84 36"/><polygon class="cls-1" points="116.4 36 128.88 38.16 117.12 38.16 116.4 36"/><polygon class="cls-1" points="116.4 36 127.44 36 128.88 38.16 116.4 36"/><polygon class="cls-1" points="152.4 38.16 164.04 38.52 152.04 38.52 152.4 38.16"/><polygon class="cls-1" points="152.4 38.16 164.16 38.16 164.04 38.52 152.4 38.16"/><polygon class="cls-1" points="117.12 38.16 129.24 38.52 117.24 38.52 117.12 38.16"/><polygon class="cls-1" points="117.12 38.16 128.88 38.16 129.24 38.52 117.12 38.16"/><polygon class="cls-1" points="264.6 38.16 275.52 40.08 262.68 40.08 264.6 38.16"/><polygon class="cls-1" points="264.6 38.16 276.36 38.16 275.52 40.08 264.6 38.16"/><polygon class="cls-1" points="152.04 38.52 163.2 40.08 150.48 40.08 152.04 38.52"/><polygon class="cls-1" points="152.04 38.52 164.04 38.52 163.2 40.08 152.04 38.52"/><polygon class="cls-1" points="117.24 38.52 130.8 40.08 118.08 40.08 117.24 38.52"/><polygon class="cls-1" points="117.24 38.52 129.24 38.52 130.8 40.08 117.24 38.52"/><path class="cls-1" d="M262.68,40.08h0Z"/><polygon class="cls-1" points="150.48 40.08 162.48 41.64 148.32 41.64 150.48 40.08"/><polygon class="cls-1" points="150.48 40.08 163.2 40.08 162.48 41.64 150.48 40.08"/><polygon class="cls-1" points="118.08 40.08 132.96 41.64 118.8 41.64 118.08 40.08"/><polygon class="cls-1" points="118.08 40.08 130.8 40.08 132.96 41.64 118.08 40.08"/><polygon class="cls-1" points="262.68 40.08 274.56 41.64 260.52 41.64 262.68 40.08"/><polygon class="cls-1" points="262.68 40.08 275.52 40.08 274.56 41.64 262.68 40.08"/><path class="cls-1" d="M148.32,41.64h0Z"/><path class="cls-1" d="M118.8,41.64h0Z"/><polygon class="cls-1" points="260.52 41.64 273.96 42.72 258.12 42.72 260.52 41.64"/><polygon class="cls-1" points="260.52 41.64 274.56 41.64 273.96 42.72 260.52 41.64"/><polygon class="cls-1" points="148.32 41.64 161.64 42.72 145.92 42.72 148.32 41.64"/><polygon class="cls-1" points="148.32 41.64 162.48 41.64 161.64 42.72 148.32 41.64"/><polygon class="cls-1" points="118.8 41.64 135.36 42.72 119.64 42.72 118.8 41.64"/><polygon class="cls-1" points="118.8 41.64 132.96 41.64 135.36 42.72 118.8 41.64"/><polygon class="cls-1" points="258.12 42.72 273.72 43.08 256.92 43.08 258.12 42.72"/><polygon class="cls-1" points="258.12 42.72 273.96 42.72 273.72 43.08 258.12 42.72"/><polygon class="cls-1" points="256.92 43.08 273.48 43.44 255.6 43.44 256.92 43.08"/><polygon class="cls-1" points="256.92 43.08 273.72 43.08 273.48 43.44 256.92 43.08"/><polygon class="cls-1" points="145.92 42.72 161.16 43.44 143.28 43.44 145.92 42.72"/><polygon class="cls-1" points="145.92 42.72 161.64 42.72 161.16 43.44 145.92 42.72"/><polygon class="cls-1" points="119.64 42.72 138 43.44 120.12 43.44 119.64 42.72"/><polygon class="cls-1" points="119.64 42.72 135.36 42.72 138 43.44 119.64 42.72"/><polygon class="cls-1" points="255.6 43.44 273.24 43.68 252.84 43.68 255.6 43.44"/><polygon class="cls-1" points="255.6 43.44 273.48 43.44 273.24 43.68 255.6 43.44"/><polygon class="cls-1" points="143.28 43.44 161.04 43.68 140.64 43.68 143.28 43.44"/><polygon class="cls-1" points="143.28 43.44 161.16 43.44 161.04 43.68 143.28 43.44"/><polygon class="cls-1" points="120.12 43.44 140.64 43.68 120.24 43.68 120.12 43.44"/><polygon class="cls-1" points="120.12 43.44 138 43.44 140.64 43.68 120.12 43.44"/><polygon class="cls-1" points="120.24 43.68 160.44 44.52 120.84 44.52 120.24 43.68"/><polygon class="cls-1" points="120.24 43.68 161.04 43.68 160.44 44.52 120.24 43.68"/><polygon class="cls-1" points="227.4 43.68 271.56 45.84 227.4 45.84 227.4 43.68"/><polygon class="cls-1" points="227.4 43.68 273.24 43.68 271.56 45.84 227.4 43.68"/><polygon class="cls-1" points="120.84 44.52 158.04 47.04 123.24 47.04 120.84 44.52"/><polygon class="cls-1" points="120.84 44.52 160.44 44.52 158.04 47.04 120.84 44.52"/><polygon class="cls-1" points="227.4 45.84 269.04 48.12 227.4 48.12 227.4 45.84"/><polygon class="cls-1" points="227.4 45.84 271.56 45.84 269.04 48.12 227.4 45.84"/><polygon class="cls-1" points="123.24 47.04 155.4 49.2 125.88 49.2 123.24 47.04"/><polygon class="cls-1" points="123.24 47.04 158.04 47.04 155.4 49.2 123.24 47.04"/><polygon class="cls-1" points="227.4 48.12 266.16 50.16 227.4 50.16 227.4 48.12"/><polygon class="cls-1" points="227.4 48.12 269.04 48.12 266.16 50.16 227.4 48.12"/><polygon class="cls-1" points="125.88 49.2 152.4 51 128.88 51 125.88 49.2"/><polygon class="cls-1" points="125.88 49.2 155.4 49.2 152.4 51 125.88 49.2"/><polygon class="cls-1" points="227.4 50.16 263.04 51.72 227.4 51.72 227.4 50.16"/><polygon class="cls-1" points="227.4 50.16 266.16 50.16 263.04 51.72 227.4 50.16"/><polygon class="cls-1" points="128.88 51 149.16 52.44 132.12 52.44 128.88 51"/><polygon class="cls-1" points="128.88 51 152.4 51 149.16 52.44 128.88 51"/><polygon class="cls-1" points="227.4 51.72 259.8 52.92 227.4 52.92 227.4 51.72"/><polygon class="cls-1" points="227.4 51.72 263.04 51.72 259.8 52.92 227.4 51.72"/><polygon class="cls-1" points="132.12 52.44 145.8 53.4 135.48 53.4 132.12 52.44"/><polygon class="cls-1" points="132.12 52.44 149.16 52.44 145.8 53.4 132.12 52.44"/><polygon class="cls-1" points="227.4 52.92 256.32 53.64 227.4 53.64 227.4 52.92"/><polygon class="cls-1" points="227.4 52.92 259.8 52.92 256.32 53.64 227.4 52.92"/><polygon class="cls-1" points="135.48 53.4 142.44 53.88 138.84 53.88 135.48 53.4"/><polygon class="cls-1" points="135.48 53.4 145.8 53.4 142.44 53.88 135.48 53.4"/><polygon class="cls-1" points="227.4 53.64 252.84 53.88 227.4 53.88 227.4 53.64"/><polygon class="cls-1" points="227.4 53.64 256.32 53.64 252.84 53.88 227.4 53.64"/><polygon class="cls-1" points="212.04 28.44 222.24 53.88 212.04 53.88 212.04 28.44"/><polygon class="cls-1" points="212.04 28.44 222.24 28.44 222.24 53.88 212.04 28.44"/><polygon class="cls-1" points="171.24 28.44 181.44 53.88 171.24 53.88 171.24 28.44"/><polygon class="cls-1" points="171.24 28.44 181.44 28.44 181.44 53.88 171.24 28.44"/><polygon class="cls-1" points="2.88 28.44 13.08 53.88 2.88 53.88 2.88 28.44"/><polygon class="cls-1" points="2.88 28.44 13.08 28.44 13.08 53.88 2.88 28.44"/><polyline class="cls-2" points="227.4 2.88 227.4 13.08 252.84 13.08"/><polyline class="cls-3" points="252.84 43.56 254.88 43.44 256.8 43.08 258.72 42.36 260.52 41.52 262.08 40.44 263.64 39.12 264.96 37.56 266.04 35.88 266.88 34.2 267.6 32.28 267.96 30.36 268.08 28.32 267.96 26.28 267.6 24.36 266.88 22.44 266.04 20.64 264.96 19.08 263.64 17.52 262.08 16.2 260.52 15.12 258.72 14.28 256.8 13.56 254.88 13.2 252.84 13.08"/><polyline class="cls-2" points="252.84 43.68 227.4 43.68 227.4 53.88 252.84 53.88"/><polyline class="cls-3" points="252.84 53.76 255.48 53.64 258.12 53.16 260.76 52.56 263.16 51.6 265.56 50.4 267.84 48.96 269.88 47.28 271.8 45.36 273.48 43.32 274.92 41.04 276.12 38.64 277.08 36.24 277.68 33.6 278.16 30.96 278.28 28.32 278.16 25.68 277.68 23.04 277.08 20.4 276.12 18 274.92 15.6 273.48 13.32 271.8 11.28 269.88 9.36 267.84 7.68 265.56 6.24 263.16 5.04 260.76 4.08 258.12 3.48 255.48 3 252.84 2.88"/><line class="cls-2" x1="252.84" y1="2.88" x2="227.4" y2="2.88"/><polyline class="cls-2" points="224.88 0.36 224.88 15.6 252.84 15.6"/><polyline class="cls-3" points="252.84 41.04 254.64 40.92 256.44 40.56 258.12 39.84 259.68 39 261.12 37.92 262.44 36.6 263.52 35.16 264.36 33.6 265.08 31.92 265.44 30.12 265.56 28.32 265.44 26.52 265.08 24.72 264.36 23.04 263.52 21.48 262.44 20.04 261.12 18.72 259.68 17.64 258.12 16.8 256.44 16.08 254.64 15.72 252.84 15.6"/><polyline class="cls-2" points="252.84 41.16 224.88 41.16 224.88 56.4 252.84 56.4"/><polyline class="cls-3" points="252.84 56.28 255.6 56.16 258.24 55.8 261 55.08 263.52 54.12 266.04 52.92 268.32 51.6 270.6 49.92 272.64 48.12 274.44 46.08 276.12 43.8 277.44 41.52 278.64 39 279.6 36.48 280.32 33.72 280.68 31.08 280.8 28.32 280.68 25.56 280.32 22.92 279.6 20.16 278.64 17.64 277.44 15.12 276.12 12.84 274.44 10.56 272.64 8.52 270.6 6.72 268.32 5.04 266.04 3.72 263.52 2.52 261 1.56 258.24 0.84 255.6 0.48 252.84 0.36"/><line class="cls-2" x1="252.84" y1="0.36" x2="224.88" y2="0.36"/><polyline class="cls-2" points="171.24 53.88 181.44 53.88 181.44 28.32"/><polyline class="cls-3" points="212.04 28.32 211.92 26.28 211.56 24.36 210.84 22.44 210 20.64 208.92 19.08 207.6 17.52 206.04 16.2 204.48 15.12 202.68 14.28 200.76 13.56 198.84 13.2 196.8 13.08 194.76 13.2 192.84 13.56 190.92 14.28 189.24 15.12 187.56 16.2 186 17.52 184.68 19.08 183.6 20.64 182.76 22.44 182.04 24.36 181.68 26.28 181.56 28.32"/><polyline class="cls-2" points="212.04 28.32 212.04 53.88 222.24 53.88 222.24 28.32"/><polyline class="cls-3" points="222.24 28.32 222.12 25.68 221.64 23.04 221.04 20.4 220.08 18 218.88 15.6 217.44 13.32 215.76 11.28 213.84 9.36 211.8 7.68 209.52 6.24 207.12 5.04 204.72 4.08 202.08 3.48 199.44 3 196.8 2.88 194.16 3 191.52 3.48 188.88 4.08 186.48 5.04 184.08 6.24 181.8 7.68 179.76 9.36 177.84 11.28 176.16 13.32 174.72 15.6 173.52 18 172.56 20.4 171.96 23.04 171.48 25.68 171.36 28.32"/><line class="cls-2" x1="171.24" y1="28.32" x2="171.24" y2="53.88"/><polyline class="cls-2" points="168.72 56.4 183.96 56.4 183.96 28.32"/><polyline class="cls-3" points="209.52 28.32 209.4 26.52 209.04 24.72 208.32 23.04 207.48 21.48 206.4 20.04 205.08 18.72 203.64 17.64 202.08 16.8 200.4 16.08 198.6 15.72 196.8 15.6 195 15.72 193.2 16.08 191.52 16.8 189.96 17.64 188.52 18.72 187.2 20.04 186.12 21.48 185.28 23.04 184.56 24.72 184.2 26.52 184.08 28.32"/><polyline class="cls-2" points="209.52 28.32 209.52 56.4 224.88 56.4 224.88 28.32"/><polyline class="cls-3" points="224.76 28.32 224.64 25.56 224.28 22.92 223.56 20.16 222.6 17.64 221.4 15.12 220.08 12.84 218.4 10.56 216.6 8.52 214.56 6.72 212.28 5.04 210 3.72 207.48 2.52 204.96 1.56 202.2 0.84 199.56 0.48 196.8 0.36 194.04 0.48 191.4 0.84 188.64 1.56 186.12 2.52 183.6 3.72 181.32 5.04 179.04 6.72 177 8.52 175.2 10.56 173.52 12.84 172.2 15.12 171 17.64 170.04 20.16 169.32 22.92 168.96 25.56 168.84 28.32"/><path class="cls-2" d="M115.08,2.88V28.32m53.64,0V56.4"/><polyline class="cls-3" points="115.2 28.32 115.32 30.96 115.8 33.6 116.4 36.24 117.36 38.64 118.56 41.04 120 43.32 121.68 45.36 123.6 47.28 125.64 48.96 127.92 50.4 130.32 51.6 132.72 52.56 135.36 53.16 138 53.64 140.64 53.76 143.28 53.64 145.92 53.16 148.56 52.56 150.96 51.6 153.36 50.4 155.64 48.96 157.68 47.28 159.6 45.36 161.28 43.32 162.72 41.04 163.92 38.64 164.88 36.24 165.48 33.6 165.96 30.96 166.08 28.32"/><polyline class="cls-2" points="166.2 28.32 166.2 2.88 156 2.88 156 28.32"/><polyline class="cls-3" points="125.4 28.32 125.52 30.36 125.88 32.28 126.6 34.2 127.44 35.88 128.52 37.56 129.84 39.12 131.4 40.44 133.08 41.52 134.76 42.36 136.68 43.08 138.6 43.44 140.64 43.56 142.68 43.44 144.6 43.08 146.52 42.36 148.32 41.52 149.88 40.44 151.44 39.12 152.76 37.56 153.84 35.88 154.68 34.2 155.4 32.28 155.76 30.36 155.88 28.32"/><polyline class="cls-2" points="125.28 28.32 125.28 2.88 115.08 2.88"/><line class="cls-2" x1="112.56" y1="0.36" x2="112.56" y2="28.32"/><polyline class="cls-3" points="112.68 28.32 112.8 31.08 113.16 33.72 113.88 36.48 114.84 39 116.04 41.52 117.36 43.8 119.04 46.08 120.84 48.12 122.88 49.92 125.16 51.6 127.44 52.92 129.96 54.12 132.48 55.08 135.24 55.8 137.88 56.16 140.64 56.28 143.4 56.16 146.04 55.8 148.8 55.08 151.32 54.12 153.84 52.92 156.12 51.6 158.4 49.92 160.44 48.12 162.24 46.08 163.92 43.8 165.24 41.52 166.44 39 167.4 36.48 168.12 33.72 168.48 31.08 168.6 28.32"/><polyline class="cls-2" points="168.72 28.32 168.72 0.36 153.36 0.36 153.36 28.32"/><polyline class="cls-3" points="127.92 28.32 128.04 30.12 128.4 31.92 129.12 33.6 129.96 35.16 131.04 36.6 132.36 37.92 133.8 39 135.36 39.84 137.04 40.56 138.84 40.92 140.64 41.04 142.44 40.92 144.24 40.56 145.92 39.84 147.48 39 148.92 37.92 150.24 36.6 151.32 35.16 152.16 33.6 152.88 31.92 153.24 30.12 153.36 28.32"/><polyline class="cls-2" points="127.92 28.32 127.92 0.36 112.56 0.36"/><polyline class="cls-2" points="2.88 53.88 13.08 53.88 13.08 28.44"/><polyline class="cls-3" points="43.68 28.44 43.56 26.4 43.2 24.48 42.48 22.56 41.64 20.76 40.56 19.2 39.24 17.64 37.68 16.32 36.12 15.24 34.32 14.4 32.4 13.68 30.48 13.32 28.44 13.2 26.4 13.32 24.48 13.68 22.56 14.4 20.88 15.24 19.2 16.32 17.64 17.64 16.32 19.2 15.24 20.76 14.4 22.56 13.68 24.48 13.32 26.4 13.2 28.44"/><line class="cls-2" x1="43.68" y1="28.44" x2="53.88" y2="28.44"/><polyline class="cls-3" points="53.88 28.44 53.76 25.8 53.28 23.16 52.68 20.52 51.72 18.12 50.52 15.72 49.08 13.44 47.4 11.4 45.48 9.48 43.44 7.8 41.16 6.36 38.76 5.16 36.36 4.2 33.72 3.6 31.08 3.12 28.44 3 25.8 3.12 23.16 3.6 20.52 4.2 18.12 5.16 15.72 6.36 13.44 7.8 11.4 9.48 9.48 11.4 7.8 13.44 6.36 15.72 5.16 18.12 4.2 20.52 3.6 23.16 3.12 25.8 3 28.44"/><polyline class="cls-2" points="2.88 28.44 2.88 53.88 0.36 56.4"/><path class="cls-2" d="M209.52,56.4,212,53.88M184,56.4l-2.52-2.52M168.72,56.4l2.52-2.52m-5-51L168.72.36m-15.36,0L156,2.88M112.56.36l2.52,2.52M127.92.36l-2.64,2.52M56.4,31l-2.52-2.52M41.16,31l2.52-2.52M13.08,53.88,15.6,56.4"/><polyline class="cls-2" points="222.24 53.88 224.88 56.4 227.4 53.88"/><polyline class="cls-2" points="0.36 28.44 0.36 56.4 15.6 56.4 15.6 28.44"/><polyline class="cls-3" points="41.16 28.44 41.04 26.64 40.68 24.84 39.96 23.16 39.12 21.6 38.04 20.16 36.72 18.84 35.28 17.76 33.72 16.92 32.04 16.2 30.24 15.84 28.44 15.72 26.64 15.84 24.84 16.2 23.16 16.92 21.6 17.76 20.16 18.84 18.84 20.16 17.76 21.6 16.92 23.16 16.2 24.84 15.84 26.64 15.72 28.44"/><polyline class="cls-2" points="41.16 28.44 41.16 30.96 56.4 30.96 56.4 28.44"/><polyline class="cls-3" points="56.4 28.44 56.28 25.68 55.92 23.04 55.2 20.28 54.24 17.76 53.04 15.24 51.72 12.96 50.04 10.68 48.24 8.64 46.2 6.84 43.92 5.16 41.64 3.84 39.12 2.64 36.6 1.68 33.84 0.96 31.2 0.6 28.44 0.48 25.68 0.6 23.04 0.96 20.28 1.68 17.76 2.64 15.24 3.84 12.96 5.16 10.68 6.84 8.64 8.64 6.84 10.68 5.16 12.96 3.84 15.24 2.64 17.76 1.68 20.28 0.96 23.04 0.6 25.68 0.48 28.44"/></g></g></svg>