<svg xmlns="http://www.w3.org/2000/svg" viewBox="0 0 51.32 51.12"><defs><style>.cls-1,.cls-4,.cls-5{fill:#fff;}.cls-1{fill-rule:evenodd;}.cls-2,.cls-3{fill:none;}.cls-2,.cls-3,.cls-4,.cls-5{stroke:#fff;stroke-linecap:round;stroke-width:0.72px;}.cls-2,.cls-5{stroke-linejoin:round;}.cls-3,.cls-4{stroke-linejoin:bevel;}</style></defs><title>Risorsa 1</title><g id="Livello_2" data-name="Livello 2"><g id="Livello_1-2" data-name="Livello 1"><g id="Livello_1-2-2" data-name="Livello 1-2"><polygon class="cls-1" points="37.06 35.66 44.26 37.36 35.26 37.36 37.06 35.66"/><polygon class="cls-1" points="37.06 35.66 43.36 35.66 44.26 37.36 37.06 35.66"/><polygon class="cls-1" points="8.16 35.66 16.26 37.36 7.16 37.36 8.16 35.66"/><polygon class="cls-1" points="8.16 35.66 14.36 35.66 16.26 37.36 8.16 35.66"/><polygon class="cls-1" points="35.26 37.36 45.16 38.86 33.06 38.86 35.26 37.36"/><polygon class="cls-1" points="35.26 37.36 44.26 37.36 45.16 38.86 35.26 37.36"/><polygon class="cls-1" points="7.16 37.36 18.36 38.86 6.36 38.86 7.16 37.36"/><polygon class="cls-1" points="7.16 37.36 16.26 37.36 18.36 38.86 7.16 37.36"/><polygon class="cls-1" points="33.06 38.86 45.76 39.86 30.66 39.86 33.06 38.86"/><polygon class="cls-1" points="33.06 38.86 45.16 38.86 45.76 39.86 33.06 38.86"/><polygon class="cls-1" points="6.36 38.86 20.66 39.86 5.76 39.86 6.36 38.86"/><polygon class="cls-1" points="6.36 38.86 18.36 38.86 20.66 39.86 6.36 38.86"/><polygon class="cls-1" points="30.66 39.86 46.06 40.56 28.26 40.56 30.66 39.86"/><polygon class="cls-1" points="30.66 39.86 45.76 39.86 46.06 40.56 30.66 39.86"/><polygon class="cls-1" points="5.76 39.86 23.16 40.56 5.36 40.56 5.76 39.86"/><polygon class="cls-1" points="5.76 39.86 20.66 39.86 23.16 40.56 5.76 39.86"/><polygon class="cls-1" points="28.26 40.56 46.06 40.56 27.56 40.56 28.26 40.56"/><polygon class="cls-1" points="28.26 40.56 46.06 40.56 46.06 40.56 28.26 40.56"/><polygon class="cls-1" points="5.36 40.56 23.76 40.56 5.26 40.56 5.36 40.56"/><polygon class="cls-1" points="5.36 40.56 23.16 40.56 23.76 40.56 5.36 40.56"/><polygon class="cls-1" points="27.56 40.56 45.96 40.76 25.66 40.76 27.56 40.56"/><polygon class="cls-1" points="27.56 40.56 46.06 40.56 45.96 40.76 27.56 40.56"/><polygon class="cls-1" points="5.26 40.56 25.66 40.76 5.36 40.76 5.26 40.56"/><polygon class="cls-1" points="5.26 40.56 23.76 40.56 25.66 40.76 5.26 40.56"/><polygon class="cls-1" points="5.36 40.76 43.96 43.06 7.56 43.06 5.36 40.76"/><polygon class="cls-1" points="5.36 40.76 45.96 40.76 43.96 43.06 5.36 40.76"/><polygon class="cls-1" points="7.56 43.06 41.46 45.36 10.06 45.36 7.56 43.06"/><polygon class="cls-1" points="7.56 43.06 43.96 43.06 41.46 45.36 7.56 43.06"/><polygon class="cls-1" points="10.06 45.36 38.66 47.26 12.76 47.26 10.06 45.36"/><polygon class="cls-1" points="10.06 45.36 41.46 45.36 38.66 47.26 10.06 45.36"/><polygon class="cls-1" points="12.76 47.26 35.56 48.86 15.76 48.86 12.76 47.26"/><polygon class="cls-1" points="12.76 47.26 38.66 47.26 35.56 48.86 12.76 47.26"/><polygon class="cls-1" points="15.76 48.86 32.36 50.06 18.96 50.06 15.76 48.86"/><polygon class="cls-1" points="15.76 48.86 35.56 48.86 32.36 50.06 15.76 48.86"/><polygon class="cls-1" points="22.36 50.66 29.16 50.66 25.66 50.86 22.36 50.66"/><polygon class="cls-1" points="18.96 50.06 29.16 50.66 22.36 50.66 18.96 50.06"/><polygon class="cls-1" points="18.96 50.06 32.36 50.06 29.16 50.66 18.96 50.06"/><polygon class="cls-1" points="22.96 0.36 23.16 0.96 19.56 0.96 22.96 0.36"/><polygon class="cls-1" points="19.56 0.96 23.76 1.96 16.36 1.96 19.56 0.96"/><polygon class="cls-1" points="19.56 0.96 23.16 0.96 23.76 1.96 19.56 0.96"/><polygon class="cls-1" points="16.36 1.96 24.56 3.46 13.36 3.46 16.36 1.96"/><polygon class="cls-1" points="16.36 1.96 23.76 1.96 24.56 3.46 16.36 1.96"/><polygon class="cls-1" points="13.36 3.46 25.66 5.26 10.56 5.26 13.36 3.46"/><polygon class="cls-1" points="13.36 3.46 24.56 3.46 25.66 5.26 13.36 3.46"/><polygon class="cls-1" points="10.56 5.26 24.46 7.56 8.06 7.56 10.56 5.26"/><polygon class="cls-1" points="10.56 5.26 25.66 5.26 24.46 7.56 10.56 5.26"/><polygon class="cls-1" points="8.06 7.56 23.06 9.96 5.76 9.96 8.06 7.56"/><polygon class="cls-1" points="8.06 7.56 24.46 7.56 23.06 9.96 8.06 7.56"/><polygon class="cls-1" points="5.76 9.96 22.56 10.76 5.26 10.76 5.76 9.96"/><polygon class="cls-1" points="5.76 9.96 23.06 9.96 22.56 10.76 5.76 9.96"/><polygon class="cls-1" points="5.26 10.76 20.06 11.46 4.66 11.46 5.26 10.76"/><polygon class="cls-1" points="5.26 10.76 22.56 10.76 20.06 11.46 5.26 10.76"/><polygon class="cls-1" points="4.66 11.46 17.76 12.66 3.96 12.66 4.66 11.46"/><polygon class="cls-1" points="4.66 11.46 20.06 11.46 17.76 12.66 4.66 11.46"/><polygon class="cls-1" points="3.96 12.66 17.56 12.76 3.86 12.76 3.96 12.66"/><polygon class="cls-1" points="3.96 12.66 17.76 12.66 17.56 12.76 3.96 12.66"/><polygon class="cls-1" points="3.86 12.76 15.66 13.96 3.16 13.96 3.86 12.76"/><polygon class="cls-1" points="3.86 12.76 17.56 12.76 15.66 13.96 3.86 12.76"/><polygon class="cls-1" points="3.16 13.96 14.06 15.76 2.26 15.76 3.16 13.96"/><polygon class="cls-1" points="3.16 13.96 15.66 13.96 14.06 15.76 3.16 13.96"/><polygon class="cls-1" points="2.26 15.76 13.86 15.86 2.26 15.86 2.26 15.76"/><polygon class="cls-1" points="2.26 15.76 14.06 15.76 13.86 15.86 2.26 15.76"/><polygon class="cls-1" points="2.26 15.86 12.46 18.16 1.46 18.16 2.26 15.86"/><polygon class="cls-1" points="2.26 15.86 13.86 15.86 12.46 18.16 2.26 15.86"/><polygon class="cls-1" points="1.46 18.16 12.06 18.86 1.26 18.86 1.46 18.16"/><polygon class="cls-1" points="1.46 18.16 12.46 18.16 12.06 18.86 1.46 18.16"/><polygon class="cls-1" points="1.26 18.86 11.36 20.56 0.96 20.56 1.26 18.86"/><polygon class="cls-1" points="1.26 18.86 12.06 18.86 11.36 20.56 1.26 18.86"/><polygon class="cls-1" points="0.96 20.56 10.86 22.16 0.66 22.16 0.96 20.56"/><polygon class="cls-1" points="0.96 20.56 11.36 20.56 10.86 22.16 0.96 20.56"/><polygon class="cls-1" points="0.66 22.16 10.76 22.96 0.46 22.96 0.66 22.16"/><polygon class="cls-1" points="0.66 22.16 10.86 22.16 10.76 22.96 0.66 22.16"/><polygon class="cls-1" points="0.46 22.96 10.56 25.56 0.36 25.56 0.46 22.96"/><polygon class="cls-1" points="0.46 22.96 10.76 22.96 10.56 25.56 0.46 22.96"/><polygon class="cls-1" points="0.36 25.56 10.66 27.96 0.46 27.96 0.36 25.56"/><polygon class="cls-1" points="0.36 25.56 10.56 25.56 10.66 27.96 0.36 25.56"/><polygon class="cls-1" points="0.46 27.96 10.96 29.06 0.66 29.06 0.46 27.96"/><polygon class="cls-1" points="0.46 27.96 10.66 27.96 10.96 29.06 0.46 27.96"/><polygon class="cls-1" points="0.66 29.06 11.26 30.26 0.86 30.26 0.66 29.06"/><polygon class="cls-1" points="0.66 29.06 10.96 29.06 11.26 30.26 0.66 29.06"/><polygon class="cls-1" points="0.86 30.26 10.06 32.36 1.36 32.36 0.86 30.26"/><polygon class="cls-1" points="0.86 30.26 11.26 30.26 10.06 32.36 0.86 30.26"/><polygon class="cls-1" points="1.36 32.36 8.16 35.66 2.46 35.66 1.36 32.36"/><polygon class="cls-1" points="1.36 32.36 10.06 32.36 8.16 35.66 1.36 32.36"/><polygon class="cls-1" points="28.56 0.36 31.86 0.96 28.16 0.96 28.56 0.36"/><polygon class="cls-1" points="28.16 0.96 35.06 1.96 27.56 1.96 28.16 0.96"/><polygon class="cls-1" points="28.16 0.96 31.86 0.96 35.06 1.96 28.16 0.96"/><polygon class="cls-1" points="27.56 1.96 38.06 3.46 26.76 3.46 27.56 1.96"/><polygon class="cls-1" points="27.56 1.96 35.06 1.96 38.06 3.46 27.56 1.96"/><polygon class="cls-1" points="26.76 3.46 40.96 5.26 25.66 5.26 26.76 3.46"/><polygon class="cls-1" points="26.76 3.46 38.06 3.46 40.96 5.26 26.76 3.46"/><polygon class="cls-1" points="25.66 5.26 43.46 7.56 26.96 7.56 25.66 5.26"/><polygon class="cls-1" points="25.66 5.26 40.96 5.26 43.46 7.56 25.66 5.26"/><polygon class="cls-1" points="26.96 7.56 45.76 9.96 28.46 9.96 26.96 7.56"/><polygon class="cls-1" points="26.96 7.56 43.46 7.56 45.76 9.96 26.96 7.56"/><polygon class="cls-1" points="28.46 9.96 46.16 10.76 28.76 10.76 28.46 9.96"/><polygon class="cls-1" points="28.46 9.96 45.76 9.96 46.16 10.76 28.46 9.96"/><polygon class="cls-1" points="28.76 10.76 46.66 11.46 31.26 11.46 28.76 10.76"/><polygon class="cls-1" points="28.76 10.76 46.16 10.76 46.66 11.46 28.76 10.76"/><polygon class="cls-1" points="31.26 11.46 47.56 12.66 33.66 12.66 31.26 11.46"/><polygon class="cls-1" points="31.26 11.46 46.66 11.46 47.56 12.66 31.26 11.46"/><polygon class="cls-1" points="33.66 12.66 47.66 12.76 33.96 12.76 33.66 12.66"/><polygon class="cls-1" points="33.66 12.66 47.56 12.66 47.66 12.76 33.66 12.66"/><polygon class="cls-1" points="33.96 12.76 48.26 13.96 35.66 13.96 33.96 12.76"/><polygon class="cls-1" points="33.96 12.76 47.66 12.76 48.26 13.96 33.96 12.76"/><polygon class="cls-1" points="35.66 13.96 49.06 15.76 37.26 15.76 35.66 13.96"/><polygon class="cls-1" points="35.66 13.96 48.26 13.96 49.06 15.76 35.66 13.96"/><polygon class="cls-1" points="37.26 15.76 49.16 15.86 37.46 15.86 37.26 15.76"/><polygon class="cls-1" points="37.26 15.76 49.06 15.76 49.16 15.86 37.26 15.76"/><polygon class="cls-1" points="37.46 15.86 49.86 18.16 39.06 18.16 37.46 15.86"/><polygon class="cls-1" points="37.46 15.86 49.16 15.86 49.86 18.16 37.46 15.86"/><polygon class="cls-1" points="39.06 18.16 50.16 18.86 39.36 18.86 39.06 18.16"/><polygon class="cls-1" points="39.06 18.16 49.86 18.16 50.16 18.86 39.06 18.16"/><polygon class="cls-1" points="39.36 18.86 50.46 20.56 40.16 20.56 39.36 18.86"/><polygon class="cls-1" points="39.36 18.86 50.16 18.86 50.46 20.56 39.36 18.86"/><polygon class="cls-1" points="40.16 20.56 50.86 22.16 40.46 22.16 40.16 20.56"/><polygon class="cls-1" points="40.16 20.56 50.46 20.56 50.86 22.16 40.16 20.56"/><polygon class="cls-1" points="40.46 22.16 50.86 22.96 40.76 22.96 40.46 22.16"/><polygon class="cls-1" points="40.46 22.16 50.86 22.16 50.86 22.96 40.46 22.16"/><polygon class="cls-1" points="40.76 22.96 51.06 25.56 40.96 25.56 40.76 22.96"/><polygon class="cls-1" points="40.76 22.96 50.86 22.96 51.06 25.56 40.76 22.96"/><polygon class="cls-1" points="40.96 25.56 50.96 27.96 40.76 27.96 40.96 25.56"/><polygon class="cls-1" points="40.96 25.56 51.06 25.56 50.96 27.96 40.96 25.56"/><polygon class="cls-1" points="40.76 27.96 50.86 29.06 40.46 29.06 40.76 27.96"/><polygon class="cls-1" points="40.76 27.96 50.96 27.96 50.86 29.06 40.76 27.96"/><polygon class="cls-1" points="40.46 29.06 50.66 30.26 40.16 30.26 40.46 29.06"/><polygon class="cls-1" points="40.46 29.06 50.86 29.06 50.66 30.26 40.46 29.06"/><polygon class="cls-1" points="40.16 30.26 50.16 32.36 41.46 32.36 40.16 30.26"/><polygon class="cls-1" points="40.16 30.26 50.66 30.26 50.16 32.36 40.16 30.26"/><polygon class="cls-1" points="41.46 32.36 48.96 35.66 43.36 35.66 41.46 32.36"/><polygon class="cls-1" points="41.46 32.36 50.16 32.36 48.96 35.66 41.46 32.36"/><line class="cls-2" x1="25.66" y1="5.26" x2="28.76" y2="10.76"/><polyline class="cls-3" points="40.86 25.56 40.76 23.86 40.46 21.96 39.96 20.56 39.26 18.86 38.46 17.36 37.46 15.86 36.26 14.66 34.96 13.66 33.56 12.66 31.96 11.86 30.46 11.16 28.76 10.76"/><polyline class="cls-4" points="40.16 30.36 40.36 29.16 40.56 27.96 40.86 26.86 40.86 25.66"/><polyline class="cls-5" points="40.16 30.26 43.36 35.66 48.96 35.66"/><polyline class="cls-4" points="48.86 35.66 49.56 34.06 50.06 32.36 50.46 30.66 50.76 29.06 50.96 27.36 50.96 25.66"/><polyline class="cls-3" points="50.96 25.56 50.86 23.26 50.46 20.96 50.06 18.76 49.26 16.36 48.36 14.36 47.26 12.46 45.96 10.56 44.56 8.76 42.96 6.96 41.16 5.46 39.26 4.06 37.26 3.06 35.26 2.06 33.06 1.26 30.86 0.76 28.56 0.36"/><line class="cls-2" x1="28.56" y1="0.36" x2="25.66" y2="5.26"/><line class="cls-2" x1="43.36" y1="35.66" x2="37.06" y2="35.66"/><polyline class="cls-3" points="14.36 35.56 15.66 36.76 17.06 37.96 18.66 38.96 20.36 39.66 22.06 40.16 23.86 40.56 25.66 40.56 27.46 40.56 29.26 40.16 31.06 39.66 32.76 38.96 34.26 37.96 35.66 36.76 37.06 35.56"/><polyline class="cls-5" points="14.36 35.66 8.16 35.66 5.26 40.56"/><polyline class="cls-3" points="5.26 40.56 6.96 42.56 8.86 44.26 10.86 45.96 13.16 47.36 15.46 48.56 17.96 49.56 20.46 50.16 23.06 50.66 25.66 50.76 28.26 50.66 30.96 50.16 33.46 49.56 35.96 48.56 38.16 47.36 40.46 45.96 42.46 44.26 44.46 42.56 46.06 40.56"/><path class="cls-5" d="M46.06,40.56l-2.7-4.9"/><polyline class="cls-3" points="22.86 0.46 20.56 0.86 18.26 1.46 16.16 2.16 14.06 3.16 12.06 4.26 10.16 5.66 8.36 7.16 6.86 8.86 5.36 10.66 4.06 12.56 3.06 14.56 2.06 16.56 1.36 18.86 0.86 21.16 0.46 23.36 0.36 25.66"/><polyline class="cls-4" points="0.36 25.56 0.36 27.36 0.66 28.86 0.86 30.56 1.36 32.26 1.86 33.96 2.56 35.56"/><polyline class="cls-5" points="2.46 35.66 8.16 35.66 11.26 30.26"/><polyline class="cls-4" points="10.56 25.66 10.56 26.86 10.76 27.96 10.96 29.16 11.26 30.36"/><polyline class="cls-3" points="22.56 10.76 20.86 11.16 19.36 11.86 17.76 12.66 16.36 13.66 15.06 14.66 13.86 15.86 12.96 17.36 12.06 18.86 11.36 20.56 10.86 21.96 10.66 23.86 10.56 25.56"/><polyline class="cls-5" points="22.56 10.76 25.66 5.26 22.96 0.36"/></g></g></g></svg>