<?xml version="1.0" encoding="utf-8"?>
<!-- Generator: Adobe Illustrator 23.0.3, SVG Export Plug-In . SVG Version: 6.00 Build 0)  -->
<svg version="1.1" id="Livello_1" xmlns="http://www.w3.org/2000/svg" xmlns:xlink="http://www.w3.org/1999/xlink" x="0px" y="0px"
	 viewBox="0 0 281.2 56.8" style="enable-background:new 0 0 281.2 56.8;" xml:space="preserve">
<style type="text/css">
	.st0{fill-rule:evenodd;clip-rule:evenodd;fill:#FFFFFF;}
	.st1{fill:#FFFFFF;stroke:#FFFFFF;stroke-width:0.72;stroke-linecap:round;stroke-linejoin:round;}
	.st2{fill:none;stroke:#FFFFFF;stroke-width:0.72;stroke-linecap:round;stroke-linejoin:bevel;}
	.st3{fill:#FFFFFF;stroke:#FFFFFF;stroke-width:0.72;stroke-linecap:round;stroke-linejoin:bevel;}
</style>
<g>
	<g id="Livello_1-2">
		<polygon class="st0" points="95.9,38.9 103.1,40.6 94.1,40.6 		"/>
		<polygon class="st0" points="95.9,38.9 102.2,38.9 103.1,40.6 		"/>
		<polygon class="st0" points="67,38.9 75.1,40.6 66,40.6 		"/>
		<polygon class="st0" points="67,38.9 73.2,38.9 75.1,40.6 		"/>
		<polygon class="st0" points="94.1,40.6 104,42.1 91.9,42.1 		"/>
		<polygon class="st0" points="94.1,40.6 103.1,40.6 104,42.1 		"/>
		<polygon class="st0" points="66,40.6 77.2,42.1 65.2,42.1 		"/>
		<polygon class="st0" points="66,40.6 75.1,40.6 77.2,42.1 		"/>
		<polygon class="st0" points="91.9,42.1 104.6,43.1 89.5,43.1 		"/>
		<polygon class="st0" points="91.9,42.1 104,42.1 104.6,43.1 		"/>
		<polygon class="st0" points="65.2,42.1 79.5,43.1 64.6,43.1 		"/>
		<polygon class="st0" points="65.2,42.1 77.2,42.1 79.5,43.1 		"/>
		<polygon class="st0" points="89.5,43.1 104.9,43.8 87.1,43.8 		"/>
		<polygon class="st0" points="89.5,43.1 104.6,43.1 104.9,43.8 		"/>
		<polygon class="st0" points="64.6,43.1 82,43.8 64.2,43.8 		"/>
		<polygon class="st0" points="64.6,43.1 79.5,43.1 82,43.8 		"/>
		<polygon class="st0" points="87.1,43.8 104.9,43.8 86.4,43.8 		"/>
		<polygon class="st0" points="87.1,43.8 104.9,43.8 104.9,43.8 		"/>
		<polygon class="st0" points="64.2,43.8 82.6,43.8 64.1,43.8 		"/>
		<polygon class="st0" points="64.2,43.8 82,43.8 82.6,43.8 		"/>
		<polygon class="st0" points="86.4,43.8 104.8,44 84.5,44 		"/>
		<polygon class="st0" points="86.4,43.8 104.9,43.8 104.8,44 		"/>
		<polygon class="st0" points="64.1,43.8 84.5,44 64.2,44 		"/>
		<polygon class="st0" points="64.1,43.8 82.6,43.8 84.5,44 		"/>
		<polygon class="st0" points="64.2,44 102.8,46.3 66.4,46.3 		"/>
		<polygon class="st0" points="64.2,44 104.8,44 102.8,46.3 		"/>
		<polygon class="st0" points="66.4,46.3 100.3,48.6 68.9,48.6 		"/>
		<polygon class="st0" points="66.4,46.3 102.8,46.3 100.3,48.6 		"/>
		<polygon class="st0" points="68.9,48.6 97.5,50.5 71.6,50.5 		"/>
		<polygon class="st0" points="68.9,48.6 100.3,48.6 97.5,50.5 		"/>
		<polygon class="st0" points="71.6,50.5 94.4,52.1 74.6,52.1 		"/>
		<polygon class="st0" points="71.6,50.5 97.5,50.5 94.4,52.1 		"/>
		<polygon class="st0" points="74.6,52.1 91.2,53.3 77.8,53.3 		"/>
		<polygon class="st0" points="74.6,52.1 94.4,52.1 91.2,53.3 		"/>
		<polygon class="st0" points="81.2,53.9 88,53.9 84.5,54.1 		"/>
		<polygon class="st0" points="77.8,53.3 88,53.9 81.2,53.9 		"/>
		<polygon class="st0" points="77.8,53.3 91.2,53.3 88,53.9 		"/>
		<polygon class="st0" points="81.8,3.6 82,4.2 78.4,4.2 		"/>
		<polygon class="st0" points="78.4,4.2 82.6,5.2 75.2,5.2 		"/>
		<polygon class="st0" points="78.4,4.2 82,4.2 82.6,5.2 		"/>
		<polygon class="st0" points="75.2,5.2 83.4,6.7 72.2,6.7 		"/>
		<polygon class="st0" points="75.2,5.2 82.6,5.2 83.4,6.7 		"/>
		<polygon class="st0" points="72.2,6.7 84.5,8.5 69.4,8.5 		"/>
		<polygon class="st0" points="72.2,6.7 83.4,6.7 84.5,8.5 		"/>
		<path class="st0" d="M69.4,8.5L69.4,8.5z"/>
		<polygon class="st0" points="69.4,8.5 83.3,10.8 66.9,10.8 		"/>
		<polygon class="st0" points="69.4,8.5 84.5,8.5 83.3,10.8 		"/>
		<polygon class="st0" points="66.9,10.8 81.9,13.2 64.6,13.2 		"/>
		<polygon class="st0" points="66.9,10.8 83.3,10.8 81.9,13.2 		"/>
		<polygon class="st0" points="64.6,13.2 81.4,14 64.1,14 		"/>
		<polygon class="st0" points="64.6,13.2 81.9,13.2 81.4,14 		"/>
		<polygon class="st0" points="64.1,14 78.9,14.7 63.5,14.7 		"/>
		<polygon class="st0" points="64.1,14 81.4,14 78.9,14.7 		"/>
		<polygon class="st0" points="63.5,14.7 76.6,15.9 62.8,15.9 		"/>
		<polygon class="st0" points="63.5,14.7 78.9,14.7 76.6,15.9 		"/>
		<polygon class="st0" points="62.8,15.9 76.4,16 62.7,16 		"/>
		<polygon class="st0" points="62.8,15.9 76.6,15.9 76.4,16 		"/>
		<polygon class="st0" points="62.7,16 74.5,17.2 62,17.2 		"/>
		<polygon class="st0" points="62.7,16 76.4,16 74.5,17.2 		"/>
		<polygon class="st0" points="62,17.2 72.9,19 61.1,19 		"/>
		<polygon class="st0" points="62,17.2 74.5,17.2 72.9,19 		"/>
		<polygon class="st0" points="61.1,19 72.7,19.1 61.1,19.1 		"/>
		<polygon class="st0" points="61.1,19 72.9,19 72.7,19.1 		"/>
		<polygon class="st0" points="61.1,19.1 71.3,21.4 60.3,21.4 		"/>
		<polygon class="st0" points="61.1,19.1 72.7,19.1 71.3,21.4 		"/>
		<polygon class="st0" points="60.3,21.4 70.9,22.1 60.1,22.1 		"/>
		<polygon class="st0" points="60.3,21.4 71.3,21.4 70.9,22.1 		"/>
		<polygon class="st0" points="60.1,22.1 70.2,23.8 59.8,23.8 		"/>
		<polygon class="st0" points="60.1,22.1 70.9,22.1 70.2,23.8 		"/>
		<polygon class="st0" points="59.8,23.8 69.7,25.4 59.5,25.4 		"/>
		<polygon class="st0" points="59.8,23.8 70.2,23.8 69.7,25.4 		"/>
		<polygon class="st0" points="59.5,25.4 69.6,26.2 59.3,26.2 		"/>
		<polygon class="st0" points="59.5,25.4 69.7,25.4 69.6,26.2 		"/>
		<polygon class="st0" points="59.3,26.2 69.4,28.8 59.2,28.8 		"/>
		<polygon class="st0" points="59.3,26.2 69.6,26.2 69.4,28.8 		"/>
		<polygon class="st0" points="59.2,28.8 69.5,31.2 59.3,31.2 		"/>
		<polygon class="st0" points="59.2,28.8 69.4,28.8 69.5,31.2 		"/>
		<polygon class="st0" points="59.3,31.2 69.8,32.3 59.5,32.3 		"/>
		<polygon class="st0" points="59.3,31.2 69.5,31.2 69.8,32.3 		"/>
		<polygon class="st0" points="59.5,32.3 70.1,33.5 59.7,33.5 		"/>
		<polygon class="st0" points="59.5,32.3 69.8,32.3 70.1,33.5 		"/>
		<polygon class="st0" points="59.7,33.5 68.9,35.6 60.2,35.6 		"/>
		<polygon class="st0" points="59.7,33.5 70.1,33.5 68.9,35.6 		"/>
		<polygon class="st0" points="60.2,35.6 67,38.9 61.3,38.9 		"/>
		<polygon class="st0" points="60.2,35.6 68.9,35.6 67,38.9 		"/>
		<polygon class="st0" points="87.4,3.6 90.7,4.2 87,4.2 		"/>
		<polygon class="st0" points="87,4.2 93.9,5.2 86.4,5.2 		"/>
		<polygon class="st0" points="87,4.2 90.7,4.2 93.9,5.2 		"/>
		<polygon class="st0" points="86.4,5.2 96.9,6.7 85.6,6.7 		"/>
		<polygon class="st0" points="86.4,5.2 93.9,5.2 96.9,6.7 		"/>
		<polygon class="st0" points="85.6,6.7 99.8,8.5 84.5,8.5 		"/>
		<polygon class="st0" points="85.6,6.7 96.9,6.7 99.8,8.5 		"/>
		<path class="st0" d="M84.5,8.5L84.5,8.5z"/>
		<polygon class="st0" points="84.5,8.5 102.3,10.8 85.8,10.8 		"/>
		<polygon class="st0" points="84.5,8.5 99.8,8.5 102.3,10.8 		"/>
		<polygon class="st0" points="85.8,10.8 104.6,13.2 87.3,13.2 		"/>
		<polygon class="st0" points="85.8,10.8 102.3,10.8 104.6,13.2 		"/>
		<polygon class="st0" points="87.3,13.2 105,14 87.6,14 		"/>
		<polygon class="st0" points="87.3,13.2 104.6,13.2 105,14 		"/>
		<polygon class="st0" points="87.6,14 105.5,14.7 90.1,14.7 		"/>
		<polygon class="st0" points="87.6,14 105,14 105.5,14.7 		"/>
		<polygon class="st0" points="90.1,14.7 106.4,15.9 92.5,15.9 		"/>
		<polygon class="st0" points="90.1,14.7 105.5,14.7 106.4,15.9 		"/>
		<polygon class="st0" points="92.5,15.9 106.5,16 92.8,16 		"/>
		<polygon class="st0" points="92.5,15.9 106.4,15.9 106.5,16 		"/>
		<polygon class="st0" points="92.8,16 107.1,17.2 94.5,17.2 		"/>
		<polygon class="st0" points="92.8,16 106.5,16 107.1,17.2 		"/>
		<polygon class="st0" points="94.5,17.2 107.9,19 96.1,19 		"/>
		<polygon class="st0" points="94.5,17.2 107.1,17.2 107.9,19 		"/>
		<polygon class="st0" points="96.1,19 108,19.1 96.3,19.1 		"/>
		<polygon class="st0" points="96.1,19 107.9,19 108,19.1 		"/>
		<polygon class="st0" points="96.3,19.1 108.7,21.4 97.9,21.4 		"/>
		<polygon class="st0" points="96.3,19.1 108,19.1 108.7,21.4 		"/>
		<polygon class="st0" points="97.9,21.4 109,22.1 98.2,22.1 		"/>
		<polygon class="st0" points="97.9,21.4 108.7,21.4 109,22.1 		"/>
		<polygon class="st0" points="98.2,22.1 109.3,23.8 99,23.8 		"/>
		<polygon class="st0" points="98.2,22.1 109,22.1 109.3,23.8 		"/>
		<polygon class="st0" points="99,23.8 109.7,25.4 99.3,25.4 		"/>
		<polygon class="st0" points="99,23.8 109.3,23.8 109.7,25.4 		"/>
		<polygon class="st0" points="99.3,25.4 109.7,26.2 99.6,26.2 		"/>
		<polygon class="st0" points="99.3,25.4 109.7,25.4 109.7,26.2 		"/>
		<polygon class="st0" points="99.6,26.2 109.9,28.8 99.8,28.8 		"/>
		<polygon class="st0" points="99.6,26.2 109.7,26.2 109.9,28.8 		"/>
		<polygon class="st0" points="99.8,28.8 109.8,31.2 99.6,31.2 		"/>
		<polygon class="st0" points="99.8,28.8 109.9,28.8 109.8,31.2 		"/>
		<polygon class="st0" points="99.6,31.2 109.7,32.3 99.3,32.3 		"/>
		<polygon class="st0" points="99.6,31.2 109.8,31.2 109.7,32.3 		"/>
		<polygon class="st0" points="99.3,32.3 109.5,33.5 99,33.5 		"/>
		<polygon class="st0" points="99.3,32.3 109.7,32.3 109.5,33.5 		"/>
		<polygon class="st0" points="99,33.5 109,35.6 100.3,35.6 		"/>
		<polygon class="st0" points="99,33.5 109.5,33.5 109,35.6 		"/>
		<polygon class="st0" points="100.3,35.6 107.8,38.9 102.2,38.9 		"/>
		<polygon class="st0" points="100.3,35.6 109,35.6 107.8,38.9 		"/>
		<line class="st1" x1="84.5" y1="8.5" x2="87.6" y2="14"/>
		<polyline class="st2" points="99.7,28.8 99.6,27.1 99.3,25.2 98.8,23.8 98.1,22.1 97.3,20.6 96.3,19.1 95.1,17.9 93.8,16.9 
			92.4,15.9 90.8,15.1 89.3,14.4 87.6,14 		"/>
		<polyline class="st3" points="99,33.6 99.2,32.4 99.4,31.2 99.7,30.1 99.7,28.9 		"/>
		<polyline class="st1" points="99,33.5 102.2,38.9 107.8,38.9 		"/>
		<polyline class="st3" points="107.7,38.9 108.4,37.3 108.9,35.6 109.3,33.9 109.6,32.3 109.8,30.6 109.8,28.9 		"/>
		<polyline class="st2" points="109.8,28.8 109.7,26.5 109.3,24.2 108.9,22 108.1,19.6 107.2,17.6 106.1,15.7 104.8,13.8 103.4,12 
			101.8,10.2 100,8.7 98.1,7.3 96.1,6.3 94.1,5.3 91.9,4.5 89.7,4 87.4,3.6 		"/>
		<line class="st1" x1="87.4" y1="3.6" x2="84.5" y2="8.5"/>
		<line class="st1" x1="102.2" y1="38.9" x2="95.9" y2="38.9"/>
		<polyline class="st2" points="73.2,38.8 74.5,40 75.9,41.2 77.5,42.2 79.2,42.9 80.9,43.4 82.7,43.8 84.5,43.8 86.3,43.8 
			88.1,43.4 89.9,42.9 91.6,42.2 93.1,41.2 94.5,40 95.9,38.8 		"/>
		<polyline class="st1" points="73.2,38.9 67,38.9 64.1,43.8 		"/>
		<polyline class="st2" points="64.1,43.8 65.8,45.8 67.7,47.5 69.7,49.2 72,50.6 74.3,51.8 76.8,52.8 79.3,53.4 81.9,53.9 84.5,54 
			87.1,53.9 89.8,53.4 92.3,52.8 94.8,51.8 97,50.6 99.3,49.2 101.3,47.5 103.3,45.8 104.9,43.8 		"/>
		<path class="st1" d="M104.9,43.8l-2.7-4.9"/>
		<path class="st1" d="M71.4,36.3 M74.4,36.3"/>
		<path class="st1" d="M86.1,16.1 M84.5,13.6"/>
		<path class="st3" d="M86.1,16.2"/>
		<path class="st1" d="M97.8,36.3"/>
		<polyline class="st2" points="81.7,3.7 79.4,4.1 77.1,4.7 75,5.4 72.9,6.4 70.9,7.5 69,8.9 67.2,10.4 65.7,12.1 64.2,13.9 
			62.9,15.8 61.9,17.8 60.9,19.8 60.2,22.1 59.7,24.4 59.3,26.6 59.2,28.9 		"/>
		<polyline class="st3" points="59.2,28.8 59.2,30.6 59.5,32.1 59.7,33.8 60.2,35.5 60.7,37.2 61.4,38.8 		"/>
		<polyline class="st1" points="61.3,38.9 67,38.9 70.1,33.5 		"/>
		<polyline class="st3" points="69.4,28.9 69.4,30.1 69.6,31.2 69.8,32.4 70.1,33.6 		"/>
		<polyline class="st2" points="81.4,14 79.7,14.4 78.2,15.1 76.6,15.9 75.2,16.9 73.9,17.9 72.7,19.1 71.8,20.6 70.9,22.1 
			70.2,23.8 69.7,25.2 69.5,27.1 69.4,28.8 		"/>
		<polyline class="st1" points="81.4,14 84.5,8.5 81.8,3.6 		"/>
		<path class="st1" d="M71.4,36.3"/>
		<path class="st1" d="M84.5,13.6 M83.1,16.2"/>
	</g>
</g>
</svg>
