<?xml version="1.0" encoding="utf-8"?>
<!-- Generator: Adobe Illustrator 23.0.3, SVG Export Plug-In . SVG Version: 6.00 Build 0)  -->
<svg version="1.1" id="whiteRound" xmlns="http://www.w3.org/2000/svg" xmlns:xlink="http://www.w3.org/1999/xlink" x="0px" y="0px"
	 viewBox="0 0 281.2 56.8" style="enable-background:new 0 0 281.2 56.8;" xml:space="preserve">
<style type="text/css">
	.st0{fill-rule:evenodd;clip-rule:evenodd;fill:#FFFFFF;}
	.st1{fill:none;stroke:#FFFFFF;stroke-width:0.216;stroke-linejoin:bevel;}
</style>
<path class="st0" d="M99.7,28.3c0-8.6-6.8-15.6-15.3-15.6c-8.5,0-15.4,7-15.4,15.6c0,8.6,6.8,15.6,15.4,15.6
	C92.9,43.9,99.7,36.9,99.7,28.3z M109.9,28.3c0-14.3-11.4-25.9-25.5-25.9C70.2,2.4,58.8,14,58.8,28.3c0,14.3,11.4,25.9,25.6,25.9
	C98.5,54.3,109.9,42.6,109.9,28.3z"/>
<path class="st0" d="M2.5,28.3v25.9h10.2V28.3c0-5.6,2.9-10.7,7.7-13.5c4.7-2.8,10.6-2.8,15.3,0c4.8,2.8,7.7,7.9,7.7,13.5h10.2
	c0-9.3-4.9-17.9-12.8-22.4c-7.9-4.6-17.7-4.6-25.6,0C7.4,10.5,2.5,19,2.5,28.3z"/>
<path class="st1" d="M2.5,28.3v25.9h10.2V28.3c0-5.6,2.9-10.7,7.7-13.5c4.7-2.8,10.6-2.8,15.3,0c4.8,2.8,7.7,7.9,7.7,13.5h10.2
	c0-9.3-4.9-17.9-12.8-22.4c-7.9-4.6-17.7-4.6-25.6,0C7.4,10.5,2.5,19,2.5,28.3z"/>
<path class="st1" d="M99.7,28.3c0-8.6-6.8-15.6-15.3-15.6c-8.5,0-15.4,7-15.4,15.6c0,8.6,6.8,15.6,15.4,15.6
	C92.9,43.9,99.7,36.9,99.7,28.3z M109.9,28.3c0-14.3-11.4-25.9-25.5-25.9C70.2,2.4,58.8,14,58.8,28.3c0,14.3,11.4,25.9,25.6,25.9
	C98.5,54.3,109.9,42.6,109.9,28.3z"/>
<path class="st0" d="M253.3,2.4h-25.5v10.4h25.5c5.5,0,10.6,3,13.3,7.8c2.7,4.8,2.7,10.7,0,15.6c-2.7,4.8-7.8,7.8-13.3,7.8h-25.5
	v10.4h25.5c9.2,0,17.6-4.9,22.2-13c4.5-8,4.5-17.9,0-25.9C270.9,7.3,262.4,2.4,253.3,2.4z"/>
<path class="st1" d="M253.3,2.4h-25.5v10.4h25.5c5.5,0,10.6,3,13.3,7.8c2.7,4.8,2.7,10.7,0,15.6c-2.7,4.8-7.8,7.8-13.3,7.8h-25.5
	v10.4h25.5c9.2,0,17.6-4.9,22.2-13c4.5-8,4.5-17.9,0-25.9C270.9,7.3,262.4,2.4,253.3,2.4z"/>
<path class="st0" d="M171.4,28.3v25.9h10.2V28.3c0-5.6,3-10.7,7.7-13.5c4.8-2.8,10.7-2.8,15.4,0c4.7,2.8,7.7,7.9,7.7,13.5v25.9h10.2
	V28.3c0-9.3-4.9-17.9-12.8-22.4c-8-4.6-17.7-4.6-25.6,0C176.2,10.5,171.4,19,171.4,28.3z"/>
<path class="st1" d="M171.4,28.3v25.9h10.2V28.3c0-5.6,3-10.7,7.7-13.5c4.8-2.8,10.7-2.8,15.4,0c4.7,2.8,7.7,7.9,7.7,13.5v25.9h10.2
	V28.3c0-9.3-4.9-17.9-12.8-22.4c-8-4.6-17.7-4.6-25.6,0C176.2,10.5,171.4,19,171.4,28.3z"/>
<path class="st0" d="M125.3,2.4h-10.2v25.9c0,9.2,4.9,17.8,12.8,22.5c8,4.6,17.7,4.6,25.6,0c8-4.6,12.8-13.2,12.8-22.5V2.4h-10.2
	v25.9c0,5.6-3,10.7-7.7,13.4c-4.8,2.8-10.7,2.8-15.4,0c-4.7-2.7-7.7-7.9-7.7-13.4V2.4z"/>
<path class="st1" d="M125.3,2.4h-10.2v25.9c0,9.2,4.9,17.8,12.8,22.5c8,4.6,17.7,4.6,25.6,0c8-4.6,12.8-13.2,12.8-22.5V2.4h-10.2
	v25.9c0,5.6-3,10.7-7.7,13.4c-4.8,2.8-10.7,2.8-15.4,0c-4.7-2.7-7.7-7.9-7.7-13.4V2.4z"/>
</svg>
