<?xml version="1.0" encoding="utf-8"?>
<!-- Generator: Adobe Illustrator 23.0.3, SVG Export Plug-In . SVG Version: 6.00 Build 0)  -->
<svg version="1.1" id="Livello_1" xmlns="http://www.w3.org/2000/svg" xmlns:xlink="http://www.w3.org/1999/xlink" x="0px" y="0px"
	 viewBox="0 0 281.2 56.8" style="enable-background:new 0 0 281.2 56.8;" xml:space="preserve">
<style type="text/css">
	.st0{fill:none;}
	.st1{enable-background:new    ;}
	.st2{fill:#FFFFFF;}
</style>
<rect x="122.8" y="17.2" class="st0" width="162.2" height="24.1"/>
<g class="st1">
	<path class="st2" d="M134.3,34h-0.8l-2.8-9l0-0.6l0,0.6l-2.8,9H127l-4-12h1.5l2.9,9.1l0,0.6l0-0.6l2.8-9.1h0.9l2.8,9.1l0,0.6l0-0.6
		l2.9-9.1h1.5L134.3,34z"/>
	<path class="st2" d="M147.8,32.1c-0.2,0.4-0.4,0.8-0.8,1.1s-0.7,0.6-1.1,0.8s-0.9,0.3-1.4,0.3h-1c-0.5,0-0.9-0.1-1.4-0.3
		s-0.8-0.4-1.1-0.8s-0.6-0.7-0.8-1.1s-0.3-0.9-0.3-1.4v-5.4c0-0.5,0.1-0.9,0.3-1.4s0.4-0.8,0.8-1.1s0.7-0.6,1.1-0.8s0.9-0.3,1.4-0.3
		h1c0.5,0,0.9,0.1,1.4,0.3s0.8,0.4,1.1,0.8s0.6,0.7,0.8,1.1s0.3,0.9,0.3,1.4v5.4C148,31.2,147.9,31.7,147.8,32.1z M146.6,25.2
		c0-0.3-0.1-0.6-0.2-0.8s-0.3-0.5-0.4-0.7s-0.4-0.3-0.7-0.4s-0.5-0.2-0.8-0.2h-1c-0.3,0-0.6,0.1-0.8,0.2s-0.5,0.3-0.7,0.4
		s-0.3,0.4-0.4,0.7s-0.2,0.5-0.2,0.8v5.6c0,0.3,0.1,0.6,0.2,0.8s0.3,0.5,0.4,0.7s0.4,0.3,0.7,0.4s0.5,0.2,0.8,0.2h1
		c0.3,0,0.6-0.1,0.8-0.2s0.5-0.3,0.7-0.4s0.3-0.4,0.4-0.7s0.2-0.5,0.2-0.8V25.2z"/>
	<path class="st2" d="M154.4,23.4c-0.3,0-0.6,0.1-0.8,0.2s-0.5,0.3-0.7,0.4s-0.3,0.4-0.4,0.7s-0.2,0.5-0.2,0.8V34h-1.4V22h0.5
		l0.8,1.2c0.3-0.4,0.7-0.8,1.2-1.1s1-0.4,1.6-0.4h0.8v1.6H154.4z"/>
	<path class="st2" d="M158.3,34V17.2h1.4V34H158.3z M164.9,34l-4.9-6l4.9-6h1.9l-5,6l5,6H164.9z"/>
	<path class="st2" d="M174.6,19.1v-1.9h1.7v1.9H174.6z M174.7,34V22h1.4v12H174.7z"/>
	<path class="st2" d="M186.1,34v-8.8c0-0.3-0.1-0.6-0.2-0.8s-0.3-0.5-0.4-0.7s-0.4-0.3-0.7-0.4s-0.5-0.2-0.8-0.2h-1
		c-0.3,0-0.6,0.1-0.8,0.2s-0.5,0.3-0.7,0.4s-0.3,0.4-0.4,0.7s-0.2,0.5-0.2,0.8V34h-1.4V22h0.5l0.8,1.2c0.3-0.4,0.7-0.8,1.2-1.1
		s1-0.4,1.6-0.4h0.4c0.5,0,0.9,0.1,1.4,0.3s0.8,0.4,1.1,0.8s0.6,0.7,0.8,1.1s0.3,0.9,0.3,1.4V34H186.1z"/>
	<path class="st2" d="M203.7,32.1c-0.2,0.4-0.4,0.8-0.8,1.1s-0.7,0.6-1.1,0.8s-0.9,0.3-1.4,0.3h-0.4c-0.5,0-1-0.1-1.5-0.3
		s-0.9-0.5-1.2-0.9v5.8h-1.4V22h0.5l0.8,1.2c0.3-0.4,0.7-0.8,1.2-1.1s1-0.4,1.6-0.4h0.4c0.5,0,0.9,0.1,1.4,0.3s0.8,0.4,1.1,0.8
		s0.6,0.7,0.8,1.1s0.3,0.9,0.3,1.4v5.4C203.9,31.2,203.9,31.7,203.7,32.1z M202.5,25.2c0-0.3-0.1-0.6-0.2-0.8s-0.3-0.5-0.4-0.7
		s-0.4-0.3-0.7-0.4s-0.5-0.2-0.8-0.2h-1c-0.3,0-0.6,0.1-0.8,0.2s-0.5,0.3-0.7,0.4s-0.3,0.4-0.4,0.7s-0.2,0.5-0.2,0.8v5.6
		c0,0.3,0.1,0.6,0.2,0.8s0.3,0.5,0.4,0.7s0.4,0.3,0.7,0.4s0.5,0.2,0.8,0.2h1c0.3,0,0.6-0.1,0.8-0.2s0.5-0.3,0.7-0.4s0.3-0.4,0.4-0.7
		s0.2-0.5,0.2-0.8V25.2z"/>
	<path class="st2" d="M210.4,23.4c-0.3,0-0.6,0.1-0.8,0.2s-0.5,0.3-0.7,0.4s-0.3,0.4-0.4,0.7s-0.2,0.5-0.2,0.8V34h-1.4V22h0.5
		l0.8,1.2c0.3-0.4,0.7-0.8,1.2-1.1s1-0.4,1.6-0.4h0.8v1.6H210.4z"/>
	<path class="st2" d="M221.5,32.1c-0.2,0.4-0.4,0.8-0.8,1.1s-0.7,0.6-1.1,0.8s-0.9,0.3-1.4,0.3h-1c-0.5,0-0.9-0.1-1.4-0.3
		s-0.8-0.4-1.1-0.8s-0.6-0.7-0.8-1.1s-0.3-0.9-0.3-1.4v-5.4c0-0.5,0.1-0.9,0.3-1.4s0.4-0.8,0.8-1.1s0.7-0.6,1.1-0.8s0.9-0.3,1.4-0.3
		h1c0.5,0,0.9,0.1,1.4,0.3s0.8,0.4,1.1,0.8s0.6,0.7,0.8,1.1s0.3,0.9,0.3,1.4v5.4C221.7,31.2,221.6,31.7,221.5,32.1z M220.3,25.2
		c0-0.3-0.1-0.6-0.2-0.8s-0.3-0.5-0.4-0.7s-0.4-0.3-0.7-0.4s-0.5-0.2-0.8-0.2h-1c-0.3,0-0.6,0.1-0.8,0.2s-0.5,0.3-0.7,0.4
		s-0.3,0.4-0.4,0.7s-0.2,0.5-0.2,0.8v5.6c0,0.3,0.1,0.6,0.2,0.8s0.3,0.5,0.4,0.7s0.4,0.3,0.7,0.4s0.5,0.2,0.8,0.2h1
		c0.3,0,0.6-0.1,0.8-0.2s0.5-0.3,0.7-0.4s0.3-0.4,0.4-0.7s0.2-0.5,0.2-0.8V25.2z"/>
	<path class="st2" d="M232.5,36.9c-0.2,0.4-0.4,0.8-0.8,1s-0.7,0.5-1.1,0.7s-0.9,0.2-1.4,0.2h-0.6c-0.5,0-0.9-0.1-1.4-0.2
		s-0.8-0.4-1.1-0.7s-0.6-0.6-0.8-1s-0.3-0.9-0.3-1.3v0c0-0.5,0.1-0.9,0.3-1.3s0.4-0.7,0.7-1c-0.4-0.2-0.7-0.5-0.9-0.9
		s-0.3-0.8-0.3-1.3c0-0.4,0.1-0.8,0.3-1.2s0.4-0.7,0.7-0.9c-0.4-0.3-0.7-0.7-0.9-1.2s-0.3-1-0.3-1.5v-0.9c0-0.5,0.1-0.9,0.3-1.4
		s0.4-0.8,0.8-1.1s0.7-0.6,1.1-0.8s0.9-0.3,1.4-0.3h0.6c0.6,0,1.1,0.1,1.6,0.4s0.9,0.6,1.2,1.1l0.8-1.2h0.5v4.2
		c0,0.5-0.1,0.9-0.3,1.4s-0.4,0.8-0.8,1.1s-0.7,0.6-1.1,0.8s-0.9,0.3-1.4,0.3h-2.1c-0.2,0-0.3,0-0.5,0.1s-0.3,0.2-0.4,0.3
		s-0.2,0.2-0.3,0.4S226,30.8,226,31s0,0.3,0.1,0.5s0.2,0.3,0.3,0.4s0.2,0.2,0.4,0.3s0.3,0.1,0.5,0.1h2c0.5,0,0.9,0.1,1.4,0.2
		s0.8,0.4,1.1,0.7s0.6,0.6,0.8,1s0.3,0.9,0.3,1.3v0C232.8,36,232.7,36.5,232.5,36.9z M231.4,25.2c0-0.3-0.1-0.6-0.2-0.8
		s-0.3-0.5-0.5-0.7s-0.4-0.3-0.7-0.4s-0.5-0.2-0.8-0.2h-1.2c-0.3,0-0.6,0.1-0.8,0.2s-0.5,0.3-0.7,0.4s-0.3,0.4-0.4,0.7
		s-0.2,0.5-0.2,0.8v1.1c0,0.3,0.1,0.6,0.2,0.8s0.3,0.5,0.4,0.7s0.4,0.3,0.7,0.4s0.5,0.2,0.8,0.2h1.2c0.3,0,0.6-0.1,0.8-0.2
		s0.5-0.3,0.7-0.4s0.3-0.4,0.5-0.7s0.2-0.5,0.2-0.8V25.2z M231.4,35.4c0-0.3-0.1-0.5-0.2-0.8s-0.3-0.4-0.4-0.6s-0.4-0.3-0.7-0.4
		s-0.5-0.1-0.8-0.1h-0.7c-0.3,0-0.6,0-0.8,0.1s-0.5,0.2-0.7,0.4s-0.3,0.3-0.4,0.6s-0.2,0.5-0.2,0.8v0.2c0,0.3,0.1,0.5,0.2,0.8
		s0.3,0.4,0.4,0.6s0.4,0.3,0.7,0.4s0.5,0.1,0.8,0.1h0.7c0.3,0,0.6,0,0.8-0.1s0.5-0.2,0.7-0.4s0.3-0.4,0.4-0.6s0.2-0.5,0.2-0.8V35.4z
		"/>
	<path class="st2" d="M239,23.4c-0.3,0-0.6,0.1-0.8,0.2s-0.5,0.3-0.7,0.4s-0.3,0.4-0.4,0.7s-0.2,0.5-0.2,0.8V34h-1.4V22h0.5l0.8,1.2
		c0.3-0.4,0.7-0.8,1.2-1.1s1-0.4,1.6-0.4h0.8v1.6H239z"/>
	<path class="st2" d="M250.1,32.1c-0.2,0.4-0.4,0.8-0.8,1.1s-0.7,0.6-1.1,0.8s-0.9,0.3-1.4,0.3h-1c-0.5,0-0.9-0.1-1.4-0.3
		s-0.8-0.4-1.1-0.8s-0.6-0.7-0.8-1.1s-0.3-0.9-0.3-1.4v-5.4c0-0.5,0.1-0.9,0.3-1.4s0.4-0.8,0.8-1.1s0.7-0.6,1.1-0.8s0.9-0.3,1.4-0.3
		h1c0.5,0,0.9,0.1,1.4,0.3s0.8,0.4,1.1,0.8s0.6,0.7,0.8,1.1s0.3,0.9,0.3,1.4v2.8h-6.6v2.7c0,0.3,0.1,0.6,0.2,0.8s0.3,0.5,0.4,0.7
		s0.4,0.3,0.7,0.4s0.5,0.2,0.8,0.2h1c0.3,0,0.6-0.1,0.8-0.2s0.5-0.3,0.7-0.4s0.3-0.4,0.4-0.7s0.2-0.5,0.2-0.8V30l1.4,0.2v0.5
		C250.4,31.2,250.3,31.7,250.1,32.1z M249,25.2c0-0.3-0.1-0.6-0.2-0.8s-0.3-0.5-0.4-0.7s-0.4-0.3-0.7-0.4s-0.5-0.2-0.8-0.2h-1
		c-0.3,0-0.6,0.1-0.8,0.2s-0.5,0.3-0.7,0.4s-0.3,0.4-0.4,0.7s-0.2,0.5-0.2,0.8V27h5.1V25.2z"/>
	<path class="st2" d="M261.6,31c0,0.5-0.1,0.9-0.3,1.3s-0.5,0.7-0.8,1s-0.7,0.5-1.2,0.7s-0.9,0.2-1.4,0.2h-1c-0.5,0-0.9-0.1-1.4-0.3
		s-0.8-0.4-1.2-0.8s-0.6-0.7-0.8-1.1s-0.3-0.9-0.3-1.4v-0.5l1.4-0.2v0.8c0,0.3,0.1,0.6,0.2,0.8s0.3,0.5,0.5,0.7s0.4,0.3,0.7,0.4
		s0.5,0.2,0.8,0.2h1c0.3,0,0.6,0,0.8-0.1s0.5-0.2,0.7-0.4s0.4-0.4,0.5-0.6s0.2-0.5,0.2-0.8c0-0.4-0.1-0.8-0.3-1.1s-0.4-0.5-0.7-0.7
		s-0.7-0.3-1.1-0.5s-0.8-0.2-1.2-0.4s-0.8-0.3-1.2-0.4s-0.7-0.4-1.1-0.6s-0.6-0.6-0.7-1s-0.3-0.9-0.3-1.4c0-0.5,0.1-0.9,0.3-1.3
		s0.4-0.7,0.8-1s0.7-0.5,1.1-0.7s0.9-0.2,1.4-0.2h0.8c0.5,0,0.9,0.1,1.4,0.3s0.8,0.4,1.1,0.8s0.6,0.7,0.8,1.1s0.3,0.9,0.3,1.4v0
		l-1.4,0.2v-0.4c0-0.3-0.1-0.6-0.2-0.8s-0.3-0.5-0.4-0.7s-0.4-0.3-0.7-0.4s-0.5-0.2-0.8-0.2h-0.8c-0.3,0-0.6,0-0.8,0.1
		s-0.5,0.2-0.7,0.4s-0.3,0.4-0.4,0.6S255,24.7,255,25c0,0.4,0.1,0.8,0.3,1s0.4,0.5,0.7,0.7s0.7,0.3,1.1,0.5s0.8,0.2,1.2,0.4
		s0.8,0.3,1.2,0.4s0.7,0.4,1.1,0.6s0.6,0.6,0.7,1S261.6,30.4,261.6,31z"/>
	<path class="st2" d="M272.6,31c0,0.5-0.1,0.9-0.3,1.3s-0.5,0.7-0.8,1s-0.7,0.5-1.2,0.7s-0.9,0.2-1.4,0.2h-1c-0.5,0-0.9-0.1-1.4-0.3
		s-0.8-0.4-1.2-0.8s-0.6-0.7-0.8-1.1s-0.3-0.9-0.3-1.4v-0.5l1.4-0.2v0.8c0,0.3,0.1,0.6,0.2,0.8s0.3,0.5,0.5,0.7s0.4,0.3,0.7,0.4
		s0.5,0.2,0.8,0.2h1c0.3,0,0.6,0,0.8-0.1s0.5-0.2,0.7-0.4s0.4-0.4,0.5-0.6s0.2-0.5,0.2-0.8c0-0.4-0.1-0.8-0.3-1.1s-0.4-0.5-0.7-0.7
		s-0.7-0.3-1.1-0.5s-0.8-0.2-1.2-0.4s-0.8-0.3-1.2-0.4s-0.7-0.4-1.1-0.6s-0.6-0.6-0.7-1s-0.3-0.9-0.3-1.4c0-0.5,0.1-0.9,0.3-1.3
		s0.4-0.7,0.8-1s0.7-0.5,1.1-0.7s0.9-0.2,1.4-0.2h0.8c0.5,0,0.9,0.1,1.4,0.3s0.8,0.4,1.1,0.8s0.6,0.7,0.8,1.1s0.3,0.9,0.3,1.4v0
		l-1.4,0.2v-0.4c0-0.3-0.1-0.6-0.2-0.8s-0.3-0.5-0.4-0.7s-0.4-0.3-0.7-0.4s-0.5-0.2-0.8-0.2h-0.8c-0.3,0-0.6,0-0.8,0.1
		s-0.5,0.2-0.7,0.4s-0.3,0.4-0.4,0.6S266,24.7,266,25c0,0.4,0.1,0.8,0.3,1s0.4,0.5,0.7,0.7s0.7,0.3,1.1,0.5s0.8,0.2,1.2,0.4
		s0.8,0.3,1.2,0.4s0.7,0.4,1.1,0.6s0.6,0.6,0.7,1S272.6,30.4,272.6,31z"/>
</g>
</svg>
