<svg xmlns="http://www.w3.org/2000/svg" viewBox="0 0 51.62 51.62"><defs><style>.cls-1{fill:#fff;fill-rule:evenodd;}.cls-2{fill:none;stroke:#fff;stroke-linecap:round;stroke-linejoin:bevel;stroke-width:0.72px;}</style></defs><title>Risorsa 1</title><g id="Livello_2" data-name="Livello 2"><g id="Livello_1-2" data-name="Livello 1"><g id="Livello_1-2-2" data-name="Livello 1-2"><g id="Livello_1-2-2-2" data-name="Livello 1-2-2"><polygon class="cls-1" points="23.96 0.36 30.96 0.76 20.66 0.76 23.96 0.36"/><polygon class="cls-1" points="23.96 0.36 27.46 0.36 30.96 0.76 23.96 0.36"/><polygon class="cls-1" points="20.66 0.76 34.36 1.76 17.26 1.76 20.66 0.76"/><polygon class="cls-1" points="20.66 0.76 30.96 0.76 34.36 1.76 20.66 0.76"/><polygon class="cls-1" points="17.26 1.76 37.56 3.16 14.06 3.16 17.26 1.76"/><polygon class="cls-1" points="17.26 1.76 34.36 1.76 37.56 3.16 17.26 1.76"/><polygon class="cls-1" points="14.06 3.16 40.46 4.96 11.06 4.96 14.06 3.16"/><polygon class="cls-1" points="14.06 3.16 37.56 3.16 40.46 4.96 14.06 3.16"/><polygon class="cls-1" points="11.06 4.96 43.16 7.16 8.36 7.16 11.06 4.96"/><polygon class="cls-1" points="11.06 4.96 40.46 4.96 43.16 7.16 11.06 4.96"/><polygon class="cls-1" points="8.36 7.16 45.56 9.66 5.96 9.66 8.36 7.16"/><polygon class="cls-1" points="8.36 7.16 43.16 7.16 45.56 9.66 8.36 7.16"/><polygon class="cls-1" points="5.96 9.66 46.06 10.46 5.36 10.46 5.96 9.66"/><polygon class="cls-1" points="5.96 9.66 45.56 9.66 46.06 10.46 5.96 9.66"/><polygon class="cls-1" points="25.76 10.46 46.36 10.76 28.46 10.76 25.76 10.46"/><polygon class="cls-1" points="25.76 10.46 46.06 10.46 46.36 10.76 25.76 10.46"/><polygon class="cls-1" points="5.36 10.46 23.16 10.76 5.26 10.76 5.36 10.46"/><polygon class="cls-1" points="5.36 10.46 25.76 10.46 23.16 10.76 5.36 10.46"/><polygon class="cls-1" points="28.46 10.76 46.76 11.46 30.96 11.46 28.46 10.76"/><polygon class="cls-1" points="28.46 10.76 46.36 10.76 46.76 11.46 28.46 10.76"/><polygon class="cls-1" points="5.26 10.76 20.56 11.46 4.76 11.46 5.26 10.76"/><polygon class="cls-1" points="5.26 10.76 23.16 10.76 20.56 11.46 5.26 10.76"/><polygon class="cls-1" points="30.96 11.46 47.56 12.56 33.46 12.56 30.96 11.46"/><polygon class="cls-1" points="30.96 11.46 46.76 11.46 47.56 12.56 30.96 11.46"/><polygon class="cls-1" points="4.76 11.46 18.16 12.56 3.96 12.56 4.76 11.46"/><polygon class="cls-1" points="4.76 11.46 20.56 11.46 18.16 12.56 4.76 11.46"/><polygon class="cls-1" points="33.46 12.56 48.36 14.06 35.66 14.06 33.46 12.56"/><polygon class="cls-1" points="33.46 12.56 47.56 12.56 48.36 14.06 33.46 12.56"/><polygon class="cls-1" points="3.96 12.56 15.96 14.06 3.26 14.06 3.96 12.56"/><polygon class="cls-1" points="3.96 12.56 18.16 12.56 15.96 14.06 3.96 12.56"/><polygon class="cls-1" points="35.66 14.06 49.16 15.66 37.16 15.66 35.66 14.06"/><polygon class="cls-1" points="35.66 14.06 48.36 14.06 49.16 15.66 35.66 14.06"/><polygon class="cls-1" points="3.26 14.06 14.36 15.66 2.36 15.66 3.26 14.06"/><polygon class="cls-1" points="3.26 14.06 15.96 14.06 14.36 15.66 3.26 14.06"/><polygon class="cls-1" points="37.16 15.66 49.36 15.96 37.46 15.96 37.16 15.66"/><polygon class="cls-1" points="37.16 15.66 49.16 15.66 49.36 15.96 37.16 15.66"/><polygon class="cls-1" points="2.36 15.66 14.06 15.96 2.26 15.96 2.36 15.66"/><polygon class="cls-1" points="2.36 15.66 14.36 15.66 14.06 15.96 2.36 15.66"/><polygon class="cls-1" points="37.46 15.96 50.06 18.16 38.96 18.16 37.46 15.96"/><polygon class="cls-1" points="37.46 15.96 49.36 15.96 50.06 18.16 37.46 15.96"/><polygon class="cls-1" points="2.26 15.96 12.46 18.16 1.46 18.16 2.26 15.96"/><polygon class="cls-1" points="2.26 15.96 14.06 15.96 12.46 18.16 2.26 15.96"/><polygon class="cls-1" points="38.96 18.16 50.26 18.86 39.36 18.86 38.96 18.16"/><polygon class="cls-1" points="38.96 18.16 50.06 18.16 50.26 18.86 38.96 18.16"/><polygon class="cls-1" points="1.46 18.16 12.16 18.86 1.16 18.86 1.46 18.16"/><polygon class="cls-1" points="1.46 18.16 12.46 18.16 12.16 18.86 1.46 18.16"/><polygon class="cls-1" points="39.36 18.86 50.66 20.56 40.16 20.56 39.36 18.86"/><polygon class="cls-1" points="39.36 18.86 50.26 18.86 50.66 20.56 39.36 18.86"/><polygon class="cls-1" points="1.16 18.86 11.36 20.56 0.86 20.56 1.16 18.86"/><polygon class="cls-1" points="1.16 18.86 12.16 18.86 11.36 20.56 1.16 18.86"/><polygon class="cls-1" points="40.16 20.56 50.96 22.36 40.66 22.36 40.16 20.56"/><polygon class="cls-1" points="40.16 20.56 50.66 20.56 50.96 22.36 40.16 20.56"/><polygon class="cls-1" points="0.86 20.56 10.96 22.36 0.46 22.36 0.86 20.56"/><polygon class="cls-1" points="0.86 20.56 11.36 20.56 10.96 22.36 0.86 20.56"/><polygon class="cls-1" points="40.66 22.36 51.16 23.06 40.76 23.06 40.66 22.36"/><polygon class="cls-1" points="40.66 22.36 50.96 22.36 51.16 23.06 40.66 22.36"/><polygon class="cls-1" points="0.46 22.36 10.66 23.06 0.46 23.06 0.46 22.36"/><polygon class="cls-1" points="0.46 22.36 10.96 22.36 10.66 23.06 0.46 22.36"/><polygon class="cls-1" points="40.76 23.06 51.26 25.86 41.06 25.86 40.76 23.06"/><polygon class="cls-1" points="40.76 23.06 51.16 23.06 51.26 25.86 40.76 23.06"/><polygon class="cls-1" points="0.46 23.06 10.46 25.86 0.26 25.86 0.46 23.06"/><polygon class="cls-1" points="0.46 23.06 10.66 23.06 10.46 25.86 0.46 23.06"/><polygon class="cls-1" points="41.06 25.86 51.16 28.46 40.76 28.46 41.06 25.86"/><polygon class="cls-1" points="41.06 25.86 51.26 25.86 51.16 28.46 41.06 25.86"/><polygon class="cls-1" points="0.26 25.86 10.66 28.46 0.46 28.46 0.26 25.86"/><polygon class="cls-1" points="0.26 25.86 10.46 25.86 10.66 28.46 0.26 25.86"/><polygon class="cls-1" points="40.76 28.46 50.96 29.36 40.66 29.36 40.76 28.46"/><polygon class="cls-1" points="40.76 28.46 51.16 28.46 50.96 29.36 40.76 28.46"/><polygon class="cls-1" points="0.46 28.46 10.96 29.36 0.46 29.36 0.46 28.46"/><polygon class="cls-1" points="0.46 28.46 10.66 28.46 10.96 29.36 0.46 28.46"/><polygon class="cls-1" points="40.66 29.36 50.66 30.96 40.16 30.96 40.66 29.36"/><polygon class="cls-1" points="40.66 29.36 50.96 29.36 50.66 30.96 40.66 29.36"/><polygon class="cls-1" points="0.46 29.36 11.36 30.96 0.86 30.96 0.46 29.36"/><polygon class="cls-1" points="0.46 29.36 10.96 29.36 11.36 30.96 0.46 29.36"/><polygon class="cls-1" points="40.16 30.96 50.26 32.66 39.36 32.66 40.16 30.96"/><polygon class="cls-1" points="40.16 30.96 50.66 30.96 50.26 32.66 40.16 30.96"/><polygon class="cls-1" points="0.86 30.96 12.16 32.66 1.16 32.66 0.86 30.96"/><polygon class="cls-1" points="0.86 30.96 11.36 30.96 12.16 32.66 0.86 30.96"/><polygon class="cls-1" points="39.36 32.66 50.06 33.36 38.96 33.36 39.36 32.66"/><polygon class="cls-1" points="39.36 32.66 50.26 32.66 50.06 33.36 39.36 32.66"/><polygon class="cls-1" points="1.16 32.66 12.46 33.36 1.46 33.36 1.16 32.66"/><polygon class="cls-1" points="1.16 32.66 12.16 32.66 12.46 33.36 1.16 32.66"/><polygon class="cls-1" points="38.96 33.36 49.36 35.66 37.46 35.66 38.96 33.36"/><polygon class="cls-1" points="38.96 33.36 50.06 33.36 49.36 35.66 38.96 33.36"/><polygon class="cls-1" points="1.46 33.36 14.06 35.66 2.26 35.66 1.46 33.36"/><polygon class="cls-1" points="1.46 33.36 12.46 33.36 14.06 35.66 1.46 33.36"/><polygon class="cls-1" points="37.46 35.66 49.16 35.96 37.16 35.96 37.46 35.66"/><polygon class="cls-1" points="37.46 35.66 49.36 35.66 49.16 35.96 37.46 35.66"/><polygon class="cls-1" points="2.26 35.66 14.36 35.96 2.36 35.96 2.26 35.66"/><polygon class="cls-1" points="2.26 35.66 14.06 35.66 14.36 35.96 2.26 35.66"/><polygon class="cls-1" points="37.16 35.96 48.36 37.46 35.66 37.46 37.16 35.96"/><polygon class="cls-1" points="37.16 35.96 49.16 35.96 48.36 37.46 37.16 35.96"/><polygon class="cls-1" points="2.36 35.96 15.96 37.46 3.26 37.46 2.36 35.96"/><polygon class="cls-1" points="2.36 35.96 14.36 35.96 15.96 37.46 2.36 35.96"/><polygon class="cls-1" points="35.66 37.46 47.56 39.06 33.46 39.06 35.66 37.46"/><polygon class="cls-1" points="35.66 37.46 48.36 37.46 47.56 39.06 35.66 37.46"/><polygon class="cls-1" points="3.26 37.46 18.16 39.06 3.96 39.06 3.26 37.46"/><polygon class="cls-1" points="3.26 37.46 15.96 37.46 18.16 39.06 3.26 37.46"/><polygon class="cls-1" points="33.46 39.06 46.76 40.26 30.96 40.26 33.46 39.06"/><polygon class="cls-1" points="33.46 39.06 47.56 39.06 46.76 40.26 33.46 39.06"/><polygon class="cls-1" points="3.96 39.06 20.56 40.26 4.76 40.26 3.96 39.06"/><polygon class="cls-1" points="3.96 39.06 18.16 39.06 20.56 40.26 3.96 39.06"/><polygon class="cls-1" points="30.96 40.26 46.36 40.86 28.46 40.86 30.96 40.26"/><polygon class="cls-1" points="30.96 40.26 46.76 40.26 46.36 40.86 30.96 40.26"/><polygon class="cls-1" points="4.76 40.26 23.16 40.86 5.26 40.86 4.76 40.26"/><polygon class="cls-1" points="4.76 40.26 20.56 40.26 23.16 40.86 4.76 40.26"/><polygon class="cls-1" points="28.46 40.86 46.06 41.06 25.76 41.06 28.46 40.86"/><polygon class="cls-1" points="28.46 40.86 46.36 40.86 46.06 41.06 28.46 40.86"/><polygon class="cls-1" points="5.26 40.86 25.76 41.06 5.36 41.06 5.26 40.86"/><polygon class="cls-1" points="5.26 40.86 23.16 40.86 25.76 41.06 5.26 40.86"/><polygon class="cls-1" points="5.36 41.06 45.56 41.96 5.96 41.96 5.36 41.06"/><polygon class="cls-1" points="5.36 41.06 46.06 41.06 45.56 41.96 5.36 41.06"/><polygon class="cls-1" points="5.96 41.96 43.16 44.46 8.36 44.46 5.96 41.96"/><polygon class="cls-1" points="5.96 41.96 45.56 41.96 43.16 44.46 5.96 41.96"/><polygon class="cls-1" points="8.36 44.46 40.46 46.56 11.06 46.56 8.36 44.46"/><polygon class="cls-1" points="8.36 44.46 43.16 44.46 40.46 46.56 8.36 44.46"/><polygon class="cls-1" points="11.06 46.56 37.56 48.36 14.06 48.36 11.06 46.56"/><polygon class="cls-1" points="11.06 46.56 40.46 46.56 37.56 48.36 11.06 46.56"/><polygon class="cls-1" points="14.06 48.36 34.36 49.86 17.26 49.86 14.06 48.36"/><polygon class="cls-1" points="14.06 48.36 37.56 48.36 34.36 49.86 14.06 48.36"/><polygon class="cls-1" points="17.26 49.86 30.96 50.76 20.66 50.76 17.26 49.86"/><polygon class="cls-1" points="17.26 49.86 34.36 49.86 30.96 50.76 17.26 49.86"/><polygon class="cls-1" points="20.66 50.76 27.46 51.26 23.96 51.26 20.66 50.76"/><polygon class="cls-1" points="20.66 50.76 30.96 50.76 27.46 51.26 20.66 50.76"/><polygon class="cls-2" points="41.06 25.86 40.96 23.76 40.46 21.76 39.76 19.76 38.86 17.96 37.66 16.26 36.26 14.66 34.56 13.36 32.76 12.26 30.96 11.46 28.96 10.96 26.86 10.56 24.76 10.56 22.66 10.96 20.66 11.46 18.86 12.26 17.06 13.36 15.36 14.66 13.96 16.26 12.76 17.96 11.86 19.76 11.16 21.76 10.66 23.76 10.56 25.86 10.66 27.86 11.16 29.96 11.86 31.96 12.76 33.76 13.96 35.46 15.36 36.96 17.06 38.36 18.86 39.36 20.66 40.26 22.66 40.76 24.76 41.06 26.86 41.06 28.96 40.76 30.96 40.26 32.76 39.36 34.56 38.36 36.26 36.96 37.66 35.46 38.86 33.76 39.76 31.96 40.46 29.96 40.96 27.86 41.06 25.86"/><polygon class="cls-2" points="51.26 25.86 51.16 23.16 50.66 20.56 50.06 17.96 49.06 15.56 47.86 13.16 46.46 10.86 44.76 8.76 42.86 6.86 40.76 5.16 38.56 3.76 36.16 2.56 33.76 1.56 31.06 0.96 28.46 0.56 25.76 0.36 23.16 0.56 20.56 0.96 17.86 1.56 15.46 2.56 13.06 3.76 10.76 5.16 8.76 6.86 6.86 8.76 5.16 10.86 3.76 13.16 2.56 15.56 1.56 17.96 0.96 20.56 0.46 23.16 0.36 25.86 0.46 28.46 0.96 31.16 1.56 33.76 2.56 36.16 3.76 38.56 5.16 40.86 6.86 42.86 8.76 44.76 10.76 46.46 13.06 47.96 15.46 49.16 17.86 50.06 20.56 50.66 23.16 51.16 25.76 51.26 28.46 51.16 31.06 50.66 33.76 50.06 36.16 49.16 38.56 47.96 40.76 46.46 42.86 44.76 44.76 42.86 46.46 40.86 47.86 38.56 49.06 36.16 50.06 33.76 50.66 31.16 51.16 28.46 51.26 25.86"/></g></g></g></g></svg>