<?xml version="1.0" encoding="utf-8"?>
<!-- Generator: Adobe Illustrator 23.0.3, SVG Export Plug-In . SVG Version: 6.00 Build 0)  -->
<svg version="1.1" id="Livello_1" xmlns="http://www.w3.org/2000/svg" xmlns:xlink="http://www.w3.org/1999/xlink" x="0px" y="0px"
	 viewBox="0 0 51.6 51.6" style="enable-background:new 0 0 51.6 51.6;" xml:space="preserve">
<style type="text/css">
	.st0{fill-rule:evenodd;clip-rule:evenodd;fill:#FFFFFF;}
	.st1{fill:none;stroke:#FFFFFF;stroke-width:0.216;stroke-linejoin:bevel;}
</style>
<path class="st0" d="M41.2,25.8c0-8.5-6.9-15.4-15.4-15.4c-8.6,0-15.4,6.9-15.4,15.4c0,8.5,6.9,15.4,15.4,15.4
	C34.4,41.2,41.2,34.3,41.2,25.8z M51.5,25.8C51.5,11.7,40,0.2,25.8,0.2C11.6,0.2,0.1,11.7,0.1,25.8c0,14.1,11.5,25.6,25.7,25.6
	C40,51.4,51.5,39.9,51.5,25.8z"/>
<path class="st1" d="M41.2,25.8c0-8.5-6.9-15.4-15.4-15.4c-8.6,0-15.4,6.9-15.4,15.4c0,8.5,6.9,15.4,15.4,15.4
	C34.4,41.2,41.2,34.3,41.2,25.8z M51.5,25.8C51.5,11.7,40,0.2,25.8,0.2C11.6,0.2,0.1,11.7,0.1,25.8c0,14.1,11.5,25.6,25.7,25.6
	C40,51.4,51.5,39.9,51.5,25.8z"/>
<title>Risorsa 1</title>
</svg>
