<?xml version="1.0" encoding="utf-8"?>
<!-- Generator: Adobe Illustrator 23.0.3, SVG Export Plug-In . SVG Version: 6.00 Build 0)  -->
<svg version="1.1" id="Livello_1" xmlns="http://www.w3.org/2000/svg" xmlns:xlink="http://www.w3.org/1999/xlink" x="0px" y="0px"
	 viewBox="0 0 281.2 56.8" style="enable-background:new 0 0 281.2 56.8;" xml:space="preserve">
<style type="text/css">
	.st0{fill-rule:evenodd;clip-rule:evenodd;fill:#B3B3B3;}
	.st1{fill:none;stroke:#B3B3B3;stroke-width:0.72;stroke-linecap:round;stroke-linejoin:bevel;}
</style>
<g id="Livello_1-2_1_">
	<polygon class="st0" points="138.8,2.9 145.8,3.3 135.5,3.3 	"/>
	<polygon class="st0" points="138.8,2.9 142.3,2.9 145.8,3.3 	"/>
	<polygon class="st0" points="135.5,3.3 149.2,4.3 132.1,4.3 	"/>
	<polygon class="st0" points="135.5,3.3 145.8,3.3 149.2,4.3 	"/>
	<polygon class="st0" points="132.1,4.3 152.4,5.7 128.9,5.7 	"/>
	<polygon class="st0" points="132.1,4.3 149.2,4.3 152.4,5.7 	"/>
	<polygon class="st0" points="128.9,5.7 155.3,7.5 125.9,7.5 	"/>
	<polygon class="st0" points="128.9,5.7 152.4,5.7 155.3,7.5 	"/>
	<polygon class="st0" points="125.9,7.5 158,9.7 123.2,9.7 	"/>
	<polygon class="st0" points="125.9,7.5 155.3,7.5 158,9.7 	"/>
	<polygon class="st0" points="123.2,9.7 160.4,12.2 120.8,12.2 	"/>
	<polygon class="st0" points="123.2,9.7 158,9.7 160.4,12.2 	"/>
	<polygon class="st0" points="120.8,12.2 160.9,13 120.2,13 	"/>
	<polygon class="st0" points="120.8,12.2 160.4,12.2 160.9,13 	"/>
	<polygon class="st0" points="140.6,13 161.2,13.3 143.3,13.3 	"/>
	<polygon class="st0" points="140.6,13 160.9,13 161.2,13.3 	"/>
	<polygon class="st0" points="120.2,13 138,13.3 120.1,13.3 	"/>
	<polygon class="st0" points="120.2,13 140.6,13 138,13.3 	"/>
	<polygon class="st0" points="143.3,13.3 161.6,14 145.8,14 	"/>
	<polygon class="st0" points="143.3,13.3 161.2,13.3 161.6,14 	"/>
	<polygon class="st0" points="120.1,13.3 135.4,14 119.6,14 	"/>
	<polygon class="st0" points="120.1,13.3 138,13.3 135.4,14 	"/>
	<polygon class="st0" points="145.8,14 162.4,15.1 148.3,15.1 	"/>
	<polygon class="st0" points="145.8,14 161.6,14 162.4,15.1 	"/>
	<polygon class="st0" points="119.6,14 133,15.1 118.8,15.1 	"/>
	<polygon class="st0" points="119.6,14 135.4,14 133,15.1 	"/>
	<path class="st0" d="M148.3,15.1L148.3,15.1z"/>
	<path class="st0" d="M118.8,15.1L118.8,15.1z"/>
	<polygon class="st0" points="148.3,15.1 163.2,16.6 150.5,16.6 	"/>
	<polygon class="st0" points="148.3,15.1 162.4,15.1 163.2,16.6 	"/>
	<polygon class="st0" points="118.8,15.1 130.8,16.6 118.1,16.6 	"/>
	<polygon class="st0" points="118.8,15.1 133,15.1 130.8,16.6 	"/>
	<polygon class="st0" points="150.5,16.6 164,18.2 152,18.2 	"/>
	<polygon class="st0" points="150.5,16.6 163.2,16.6 164,18.2 	"/>
	<polygon class="st0" points="118.1,16.6 129.2,18.2 117.2,18.2 	"/>
	<polygon class="st0" points="118.1,16.6 130.8,16.6 129.2,18.2 	"/>
	<polygon class="st0" points="152,18.2 164.2,18.5 152.3,18.5 	"/>
	<polygon class="st0" points="152,18.2 164,18.2 164.2,18.5 	"/>
	<polygon class="st0" points="117.2,18.2 128.9,18.5 117.1,18.5 	"/>
	<polygon class="st0" points="117.2,18.2 129.2,18.2 128.9,18.5 	"/>
	<polygon class="st0" points="152.3,18.5 164.9,20.7 153.8,20.7 	"/>
	<polygon class="st0" points="152.3,18.5 164.2,18.5 164.9,20.7 	"/>
	<polygon class="st0" points="117.1,18.5 127.3,20.7 116.3,20.7 	"/>
	<polygon class="st0" points="117.1,18.5 128.9,18.5 127.3,20.7 	"/>
	<polygon class="st0" points="153.8,20.7 165.1,21.4 154.2,21.4 	"/>
	<polygon class="st0" points="153.8,20.7 164.9,20.7 165.1,21.4 	"/>
	<polygon class="st0" points="116.3,20.7 127,21.4 116,21.4 	"/>
	<polygon class="st0" points="116.3,20.7 127.3,20.7 127,21.4 	"/>
	<polygon class="st0" points="154.2,21.4 165.5,23.1 155,23.1 	"/>
	<polygon class="st0" points="154.2,21.4 165.1,21.4 165.5,23.1 	"/>
	<polygon class="st0" points="116,21.4 126.2,23.1 115.7,23.1 	"/>
	<polygon class="st0" points="116,21.4 127,21.4 126.2,23.1 	"/>
	<polygon class="st0" points="155,23.1 165.8,24.9 155.5,24.9 	"/>
	<polygon class="st0" points="155,23.1 165.5,23.1 165.8,24.9 	"/>
	<polygon class="st0" points="115.7,23.1 125.8,24.9 115.3,24.9 	"/>
	<polygon class="st0" points="115.7,23.1 126.2,23.1 125.8,24.9 	"/>
	<polygon class="st0" points="155.5,24.9 166,25.6 155.6,25.6 	"/>
	<polygon class="st0" points="155.5,24.9 165.8,24.9 166,25.6 	"/>
	<polygon class="st0" points="115.3,24.9 125.5,25.6 115.3,25.6 	"/>
	<polygon class="st0" points="115.3,24.9 125.8,24.9 125.5,25.6 	"/>
	<polygon class="st0" points="155.6,25.6 166.1,28.4 155.9,28.4 	"/>
	<polygon class="st0" points="155.6,25.6 166,25.6 166.1,28.4 	"/>
	<polygon class="st0" points="115.3,25.6 125.3,28.4 115.1,28.4 	"/>
	<polygon class="st0" points="115.3,25.6 125.5,25.6 125.3,28.4 	"/>
	<polygon class="st0" points="155.9,28.4 166,31 155.6,31 	"/>
	<polygon class="st0" points="155.9,28.4 166.1,28.4 166,31 	"/>
	<polygon class="st0" points="115.1,28.4 125.5,31 115.3,31 	"/>
	<polygon class="st0" points="115.1,28.4 125.3,28.4 125.5,31 	"/>
	<polygon class="st0" points="155.6,31 165.8,31.9 155.5,31.9 	"/>
	<polygon class="st0" points="155.6,31 166,31 165.8,31.9 	"/>
	<polygon class="st0" points="115.3,31 125.8,31.9 115.3,31.9 	"/>
	<polygon class="st0" points="115.3,31 125.5,31 125.8,31.9 	"/>
	<polygon class="st0" points="155.5,31.9 165.5,33.5 155,33.5 	"/>
	<polygon class="st0" points="155.5,31.9 165.8,31.9 165.5,33.5 	"/>
	<polygon class="st0" points="115.3,31.9 126.2,33.5 115.7,33.5 	"/>
	<polygon class="st0" points="115.3,31.9 125.8,31.9 126.2,33.5 	"/>
	<polygon class="st0" points="155,33.5 165.1,35.2 154.2,35.2 	"/>
	<polygon class="st0" points="155,33.5 165.5,33.5 165.1,35.2 	"/>
	<polygon class="st0" points="115.7,33.5 127,35.2 116,35.2 	"/>
	<polygon class="st0" points="115.7,33.5 126.2,33.5 127,35.2 	"/>
	<polygon class="st0" points="154.2,35.2 164.9,35.9 153.8,35.9 	"/>
	<polygon class="st0" points="154.2,35.2 165.1,35.2 164.9,35.9 	"/>
	<polygon class="st0" points="116,35.2 127.3,35.9 116.3,35.9 	"/>
	<polygon class="st0" points="116,35.2 127,35.2 127.3,35.9 	"/>
	<polygon class="st0" points="153.8,35.9 164.2,38.2 152.3,38.2 	"/>
	<polygon class="st0" points="153.8,35.9 164.9,35.9 164.2,38.2 	"/>
	<polygon class="st0" points="116.3,35.9 128.9,38.2 117.1,38.2 	"/>
	<polygon class="st0" points="116.3,35.9 127.3,35.9 128.9,38.2 	"/>
	<polygon class="st0" points="152.3,38.2 164,38.5 152,38.5 	"/>
	<polygon class="st0" points="152.3,38.2 164.2,38.2 164,38.5 	"/>
	<polygon class="st0" points="117.1,38.2 129.2,38.5 117.2,38.5 	"/>
	<polygon class="st0" points="117.1,38.2 128.9,38.2 129.2,38.5 	"/>
	<polygon class="st0" points="152,38.5 163.2,40 150.5,40 	"/>
	<polygon class="st0" points="152,38.5 164,38.5 163.2,40 	"/>
	<polygon class="st0" points="117.2,38.5 130.8,40 118.1,40 	"/>
	<polygon class="st0" points="117.2,38.5 129.2,38.5 130.8,40 	"/>
	<polygon class="st0" points="150.5,40 162.4,41.6 148.3,41.6 	"/>
	<polygon class="st0" points="150.5,40 163.2,40 162.4,41.6 	"/>
	<polygon class="st0" points="118.1,40 133,41.6 118.8,41.6 	"/>
	<polygon class="st0" points="118.1,40 130.8,40 133,41.6 	"/>
	<path class="st0" d="M148.3,41.6L148.3,41.6z"/>
	<path class="st0" d="M118.8,41.6L118.8,41.6z"/>
	<polygon class="st0" points="148.3,41.6 161.6,42.8 145.8,42.8 	"/>
	<polygon class="st0" points="148.3,41.6 162.4,41.6 161.6,42.8 	"/>
	<polygon class="st0" points="118.8,41.6 135.4,42.8 119.6,42.8 	"/>
	<polygon class="st0" points="118.8,41.6 133,41.6 135.4,42.8 	"/>
	<polygon class="st0" points="145.8,42.8 161.2,43.4 143.3,43.4 	"/>
	<polygon class="st0" points="145.8,42.8 161.6,42.8 161.2,43.4 	"/>
	<polygon class="st0" points="119.6,42.8 138,43.4 120.1,43.4 	"/>
	<polygon class="st0" points="119.6,42.8 135.4,42.8 138,43.4 	"/>
	<polygon class="st0" points="143.3,43.4 160.9,43.6 140.6,43.6 	"/>
	<polygon class="st0" points="143.3,43.4 161.2,43.4 160.9,43.6 	"/>
	<polygon class="st0" points="120.1,43.4 140.6,43.6 120.2,43.6 	"/>
	<polygon class="st0" points="120.1,43.4 138,43.4 140.6,43.6 	"/>
	<polygon class="st0" points="120.2,43.6 160.4,44.5 120.8,44.5 	"/>
	<polygon class="st0" points="120.2,43.6 160.9,43.6 160.4,44.5 	"/>
	<polygon class="st0" points="120.8,44.5 158,47 123.2,47 	"/>
	<polygon class="st0" points="120.8,44.5 160.4,44.5 158,47 	"/>
	<polygon class="st0" points="123.2,47 155.3,49.1 125.9,49.1 	"/>
	<polygon class="st0" points="123.2,47 158,47 155.3,49.1 	"/>
	<polygon class="st0" points="125.9,49.1 152.4,50.9 128.9,50.9 	"/>
	<polygon class="st0" points="125.9,49.1 155.3,49.1 152.4,50.9 	"/>
	<polygon class="st0" points="128.9,50.9 149.2,52.4 132.1,52.4 	"/>
	<polygon class="st0" points="128.9,50.9 152.4,50.9 149.2,52.4 	"/>
	<polygon class="st0" points="132.1,52.4 145.8,53.3 135.5,53.3 	"/>
	<polygon class="st0" points="132.1,52.4 149.2,52.4 145.8,53.3 	"/>
	<polygon class="st0" points="135.5,53.3 142.3,53.8 138.8,53.8 	"/>
	<polygon class="st0" points="135.5,53.3 145.8,53.3 142.3,53.8 	"/>
	<polygon class="st1" points="155.9,28.4 155.8,26.3 155.3,24.3 154.6,22.3 153.7,20.5 152.5,18.8 151.1,17.2 149.4,15.9 
		147.6,14.8 145.8,14 143.8,13.5 141.7,13.1 139.6,13.1 137.5,13.5 135.5,14 133.7,14.8 131.9,15.9 130.2,17.2 128.8,18.8 
		127.6,20.5 126.7,22.3 126,24.3 125.5,26.3 125.4,28.4 125.5,30.4 126,32.5 126.7,34.5 127.6,36.3 128.8,38 130.2,39.5 131.9,40.9 
		133.7,41.9 135.5,42.8 137.5,43.3 139.6,43.6 141.7,43.6 143.8,43.3 145.8,42.8 147.6,41.9 149.4,40.9 151.1,39.5 152.5,38 
		153.7,36.3 154.6,34.5 155.3,32.5 155.8,30.4 	"/>
	<polygon class="st1" points="166.1,28.4 166,25.7 165.5,23.1 164.9,20.5 163.9,18.1 162.7,15.7 161.3,13.4 159.6,11.3 157.7,9.4 
		155.6,7.7 153.4,6.3 151,5.1 148.6,4.1 145.9,3.5 143.3,3.1 140.6,2.9 138,3.1 135.4,3.5 132.7,4.1 130.3,5.1 127.9,6.3 125.6,7.7 
		123.6,9.4 121.7,11.3 120,13.4 118.6,15.7 117.4,18.1 116.4,20.5 115.8,23.1 115.3,25.7 115.2,28.4 115.3,31 115.8,33.7 
		116.4,36.3 117.4,38.7 118.6,41.1 120,43.4 121.7,45.4 123.6,47.3 125.6,49 127.9,50.5 130.3,51.7 132.7,52.6 135.4,53.2 138,53.7 
		140.6,53.8 143.3,53.7 145.9,53.2 148.6,52.6 151,51.7 153.4,50.5 155.6,49 157.7,47.3 159.6,45.4 161.3,43.4 162.7,41.1 
		163.9,38.7 164.9,36.3 165.5,33.7 166,31 	"/>
</g>
</svg>
