<?xml version="1.0" encoding="utf-8"?>
<!-- Generator: Adobe Illustrator 23.0.3, SVG Export Plug-In . SVG Version: 6.00 Build 0)  -->
<svg version="1.1" id="Livello_1" xmlns="http://www.w3.org/2000/svg" xmlns:xlink="http://www.w3.org/1999/xlink" x="0px" y="0px"
	 viewBox="0 0 2069.3 2069.3" style="enable-background:new 0 0 2069.3 2069.3;" xml:space="preserve">
<style type="text/css">
	.st0{fill:#E30613;}
	.st1{fill:#169FDB;}
	.st2{fill:#52AE32;}
</style>
<path class="st0" d="M529.3,1888.6c55.7,43,239.3,173.6,508.5,174.9c266.8,1.3,450.6-125.2,507.2-167.6
	c-163.2-282.4-325.4-568-488.6-850.4c-0.8,1-9.3,12.3-21.8,12.2c-13.1,0.5-22.7-12.2-22.7-12.2S691,1608.6,529.3,1888.6z"/>
<path class="st1" d="M2027.7,1043.2c9.4-69.8,30.8-294-102.5-527.9c-132.2-231.8-398.6-355.6-398.6-355.6l-491.1,846.8
	c0,0,14.9,1.4,21,13.2c7,11.3,0.9,24.8,0.9,24.8S1704.4,1042.9,2027.7,1043.2z"/>
<path class="st2" d="M547,168.6c0,0-270,120.4-405.8,352.9C6.6,751.8,24.3,974.2,32.7,1044.4c326.2-0.1,653,1.2,979.2,1.1
	c-0.5-1.2-5.7-12.6,0.6-24.7c8.6-12.9,22.2-14.1,22.2-14.1L547,168.6z"/>
</svg>
