<svg xmlns="http://www.w3.org/2000/svg" viewBox="0 0 276.12 51.72"><defs><style>.cls-1{fill:#b3b3b3;fill-rule:evenodd;}.cls-2,.cls-3{fill:none;stroke:#b3b3b3;stroke-linecap:round;stroke-width:0.72px;}.cls-2{stroke-linejoin:round;}.cls-3{stroke-linejoin:bevel;}</style></defs><g id="Livello_2" data-name="Livello 2"><g id="Livello_1-2" data-name="Livello 1"><polygon class="cls-1" points="224.76 0.36 253.8 0.6 224.76 0.6 224.76 0.36"/><polygon class="cls-1" points="224.76 0.36 250.32 0.36 253.8 0.6 224.76 0.36"/><polygon class="cls-1" points="192.48 0.48 199.32 0.84 189 0.84 192.48 0.48"/><polygon class="cls-1" points="192.48 0.48 195.96 0.48 199.32 0.84 192.48 0.48"/><polygon class="cls-1" points="80.16 0.48 87.12 0.84 76.8 0.84 80.16 0.48"/><polygon class="cls-1" points="80.16 0.48 83.64 0.48 87.12 0.84 80.16 0.48"/><polygon class="cls-1" points="24.12 0.48 30.96 0.84 20.64 0.84 24.12 0.48"/><polygon class="cls-1" points="24.12 0.48 27.6 0.48 30.96 0.84 24.12 0.48"/><polygon class="cls-1" points="224.76 0.6 257.16 1.32 224.76 1.32 224.76 0.6"/><polygon class="cls-1" points="224.76 0.6 253.8 0.6 257.16 1.32 224.76 0.6"/><polygon class="cls-1" points="189 0.84 202.68 1.8 185.64 1.8 189 0.84"/><polygon class="cls-1" points="189 0.84 199.32 0.84 202.68 1.8 189 0.84"/><polygon class="cls-1" points="76.8 0.84 90.48 1.8 73.44 1.8 76.8 0.84"/><polygon class="cls-1" points="76.8 0.84 87.12 0.84 90.48 1.8 76.8 0.84"/><polygon class="cls-1" points="20.64 0.84 34.32 1.8 17.28 1.8 20.64 0.84"/><polygon class="cls-1" points="20.64 0.84 30.96 0.84 34.32 1.8 20.64 0.84"/><polygon class="cls-1" points="224.76 1.32 260.52 2.52 224.76 2.52 224.76 1.32"/><polygon class="cls-1" points="224.76 1.32 257.16 1.32 260.52 2.52 224.76 1.32"/><polygon class="cls-1" points="185.64 1.8 205.92 3.24 182.4 3.24 185.64 1.8"/><polygon class="cls-1" points="185.64 1.8 202.68 1.8 205.92 3.24 185.64 1.8"/><polygon class="cls-1" points="73.44 1.8 93.72 3.24 70.2 3.24 73.44 1.8"/><polygon class="cls-1" points="73.44 1.8 90.48 1.8 93.72 3.24 73.44 1.8"/><polygon class="cls-1" points="17.28 1.8 37.56 3.24 14.04 3.24 17.28 1.8"/><polygon class="cls-1" points="17.28 1.8 34.32 1.8 37.56 3.24 17.28 1.8"/><polygon class="cls-1" points="224.76 2.52 263.52 4.08 224.76 4.08 224.76 2.52"/><polygon class="cls-1" points="224.76 2.52 260.52 2.52 263.52 4.08 224.76 2.52"/><polygon class="cls-1" points="182.4 3.24 208.92 5.04 179.52 5.04 182.4 3.24"/><polygon class="cls-1" points="182.4 3.24 205.92 3.24 208.92 5.04 182.4 3.24"/><polygon class="cls-1" points="70.2 3.24 96.6 5.04 67.2 5.04 70.2 3.24"/><polygon class="cls-1" points="70.2 3.24 93.72 3.24 96.6 5.04 70.2 3.24"/><polygon class="cls-1" points="14.04 3.24 40.56 5.04 11.04 5.04 14.04 3.24"/><polygon class="cls-1" points="14.04 3.24 37.56 3.24 40.56 5.04 14.04 3.24"/><polygon class="cls-1" points="224.76 4.08 266.4 6.12 224.76 6.12 224.76 4.08"/><polygon class="cls-1" points="224.76 4.08 263.52 4.08 266.4 6.12 224.76 4.08"/><polygon class="cls-1" points="179.52 5.04 211.56 7.2 176.76 7.2 179.52 5.04"/><polygon class="cls-1" points="179.52 5.04 208.92 5.04 211.56 7.2 179.52 5.04"/><polygon class="cls-1" points="67.2 5.04 99.36 7.2 64.56 7.2 67.2 5.04"/><polygon class="cls-1" points="67.2 5.04 96.6 5.04 99.36 7.2 67.2 5.04"/><polygon class="cls-1" points="11.04 5.04 43.2 7.2 8.4 7.2 11.04 5.04"/><polygon class="cls-1" points="11.04 5.04 40.56 5.04 43.2 7.2 11.04 5.04"/><polygon class="cls-1" points="224.76 6.12 268.92 8.52 224.76 8.52 224.76 6.12"/><polygon class="cls-1" points="224.76 6.12 266.4 6.12 268.92 8.52 224.76 6.12"/><polygon class="cls-1" points="176.76 7.2 213.96 9.72 174.36 9.72 176.76 7.2"/><polygon class="cls-1" points="176.76 7.2 211.56 7.2 213.96 9.72 176.76 7.2"/><polygon class="cls-1" points="64.56 7.2 101.76 9.72 62.16 9.72 64.56 7.2"/><polygon class="cls-1" points="64.56 7.2 99.36 7.2 101.76 9.72 64.56 7.2"/><polygon class="cls-1" points="8.4 7.2 45.6 9.72 6 9.72 8.4 7.2"/><polygon class="cls-1" points="8.4 7.2 43.2 7.2 45.6 9.72 8.4 7.2"/><polygon class="cls-1" points="224.76 8.52 270.72 10.56 224.76 10.56 224.76 8.52"/><polygon class="cls-1" points="224.76 8.52 268.92 8.52 270.72 10.56 224.76 8.52"/><polygon class="cls-1" points="174.36 9.72 214.56 10.56 173.88 10.56 174.36 9.72"/><polygon class="cls-1" points="174.36 9.72 213.96 9.72 214.56 10.56 174.36 9.72"/><polygon class="cls-1" points="62.16 9.72 102.24 10.56 61.56 10.56 62.16 9.72"/><polygon class="cls-1" points="62.16 9.72 101.76 9.72 102.24 10.56 62.16 9.72"/><polygon class="cls-1" points="6 9.72 46.2 10.56 5.52 10.56 6 9.72"/><polygon class="cls-1" points="6 9.72 45.6 9.72 46.2 10.56 6 9.72"/><polygon class="cls-1" points="250.32 10.56 270.84 10.8 252.96 10.8 250.32 10.56"/><polygon class="cls-1" points="250.32 10.56 270.72 10.56 270.84 10.8 250.32 10.56"/><polygon class="cls-1" points="194.16 10.56 214.68 10.8 196.8 10.8 194.16 10.56"/><polygon class="cls-1" points="194.16 10.56 214.56 10.56 214.68 10.8 194.16 10.56"/><polygon class="cls-1" points="173.88 10.56 191.52 10.8 173.64 10.8 173.88 10.56"/><polygon class="cls-1" points="173.88 10.56 194.16 10.56 191.52 10.8 173.88 10.56"/><polygon class="cls-1" points="81.96 10.56 102.48 10.8 84.6 10.8 81.96 10.56"/><polygon class="cls-1" points="81.96 10.56 102.24 10.56 102.48 10.8 81.96 10.56"/><polygon class="cls-1" points="61.56 10.56 79.32 10.8 61.44 10.8 61.56 10.56"/><polygon class="cls-1" points="61.56 10.56 81.96 10.56 79.32 10.8 61.56 10.56"/><polygon class="cls-1" points="25.8 10.56 46.32 10.8 28.44 10.8 25.8 10.56"/><polygon class="cls-1" points="25.8 10.56 46.2 10.56 46.32 10.8 25.8 10.56"/><polygon class="cls-1" points="5.52 10.56 23.16 10.8 5.28 10.8 5.52 10.56"/><polygon class="cls-1" points="5.52 10.56 25.8 10.56 23.16 10.8 5.52 10.56"/><polygon class="cls-1" points="252.96 10.8 271.2 11.16 254.28 11.16 252.96 10.8"/><polygon class="cls-1" points="252.96 10.8 270.84 10.8 271.2 11.16 252.96 10.8"/><polygon class="cls-1" points="254.28 11.16 271.32 11.52 255.6 11.52 254.28 11.16"/><polygon class="cls-1" points="254.28 11.16 271.2 11.16 271.32 11.52 254.28 11.16"/><polygon class="cls-1" points="196.8 10.8 215.16 11.52 199.44 11.52 196.8 10.8"/><polygon class="cls-1" points="196.8 10.8 214.68 10.8 215.16 11.52 196.8 10.8"/><polygon class="cls-1" points="173.64 10.8 189 11.52 173.16 11.52 173.64 10.8"/><polygon class="cls-1" points="173.64 10.8 191.52 10.8 189 11.52 173.64 10.8"/><polygon class="cls-1" points="84.6 10.8 102.96 11.52 87.12 11.52 84.6 10.8"/><polygon class="cls-1" points="84.6 10.8 102.48 10.8 102.96 11.52 84.6 10.8"/><polygon class="cls-1" points="61.44 10.8 76.68 11.52 60.96 11.52 61.44 10.8"/><polygon class="cls-1" points="61.44 10.8 79.32 10.8 76.68 11.52 61.44 10.8"/><polygon class="cls-1" points="28.44 10.8 46.8 11.52 31.08 11.52 28.44 10.8"/><polygon class="cls-1" points="28.44 10.8 46.32 10.8 46.8 11.52 28.44 10.8"/><polygon class="cls-1" points="5.28 10.8 20.52 11.52 4.8 11.52 5.28 10.8"/><polygon class="cls-1" points="5.28 10.8 23.16 10.8 20.52 11.52 5.28 10.8"/><polygon class="cls-1" points="255.6 11.52 272.04 12.6 258 12.6 255.6 11.52"/><polygon class="cls-1" points="255.6 11.52 271.32 11.52 272.04 12.6 255.6 11.52"/><polygon class="cls-1" points="199.44 11.52 216 12.6 201.84 12.6 199.44 11.52"/><polygon class="cls-1" points="199.44 11.52 215.16 11.52 216 12.6 199.44 11.52"/><polygon class="cls-1" points="173.16 11.52 186.48 12.6 172.44 12.6 173.16 11.52"/><polygon class="cls-1" points="173.16 11.52 189 11.52 186.48 12.6 173.16 11.52"/><polygon class="cls-1" points="87.12 11.52 103.68 12.6 89.64 12.6 87.12 11.52"/><polygon class="cls-1" points="87.12 11.52 102.96 11.52 103.68 12.6 87.12 11.52"/><polygon class="cls-1" points="60.96 11.52 74.28 12.6 60.12 12.6 60.96 11.52"/><polygon class="cls-1" points="60.96 11.52 76.68 11.52 74.28 12.6 60.96 11.52"/><polygon class="cls-1" points="31.08 11.52 47.64 12.6 33.48 12.6 31.08 11.52"/><polygon class="cls-1" points="31.08 11.52 46.8 11.52 47.64 12.6 31.08 11.52"/><polygon class="cls-1" points="4.8 11.52 18.12 12.6 3.96 12.6 4.8 11.52"/><polygon class="cls-1" points="4.8 11.52 20.52 11.52 18.12 12.6 4.8 11.52"/><path class="cls-1" d="M201.84,12.6h0Z"/><path class="cls-1" d="M172.44,12.6h0Z"/><path class="cls-1" d="M89.64,12.6h0Z"/><path class="cls-1" d="M60.12,12.6h0Z"/><path class="cls-1" d="M33.48,12.6h0Z"/><path class="cls-1" d="M4,12.6H4Z"/><polygon class="cls-1" points="258 12.6 273 14.16 260.16 14.16 258 12.6"/><polygon class="cls-1" points="258 12.6 272.04 12.6 273 14.16 258 12.6"/><path class="cls-1" d="M260.16,14.16h0Z"/><polygon class="cls-1" points="201.84 12.6 216.72 14.16 204 14.16 201.84 12.6"/><polygon class="cls-1" points="201.84 12.6 216 12.6 216.72 14.16 201.84 12.6"/><polygon class="cls-1" points="172.44 12.6 184.32 14.16 171.6 14.16 172.44 12.6"/><polygon class="cls-1" points="172.44 12.6 186.48 12.6 184.32 14.16 172.44 12.6"/><polygon class="cls-1" points="89.64 12.6 104.52 14.16 91.8 14.16 89.64 12.6"/><polygon class="cls-1" points="89.64 12.6 103.68 12.6 104.52 14.16 89.64 12.6"/><polygon class="cls-1" points="60.12 12.6 72.12 14.16 59.4 14.16 60.12 12.6"/><polygon class="cls-1" points="60.12 12.6 74.28 12.6 72.12 14.16 60.12 12.6"/><polygon class="cls-1" points="33.48 12.6 48.36 14.16 35.64 14.16 33.48 12.6"/><polygon class="cls-1" points="33.48 12.6 47.64 12.6 48.36 14.16 33.48 12.6"/><polygon class="cls-1" points="3.96 12.6 15.96 14.16 3.24 14.16 3.96 12.6"/><polygon class="cls-1" points="3.96 12.6 18.12 12.6 15.96 14.16 3.96 12.6"/><polygon class="cls-1" points="204 14.16 217.56 15.72 205.56 15.72 204 14.16"/><polygon class="cls-1" points="204 14.16 216.72 14.16 217.56 15.72 204 14.16"/><polygon class="cls-1" points="171.6 14.16 182.76 15.72 170.76 15.72 171.6 14.16"/><polygon class="cls-1" points="171.6 14.16 184.32 14.16 182.76 15.72 171.6 14.16"/><polygon class="cls-1" points="91.8 14.16 105.36 15.72 93.36 15.72 91.8 14.16"/><polygon class="cls-1" points="91.8 14.16 104.52 14.16 105.36 15.72 91.8 14.16"/><polygon class="cls-1" points="59.4 14.16 70.56 15.72 58.56 15.72 59.4 14.16"/><polygon class="cls-1" points="59.4 14.16 72.12 14.16 70.56 15.72 59.4 14.16"/><polygon class="cls-1" points="35.64 14.16 49.2 15.72 37.2 15.72 35.64 14.16"/><polygon class="cls-1" points="35.64 14.16 48.36 14.16 49.2 15.72 35.64 14.16"/><polygon class="cls-1" points="3.24 14.16 14.4 15.72 2.4 15.72 3.24 14.16"/><polygon class="cls-1" points="3.24 14.16 15.96 14.16 14.4 15.72 3.24 14.16"/><polygon class="cls-1" points="260.16 14.16 273.84 16.08 262.08 16.08 260.16 14.16"/><polygon class="cls-1" points="260.16 14.16 273 14.16 273.84 16.08 260.16 14.16"/><polygon class="cls-1" points="205.56 15.72 217.68 16.08 205.92 16.08 205.56 15.72"/><polygon class="cls-1" points="205.56 15.72 217.56 15.72 217.68 16.08 205.56 15.72"/><polygon class="cls-1" points="170.76 15.72 182.4 16.08 170.64 16.08 170.76 15.72"/><polygon class="cls-1" points="170.76 15.72 182.76 15.72 182.4 16.08 170.76 15.72"/><polygon class="cls-1" points="93.36 15.72 105.48 16.08 93.6 16.08 93.36 15.72"/><polygon class="cls-1" points="93.36 15.72 105.36 15.72 105.48 16.08 93.36 15.72"/><polygon class="cls-1" points="58.56 15.72 70.2 16.08 58.44 16.08 58.56 15.72"/><polygon class="cls-1" points="58.56 15.72 70.56 15.72 70.2 16.08 58.56 15.72"/><polygon class="cls-1" points="37.2 15.72 49.32 16.08 37.56 16.08 37.2 15.72"/><polygon class="cls-1" points="37.2 15.72 49.2 15.72 49.32 16.08 37.2 15.72"/><polygon class="cls-1" points="2.4 15.72 14.04 16.08 2.28 16.08 2.4 15.72"/><polygon class="cls-1" points="2.4 15.72 14.4 15.72 14.04 16.08 2.4 15.72"/><polygon class="cls-1" points="262.08 16.08 274.32 17.28 262.92 17.28 262.08 16.08"/><polygon class="cls-1" points="262.08 16.08 273.84 16.08 274.32 17.28 262.08 16.08"/><polygon class="cls-1" points="262.92 17.28 274.56 18.24 263.52 18.24 262.92 17.28"/><polygon class="cls-1" points="262.92 17.28 274.32 17.28 274.56 18.24 262.92 17.28"/><polygon class="cls-1" points="205.92 16.08 218.52 18.24 207.48 18.24 205.92 16.08"/><polygon class="cls-1" points="205.92 16.08 217.68 16.08 218.52 18.24 205.92 16.08"/><polygon class="cls-1" points="170.64 16.08 180.96 18.24 169.92 18.24 170.64 16.08"/><polygon class="cls-1" points="170.64 16.08 182.4 16.08 180.96 18.24 170.64 16.08"/><polygon class="cls-1" points="93.6 16.08 106.2 18.24 95.16 18.24 93.6 16.08"/><polygon class="cls-1" points="93.6 16.08 105.48 16.08 106.2 18.24 93.6 16.08"/><polygon class="cls-1" points="58.44 16.08 68.64 18.24 57.6 18.24 58.44 16.08"/><polygon class="cls-1" points="58.44 16.08 70.2 16.08 68.64 18.24 58.44 16.08"/><polygon class="cls-1" points="37.56 16.08 50.16 18.24 39.12 18.24 37.56 16.08"/><polygon class="cls-1" points="37.56 16.08 49.32 16.08 50.16 18.24 37.56 16.08"/><polygon class="cls-1" points="2.28 16.08 12.6 18.24 1.56 18.24 2.28 16.08"/><polygon class="cls-1" points="2.28 16.08 14.04 16.08 12.6 18.24 2.28 16.08"/><polygon class="cls-1" points="207.48 18.24 218.76 18.96 207.84 18.96 207.48 18.24"/><polygon class="cls-1" points="207.48 18.24 218.52 18.24 218.76 18.96 207.48 18.24"/><polygon class="cls-1" points="169.92 18.24 180.6 18.96 169.56 18.96 169.92 18.24"/><polygon class="cls-1" points="169.92 18.24 180.96 18.24 180.6 18.96 169.92 18.24"/><polygon class="cls-1" points="95.16 18.24 106.44 18.96 95.52 18.96 95.16 18.24"/><polygon class="cls-1" points="95.16 18.24 106.2 18.24 106.44 18.96 95.16 18.24"/><polygon class="cls-1" points="57.6 18.24 68.28 18.96 57.36 18.96 57.6 18.24"/><polygon class="cls-1" points="57.6 18.24 68.64 18.24 68.28 18.96 57.6 18.24"/><polygon class="cls-1" points="39.12 18.24 50.4 18.96 39.48 18.96 39.12 18.24"/><polygon class="cls-1" points="39.12 18.24 50.16 18.24 50.4 18.96 39.12 18.24"/><polygon class="cls-1" points="1.56 18.24 12.24 18.96 1.2 18.96 1.56 18.24"/><polygon class="cls-1" points="1.56 18.24 12.6 18.24 12.24 18.96 1.56 18.24"/><polygon class="cls-1" points="263.52 18.24 275.28 20.64 264.72 20.64 263.52 18.24"/><polygon class="cls-1" points="263.52 18.24 274.56 18.24 275.28 20.64 263.52 18.24"/><polygon class="cls-1" points="207.84 18.96 219.12 20.64 208.56 20.64 207.84 18.96"/><polygon class="cls-1" points="207.84 18.96 218.76 18.96 219.12 20.64 207.84 18.96"/><polygon class="cls-1" points="169.56 18.96 179.76 20.64 169.32 20.64 169.56 18.96"/><polygon class="cls-1" points="169.56 18.96 180.6 18.96 179.76 20.64 169.56 18.96"/><polygon class="cls-1" points="95.52 18.96 106.8 20.64 96.36 20.64 95.52 18.96"/><polygon class="cls-1" points="95.52 18.96 106.44 18.96 106.8 20.64 95.52 18.96"/><polygon class="cls-1" points="57.36 18.96 67.56 20.64 57 20.64 57.36 18.96"/><polygon class="cls-1" points="57.36 18.96 68.28 18.96 67.56 20.64 57.36 18.96"/><polygon class="cls-1" points="39.48 18.96 50.76 20.64 40.2 20.64 39.48 18.96"/><polygon class="cls-1" points="39.48 18.96 50.4 18.96 50.76 20.64 39.48 18.96"/><polygon class="cls-1" points="1.2 18.96 11.4 20.64 0.96 20.64 1.2 18.96"/><polygon class="cls-1" points="1.2 18.96 12.24 18.96 11.4 20.64 1.2 18.96"/><path class="cls-1" d="M264.72,20.64h0Z"/><polygon class="cls-1" points="208.56 20.64 219.48 22.44 209.04 22.44 208.56 20.64"/><polygon class="cls-1" points="208.56 20.64 219.12 20.64 219.48 22.44 208.56 20.64"/><polygon class="cls-1" points="169.32 20.64 179.28 22.44 168.96 22.44 169.32 20.64"/><polygon class="cls-1" points="169.32 20.64 179.76 20.64 179.28 22.44 169.32 20.64"/><polygon class="cls-1" points="96.36 20.64 107.16 22.44 96.84 22.44 96.36 20.64"/><polygon class="cls-1" points="96.36 20.64 106.8 20.64 107.16 22.44 96.36 20.64"/><polygon class="cls-1" points="57 20.64 67.08 22.44 56.64 22.44 57 20.64"/><polygon class="cls-1" points="57 20.64 67.56 20.64 67.08 22.44 57 20.64"/><polygon class="cls-1" points="40.2 20.64 51.12 22.44 40.68 22.44 40.2 20.64"/><polygon class="cls-1" points="40.2 20.64 50.76 20.64 51.12 22.44 40.2 20.64"/><polygon class="cls-1" points="0.96 20.64 10.92 22.44 0.48 22.44 0.96 20.64"/><polygon class="cls-1" points="0.96 20.64 11.4 20.64 10.92 22.44 0.96 20.64"/><polygon class="cls-1" points="264.72 20.64 275.64 23.16 265.32 23.16 264.72 20.64"/><polygon class="cls-1" points="264.72 20.64 275.28 20.64 275.64 23.16 264.72 20.64"/><polygon class="cls-1" points="209.04 22.44 219.48 23.16 209.28 23.16 209.04 22.44"/><polygon class="cls-1" points="209.04 22.44 219.48 22.44 219.48 23.16 209.04 22.44"/><polygon class="cls-1" points="168.96 22.44 179.16 23.16 168.84 23.16 168.96 22.44"/><polygon class="cls-1" points="168.96 22.44 179.28 22.44 179.16 23.16 168.96 22.44"/><polygon class="cls-1" points="96.84 22.44 107.28 23.16 96.96 23.16 96.84 22.44"/><polygon class="cls-1" points="96.84 22.44 107.16 22.44 107.28 23.16 96.84 22.44"/><polygon class="cls-1" points="56.64 22.44 66.84 23.16 56.64 23.16 56.64 22.44"/><polygon class="cls-1" points="56.64 22.44 67.08 22.44 66.84 23.16 56.64 22.44"/><polygon class="cls-1" points="40.68 22.44 51.12 23.16 40.92 23.16 40.68 22.44"/><polygon class="cls-1" points="40.68 22.44 51.12 22.44 51.12 23.16 40.68 22.44"/><polygon class="cls-1" points="0.48 22.44 10.68 23.16 0.48 23.16 0.48 22.44"/><polygon class="cls-1" points="0.48 22.44 10.92 22.44 10.68 23.16 0.48 22.44"/><polygon class="cls-1" points="265.32 23.16 275.76 24.12 265.44 24.12 265.32 23.16"/><polygon class="cls-1" points="265.32 23.16 275.64 23.16 275.76 24.12 265.32 23.16"/><polygon class="cls-1" points="265.44 24.12 275.76 25.92 265.56 25.92 265.44 24.12"/><polygon class="cls-1" points="265.44 24.12 275.76 24.12 275.76 25.92 265.44 24.12"/><polygon class="cls-1" points="209.28 23.16 219.72 25.92 209.52 25.92 209.28 23.16"/><polygon class="cls-1" points="209.28 23.16 219.48 23.16 219.72 25.92 209.28 23.16"/><polygon class="cls-1" points="168.84 23.16 178.92 25.92 168.72 25.92 168.84 23.16"/><polygon class="cls-1" points="168.84 23.16 179.16 23.16 178.92 25.92 168.84 23.16"/><polygon class="cls-1" points="153.36 0.36 163.56 25.92 153.36 25.92 153.36 0.36"/><polygon class="cls-1" points="153.36 0.36 163.56 0.36 163.56 25.92 153.36 0.36"/><polygon class="cls-1" points="112.56 0.36 122.76 25.92 112.56 25.92 112.56 0.36"/><polygon class="cls-1" points="112.56 0.36 122.76 0.36 122.76 25.92 112.56 0.36"/><polygon class="cls-1" points="96.96 23.16 107.4 25.92 97.2 25.92 96.96 23.16"/><polygon class="cls-1" points="96.96 23.16 107.28 23.16 107.4 25.92 96.96 23.16"/><polygon class="cls-1" points="56.64 23.16 66.6 25.92 56.4 25.92 56.64 23.16"/><polygon class="cls-1" points="56.64 23.16 66.84 23.16 66.6 25.92 56.64 23.16"/><polygon class="cls-1" points="40.92 23.16 51.36 25.92 41.16 25.92 40.92 23.16"/><polygon class="cls-1" points="40.92 23.16 51.12 23.16 51.36 25.92 40.92 23.16"/><polygon class="cls-1" points="0.48 23.16 10.56 25.92 0.36 25.92 0.48 23.16"/><polygon class="cls-1" points="0.48 23.16 10.68 23.16 10.56 25.92 0.48 23.16"/><polygon class="cls-1" points="265.56 25.92 275.76 27.6 265.44 27.6 265.56 25.92"/><polygon class="cls-1" points="265.56 25.92 275.76 25.92 275.76 27.6 265.56 25.92"/><polygon class="cls-1" points="265.44 27.6 275.64 28.56 265.32 28.56 265.44 27.6"/><polygon class="cls-1" points="265.44 27.6 275.76 27.6 275.64 28.56 265.44 27.6"/><polygon class="cls-1" points="153.36 25.92 163.44 28.56 153.12 28.56 153.36 25.92"/><polygon class="cls-1" points="153.36 25.92 163.56 25.92 163.44 28.56 153.36 25.92"/><polygon class="cls-1" points="112.56 25.92 123 28.56 112.68 28.56 112.56 25.92"/><polygon class="cls-1" points="112.56 25.92 122.76 25.92 123 28.56 112.56 25.92"/><polygon class="cls-1" points="97.2 25.92 107.28 28.56 96.96 28.56 97.2 25.92"/><polygon class="cls-1" points="97.2 25.92 107.4 25.92 107.28 28.56 97.2 25.92"/><polygon class="cls-1" points="56.4 25.92 66.84 28.56 56.64 28.56 56.4 25.92"/><polygon class="cls-1" points="56.4 25.92 66.6 25.92 66.84 28.56 56.4 25.92"/><polygon class="cls-1" points="153.12 28.56 163.32 29.4 152.88 29.4 153.12 28.56"/><polygon class="cls-1" points="153.12 28.56 163.44 28.56 163.32 29.4 153.12 28.56"/><polygon class="cls-1" points="112.68 28.56 123.24 29.4 112.8 29.4 112.68 28.56"/><polygon class="cls-1" points="112.68 28.56 123 28.56 123.24 29.4 112.68 28.56"/><polygon class="cls-1" points="96.96 28.56 107.16 29.4 96.84 29.4 96.96 28.56"/><polygon class="cls-1" points="96.96 28.56 107.28 28.56 107.16 29.4 96.96 28.56"/><polygon class="cls-1" points="56.64 28.56 67.08 29.4 56.64 29.4 56.64 28.56"/><polygon class="cls-1" points="56.64 28.56 66.84 28.56 67.08 29.4 56.64 28.56"/><polygon class="cls-1" points="265.32 28.56 275.28 31.08 264.72 31.08 265.32 28.56"/><polygon class="cls-1" points="265.32 28.56 275.64 28.56 275.28 31.08 265.32 28.56"/><path class="cls-1" d="M264.72,31.08h0Z"/><polygon class="cls-1" points="152.88 29.4 162.96 31.08 152.4 31.08 152.88 29.4"/><polygon class="cls-1" points="152.88 29.4 163.32 29.4 162.96 31.08 152.88 29.4"/><polygon class="cls-1" points="112.8 29.4 123.72 31.08 113.16 31.08 112.8 29.4"/><polygon class="cls-1" points="112.8 29.4 123.24 29.4 123.72 31.08 112.8 29.4"/><polygon class="cls-1" points="96.84 29.4 106.8 31.08 96.36 31.08 96.84 29.4"/><polygon class="cls-1" points="96.84 29.4 107.16 29.4 106.8 31.08 96.84 29.4"/><polygon class="cls-1" points="56.64 29.4 67.56 31.08 57 31.08 56.64 29.4"/><polygon class="cls-1" points="56.64 29.4 67.08 29.4 67.56 31.08 56.64 29.4"/><polygon class="cls-1" points="152.4 31.08 162.6 32.76 151.68 32.76 152.4 31.08"/><polygon class="cls-1" points="152.4 31.08 162.96 31.08 162.6 32.76 152.4 31.08"/><polygon class="cls-1" points="113.16 31.08 124.44 32.76 113.52 32.76 113.16 31.08"/><polygon class="cls-1" points="113.16 31.08 123.72 31.08 124.44 32.76 113.16 31.08"/><polygon class="cls-1" points="96.36 31.08 106.44 32.76 95.52 32.76 96.36 31.08"/><polygon class="cls-1" points="96.36 31.08 106.8 31.08 106.44 32.76 96.36 31.08"/><polygon class="cls-1" points="57 31.08 68.28 32.76 57.36 32.76 57 31.08"/><polygon class="cls-1" points="57 31.08 67.56 31.08 68.28 32.76 57 31.08"/><polygon class="cls-1" points="264.72 31.08 274.56 33.48 263.52 33.48 264.72 31.08"/><polygon class="cls-1" points="264.72 31.08 275.28 31.08 274.56 33.48 264.72 31.08"/><polygon class="cls-1" points="151.68 32.76 162.36 33.48 151.32 33.48 151.68 32.76"/><polygon class="cls-1" points="151.68 32.76 162.6 32.76 162.36 33.48 151.68 32.76"/><polygon class="cls-1" points="113.52 32.76 124.8 33.48 113.76 33.48 113.52 32.76"/><polygon class="cls-1" points="113.52 32.76 124.44 32.76 124.8 33.48 113.52 32.76"/><polygon class="cls-1" points="95.52 32.76 106.2 33.48 95.16 33.48 95.52 32.76"/><polygon class="cls-1" points="95.52 32.76 106.44 32.76 106.2 33.48 95.52 32.76"/><polygon class="cls-1" points="57.36 32.76 68.64 33.48 57.6 33.48 57.36 32.76"/><polygon class="cls-1" points="57.36 32.76 68.28 32.76 68.64 33.48 57.36 32.76"/><polygon class="cls-1" points="263.52 33.48 274.32 34.44 262.92 34.44 263.52 33.48"/><polygon class="cls-1" points="263.52 33.48 274.56 33.48 274.32 34.44 263.52 33.48"/><polygon class="cls-1" points="262.92 34.44 273.84 35.76 262.08 35.76 262.92 34.44"/><polygon class="cls-1" points="262.92 34.44 274.32 34.44 273.84 35.76 262.92 34.44"/><polygon class="cls-1" points="151.32 33.48 161.52 35.76 149.76 35.76 151.32 33.48"/><polygon class="cls-1" points="151.32 33.48 162.36 33.48 161.52 35.76 151.32 33.48"/><polygon class="cls-1" points="113.76 33.48 126.36 35.76 114.6 35.76 113.76 33.48"/><polygon class="cls-1" points="113.76 33.48 124.8 33.48 126.36 35.76 113.76 33.48"/><polygon class="cls-1" points="95.16 33.48 105.48 35.76 93.6 35.76 95.16 33.48"/><polygon class="cls-1" points="95.16 33.48 106.2 33.48 105.48 35.76 95.16 33.48"/><polygon class="cls-1" points="57.6 33.48 70.2 35.76 58.44 35.76 57.6 33.48"/><polygon class="cls-1" points="57.6 33.48 68.64 33.48 70.2 35.76 57.6 33.48"/><polygon class="cls-1" points="149.76 35.76 161.4 36 149.4 36 149.76 35.76"/><polygon class="cls-1" points="149.76 35.76 161.52 35.76 161.4 36 149.76 35.76"/><polygon class="cls-1" points="114.6 35.76 126.6 36 114.6 36 114.6 35.76"/><polygon class="cls-1" points="114.6 35.76 126.36 35.76 126.6 36 114.6 35.76"/><polygon class="cls-1" points="93.6 35.76 105.36 36 93.36 36 93.6 35.76"/><polygon class="cls-1" points="93.6 35.76 105.48 35.76 105.36 36 93.6 35.76"/><polygon class="cls-1" points="58.44 35.76 70.56 36 58.56 36 58.44 35.76"/><polygon class="cls-1" points="58.44 35.76 70.2 35.76 70.56 36 58.44 35.76"/><polygon class="cls-1" points="0.36 25.92 25.8 36.12 0.36 36.12 0.36 25.92"/><polygon class="cls-1" points="0.36 25.92 25.8 25.92 25.8 36.12 0.36 25.92"/><polygon class="cls-1" points="262.08 35.76 273 37.56 260.16 37.56 262.08 35.76"/><polygon class="cls-1" points="262.08 35.76 273.84 35.76 273 37.56 262.08 35.76"/><polygon class="cls-1" points="149.4 36 160.68 37.56 147.84 37.56 149.4 36"/><polygon class="cls-1" points="149.4 36 161.4 36 160.68 37.56 149.4 36"/><polygon class="cls-1" points="114.6 36 128.16 37.56 115.44 37.56 114.6 36"/><polygon class="cls-1" points="114.6 36 126.6 36 128.16 37.56 114.6 36"/><polygon class="cls-1" points="93.36 36 104.52 37.56 91.8 37.56 93.36 36"/><polygon class="cls-1" points="93.36 36 105.36 36 104.52 37.56 93.36 36"/><polygon class="cls-1" points="58.56 36 72.12 37.56 59.4 37.56 58.56 36"/><polygon class="cls-1" points="58.56 36 70.56 36 72.12 37.56 58.56 36"/><path class="cls-1" d="M260.16,37.56h0Z"/><polygon class="cls-1" points="147.84 37.56 159.84 39.12 145.68 39.12 147.84 37.56"/><polygon class="cls-1" points="147.84 37.56 160.68 37.56 159.84 39.12 147.84 37.56"/><polygon class="cls-1" points="115.44 37.56 130.44 39.12 116.28 39.12 115.44 37.56"/><polygon class="cls-1" points="115.44 37.56 128.16 37.56 130.44 39.12 115.44 37.56"/><polygon class="cls-1" points="91.8 37.56 103.68 39.12 89.64 39.12 91.8 37.56"/><polygon class="cls-1" points="91.8 37.56 104.52 37.56 103.68 39.12 91.8 37.56"/><polygon class="cls-1" points="59.4 37.56 74.28 39.12 60.12 39.12 59.4 37.56"/><polygon class="cls-1" points="59.4 37.56 72.12 37.56 74.28 39.12 59.4 37.56"/><polygon class="cls-1" points="260.16 37.56 272.04 39.12 258 39.12 260.16 37.56"/><polygon class="cls-1" points="260.16 37.56 273 37.56 272.04 39.12 260.16 37.56"/><path class="cls-1" d="M145.68,39.12h0Z"/><path class="cls-1" d="M116.28,39.12h0Z"/><path class="cls-1" d="M89.64,39.12h0Z"/><path class="cls-1" d="M60.12,39.12h0Z"/><polygon class="cls-1" points="258 39.12 271.32 40.32 255.6 40.32 258 39.12"/><polygon class="cls-1" points="258 39.12 272.04 39.12 271.32 40.32 258 39.12"/><polygon class="cls-1" points="145.68 39.12 159 40.32 143.28 40.32 145.68 39.12"/><polygon class="cls-1" points="145.68 39.12 159.84 39.12 159 40.32 145.68 39.12"/><polygon class="cls-1" points="116.28 39.12 132.84 40.32 117 40.32 116.28 39.12"/><polygon class="cls-1" points="116.28 39.12 130.44 39.12 132.84 40.32 116.28 39.12"/><polygon class="cls-1" points="89.64 39.12 102.96 40.32 87.12 40.32 89.64 39.12"/><polygon class="cls-1" points="89.64 39.12 103.68 39.12 102.96 40.32 89.64 39.12"/><polygon class="cls-1" points="60.12 39.12 76.68 40.32 60.96 40.32 60.12 39.12"/><polygon class="cls-1" points="60.12 39.12 74.28 39.12 76.68 40.32 60.12 39.12"/><polygon class="cls-1" points="255.6 40.32 271.2 40.56 254.28 40.56 255.6 40.32"/><polygon class="cls-1" points="255.6 40.32 271.32 40.32 271.2 40.56 255.6 40.32"/><polygon class="cls-1" points="254.28 40.56 270.84 40.92 252.96 40.92 254.28 40.56"/><polygon class="cls-1" points="254.28 40.56 271.2 40.56 270.84 40.92 254.28 40.56"/><polygon class="cls-1" points="143.28 40.32 158.52 40.92 140.76 40.92 143.28 40.32"/><polygon class="cls-1" points="143.28 40.32 159 40.32 158.52 40.92 143.28 40.32"/><polygon class="cls-1" points="117 40.32 135.36 40.92 117.6 40.92 117 40.32"/><polygon class="cls-1" points="117 40.32 132.84 40.32 135.36 40.92 117 40.32"/><polygon class="cls-1" points="87.12 40.32 102.48 40.92 84.6 40.92 87.12 40.32"/><polygon class="cls-1" points="87.12 40.32 102.96 40.32 102.48 40.92 87.12 40.32"/><polygon class="cls-1" points="60.96 40.32 79.32 40.92 61.44 40.92 60.96 40.32"/><polygon class="cls-1" points="60.96 40.32 76.68 40.32 79.32 40.92 60.96 40.32"/><polygon class="cls-1" points="252.96 40.92 270.72 41.16 250.32 41.16 252.96 40.92"/><polygon class="cls-1" points="252.96 40.92 270.84 40.92 270.72 41.16 252.96 40.92"/><polygon class="cls-1" points="140.76 40.92 158.4 41.16 138 41.16 140.76 40.92"/><polygon class="cls-1" points="140.76 40.92 158.52 40.92 158.4 41.16 140.76 40.92"/><polygon class="cls-1" points="117.6 40.92 138 41.16 117.72 41.16 117.6 40.92"/><polygon class="cls-1" points="117.6 40.92 135.36 40.92 138 41.16 117.6 40.92"/><polygon class="cls-1" points="84.6 40.92 102.24 41.16 81.96 41.16 84.6 40.92"/><polygon class="cls-1" points="84.6 40.92 102.48 40.92 102.24 41.16 84.6 40.92"/><polygon class="cls-1" points="61.44 40.92 81.96 41.16 61.56 41.16 61.44 40.92"/><polygon class="cls-1" points="61.44 40.92 79.32 40.92 81.96 41.16 61.44 40.92"/><polygon class="cls-1" points="117.72 41.16 157.8 42 118.32 42 117.72 41.16"/><polygon class="cls-1" points="117.72 41.16 158.4 41.16 157.8 42 117.72 41.16"/><polygon class="cls-1" points="61.56 41.16 101.76 42 62.16 42 61.56 41.16"/><polygon class="cls-1" points="61.56 41.16 102.24 41.16 101.76 42 61.56 41.16"/><polygon class="cls-1" points="224.76 41.16 268.92 43.32 224.76 43.32 224.76 41.16"/><polygon class="cls-1" points="224.76 41.16 270.72 41.16 268.92 43.32 224.76 41.16"/><polygon class="cls-1" points="118.32 42 155.52 44.52 120.6 44.52 118.32 42"/><polygon class="cls-1" points="118.32 42 157.8 42 155.52 44.52 118.32 42"/><polygon class="cls-1" points="62.16 42 99.36 44.52 64.56 44.52 62.16 42"/><polygon class="cls-1" points="62.16 42 101.76 42 99.36 44.52 62.16 42"/><polygon class="cls-1" points="224.76 43.32 266.4 45.72 224.76 45.72 224.76 43.32"/><polygon class="cls-1" points="224.76 43.32 268.92 43.32 266.4 45.72 224.76 43.32"/><polygon class="cls-1" points="120.6 44.52 152.76 46.68 123.36 46.68 120.6 44.52"/><polygon class="cls-1" points="120.6 44.52 155.52 44.52 152.76 46.68 120.6 44.52"/><polygon class="cls-1" points="64.56 44.52 96.6 46.68 67.2 46.68 64.56 44.52"/><polygon class="cls-1" points="64.56 44.52 99.36 44.52 96.6 46.68 64.56 44.52"/><polygon class="cls-1" points="224.76 45.72 263.52 47.64 224.76 47.64 224.76 45.72"/><polygon class="cls-1" points="224.76 45.72 266.4 45.72 263.52 47.64 224.76 45.72"/><polygon class="cls-1" points="123.36 46.68 149.76 48.48 126.36 48.48 123.36 46.68"/><polygon class="cls-1" points="123.36 46.68 152.76 46.68 149.76 48.48 123.36 46.68"/><polygon class="cls-1" points="67.2 46.68 93.72 48.48 70.2 48.48 67.2 46.68"/><polygon class="cls-1" points="67.2 46.68 96.6 46.68 93.72 48.48 67.2 46.68"/><polygon class="cls-1" points="224.76 47.64 260.52 49.32 224.76 49.32 224.76 47.64"/><polygon class="cls-1" points="224.76 47.64 263.52 47.64 260.52 49.32 224.76 47.64"/><polygon class="cls-1" points="126.36 48.48 146.64 49.92 129.48 49.92 126.36 48.48"/><polygon class="cls-1" points="126.36 48.48 149.76 48.48 146.64 49.92 126.36 48.48"/><polygon class="cls-1" points="70.2 48.48 90.48 49.92 73.44 49.92 70.2 48.48"/><polygon class="cls-1" points="70.2 48.48 93.72 48.48 90.48 49.92 70.2 48.48"/><polygon class="cls-1" points="224.76 49.32 257.16 50.4 224.76 50.4 224.76 49.32"/><polygon class="cls-1" points="224.76 49.32 260.52 49.32 257.16 50.4 224.76 49.32"/><polygon class="cls-1" points="129.48 49.92 143.28 50.88 132.84 50.88 129.48 49.92"/><polygon class="cls-1" points="129.48 49.92 146.64 49.92 143.28 50.88 129.48 49.92"/><polygon class="cls-1" points="73.44 49.92 87.12 50.88 76.8 50.88 73.44 49.92"/><polygon class="cls-1" points="73.44 49.92 90.48 49.92 87.12 50.88 73.44 49.92"/><polygon class="cls-1" points="224.76 50.4 253.8 51.12 224.76 51.12 224.76 50.4"/><polygon class="cls-1" points="224.76 50.4 257.16 50.4 253.8 51.12 224.76 50.4"/><polygon class="cls-1" points="132.84 50.88 139.8 51.36 136.32 51.36 132.84 50.88"/><polygon class="cls-1" points="132.84 50.88 143.28 50.88 139.8 51.36 132.84 50.88"/><polygon class="cls-1" points="76.8 50.88 83.64 51.36 80.16 51.36 76.8 50.88"/><polygon class="cls-1" points="76.8 50.88 87.12 50.88 83.64 51.36 76.8 50.88"/><polygon class="cls-1" points="224.76 51.12 250.32 51.36 224.76 51.36 224.76 51.12"/><polygon class="cls-1" points="224.76 51.12 253.8 51.12 250.32 51.36 224.76 51.12"/><polygon class="cls-1" points="209.52 25.92 219.72 51.36 209.52 51.36 209.52 25.92"/><polygon class="cls-1" points="209.52 25.92 219.72 25.92 219.72 51.36 209.52 25.92"/><polygon class="cls-1" points="168.72 25.92 178.92 51.36 168.72 51.36 168.72 25.92"/><polygon class="cls-1" points="168.72 25.92 178.92 25.92 178.92 51.36 168.72 25.92"/><polygon class="cls-1" points="0.36 36.12 10.56 51.36 0.36 51.36 0.36 36.12"/><polygon class="cls-1" points="0.36 36.12 10.56 36.12 10.56 51.36 0.36 36.12"/><polyline class="cls-2" points="224.76 0.36 224.76 10.56 250.32 10.56"/><polyline class="cls-3" points="250.32 41.16 252.36 41.04 254.28 40.68 256.2 39.96 258 39.12 259.56 38.04 261.12 36.72 262.44 35.16 263.52 33.48 264.36 31.8 265.08 29.88 265.44 27.96 265.56 25.92 265.44 23.88 265.08 21.96 264.36 20.04 263.52 18.24 262.44 16.68 261.12 15.12 259.56 13.8 258 12.72 256.2 11.88 254.28 11.16 252.36 10.8 250.32 10.68"/><polyline class="cls-2" points="250.32 41.16 224.76 41.16 224.76 51.36 250.32 51.36"/><polyline class="cls-3" points="250.32 51.36 252.96 51.24 255.6 50.76 258.24 50.16 260.64 49.2 263.04 48 265.32 46.56 267.36 44.88 269.28 42.96 270.96 40.92 272.4 38.64 273.6 36.24 274.56 33.84 275.16 31.2 275.64 28.56 275.76 25.92 275.64 23.28 275.16 20.64 274.56 18 273.6 15.6 272.4 13.2 270.96 10.92 269.28 8.88 267.36 6.96 265.32 5.28 263.04 3.84 260.64 2.64 258.24 1.68 255.6 1.08 252.96 0.6 250.32 0.48"/><line class="cls-2" x1="250.32" y1="0.36" x2="224.76" y2="0.36"/><polyline class="cls-2" points="168.72 51.36 178.92 51.36 178.92 25.92"/><polyline class="cls-3" points="209.4 25.92 209.28 23.88 208.92 21.96 208.2 20.04 207.36 18.24 206.28 16.68 204.96 15.12 203.4 13.8 201.84 12.72 200.04 11.88 198.12 11.16 196.2 10.8 194.16 10.68 192.12 10.8 190.2 11.16 188.28 11.88 186.6 12.72 184.92 13.8 183.36 15.12 182.04 16.68 180.96 18.24 180.12 20.04 179.4 21.96 179.04 23.88 178.92 25.92"/><polyline class="cls-2" points="209.52 25.92 209.52 51.36 219.72 51.36 219.72 25.92"/><polyline class="cls-3" points="219.6 25.92 219.48 23.28 219 20.64 218.4 18 217.44 15.6 216.24 13.2 214.8 10.92 213.12 8.88 211.2 6.96 209.16 5.28 206.88 3.84 204.48 2.64 202.08 1.68 199.44 1.08 196.8 0.6 194.16 0.48 191.52 0.6 188.88 1.08 186.24 1.68 183.84 2.64 181.44 3.84 179.16 5.28 177.12 6.96 175.2 8.88 173.52 10.92 172.08 13.2 170.88 15.6 169.92 18 169.32 20.64 168.84 23.28 168.72 25.92"/><path class="cls-2" d="M112.56.36V25.92m56.16,0V51.36"/><polyline class="cls-3" points="112.56 25.92 112.68 28.56 113.16 31.2 113.76 33.84 114.72 36.24 115.92 38.64 117.36 40.92 119.04 42.96 120.96 44.88 123 46.56 125.28 48 127.68 49.2 130.08 50.16 132.72 50.76 135.36 51.24 138 51.36 140.64 51.24 143.28 50.76 145.92 50.16 148.32 49.2 150.72 48 153 46.56 155.04 44.88 156.96 42.96 158.64 40.92 160.08 38.64 161.28 36.24 162.24 33.84 162.84 31.2 163.32 28.56 163.44 25.92"/><polyline class="cls-2" points="163.56 25.92 163.56 0.36 153.36 0.36 153.36 25.92"/><polyline class="cls-3" points="122.76 25.92 122.88 27.96 123.24 29.88 123.96 31.8 124.8 33.48 125.88 35.16 127.2 36.72 128.76 38.04 130.44 39.12 132.12 39.96 134.04 40.68 135.96 41.04 138 41.16 140.04 41.04 141.96 40.68 143.88 39.96 145.68 39.12 147.24 38.04 148.8 36.72 150.12 35.16 151.2 33.48 152.04 31.8 152.76 29.88 153.12 27.96 153.24 25.92"/><polyline class="cls-2" points="122.76 25.92 122.76 0.36 112.56 0.36"/><polygon class="cls-3" points="97.2 25.92 97.08 23.88 96.6 21.84 95.88 19.8 95.04 18 93.84 16.32 92.4 14.76 90.72 13.44 88.92 12.36 87.12 11.52 85.08 11.04 83.04 10.68 80.88 10.68 78.84 11.04 76.8 11.52 75 12.36 73.2 13.44 71.52 14.76 70.08 16.32 68.88 18 68.04 19.8 67.32 21.84 66.84 23.88 66.72 25.92 66.84 27.96 67.32 30 68.04 32.04 68.88 33.84 70.08 35.52 71.52 37.08 73.2 38.4 75 39.48 76.8 40.32 78.84 40.8 80.88 41.16 83.04 41.16 85.08 40.8 87.12 40.32 88.92 39.48 90.72 38.4 92.4 37.08 93.84 35.52 95.04 33.84 95.88 32.04 96.6 30 97.08 27.96 97.2 25.92"/><polygon class="cls-3" points="107.4 25.92 107.28 23.28 106.8 20.64 106.2 18 105.24 15.6 104.04 13.2 102.6 10.92 100.92 8.88 99 6.96 96.96 5.28 94.68 3.84 92.28 2.64 89.88 1.68 87.24 1.08 84.6 0.6 81.96 0.48 79.32 0.6 76.68 1.08 74.04 1.68 71.64 2.64 69.24 3.84 66.96 5.28 64.92 6.96 63 8.88 61.32 10.92 59.88 13.2 58.68 15.6 57.72 18 57.12 20.64 56.64 23.28 56.52 25.92 56.64 28.56 57.12 31.2 57.72 33.84 58.68 36.24 59.88 38.64 61.32 40.92 63 42.96 64.92 44.88 66.96 46.56 69.24 48 71.64 49.2 74.04 50.16 76.68 50.76 79.32 51.24 81.96 51.36 84.6 51.24 87.24 50.76 89.88 50.16 92.28 49.2 94.68 48 96.96 46.56 99 44.88 100.92 42.96 102.6 40.92 104.04 38.64 105.24 36.24 106.2 33.84 106.8 31.2 107.28 28.56 107.4 25.92"/><polyline class="cls-2" points="0.36 51.36 10.56 51.36 10.56 36.12 25.8 36.12 25.8 25.92 10.56 25.92"/><polyline class="cls-3" points="41.04 25.92 40.92 23.88 40.56 21.96 39.84 20.04 39 18.36 37.92 16.68 36.6 15.12 35.04 13.8 33.48 12.72 31.68 11.88 29.76 11.16 27.84 10.8 25.8 10.68 23.76 10.8 21.84 11.16 19.92 11.88 18.24 12.72 16.56 13.8 15 15.12 13.68 16.68 12.6 18.24 11.76 20.04 11.04 21.96 10.68 23.88 10.56 25.92"/><line class="cls-2" x1="41.16" y1="25.92" x2="51.36" y2="25.92"/><polyline class="cls-3" points="51.24 25.92 51.12 23.28 50.64 20.64 50.04 18 49.08 15.6 47.88 13.2 46.44 10.92 44.76 8.88 42.84 6.96 40.8 5.28 38.52 3.84 36.12 2.64 33.72 1.68 31.08 1.08 28.44 0.6 25.8 0.48 23.16 0.6 20.52 1.08 17.88 1.68 15.48 2.64 13.08 3.84 10.8 5.28 8.76 6.96 6.84 8.88 5.16 10.92 3.72 13.2 2.52 15.6 1.56 18 0.96 20.64 0.48 23.28 0.36 25.92"/><line class="cls-2" x1="0.36" y1="25.92" x2="0.36" y2="51.36"/></g></g></svg>