<?xml version="1.0" encoding="utf-8"?>
<!-- Generator: Adobe Illustrator 23.0.3, SVG Export Plug-In . SVG Version: 6.00 Build 0)  -->
<svg version="1.1" id="Livello_1" xmlns="http://www.w3.org/2000/svg" xmlns:xlink="http://www.w3.org/1999/xlink" x="0px" y="0px"
	 viewBox="0 0 2069.3 2069.3" style="enable-background:new 0 0 2069.3 2069.3;" xml:space="preserve">
<style type="text/css">
	.st0{fill:#1D1D1B;}
	.st1{fill-rule:evenodd;clip-rule:evenodd;fill:#FFFFFF;}
	.st2{fill:none;stroke:#FFFFFF;stroke-width:0.72;stroke-linecap:round;stroke-linejoin:round;}
	.st3{fill:none;stroke:#FFFFFF;stroke-width:0.72;stroke-linecap:round;stroke-linejoin:bevel;}
	.st4{fill:#FFFFFF;stroke:#FFFFFF;stroke-width:0.72;stroke-linecap:round;stroke-linejoin:bevel;}
	.st5{fill:#FFFFFF;stroke:#FFFFFF;stroke-width:0.72;stroke-linecap:round;stroke-linejoin:round;}
</style>
<path class="st0" d="M1058.1,1043c0,0,5.4-12-1.6-23.3c-6.1-11.8-19.1-12.6-19.1-12.6L1618.8,0H450.2l582,1007.3
	c0,0-11.1-0.4-19.7,12.5c-6.3,12.1-1.6,22.1-1.1,23.3c-322.6,0.1-687.8,0.2-1011.4,0.3v1020.1h428.6l0.4-0.7
	c0.2-0.4,0.4-0.7,0.6-1.1l584.2-1014.3c0,0,7.7,10.8,20.8,10.3c12.5,0.1,20-9.2,20.8-10.2c151.1,261.5,530.4,919.8,585.8,1016h422.3
	V1043.1C1714.6,1042.9,1058.1,1043,1058.1,1043z"/>
<g>
	<g id="Livello_1-2">
		<g id="Livello_1-2-2">
			<polygon class="st1" points="1046,1042.6 1053.2,1044.3 1044.2,1044.3 			"/>
			<polygon class="st1" points="1046,1042.6 1052.3,1042.6 1053.2,1044.3 			"/>
			<polygon class="st1" points="1017.1,1042.6 1025.2,1044.3 1016.1,1044.3 			"/>
			<polygon class="st1" points="1017.1,1042.6 1023.3,1042.6 1025.2,1044.3 			"/>
			<polygon class="st1" points="1044.2,1044.3 1054.1,1045.8 1042,1045.8 			"/>
			<polygon class="st1" points="1044.2,1044.3 1053.2,1044.3 1054.1,1045.8 			"/>
			<polygon class="st1" points="1016.1,1044.3 1027.3,1045.8 1015.3,1045.8 			"/>
			<polygon class="st1" points="1016.1,1044.3 1025.2,1044.3 1027.3,1045.8 			"/>
			<polygon class="st1" points="1042,1045.8 1054.7,1046.8 1039.6,1046.8 			"/>
			<polygon class="st1" points="1042,1045.8 1054.1,1045.8 1054.7,1046.8 			"/>
			<polygon class="st1" points="1015.3,1045.8 1029.6,1046.8 1014.7,1046.8 			"/>
			<polygon class="st1" points="1015.3,1045.8 1027.3,1045.8 1029.6,1046.8 			"/>
			<polygon class="st1" points="1039.6,1046.8 1055,1047.5 1037.2,1047.5 			"/>
			<polygon class="st1" points="1039.6,1046.8 1054.7,1046.8 1055,1047.5 			"/>
			<polygon class="st1" points="1014.7,1046.8 1032.1,1047.5 1014.3,1047.5 			"/>
			<polygon class="st1" points="1014.7,1046.8 1029.6,1046.8 1032.1,1047.5 			"/>
			<polygon class="st1" points="1037.2,1047.5 1055,1047.5 1036.5,1047.5 			"/>
			<polygon class="st1" points="1037.2,1047.5 1055,1047.5 1055,1047.5 			"/>
			<polygon class="st1" points="1014.3,1047.5 1032.7,1047.5 1014.2,1047.5 			"/>
			<polygon class="st1" points="1014.3,1047.5 1032.1,1047.5 1032.7,1047.5 			"/>
			<polygon class="st1" points="1036.5,1047.5 1054.9,1047.7 1034.6,1047.7 			"/>
			<polygon class="st1" points="1036.5,1047.5 1055,1047.5 1054.9,1047.7 			"/>
			<polygon class="st1" points="1014.2,1047.5 1034.6,1047.7 1014.3,1047.7 			"/>
			<polygon class="st1" points="1014.2,1047.5 1032.7,1047.5 1034.6,1047.7 			"/>
			<polygon class="st1" points="1014.3,1047.7 1052.9,1050 1016.5,1050 			"/>
			<polygon class="st1" points="1014.3,1047.7 1054.9,1047.7 1052.9,1050 			"/>
			<polygon class="st1" points="1016.5,1050 1050.4,1052.3 1019,1052.3 			"/>
			<polygon class="st1" points="1016.5,1050 1052.9,1050 1050.4,1052.3 			"/>
			<polygon class="st1" points="1019,1052.3 1047.6,1054.2 1021.7,1054.2 			"/>
			<polygon class="st1" points="1019,1052.3 1050.4,1052.3 1047.6,1054.2 			"/>
			<polygon class="st1" points="1021.7,1054.2 1044.5,1055.8 1024.7,1055.8 			"/>
			<polygon class="st1" points="1021.7,1054.2 1047.6,1054.2 1044.5,1055.8 			"/>
			<polygon class="st1" points="1024.7,1055.8 1041.3,1057 1027.9,1057 			"/>
			<polygon class="st1" points="1024.7,1055.8 1044.5,1055.8 1041.3,1057 			"/>
			<polygon class="st1" points="1031.3,1057.6 1038.1,1057.6 1034.6,1057.8 			"/>
			<polygon class="st1" points="1027.9,1057 1038.1,1057.6 1031.3,1057.6 			"/>
			<polygon class="st1" points="1027.9,1057 1041.3,1057 1038.1,1057.6 			"/>
			<polygon class="st1" points="1031.9,1007.3 1032.1,1007.9 1028.5,1007.9 			"/>
			<polygon class="st1" points="1028.5,1007.9 1032.7,1008.9 1025.3,1008.9 			"/>
			<polygon class="st1" points="1028.5,1007.9 1032.1,1007.9 1032.7,1008.9 			"/>
			<polygon class="st1" points="1025.3,1008.9 1033.5,1010.4 1022.3,1010.4 			"/>
			<polygon class="st1" points="1025.3,1008.9 1032.7,1008.9 1033.5,1010.4 			"/>
			<polygon class="st1" points="1022.3,1010.4 1034.6,1012.2 1019.5,1012.2 			"/>
			<polygon class="st1" points="1022.3,1010.4 1033.5,1010.4 1034.6,1012.2 			"/>
			<polygon class="st1" points="1019.5,1012.2 1033.4,1014.5 1017,1014.5 			"/>
			<polygon class="st1" points="1019.5,1012.2 1034.6,1012.2 1033.4,1014.5 			"/>
			<polygon class="st1" points="1017,1014.5 1032,1016.9 1014.7,1016.9 			"/>
			<polygon class="st1" points="1017,1014.5 1033.4,1014.5 1032,1016.9 			"/>
			<polygon class="st1" points="1014.7,1016.9 1031.5,1017.7 1014.2,1017.7 			"/>
			<polygon class="st1" points="1014.7,1016.9 1032,1016.9 1031.5,1017.7 			"/>
			<polygon class="st1" points="1014.2,1017.7 1029,1018.4 1013.6,1018.4 			"/>
			<polygon class="st1" points="1014.2,1017.7 1031.5,1017.7 1029,1018.4 			"/>
			<polygon class="st1" points="1013.6,1018.4 1026.7,1019.6 1012.9,1019.6 			"/>
			<polygon class="st1" points="1013.6,1018.4 1029,1018.4 1026.7,1019.6 			"/>
			<polygon class="st1" points="1012.9,1019.6 1026.5,1019.7 1012.8,1019.7 			"/>
			<polygon class="st1" points="1012.9,1019.6 1026.7,1019.6 1026.5,1019.7 			"/>
			<polygon class="st1" points="1012.8,1019.7 1024.6,1020.9 1012.1,1020.9 			"/>
			<polygon class="st1" points="1012.8,1019.7 1026.5,1019.7 1024.6,1020.9 			"/>
			<polygon class="st1" points="1012.1,1020.9 1023,1022.7 1011.2,1022.7 			"/>
			<polygon class="st1" points="1012.1,1020.9 1024.6,1020.9 1023,1022.7 			"/>
			<polygon class="st1" points="1011.2,1022.7 1022.8,1022.8 1011.2,1022.8 			"/>
			<polygon class="st1" points="1011.2,1022.7 1023,1022.7 1022.8,1022.8 			"/>
			<polygon class="st1" points="1011.2,1022.8 1021.4,1025.1 1010.4,1025.1 			"/>
			<polygon class="st1" points="1011.2,1022.8 1022.8,1022.8 1021.4,1025.1 			"/>
			<polygon class="st1" points="1010.4,1025.1 1021,1025.8 1010.2,1025.8 			"/>
			<polygon class="st1" points="1010.4,1025.1 1021.4,1025.1 1021,1025.8 			"/>
			<polygon class="st1" points="1010.2,1025.8 1020.3,1027.5 1009.9,1027.5 			"/>
			<polygon class="st1" points="1010.2,1025.8 1021,1025.8 1020.3,1027.5 			"/>
			<polygon class="st1" points="1009.9,1027.5 1019.8,1029.1 1009.6,1029.1 			"/>
			<polygon class="st1" points="1009.9,1027.5 1020.3,1027.5 1019.8,1029.1 			"/>
			<polygon class="st1" points="1009.6,1029.1 1019.7,1029.9 1009.4,1029.9 			"/>
			<polygon class="st1" points="1009.6,1029.1 1019.8,1029.1 1019.7,1029.9 			"/>
			<polygon class="st1" points="1009.4,1029.9 1019.5,1032.5 1009.3,1032.5 			"/>
			<polygon class="st1" points="1009.4,1029.9 1019.7,1029.9 1019.5,1032.5 			"/>
			<polygon class="st1" points="1009.3,1032.5 1019.6,1034.9 1009.4,1034.9 			"/>
			<polygon class="st1" points="1009.3,1032.5 1019.5,1032.5 1019.6,1034.9 			"/>
			<polygon class="st1" points="1009.4,1034.9 1019.9,1036 1009.6,1036 			"/>
			<polygon class="st1" points="1009.4,1034.9 1019.6,1034.9 1019.9,1036 			"/>
			<polygon class="st1" points="1009.6,1036 1020.2,1037.2 1009.8,1037.2 			"/>
			<polygon class="st1" points="1009.6,1036 1019.9,1036 1020.2,1037.2 			"/>
			<polygon class="st1" points="1009.8,1037.2 1019,1039.3 1010.3,1039.3 			"/>
			<polygon class="st1" points="1009.8,1037.2 1020.2,1037.2 1019,1039.3 			"/>
			<polygon class="st1" points="1010.3,1039.3 1017.1,1042.6 1011.4,1042.6 			"/>
			<polygon class="st1" points="1010.3,1039.3 1019,1039.3 1017.1,1042.6 			"/>
			<polygon class="st1" points="1037.5,1007.3 1040.8,1007.9 1037.1,1007.9 			"/>
			<polygon class="st1" points="1037.1,1007.9 1044,1008.9 1036.5,1008.9 			"/>
			<polygon class="st1" points="1037.1,1007.9 1040.8,1007.9 1044,1008.9 			"/>
			<polygon class="st1" points="1036.5,1008.9 1047,1010.4 1035.7,1010.4 			"/>
			<polygon class="st1" points="1036.5,1008.9 1044,1008.9 1047,1010.4 			"/>
			<polygon class="st1" points="1035.7,1010.4 1049.9,1012.2 1034.6,1012.2 			"/>
			<polygon class="st1" points="1035.7,1010.4 1047,1010.4 1049.9,1012.2 			"/>
			<polygon class="st1" points="1034.6,1012.2 1052.4,1014.5 1035.9,1014.5 			"/>
			<polygon class="st1" points="1034.6,1012.2 1049.9,1012.2 1052.4,1014.5 			"/>
			<polygon class="st1" points="1035.9,1014.5 1054.7,1016.9 1037.4,1016.9 			"/>
			<polygon class="st1" points="1035.9,1014.5 1052.4,1014.5 1054.7,1016.9 			"/>
			<polygon class="st1" points="1037.4,1016.9 1055.1,1017.7 1037.7,1017.7 			"/>
			<polygon class="st1" points="1037.4,1016.9 1054.7,1016.9 1055.1,1017.7 			"/>
			<polygon class="st1" points="1037.7,1017.7 1055.6,1018.4 1040.2,1018.4 			"/>
			<polygon class="st1" points="1037.7,1017.7 1055.1,1017.7 1055.6,1018.4 			"/>
			<polygon class="st1" points="1040.2,1018.4 1056.5,1019.6 1042.6,1019.6 			"/>
			<polygon class="st1" points="1040.2,1018.4 1055.6,1018.4 1056.5,1019.6 			"/>
			<polygon class="st1" points="1042.6,1019.6 1056.6,1019.7 1042.9,1019.7 			"/>
			<polygon class="st1" points="1042.6,1019.6 1056.5,1019.6 1056.6,1019.7 			"/>
			<polygon class="st1" points="1042.9,1019.7 1057.2,1020.9 1044.6,1020.9 			"/>
			<polygon class="st1" points="1042.9,1019.7 1056.6,1019.7 1057.2,1020.9 			"/>
			<polygon class="st1" points="1044.6,1020.9 1058,1022.7 1046.2,1022.7 			"/>
			<polygon class="st1" points="1044.6,1020.9 1057.2,1020.9 1058,1022.7 			"/>
			<polygon class="st1" points="1046.2,1022.7 1058.1,1022.8 1046.4,1022.8 			"/>
			<polygon class="st1" points="1046.2,1022.7 1058,1022.7 1058.1,1022.8 			"/>
			<polygon class="st1" points="1046.4,1022.8 1058.8,1025.1 1048,1025.1 			"/>
			<polygon class="st1" points="1046.4,1022.8 1058.1,1022.8 1058.8,1025.1 			"/>
			<polygon class="st1" points="1048,1025.1 1059.1,1025.8 1048.3,1025.8 			"/>
			<polygon class="st1" points="1048,1025.1 1058.8,1025.1 1059.1,1025.8 			"/>
			<polygon class="st1" points="1048.3,1025.8 1059.4,1027.5 1049.1,1027.5 			"/>
			<polygon class="st1" points="1048.3,1025.8 1059.1,1025.8 1059.4,1027.5 			"/>
			<polygon class="st1" points="1049.1,1027.5 1059.8,1029.1 1049.4,1029.1 			"/>
			<polygon class="st1" points="1049.1,1027.5 1059.4,1027.5 1059.8,1029.1 			"/>
			<polygon class="st1" points="1049.4,1029.1 1059.8,1029.9 1049.7,1029.9 			"/>
			<polygon class="st1" points="1049.4,1029.1 1059.8,1029.1 1059.8,1029.9 			"/>
			<polygon class="st1" points="1049.7,1029.9 1060,1032.5 1049.9,1032.5 			"/>
			<polygon class="st1" points="1049.7,1029.9 1059.8,1029.9 1060,1032.5 			"/>
			<polygon class="st1" points="1049.9,1032.5 1059.9,1034.9 1049.7,1034.9 			"/>
			<polygon class="st1" points="1049.9,1032.5 1060,1032.5 1059.9,1034.9 			"/>
			<polygon class="st1" points="1049.7,1034.9 1059.8,1036 1049.4,1036 			"/>
			<polygon class="st1" points="1049.7,1034.9 1059.9,1034.9 1059.8,1036 			"/>
			<polygon class="st1" points="1049.4,1036 1059.6,1037.2 1049.1,1037.2 			"/>
			<polygon class="st1" points="1049.4,1036 1059.8,1036 1059.6,1037.2 			"/>
			<polygon class="st1" points="1049.1,1037.2 1059.1,1039.3 1050.4,1039.3 			"/>
			<polygon class="st1" points="1049.1,1037.2 1059.6,1037.2 1059.1,1039.3 			"/>
			<polygon class="st1" points="1050.4,1039.3 1057.9,1042.6 1052.3,1042.6 			"/>
			<polygon class="st1" points="1050.4,1039.3 1059.1,1039.3 1057.9,1042.6 			"/>
			<line class="st2" x1="1034.6" y1="1012.2" x2="1037.7" y2="1017.7"/>
			<polyline class="st3" points="1049.8,1032.5 1049.7,1030.8 1049.4,1028.9 1048.9,1027.5 1048.2,1025.8 1047.4,1024.3 
				1046.4,1022.8 1045.2,1021.6 1043.9,1020.6 1042.5,1019.6 1040.9,1018.8 1039.4,1018.1 1037.7,1017.7 			"/>
			<polyline class="st4" points="1049.1,1037.3 1049.3,1036.1 1049.5,1034.9 1049.8,1033.8 1049.8,1032.6 			"/>
			<polyline class="st5" points="1049.1,1037.2 1052.3,1042.6 1057.9,1042.6 			"/>
			<polyline class="st4" points="1057.8,1042.6 1058.5,1041 1059,1039.3 1059.4,1037.6 1059.7,1036 1059.9,1034.3 1059.9,1032.6 			
				"/>
			<polyline class="st3" points="1059.9,1032.5 1059.8,1030.2 1059.4,1027.9 1059,1025.7 1058.2,1023.3 1057.3,1021.3 
				1056.2,1019.4 1054.9,1017.5 1053.5,1015.7 1051.9,1013.9 1050.1,1012.4 1048.2,1011 1046.2,1010 1044.2,1009 1042,1008.2 
				1039.8,1007.7 1037.5,1007.3 			"/>
			<line class="st2" x1="1037.5" y1="1007.3" x2="1034.6" y2="1012.2"/>
			<line class="st2" x1="1052.3" y1="1042.6" x2="1046" y2="1042.6"/>
			<polyline class="st3" points="1023.3,1042.5 1024.6,1043.7 1026,1044.9 1027.6,1045.9 1029.3,1046.6 1031,1047.1 1032.8,1047.5 
				1034.6,1047.5 1036.4,1047.5 1038.2,1047.1 1040,1046.6 1041.7,1045.9 1043.2,1044.9 1044.6,1043.7 1046,1042.5 			"/>
			<polyline class="st5" points="1023.3,1042.6 1017.1,1042.6 1014.2,1047.5 			"/>
			<polyline class="st3" points="1014.2,1047.5 1015.9,1049.5 1017.8,1051.2 1019.8,1052.9 1022.1,1054.3 1024.4,1055.5 
				1026.9,1056.5 1029.4,1057.1 1032,1057.6 1034.6,1057.7 1037.2,1057.6 1039.9,1057.1 1042.4,1056.5 1044.9,1055.5 1047.1,1054.3 
				1049.4,1052.9 1051.4,1051.2 1053.4,1049.5 1055,1047.5 			"/>
			<path class="st5" d="M1055,1047.5l-2.7-4.9"/>
			<polyline class="st3" points="1031.8,1007.4 1029.5,1007.8 1027.2,1008.4 1025.1,1009.1 1023,1010.1 1021,1011.2 1019.1,1012.6 
				1017.3,1014.1 1015.8,1015.8 1014.3,1017.6 1013,1019.5 1012,1021.5 1011,1023.5 1010.3,1025.8 1009.8,1028.1 1009.4,1030.3 
				1009.3,1032.6 			"/>
			<polyline class="st4" points="1009.3,1032.5 1009.3,1034.3 1009.6,1035.8 1009.8,1037.5 1010.3,1039.2 1010.8,1040.9 
				1011.5,1042.5 			"/>
			<polyline class="st5" points="1011.4,1042.6 1017.1,1042.6 1020.2,1037.2 			"/>
			<polyline class="st4" points="1019.5,1032.6 1019.5,1033.8 1019.7,1034.9 1019.9,1036.1 1020.2,1037.3 			"/>
			<polyline class="st3" points="1031.5,1017.7 1029.8,1018.1 1028.3,1018.8 1026.7,1019.6 1025.3,1020.6 1024,1021.6 
				1022.8,1022.8 1021.9,1024.3 1021,1025.8 1020.3,1027.5 1019.8,1028.9 1019.6,1030.8 1019.5,1032.5 			"/>
			<polyline class="st5" points="1031.5,1017.7 1034.6,1012.2 1031.9,1007.3 			"/>
		</g>
	</g>
</g>
</svg>
