<?xml version="1.0" encoding="utf-8"?>
<!-- Generator: Adobe Illustrator 23.0.3, SVG Export Plug-In . SVG Version: 6.00 Build 0)  -->
<svg version="1.1" id="whiteRound" xmlns="http://www.w3.org/2000/svg" xmlns:xlink="http://www.w3.org/1999/xlink" x="0px" y="0px"
	 viewBox="0 0 281.2 56.8" style="enable-background:new 0 0 281.2 56.8;" xml:space="preserve">
<style type="text/css">
	.st0{fill-rule:evenodd;clip-rule:evenodd;fill:#FFFFFF;}
	.st1{fill:none;stroke:#FFFFFF;stroke-width:0.72;stroke-linecap:round;stroke-linejoin:bevel;}
	.st2{fill:#646464;stroke:#666666;stroke-width:0.72;stroke-linecap:round;stroke-linejoin:round;stroke-miterlimit:10;}
	.st3{fill:none;stroke:#646464;stroke-width:12;stroke-linecap:round;stroke-linejoin:bevel;stroke-miterlimit:10;}
	.st4{fill:#646464;stroke:#646464;stroke-width:0.72;stroke-linecap:round;stroke-linejoin:round;stroke-miterlimit:10;}
</style>
<g>
	<g>
		<g>
			<polygon class="st0" points="82.7,2.9 89.7,3.3 79.4,3.3 			"/>
			<polygon class="st0" points="82.7,2.9 86.2,2.9 89.7,3.3 			"/>
			<polygon class="st0" points="79.4,3.3 93.1,4.3 76,4.3 			"/>
			<polygon class="st0" points="79.4,3.3 89.7,3.3 93.1,4.3 			"/>
			<polygon class="st0" points="76,4.3 96.3,5.7 72.8,5.7 			"/>
			<polygon class="st0" points="76,4.3 93.1,4.3 96.3,5.7 			"/>
			<polygon class="st0" points="72.8,5.7 99.2,7.5 69.8,7.5 			"/>
			<polygon class="st0" points="72.8,5.7 96.3,5.7 99.2,7.5 			"/>
			<polygon class="st0" points="69.8,7.5 101.9,9.7 67.1,9.7 			"/>
			<polygon class="st0" points="69.8,7.5 99.2,7.5 101.9,9.7 			"/>
			<polygon class="st0" points="67.1,9.7 104.3,12.2 64.7,12.2 			"/>
			<polygon class="st0" points="67.1,9.7 101.9,9.7 104.3,12.2 			"/>
			<polygon class="st0" points="64.7,12.2 104.8,13 64.1,13 			"/>
			<polygon class="st0" points="64.7,12.2 104.3,12.2 104.8,13 			"/>
			<polygon class="st0" points="84.5,13 105.1,13.3 87.2,13.3 			"/>
			<polygon class="st0" points="84.5,13 104.8,13 105.1,13.3 			"/>
			<polygon class="st0" points="64.1,13 81.9,13.3 64,13.3 			"/>
			<polygon class="st0" points="64.1,13 84.5,13 81.9,13.3 			"/>
			<polygon class="st0" points="87.2,13.3 105.5,14 89.7,14 			"/>
			<polygon class="st0" points="87.2,13.3 105.1,13.3 105.5,14 			"/>
			<polygon class="st0" points="64,13.3 79.3,14 63.5,14 			"/>
			<polygon class="st0" points="64,13.3 81.9,13.3 79.3,14 			"/>
			<polygon class="st0" points="89.7,14 106.3,15.1 92.2,15.1 			"/>
			<polygon class="st0" points="89.7,14 105.5,14 106.3,15.1 			"/>
			<polygon class="st0" points="63.5,14 76.9,15.1 62.7,15.1 			"/>
			<polygon class="st0" points="63.5,14 79.3,14 76.9,15.1 			"/>
			<polygon class="st0" points="92.2,15.1 107.1,16.6 94.4,16.6 			"/>
			<polygon class="st0" points="92.2,15.1 106.3,15.1 107.1,16.6 			"/>
			<polygon class="st0" points="62.7,15.1 74.7,16.6 62,16.6 			"/>
			<polygon class="st0" points="62.7,15.1 76.9,15.1 74.7,16.6 			"/>
			<polygon class="st0" points="94.4,16.6 107.9,18.2 95.9,18.2 			"/>
			<polygon class="st0" points="94.4,16.6 107.1,16.6 107.9,18.2 			"/>
			<polygon class="st0" points="62,16.6 73.1,18.2 61.1,18.2 			"/>
			<polygon class="st0" points="62,16.6 74.7,16.6 73.1,18.2 			"/>
			<polygon class="st0" points="95.9,18.2 108.1,18.5 96.2,18.5 			"/>
			<polygon class="st0" points="95.9,18.2 107.9,18.2 108.1,18.5 			"/>
			<polygon class="st0" points="61.1,18.2 72.8,18.5 61,18.5 			"/>
			<polygon class="st0" points="61.1,18.2 73.1,18.2 72.8,18.5 			"/>
			<polygon class="st0" points="96.2,18.5 108.8,20.7 97.7,20.7 			"/>
			<polygon class="st0" points="96.2,18.5 108.1,18.5 108.8,20.7 			"/>
			<polygon class="st0" points="61,18.5 71.2,20.7 60.2,20.7 			"/>
			<polygon class="st0" points="61,18.5 72.8,18.5 71.2,20.7 			"/>
			<polygon class="st0" points="97.7,20.7 109,21.4 98.1,21.4 			"/>
			<polygon class="st0" points="97.7,20.7 108.8,20.7 109,21.4 			"/>
			<polygon class="st0" points="60.2,20.7 70.9,21.4 59.9,21.4 			"/>
			<polygon class="st0" points="60.2,20.7 71.2,20.7 70.9,21.4 			"/>
			<polygon class="st0" points="98.1,21.4 109.4,23.1 98.9,23.1 			"/>
			<polygon class="st0" points="98.1,21.4 109,21.4 109.4,23.1 			"/>
			<polygon class="st0" points="59.9,21.4 70.1,23.1 59.6,23.1 			"/>
			<polygon class="st0" points="59.9,21.4 70.9,21.4 70.1,23.1 			"/>
			<polygon class="st0" points="98.9,23.1 109.7,24.9 99.4,24.9 			"/>
			<polygon class="st0" points="98.9,23.1 109.4,23.1 109.7,24.9 			"/>
			<polygon class="st0" points="59.6,23.1 69.7,24.9 59.2,24.9 			"/>
			<polygon class="st0" points="59.6,23.1 70.1,23.1 69.7,24.9 			"/>
			<polygon class="st0" points="99.4,24.9 109.9,25.6 99.5,25.6 			"/>
			<polygon class="st0" points="99.4,24.9 109.7,24.9 109.9,25.6 			"/>
			<polygon class="st0" points="59.2,24.9 69.4,25.6 59.2,25.6 			"/>
			<polygon class="st0" points="59.2,24.9 69.7,24.9 69.4,25.6 			"/>
			<polygon class="st0" points="99.5,25.6 110,28.4 99.8,28.4 			"/>
			<polygon class="st0" points="99.5,25.6 109.9,25.6 110,28.4 			"/>
			<polygon class="st0" points="59.2,25.6 69.2,28.4 59,28.4 			"/>
			<polygon class="st0" points="59.2,25.6 69.4,25.6 69.2,28.4 			"/>
			<polygon class="st0" points="99.8,28.4 109.9,31 99.5,31 			"/>
			<polygon class="st0" points="99.8,28.4 110,28.4 109.9,31 			"/>
			<polygon class="st0" points="59,28.4 69.4,31 59.2,31 			"/>
			<polygon class="st0" points="59,28.4 69.2,28.4 69.4,31 			"/>
			<polygon class="st0" points="99.5,31 109.7,31.9 99.4,31.9 			"/>
			<polygon class="st0" points="99.5,31 109.9,31 109.7,31.9 			"/>
			<polygon class="st0" points="59.2,31 69.7,31.9 59.2,31.9 			"/>
			<polygon class="st0" points="59.2,31 69.4,31 69.7,31.9 			"/>
			<polygon class="st0" points="99.4,31.9 109.4,33.5 98.9,33.5 			"/>
			<polygon class="st0" points="99.4,31.9 109.7,31.9 109.4,33.5 			"/>
			<polygon class="st0" points="59.2,31.9 70.1,33.5 59.6,33.5 			"/>
			<polygon class="st0" points="59.2,31.9 69.7,31.9 70.1,33.5 			"/>
			<polygon class="st0" points="98.9,33.5 109,35.2 98.1,35.2 			"/>
			<polygon class="st0" points="98.9,33.5 109.4,33.5 109,35.2 			"/>
			<polygon class="st0" points="59.6,33.5 70.9,35.2 59.9,35.2 			"/>
			<polygon class="st0" points="59.6,33.5 70.1,33.5 70.9,35.2 			"/>
			<polygon class="st0" points="98.1,35.2 108.8,35.9 97.7,35.9 			"/>
			<polygon class="st0" points="98.1,35.2 109,35.2 108.8,35.9 			"/>
			<polygon class="st0" points="59.9,35.2 71.2,35.9 60.2,35.9 			"/>
			<polygon class="st0" points="59.9,35.2 70.9,35.2 71.2,35.9 			"/>
			<polygon class="st0" points="97.7,35.9 108.1,38.2 96.2,38.2 			"/>
			<polygon class="st0" points="97.7,35.9 108.8,35.9 108.1,38.2 			"/>
			<polygon class="st0" points="60.2,35.9 72.8,38.2 61,38.2 			"/>
			<polygon class="st0" points="60.2,35.9 71.2,35.9 72.8,38.2 			"/>
			<polygon class="st0" points="96.2,38.2 107.9,38.5 95.9,38.5 			"/>
			<polygon class="st0" points="96.2,38.2 108.1,38.2 107.9,38.5 			"/>
			<polygon class="st0" points="61,38.2 73.1,38.5 61.1,38.5 			"/>
			<polygon class="st0" points="61,38.2 72.8,38.2 73.1,38.5 			"/>
			<polygon class="st0" points="95.9,38.5 107.1,40 94.4,40 			"/>
			<polygon class="st0" points="95.9,38.5 107.9,38.5 107.1,40 			"/>
			<polygon class="st0" points="61.1,38.5 74.7,40 62,40 			"/>
			<polygon class="st0" points="61.1,38.5 73.1,38.5 74.7,40 			"/>
			<polygon class="st0" points="94.4,40 106.3,41.6 92.2,41.6 			"/>
			<polygon class="st0" points="94.4,40 107.1,40 106.3,41.6 			"/>
			<polygon class="st0" points="62,40 76.9,41.6 62.7,41.6 			"/>
			<polygon class="st0" points="62,40 74.7,40 76.9,41.6 			"/>
			<polygon class="st0" points="92.2,41.6 105.5,42.8 89.7,42.8 			"/>
			<polygon class="st0" points="92.2,41.6 106.3,41.6 105.5,42.8 			"/>
			<polygon class="st0" points="62.7,41.6 79.3,42.8 63.5,42.8 			"/>
			<polygon class="st0" points="62.7,41.6 76.9,41.6 79.3,42.8 			"/>
			<polygon class="st0" points="89.7,42.8 105.1,43.4 87.2,43.4 			"/>
			<polygon class="st0" points="89.7,42.8 105.5,42.8 105.1,43.4 			"/>
			<polygon class="st0" points="63.5,42.8 81.9,43.4 64,43.4 			"/>
			<polygon class="st0" points="63.5,42.8 79.3,42.8 81.9,43.4 			"/>
			<polygon class="st0" points="87.2,43.4 104.8,43.6 84.5,43.6 			"/>
			<polygon class="st0" points="87.2,43.4 105.1,43.4 104.8,43.6 			"/>
			<polygon class="st0" points="64,43.4 84.5,43.6 64.1,43.6 			"/>
			<polygon class="st0" points="64,43.4 81.9,43.4 84.5,43.6 			"/>
			<polygon class="st0" points="64.1,43.6 104.3,44.5 64.7,44.5 			"/>
			<polygon class="st0" points="64.1,43.6 104.8,43.6 104.3,44.5 			"/>
			<polygon class="st0" points="64.7,44.5 101.9,47 67.1,47 			"/>
			<polygon class="st0" points="64.7,44.5 104.3,44.5 101.9,47 			"/>
			<polygon class="st0" points="67.1,47 99.2,49.1 69.8,49.1 			"/>
			<polygon class="st0" points="67.1,47 101.9,47 99.2,49.1 			"/>
			<polygon class="st0" points="69.8,49.1 96.3,50.9 72.8,50.9 			"/>
			<polygon class="st0" points="69.8,49.1 99.2,49.1 96.3,50.9 			"/>
			<polygon class="st0" points="72.8,50.9 93.1,52.4 76,52.4 			"/>
			<polygon class="st0" points="72.8,50.9 96.3,50.9 93.1,52.4 			"/>
			<polygon class="st0" points="76,52.4 89.7,53.3 79.4,53.3 			"/>
			<polygon class="st0" points="76,52.4 93.1,52.4 89.7,53.3 			"/>
			<polygon class="st0" points="79.4,53.3 86.2,53.8 82.7,53.8 			"/>
			<polygon class="st0" points="79.4,53.3 89.7,53.3 86.2,53.8 			"/>
			<polygon class="st1" points="99.8,28.4 99.7,26.3 99.2,24.3 98.5,22.3 97.6,20.5 96.4,18.8 95,17.2 93.3,15.9 91.5,14.8 89.7,14 
				87.7,13.5 85.6,13.1 83.5,13.1 81.4,13.5 79.4,14 77.6,14.8 75.8,15.9 74.1,17.2 72.7,18.8 71.5,20.5 70.6,22.3 69.9,24.3 
				69.4,26.3 69.3,28.4 69.4,30.4 69.9,32.5 70.6,34.5 71.5,36.3 72.7,38 74.1,39.5 75.8,40.9 77.6,41.9 79.4,42.8 81.4,43.3 
				83.5,43.6 85.6,43.6 87.7,43.3 89.7,42.8 91.5,41.9 93.3,40.9 95,39.5 96.4,38 97.6,36.3 98.5,34.5 99.2,32.5 99.7,30.4 			"/>
			<polygon class="st1" points="110,28.4 109.9,25.7 109.4,23.1 108.8,20.5 107.8,18.1 106.6,15.7 105.2,13.4 103.5,11.3 101.6,9.4 
				99.5,7.7 97.3,6.3 94.9,5.1 92.5,4.1 89.8,3.5 87.2,3.1 84.5,2.9 81.9,3.1 79.3,3.5 76.6,4.1 74.2,5.1 71.8,6.3 69.5,7.7 
				67.5,9.4 65.6,11.3 63.9,13.4 62.5,15.7 61.3,18.1 60.3,20.5 59.7,23.1 59.2,25.7 59.1,28.4 59.2,31 59.7,33.7 60.3,36.3 
				61.3,38.7 62.5,41.1 63.9,43.4 65.6,45.4 67.5,47.3 69.5,49 71.8,50.5 74.2,51.7 76.6,52.6 79.3,53.2 81.9,53.7 84.5,53.8 
				87.2,53.7 89.8,53.2 92.5,52.6 94.9,51.7 97.3,50.5 99.5,49 101.6,47.3 103.5,45.4 105.2,43.4 106.6,41.1 107.8,38.7 108.8,36.3 
				109.4,33.7 109.9,31 			"/>
		</g>
	</g>
</g>
<rect x="212.1" y="2.9" class="st2" width="10.3" height="36.3"/>
<circle class="st3" cx="84.5" cy="28.2" r="20.4"/>
<polyline class="st4" points="43.5,28.3 43.5,26.2 43.1,24.3 42.4,22.4 41.5,20.6 40.4,19 39.1,17.4 37.6,16.1 36,15 34.2,14.2 
	32.3,13.5 30.4,13.1 28.3,13 26.2,13.1 24.4,13.5 22.5,14.2 20.7,15 19,16.1 17.5,17.4 16.2,19 15.1,20.6 14.3,22.4 13.5,24.3 
	13.1,26.2 13.1,28.3 13.1,53.7 2.8,53.7 2.8,28.3 3,25.6 3.5,22.9 4,20.4 5,17.9 6.2,15.5 7.6,13.3 9.4,11.2 11.2,9.3 13.3,7.6 
	15.5,6.2 17.9,5 20.4,4 23,3.4 25.7,3 28.3,2.8 30.9,3 33.6,3.4 36.3,4 38.7,5 41.1,6.2 43.3,7.6 45.4,9.3 47.2,11.2 49,13.3 
	50.4,15.5 51.6,17.9 52.6,20.4 53.1,22.9 53.7,25.6 53.8,28.3 53.9,28.3 53.9,53.7 43.6,53.7 43.6,28.3 "/>
<polyline class="st4" points="156,28.3 156,2.7 166.2,2.7 166.2,28.3 166.3,28.3 166.4,30.3 166.7,32.3 167.5,34.1 168.3,35.8 
	169.4,37.5 170.7,39.1 172.3,40.4 173.9,41.5 175.7,42.3 177.5,43 179.4,43.4 181.5,43.5 183.6,43.4 185.4,43 187.4,42.3 
	189.2,41.5 190.8,40.4 192.3,39.1 193.6,37.5 194.7,35.8 195.6,34.1 196.3,32.3 196.7,30.3 196.8,28.3 196.8,2.7 207,2.7 207,28.3 
	206.8,30.9 206.3,33.5 205.8,36 204.8,38.6 203.6,40.8 202.2,43.1 200.5,45.2 198.7,47.1 196.7,48.7 194.4,50.2 192.1,51.4 
	189.6,52.3 187,53.1 184.4,53.5 181.7,53.7 179.1,53.5 176.5,53.3 173.9,52.5 171.4,51.7 169,50.5 166.8,49 164.7,47.5 162.9,45.5 
	161.1,43.5 161,43.5 159.2,45.5 157.3,47.5 155.2,49 153.1,50.5 150.6,51.7 148.1,52.5 145.6,53.3 143,53.5 140.3,53.7 137.7,53.5 
	135,53.1 132.5,52.3 130,51.4 127.8,50.2 125.5,48.7 123.4,47.1 121.6,45.2 119.9,43.1 118.5,40.8 117.3,38.6 116.3,36 115.7,33.5 
	115.2,30.9 115.1,28.3 115.1,2.7 125.4,2.7 125.4,28.3 125.5,30.3 125.8,32.3 126.6,34.1 127.4,35.8 128.4,37.5 129.8,39.1 
	131.4,40.4 133,41.5 134.7,42.3 136.6,43 138.5,43.4 140.6,43.5 142.6,43.4 144.5,43 146.5,42.3 148.2,41.5 149.8,40.4 151.3,39.1 
	152.7,37.5 153.7,35.8 154.7,34.1 155.3,32.3 155.7,30.3 155.9,28.3 "/>
<circle class="st2" cx="217.2" cy="48.1" r="5.6"/>
</svg>
