<?xml version="1.0" encoding="utf-8"?>
<!-- Generator: Adobe Illustrator 23.0.3, SVG Export Plug-In . SVG Version: 6.00 Build 0)  -->
<svg version="1.1" id="Livello_1" xmlns="http://www.w3.org/2000/svg" xmlns:xlink="http://www.w3.org/1999/xlink" x="0px" y="0px"
	 viewBox="0 0 281.2 56.8" style="enable-background:new 0 0 281.2 56.8;" xml:space="preserve">
<style type="text/css">
	.st0{fill-rule:evenodd;clip-rule:evenodd;fill:#FFFFFF;}
	.st1{fill:none;stroke:#FFFFFF;stroke-width:0.72;stroke-linecap:round;stroke-linejoin:round;}
	.st2{fill:none;stroke:#FFFFFF;stroke-width:0.72;stroke-linecap:round;stroke-linejoin:bevel;}
</style>
<g>
	<g id="Livello_1-2_1_">
		<polygon class="st0" points="227.5,2.8 256.4,3.1 227.5,3.1 		"/>
		<polygon class="st0" points="227.5,2.8 253,2.8 256.4,3.1 		"/>
		<polygon class="st0" points="195.1,2.8 202.1,3.3 191.6,3.3 		"/>
		<polygon class="st0" points="195.1,2.8 198.6,2.8 202.1,3.3 		"/>
		<polygon class="st0" points="26.8,2.8 33.7,3.3 23.3,3.3 		"/>
		<polygon class="st0" points="26.8,2.8 30.2,2.8 33.7,3.3 		"/>
		<polygon class="st0" points="227.5,3.1 259.9,3.8 227.5,3.8 		"/>
		<polygon class="st0" points="227.5,3.1 256.4,3.1 259.9,3.8 		"/>
		<polygon class="st0" points="191.6,3.3 205.4,4.3 188.4,4.3 		"/>
		<polygon class="st0" points="191.6,3.3 202.1,3.3 205.4,4.3 		"/>
		<polygon class="st0" points="23.3,3.3 37.1,4.3 19.9,4.3 		"/>
		<polygon class="st0" points="23.3,3.3 33.7,3.3 37.1,4.3 		"/>
		<polygon class="st0" points="227.5,3.8 263.2,5 227.5,5 		"/>
		<polygon class="st0" points="227.5,3.8 259.9,3.8 263.2,5 		"/>
		<polygon class="st0" points="188.4,4.3 208.7,5.7 185.2,5.7 		"/>
		<polygon class="st0" points="188.4,4.3 205.4,4.3 208.7,5.7 		"/>
		<polygon class="st0" points="19.9,4.3 40.2,5.7 16.8,5.7 		"/>
		<polygon class="st0" points="19.9,4.3 37.1,4.3 40.2,5.7 		"/>
		<polygon class="st0" points="227.5,5 266.3,6.6 227.5,6.6 		"/>
		<polygon class="st0" points="227.5,5 263.2,5 266.3,6.6 		"/>
		<polygon class="st0" points="185.2,5.7 211.6,7.5 182.2,7.5 		"/>
		<polygon class="st0" points="185.2,5.7 208.7,5.7 211.6,7.5 		"/>
		<polygon class="st0" points="16.8,5.7 43.2,7.5 13.8,7.5 		"/>
		<polygon class="st0" points="16.8,5.7 40.2,5.7 43.2,7.5 		"/>
		<polygon class="st0" points="227.5,6.6 269.2,8.6 227.5,8.6 		"/>
		<polygon class="st0" points="227.5,6.6 266.3,6.6 269.2,8.6 		"/>
		<polygon class="st0" points="182.2,7.5 214.3,9.7 179.5,9.7 		"/>
		<polygon class="st0" points="182.2,7.5 211.6,7.5 214.3,9.7 		"/>
		<polygon class="st0" points="13.8,7.5 46,9.7 11.2,9.7 		"/>
		<polygon class="st0" points="13.8,7.5 43.2,7.5 46,9.7 		"/>
		<polygon class="st0" points="227.5,8.6 271.7,10.9 227.5,10.9 		"/>
		<polygon class="st0" points="227.5,8.6 269.2,8.6 271.7,10.9 		"/>
		<polygon class="st0" points="179.5,9.7 216.7,12.2 177.1,12.2 		"/>
		<polygon class="st0" points="179.5,9.7 214.3,9.7 216.7,12.2 		"/>
		<polygon class="st0" points="11.2,9.7 48.4,12.2 8.8,12.2 		"/>
		<polygon class="st0" points="11.2,9.7 46,9.7 48.4,12.2 		"/>
		<polygon class="st0" points="227.5,10.9 273.4,13 227.5,13 		"/>
		<polygon class="st0" points="227.5,10.9 271.7,10.9 273.4,13 		"/>
		<polygon class="st0" points="177.1,12.2 217.2,13 176.5,13 		"/>
		<polygon class="st0" points="177.1,12.2 216.7,12.2 217.2,13 		"/>
		<polygon class="st0" points="8.8,12.2 48.8,13 8.2,13 		"/>
		<polygon class="st0" points="8.8,12.2 48.4,12.2 48.8,13 		"/>
		<polygon class="st0" points="253,13 273.6,13.3 255.7,13.3 		"/>
		<polygon class="st0" points="253,13 273.4,13 273.6,13.3 		"/>
		<polygon class="st0" points="196.9,13 217.4,13.3 199.6,13.3 		"/>
		<polygon class="st0" points="196.9,13 217.2,13 217.4,13.3 		"/>
		<polygon class="st0" points="176.5,13 194.3,13.3 176.4,13.3 		"/>
		<polygon class="st0" points="176.5,13 196.9,13 194.3,13.3 		"/>
		<polygon class="st0" points="28.6,13 49.1,13.3 31.2,13.3 		"/>
		<polygon class="st0" points="28.6,13 48.8,13 49.1,13.3 		"/>
		<polygon class="st0" points="8.2,13 25.8,13.3 8,13.3 		"/>
		<polygon class="st0" points="8.2,13 28.6,13 25.8,13.3 		"/>
		<polygon class="st0" points="255.7,13.3 273.8,13.6 257,13.6 		"/>
		<polygon class="st0" points="255.7,13.3 273.6,13.3 273.8,13.6 		"/>
		<polygon class="st0" points="257,13.6 274.1,14 258.2,14 		"/>
		<polygon class="st0" points="257,13.6 273.8,13.6 274.1,14 		"/>
		<polygon class="st0" points="199.6,13.3 217.9,14 202.1,14 		"/>
		<polygon class="st0" points="199.6,13.3 217.4,13.3 217.9,14 		"/>
		<polygon class="st0" points="176.4,13.3 191.6,14 175.9,14 		"/>
		<polygon class="st0" points="176.4,13.3 194.3,13.3 191.6,14 		"/>
		<polygon class="st0" points="31.2,13.3 49.6,14 33.7,14 		"/>
		<polygon class="st0" points="31.2,13.3 49.1,13.3 49.6,14 		"/>
		<polygon class="st0" points="8,13.3 23.3,14 7.6,14 		"/>
		<polygon class="st0" points="8,13.3 25.8,13.3 23.3,14 		"/>
		<polygon class="st0" points="258.2,14 274.7,15.1 260.6,15.1 		"/>
		<polygon class="st0" points="258.2,14 274.1,14 274.7,15.1 		"/>
		<polygon class="st0" points="202.1,14 218.6,15.1 204.5,15.1 		"/>
		<polygon class="st0" points="202.1,14 217.9,14 218.6,15.1 		"/>
		<polygon class="st0" points="175.9,14 189.2,15.1 175.1,15.1 		"/>
		<polygon class="st0" points="175.9,14 191.6,14 189.2,15.1 		"/>
		<polygon class="st0" points="33.7,14 50.3,15.1 36.1,15.1 		"/>
		<polygon class="st0" points="33.7,14 49.6,14 50.3,15.1 		"/>
		<polygon class="st0" points="7.6,14 20.9,15.1 6.7,15.1 		"/>
		<polygon class="st0" points="7.6,14 23.3,14 20.9,15.1 		"/>
		<path class="st0" d="M204.5,15.1L204.5,15.1z"/>
		<path class="st0" d="M175.1,15.1L175.1,15.1z"/>
		<path class="st0" d="M36.1,15.1L36.1,15.1z"/>
		<path class="st0" d="M6.7,15.1L6.7,15.1z"/>
		<polygon class="st0" points="260.6,15.1 275.6,16.6 262.8,16.6 		"/>
		<polygon class="st0" points="260.6,15.1 274.7,15.1 275.6,16.6 		"/>
		<path class="st0" d="M262.8,16.6L262.8,16.6z"/>
		<polygon class="st0" points="204.5,15.1 219.5,16.6 206.8,16.6 		"/>
		<polygon class="st0" points="204.5,15.1 218.6,15.1 219.5,16.6 		"/>
		<polygon class="st0" points="175.1,15.1 187.1,16.6 174.2,16.6 		"/>
		<polygon class="st0" points="175.1,15.1 189.2,15.1 187.1,16.6 		"/>
		<polygon class="st0" points="36.1,15.1 51.1,16.6 38.4,16.6 		"/>
		<polygon class="st0" points="36.1,15.1 50.3,15.1 51.1,16.6 		"/>
		<polygon class="st0" points="6.7,15.1 18.7,16.6 5.9,16.6 		"/>
		<polygon class="st0" points="6.7,15.1 20.9,15.1 18.7,16.6 		"/>
		<polygon class="st0" points="206.8,16.6 220.3,18.2 208.3,18.2 		"/>
		<polygon class="st0" points="206.8,16.6 219.5,16.6 220.3,18.2 		"/>
		<polygon class="st0" points="174.2,16.6 185.5,18.2 173.5,18.2 		"/>
		<polygon class="st0" points="174.2,16.6 187.1,16.6 185.5,18.2 		"/>
		<polygon class="st0" points="38.4,16.6 52,18.2 40,18.2 		"/>
		<polygon class="st0" points="38.4,16.6 51.1,16.6 52,18.2 		"/>
		<polygon class="st0" points="5.9,16.6 17.2,18.2 5.2,18.2 		"/>
		<polygon class="st0" points="5.9,16.6 18.7,16.6 17.2,18.2 		"/>
		<polygon class="st0" points="262.8,16.6 276.5,18.6 264.7,18.6 		"/>
		<polygon class="st0" points="262.8,16.6 275.6,16.6 276.5,18.6 		"/>
		<polygon class="st0" points="208.3,18.2 220.4,18.6 208.6,18.6 		"/>
		<polygon class="st0" points="208.3,18.2 220.3,18.2 220.4,18.6 		"/>
		<polygon class="st0" points="173.5,18.2 185.2,18.6 173.4,18.6 		"/>
		<polygon class="st0" points="173.5,18.2 185.5,18.2 185.2,18.6 		"/>
		<polygon class="st0" points="40,18.2 52.1,18.6 40.2,18.6 		"/>
		<polygon class="st0" points="40,18.2 52,18.2 52.1,18.6 		"/>
		<polygon class="st0" points="5.2,18.2 16.8,18.6 5,18.6 		"/>
		<polygon class="st0" points="5.2,18.2 17.2,18.2 16.8,18.6 		"/>
		<polygon class="st0" points="264.7,18.6 277.1,19.8 265.7,19.8 		"/>
		<polygon class="st0" points="264.7,18.6 276.5,18.6 277.1,19.8 		"/>
		<polygon class="st0" points="265.7,19.8 277.3,20.7 266.3,20.7 		"/>
		<polygon class="st0" points="265.7,19.8 277.1,19.8 277.3,20.7 		"/>
		<polygon class="st0" points="208.6,18.6 221.2,20.7 210.1,20.7 		"/>
		<polygon class="st0" points="208.6,18.6 220.4,18.6 221.2,20.7 		"/>
		<polygon class="st0" points="173.4,18.6 183.6,20.7 172.6,20.7 		"/>
		<polygon class="st0" points="173.4,18.6 185.2,18.6 183.6,20.7 		"/>
		<polygon class="st0" points="40.2,18.6 52.8,20.7 41.8,20.7 		"/>
		<polygon class="st0" points="40.2,18.6 52.1,18.6 52.8,20.7 		"/>
		<polygon class="st0" points="5,18.6 15.2,20.7 4.2,20.7 		"/>
		<polygon class="st0" points="5,18.6 16.8,18.6 15.2,20.7 		"/>
		<polygon class="st0" points="210.1,20.7 221.4,21.4 210.5,21.4 		"/>
		<polygon class="st0" points="210.1,20.7 221.2,20.7 221.4,21.4 		"/>
		<polygon class="st0" points="172.6,20.7 183.2,21.4 172.3,21.4 		"/>
		<polygon class="st0" points="172.6,20.7 183.6,20.7 183.2,21.4 		"/>
		<polygon class="st0" points="41.8,20.7 53,21.4 42.1,21.4 		"/>
		<polygon class="st0" points="41.8,20.7 52.8,20.7 53,21.4 		"/>
		<polygon class="st0" points="4.2,20.7 14.9,21.4 4,21.4 		"/>
		<polygon class="st0" points="4.2,20.7 15.2,20.7 14.9,21.4 		"/>
		<polygon class="st0" points="266.3,20.7 277.9,23.1 267.4,23.1 		"/>
		<polygon class="st0" points="266.3,20.7 277.3,20.7 277.9,23.1 		"/>
		<polygon class="st0" points="210.5,21.4 221.8,23.1 211.3,23.1 		"/>
		<polygon class="st0" points="210.5,21.4 221.4,21.4 221.8,23.1 		"/>
		<polygon class="st0" points="172.3,21.4 182.5,23.1 172,23.1 		"/>
		<polygon class="st0" points="172.3,21.4 183.2,21.4 182.5,23.1 		"/>
		<polygon class="st0" points="42.1,21.4 53.4,23.1 42.8,23.1 		"/>
		<polygon class="st0" points="42.1,21.4 53,21.4 53.4,23.1 		"/>
		<polygon class="st0" points="4,21.4 14.2,23.1 3.6,23.1 		"/>
		<polygon class="st0" points="4,21.4 14.9,21.4 14.2,23.1 		"/>
		<path class="st0" d="M267.4,23.1L267.4,23.1z"/>
		<polygon class="st0" points="267.4,23.1 277.9,23.1 278,23.1 		"/>
		<polygon class="st0" points="211.3,23.1 222.1,24.9 211.7,24.9 		"/>
		<polygon class="st0" points="211.3,23.1 221.8,23.1 222.1,24.9 		"/>
		<polygon class="st0" points="172,23.1 182,24.9 171.6,24.9 		"/>
		<polygon class="st0" points="172,23.1 182.5,23.1 182,24.9 		"/>
		<polygon class="st0" points="42.8,23.1 53.8,24.9 43.3,24.9 		"/>
		<polygon class="st0" points="42.8,23.1 53.4,23.1 53.8,24.9 		"/>
		<polygon class="st0" points="3.6,23.1 13.7,24.9 3.2,24.9 		"/>
		<polygon class="st0" points="3.6,23.1 14.2,23.1 13.7,24.9 		"/>
		<polygon class="st0" points="267.4,23.1 278.3,25.6 268.1,25.6 		"/>
		<polygon class="st0" points="267.4,23.1 278,23.1 278.3,25.6 		"/>
		<polygon class="st0" points="211.7,24.9 222.2,25.6 211.9,25.6 		"/>
		<polygon class="st0" points="211.7,24.9 222.1,24.9 222.2,25.6 		"/>
		<polygon class="st0" points="171.6,24.9 181.8,25.6 171.6,25.6 		"/>
		<polygon class="st0" points="171.6,24.9 182,24.9 181.8,25.6 		"/>
		<polygon class="st0" points="43.3,24.9 53.9,25.6 43.6,25.6 		"/>
		<polygon class="st0" points="43.3,24.9 53.8,24.9 53.9,25.6 		"/>
		<polygon class="st0" points="3.2,24.9 13.4,25.6 3.2,25.6 		"/>
		<polygon class="st0" points="3.2,24.9 13.7,24.9 13.4,25.6 		"/>
		<polygon class="st0" points="268.1,25.6 278.4,26.6 268.2,26.6 		"/>
		<polygon class="st0" points="268.1,25.6 278.3,25.6 278.4,26.6 		"/>
		<polygon class="st0" points="268.2,26.6 278.4,28.4 268.3,28.4 		"/>
		<polygon class="st0" points="268.2,26.6 278.4,26.6 278.4,28.4 		"/>
		<polygon class="st0" points="211.9,25.6 222.4,28.4 212.2,28.4 		"/>
		<polygon class="st0" points="211.9,25.6 222.2,25.6 222.4,28.4 		"/>
		<polygon class="st0" points="171.6,25.6 181.6,28.4 171.4,28.4 		"/>
		<polygon class="st0" points="171.6,25.6 181.8,25.6 181.6,28.4 		"/>
		<polygon class="st0" points="156.1,2.8 166.3,28.4 156.1,28.4 		"/>
		<polygon class="st0" points="156.1,2.8 166.3,2.8 166.3,28.4 		"/>
		<polygon class="st0" points="115.2,2.8 125.4,28.4 115.2,28.4 		"/>
		<polygon class="st0" points="115.2,2.8 125.4,2.8 125.4,28.4 		"/>
		<polygon class="st0" points="43.6,25.6 54,28.4 43.8,28.4 		"/>
		<polygon class="st0" points="43.6,25.6 53.9,25.6 54,28.4 		"/>
		<polygon class="st0" points="3.2,25.6 13.2,28.4 3,28.4 		"/>
		<polygon class="st0" points="3.2,25.6 13.4,25.6 13.2,28.4 		"/>
		<polygon class="st0" points="268.3,28.4 278.4,30.1 268.2,30.1 		"/>
		<polygon class="st0" points="268.3,28.4 278.4,28.4 278.4,30.1 		"/>
		<polygon class="st0" points="268.2,30.1 278.3,31 268.1,31 		"/>
		<polygon class="st0" points="268.2,30.1 278.4,30.1 278.3,31 		"/>
		<polygon class="st0" points="156.1,28.4 166.1,31 155.9,31 		"/>
		<polygon class="st0" points="156.1,28.4 166.3,28.4 166.1,31 		"/>
		<polygon class="st0" points="115.2,28.4 125.6,31 115.4,31 		"/>
		<polygon class="st0" points="115.2,28.4 125.4,28.4 125.6,31 		"/>
		<polygon class="st0" points="155.9,31 166.1,31.8 155.6,31.8 		"/>
		<polygon class="st0" points="155.9,31 166.1,31 166.1,31.8 		"/>
		<polygon class="st0" points="115.4,31 125.9,31.8 115.4,31.8 		"/>
		<polygon class="st0" points="115.4,31 125.6,31 125.9,31.8 		"/>
		<polygon class="st0" points="268.1,31 278,33.6 267.4,33.6 		"/>
		<polygon class="st0" points="268.1,31 278.3,31 278,33.6 		"/>
		<path class="st0" d="M267.4,33.6L267.4,33.6z"/>
		<polygon class="st0" points="267.4,33.6 278,33.6 277.9,33.6 		"/>
		<polygon class="st0" points="155.6,31.8 165.7,33.6 155.2,33.6 		"/>
		<polygon class="st0" points="155.6,31.8 166.1,31.8 165.7,33.6 		"/>
		<polygon class="st0" points="115.4,31.8 126.4,33.6 115.8,33.6 		"/>
		<polygon class="st0" points="115.4,31.8 125.9,31.8 126.4,33.6 		"/>
		<polygon class="st0" points="155.2,33.6 165.4,35.2 154.3,35.2 		"/>
		<polygon class="st0" points="155.2,33.6 165.7,33.6 165.4,35.2 		"/>
		<polygon class="st0" points="115.8,33.6 127.2,35.2 116.2,35.2 		"/>
		<polygon class="st0" points="115.8,33.6 126.4,33.6 127.2,35.2 		"/>
		<polygon class="st0" points="267.4,33.6 277.3,36 266.3,36 		"/>
		<polygon class="st0" points="267.4,33.6 277.9,33.6 277.3,36 		"/>
		<polygon class="st0" points="154.3,35.2 165,36 154,36 		"/>
		<polygon class="st0" points="154.3,35.2 165.4,35.2 165,36 		"/>
		<polygon class="st0" points="116.2,35.2 127.6,36 116.5,36 		"/>
		<polygon class="st0" points="116.2,35.2 127.2,35.2 127.6,36 		"/>
		<polygon class="st0" points="266.3,36 277.1,36.9 265.7,36.9 		"/>
		<polygon class="st0" points="266.3,36 277.3,36 277.1,36.9 		"/>
		<polygon class="st0" points="265.7,36.9 276.5,38.1 264.7,38.1 		"/>
		<polygon class="st0" points="265.7,36.9 277.1,36.9 276.5,38.1 		"/>
		<polygon class="st0" points="154,36 164.3,38.1 152.5,38.1 		"/>
		<polygon class="st0" points="154,36 165,36 164.3,38.1 		"/>
		<polygon class="st0" points="116.5,36 129,38.1 117.2,38.1 		"/>
		<polygon class="st0" points="116.5,36 127.6,36 129,38.1 		"/>
		<polygon class="st0" points="152.5,38.1 164.2,38.5 152.2,38.5 		"/>
		<polygon class="st0" points="152.5,38.1 164.3,38.1 164.2,38.5 		"/>
		<polygon class="st0" points="117.2,38.1 129.4,38.5 117.4,38.5 		"/>
		<polygon class="st0" points="117.2,38.1 129,38.1 129.4,38.5 		"/>
		<polygon class="st0" points="264.7,38.1 275.6,40 262.8,40 		"/>
		<polygon class="st0" points="264.7,38.1 276.5,38.1 275.6,40 		"/>
		<polygon class="st0" points="152.2,38.5 163.3,40 150.6,40 		"/>
		<polygon class="st0" points="152.2,38.5 164.2,38.5 163.3,40 		"/>
		<polygon class="st0" points="117.4,38.5 130.9,40 118.2,40 		"/>
		<polygon class="st0" points="117.4,38.5 129.4,38.5 130.9,40 		"/>
		<path class="st0" d="M262.8,40L262.8,40z"/>
		<polygon class="st0" points="150.6,40 162.6,41.6 148.4,41.6 		"/>
		<polygon class="st0" points="150.6,40 163.3,40 162.6,41.6 		"/>
		<polygon class="st0" points="118.2,40 133.1,41.6 118.9,41.6 		"/>
		<polygon class="st0" points="118.2,40 130.9,40 133.1,41.6 		"/>
		<polygon class="st0" points="262.8,40 274.7,41.6 260.6,41.6 		"/>
		<polygon class="st0" points="262.8,40 275.6,40 274.7,41.6 		"/>
		<path class="st0" d="M148.4,41.6L148.4,41.6z"/>
		<path class="st0" d="M118.9,41.6L118.9,41.6z"/>
		<polygon class="st0" points="260.6,41.6 274.1,42.7 258.2,42.7 		"/>
		<polygon class="st0" points="260.6,41.6 274.7,41.6 274.1,42.7 		"/>
		<polygon class="st0" points="148.4,41.6 161.8,42.7 146,42.7 		"/>
		<polygon class="st0" points="148.4,41.6 162.6,41.6 161.8,42.7 		"/>
		<polygon class="st0" points="118.9,41.6 135.5,42.7 119.8,42.7 		"/>
		<polygon class="st0" points="118.9,41.6 133.1,41.6 135.5,42.7 		"/>
		<polygon class="st0" points="258.2,42.7 273.8,43 257,43 		"/>
		<polygon class="st0" points="258.2,42.7 274.1,42.7 273.8,43 		"/>
		<polygon class="st0" points="257,43 273.6,43.4 255.7,43.4 		"/>
		<polygon class="st0" points="257,43 273.8,43 273.6,43.4 		"/>
		<polygon class="st0" points="146,42.7 161.3,43.4 143.4,43.4 		"/>
		<polygon class="st0" points="146,42.7 161.8,42.7 161.3,43.4 		"/>
		<polygon class="st0" points="119.8,42.7 138.1,43.4 120.2,43.4 		"/>
		<polygon class="st0" points="119.8,42.7 135.5,42.7 138.1,43.4 		"/>
		<polygon class="st0" points="255.7,43.4 273.4,43.6 253,43.6 		"/>
		<polygon class="st0" points="255.7,43.4 273.6,43.4 273.4,43.6 		"/>
		<polygon class="st0" points="143.4,43.4 161.2,43.6 140.8,43.6 		"/>
		<polygon class="st0" points="143.4,43.4 161.3,43.4 161.2,43.6 		"/>
		<polygon class="st0" points="120.2,43.4 140.8,43.6 120.4,43.6 		"/>
		<polygon class="st0" points="120.2,43.4 138.1,43.4 140.8,43.6 		"/>
		<polygon class="st0" points="120.4,43.6 160.6,44.5 121,44.5 		"/>
		<polygon class="st0" points="120.4,43.6 161.2,43.6 160.6,44.5 		"/>
		<polygon class="st0" points="227.5,43.6 271.7,45.8 227.5,45.8 		"/>
		<polygon class="st0" points="227.5,43.6 273.4,43.6 271.7,45.8 		"/>
		<polygon class="st0" points="121,44.5 158.2,47 123.4,47 		"/>
		<polygon class="st0" points="121,44.5 160.6,44.5 158.2,47 		"/>
		<polygon class="st0" points="227.5,45.8 269.2,48.1 227.5,48.1 		"/>
		<polygon class="st0" points="227.5,45.8 271.7,45.8 269.2,48.1 		"/>
		<polygon class="st0" points="123.4,47 155.5,49.2 126,49.2 		"/>
		<polygon class="st0" points="123.4,47 158.2,47 155.5,49.2 		"/>
		<polygon class="st0" points="227.5,48.1 266.3,50.1 227.5,50.1 		"/>
		<polygon class="st0" points="227.5,48.1 269.2,48.1 266.3,50.1 		"/>
		<polygon class="st0" points="126,49.2 152.5,51 129,51 		"/>
		<polygon class="st0" points="126,49.2 155.5,49.2 152.5,51 		"/>
		<polygon class="st0" points="227.5,50.1 263.2,51.7 227.5,51.7 		"/>
		<polygon class="st0" points="227.5,50.1 266.3,50.1 263.2,51.7 		"/>
		<polygon class="st0" points="129,51 149.3,52.4 132.2,52.4 		"/>
		<polygon class="st0" points="129,51 152.5,51 149.3,52.4 		"/>
		<polygon class="st0" points="227.5,51.7 259.9,52.9 227.5,52.9 		"/>
		<polygon class="st0" points="227.5,51.7 263.2,51.7 259.9,52.9 		"/>
		<polygon class="st0" points="132.2,52.4 145.9,53.4 135.6,53.4 		"/>
		<polygon class="st0" points="132.2,52.4 149.3,52.4 145.9,53.4 		"/>
		<polygon class="st0" points="227.5,52.9 256.4,53.6 227.5,53.6 		"/>
		<polygon class="st0" points="227.5,52.9 259.9,52.9 256.4,53.6 		"/>
		<polygon class="st0" points="135.6,53.4 142.6,53.8 139,53.8 		"/>
		<polygon class="st0" points="135.6,53.4 145.9,53.4 142.6,53.8 		"/>
		<polygon class="st0" points="227.5,53.6 253,53.8 227.5,53.8 		"/>
		<polygon class="st0" points="227.5,53.6 256.4,53.6 253,53.8 		"/>
		<polygon class="st0" points="212.2,28.4 222.4,53.8 212.2,53.8 		"/>
		<polygon class="st0" points="212.2,28.4 222.4,28.4 222.4,53.8 		"/>
		<polygon class="st0" points="171.4,28.4 181.6,53.8 171.4,53.8 		"/>
		<polygon class="st0" points="171.4,28.4 181.6,28.4 181.6,53.8 		"/>
		<polygon class="st0" points="3,28.4 13.2,53.8 3,53.8 		"/>
		<polygon class="st0" points="3,28.4 13.2,28.4 13.2,53.8 		"/>
		<polyline class="st1" points="227.5,2.8 227.5,13 253,13 		"/>
		<polyline class="st2" points="253,43.5 255,43.4 256.9,43 258.8,42.3 260.6,41.5 262.2,40.4 263.8,39.1 265.1,37.5 266.2,35.8 
			267,34.2 267.7,32.2 268.1,30.3 268.2,28.3 268.1,26.2 267.7,24.3 267,22.4 266.2,20.6 265.1,19 263.8,17.5 262.2,16.2 
			260.6,15.1 258.8,14.2 256.9,13.5 255,13.2 253,13 		"/>
		<polyline class="st1" points="253,43.6 227.5,43.6 227.5,53.8 253,53.8 		"/>
		<polyline class="st2" points="253,53.7 255.6,53.6 258.2,53.1 260.9,52.5 263.3,51.6 265.7,50.4 268,48.9 270,47.2 271.9,45.3 
			273.6,43.3 275,41 276.2,38.6 277.2,36.2 277.8,33.6 278.3,30.9 278.4,28.3 278.3,25.6 277.8,23 277.2,20.4 276.2,18 275,15.6 
			273.6,13.3 271.9,11.2 270,9.3 268,7.6 265.7,6.2 263.3,5 260.9,4 258.2,3.4 255.6,3 253,2.8 		"/>
		<line class="st1" x1="253" y1="2.8" x2="227.5" y2="2.8"/>
		<path class="st1" d="M225,41.1"/>
		<polyline class="st1" points="171.4,53.8 181.6,53.8 181.6,28.3 		"/>
		<polyline class="st2" points="212.2,28.3 212,26.2 211.7,24.3 211,22.4 210.1,20.6 209,19 207.7,17.5 206.2,16.2 204.6,15.1 
			202.8,14.2 200.9,13.5 199,13.2 196.9,13 194.9,13.2 193,13.5 191,14.2 189.4,15.1 187.7,16.2 186.1,17.5 184.8,19 183.7,20.6 
			182.9,22.4 182.2,24.3 181.8,26.2 181.7,28.3 		"/>
		<polyline class="st1" points="212.2,28.3 212.2,53.8 222.4,53.8 222.4,28.3 		"/>
		<polyline class="st2" points="222.4,28.3 222.2,25.6 221.8,23 221.2,20.4 220.2,18 219,15.6 217.6,13.3 215.9,11.2 214,9.3 
			211.9,7.6 209.6,6.2 207.2,5 204.8,4 202.2,3.4 199.6,3 196.9,2.8 194.3,3 191.6,3.4 189,4 186.6,5 184.2,6.2 181.9,7.6 
			179.9,9.3 178,11.2 176.3,13.3 174.8,15.6 173.6,18 172.7,20.4 172.1,23 171.6,25.6 171.5,28.3 		"/>
		<line class="st1" x1="171.4" y1="28.3" x2="171.4" y2="53.8"/>
		<path class="st1" d="M184.1,28.3"/>
		<path class="st1" d="M184.1,56.4"/>
		<path class="st1" d="M168.8,56.4"/>
		<path class="st2" d="M170.2,20.1"/>
		<path class="st2" d="M171.1,17.6"/>
		<path class="st2" d="M172.3,15.1"/>
		<path class="st2" d="M224.9,28.3"/>
		<path class="st1" d="M115.2,2.8v25.4 M168.8,56.4"/>
		<polyline class="st2" points="115.3,28.3 115.4,30.9 115.9,33.6 116.5,36.2 117.5,38.6 118.7,41 120.1,43.3 121.8,45.3 
			123.7,47.2 125.8,48.9 128,50.4 130.4,51.6 132.8,52.5 135.5,53.1 138.1,53.6 140.8,53.7 143.4,53.6 146,53.1 148.7,52.5 
			151.1,51.6 153.5,50.4 155.8,48.9 157.8,47.2 159.7,45.3 161.4,43.3 162.8,41 164,38.6 165,36.2 165.6,33.6 166.1,30.9 
			166.2,28.3 		"/>
		<polyline class="st1" points="166.3,28.3 166.3,2.8 156.1,2.8 156.1,28.3 		"/>
		<polyline class="st2" points="125.5,28.3 125.6,30.3 126,32.2 126.7,34.2 127.6,35.8 128.6,37.5 130,39.1 131.5,40.4 133.2,41.5 
			134.9,42.3 136.8,43 138.7,43.4 140.8,43.5 142.8,43.4 144.7,43 146.6,42.3 148.4,41.5 150,40.4 151.6,39.1 152.9,37.5 154,35.8 
			154.8,34.2 155.5,32.2 155.9,30.3 156,28.3 		"/>
		<polyline class="st1" points="125.4,28.3 125.4,2.8 115.2,2.8 		"/>
		<path class="st2" d="M168.2,33.7"/>
		<path class="st1" d="M153.5,28.3"/>
		<path class="st2" d="M153.5,28.3"/>
		<path class="st2" d="M153.4,30.1"/>
		<path class="st2" d="M152.3,33.6"/>
		<path class="st2" d="M149,37.9"/>
		<path class="st2" d="M144.4,40.5"/>
		<path class="st2" d="M132.5,37.9"/>
		<path class="st2" d="M129.2,33.6"/>
		<path class="st2" d="M128.2,30.1"/>
		<path class="st2" d="M128,28.3"/>
		<path class="st1" d="M128,28.3"/>
		<polyline class="st1" points="3,53.8 13.2,53.8 13.2,28.4 		"/>
		<polyline class="st2" points="43.8,28.4 43.7,26.4 43.3,24.4 42.6,22.5 41.8,20.7 40.7,19.2 39.4,17.6 37.8,16.3 36.2,15.2 
			34.4,14.4 32.5,13.6 30.6,13.3 28.6,13.2 26.5,13.3 24.6,13.6 22.7,14.4 21,15.2 19.3,16.3 17.8,17.6 16.4,19.2 15.4,20.7 
			14.5,22.5 13.8,24.4 13.4,26.4 13.3,28.4 		"/>
		<line class="st1" x1="43.8" y1="28.4" x2="54" y2="28.4"/>
		<polyline class="st2" points="54,28.4 53.9,25.8 53.4,23.1 52.8,20.5 51.8,18.1 50.6,15.7 49.2,13.4 47.5,11.4 45.6,9.4 43.6,7.8 
			41.3,6.3 38.9,5.1 36.5,4.2 33.8,3.6 31.2,3.1 28.6,3 25.9,3.1 23.3,3.6 20.6,4.2 18.2,5.1 15.8,6.3 13.6,7.8 11.5,9.4 9.6,11.4 
			7.9,13.4 6.5,15.7 5.3,18.1 4.3,20.5 3.7,23.1 3.2,25.8 3.1,28.4 		"/>
		<line class="st1" x1="3" y1="28.4" x2="3" y2="53.8"/>
		<path class="st1" d="M212.1,53.8 M209.6,56.4 M181.6,53.8 M184.1,56.4 M171.4,53.8 M168.8,56.4 M166.4,2.8 M156.1,2.8 M115.2,2.8
			 M125.4,2.8"/>
		<path class="st1" d="M227.5,53.8"/>
		<path class="st1" d="M225,56.4"/>
		<path class="st1" d="M222.4,53.8"/>
		<path class="st1" d="M15.7,28.4"/>
	</g>
</g>
</svg>
