<?xml version="1.0" encoding="utf-8"?>
<!-- Generator: Adobe Illustrator 23.0.3, SVG Export Plug-In . SVG Version: 6.00 Build 0)  -->
<svg version="1.1" id="Livello_1" xmlns="http://www.w3.org/2000/svg" xmlns:xlink="http://www.w3.org/1999/xlink" x="0px" y="0px"
	 viewBox="0 0 281.2 56.8" style="enable-background:new 0 0 281.2 56.8;" xml:space="preserve">
<style type="text/css">
	.st0{fill:#FFFFFF;}
</style>
<g>
	<g id="Livello_1-2">
		<polygon class="st0" points="252.8,43.6 227.3,43.6 227.3,53.8 252.8,53.8 254.9,53.7 257,53.5 259.1,53 261.1,52.4 263.1,51.7 
			265,50.8 266.8,49.7 268.5,48.4 270.1,47.1 271.6,45.6 273,44 274.2,42.2 275.3,40.4 276.2,38.6 276.9,36.7 277.5,34.6 278,32.6 
			278.2,30.5 278.3,28.4 278.2,26.3 278,24.2 277.5,22.1 276.9,20.1 276.2,18.1 275.3,16.2 274.2,14.4 273,12.8 271.6,11.2 
			270.1,9.7 268.5,8.3 266.8,7.1 265,6 263.1,5.1 261.1,4.4 259.1,3.7 257,3.3 254.9,3.1 252.8,3 227.3,3 227.3,13.2 252.8,13.2 
			254.4,13.2 256,13.4 257.5,13.8 259,14.4 260.5,15.1 261.8,16 263.1,17 264.2,18.1 265.2,19.4 266.1,20.7 266.8,22.2 267.4,23.7 
			267.8,25.2 268,26.8 268.1,28.4 268,30 267.8,31.6 267.4,33.1 266.8,34.6 266.1,36 265.2,37.4 264.2,38.6 263.1,39.7 261.8,40.7 
			260.5,41.5 259,42.3 257.5,42.8 256,43.3 254.4,43.5 		"/>
		<polygon class="st0" points="12.9,28.4 12.9,53.8 2.7,53.8 2.7,28.4 2.7,26.3 3,24.2 3.4,22.1 4,20.1 4.8,18.1 5.7,16.2 6.8,14.4 
			8,12.8 9.4,11.2 10.9,9.7 12.5,8.3 14.2,7.1 16,6 17.9,5.1 19.9,4.4 21.9,3.7 24,3.3 26,3.1 28.2,3 30.3,3.1 32.4,3.3 34.4,3.7 
			36.5,4.4 38.4,5.1 40.3,6 42.1,7.1 43.9,8.3 45.5,9.7 47,11.2 48.3,12.8 49.6,14.4 50.6,16.2 51.5,18.1 52.3,20.1 52.9,22.1 
			53.4,24.2 53.6,26.3 53.7,28.4 43.5,28.4 43.4,26.8 43.2,25.2 42.7,23.7 42.2,22.2 41.4,20.7 40.6,19.4 39.6,18.1 38.4,17 
			37.2,16 35.8,15.1 34.4,14.4 32.9,13.8 31.4,13.4 29.8,13.2 28.2,13.2 26.6,13.2 25,13.4 23.4,13.8 21.9,14.4 20.5,15.1 19.2,16 
			17.9,17 16.8,18.1 15.8,19.4 14.9,20.7 14.2,22.2 13.6,23.7 13.2,25.2 12.9,26.8 		"/>
		<polygon class="st0" points="155.8,3 155.8,28.4 155.7,30 155.5,31.6 155,33.1 154.5,34.6 153.7,36 152.9,37.4 151.9,38.6 
			150.8,39.7 149.5,40.7 148.2,41.5 146.7,42.3 145.2,42.8 143.7,43.3 142.1,43.5 140.5,43.6 138.9,43.5 137.3,43.3 135.8,42.8 
			134.2,42.3 132.8,41.5 131.5,40.7 130.2,39.7 129.1,38.6 128.1,37.4 127.2,36 126.5,34.6 125.9,33.1 125.5,31.6 125.3,30 
			125.2,28.4 125.2,3 115,3 115,28.4 115,29.4 115,30 115,30 115.1,30.5 115.3,32.6 115.7,34.6 116.3,36.7 117.1,38.6 118,40.4 
			119.1,42.2 120.4,44 121.7,45.6 123.2,47.1 124.8,48.4 126.5,49.7 128.3,50.8 130.2,51.7 132.2,52.4 134.2,53 136.3,53.5 
			138.4,53.7 140.5,53.8 142.6,53.7 144.7,53.5 146.7,53 148.8,52.4 150.8,51.7 152.7,50.8 154.4,49.7 156.2,48.4 157.8,47.1 
			159.3,45.6 160.6,44 161.9,42.2 162.9,40.4 163.9,38.6 164.6,36.7 165.2,34.6 165.7,32.6 165.9,30.5 166,28.4 166,3 		"/>
		<polygon class="st0" points="222.1,26.3 221.8,24.2 221.4,22.1 220.8,20.1 220,18.1 219.1,16.2 218,14.4 216.8,12.8 215.4,11.2 
			214,9.7 212.3,8.3 210.6,7.1 208.8,6 206.9,5.1 204.9,4.4 202.9,3.7 200.9,3.3 198.7,3.1 196.7,3 194.5,3.1 192.4,3.3 190.4,3.7 
			188.4,4.4 186.4,5.1 184.5,6 182.7,7.1 181,8.3 179.4,9.7 177.9,11.2 176.5,12.8 175.3,14.4 174.2,16.2 173.3,18.1 172.5,20.1 
			171.9,22.1 171.5,24.2 171.2,26.3 171.1,28.4 171.2,29.3 171.1,53.8 181.3,53.8 181.3,28.4 181.4,26.8 181.7,25.2 182.1,23.7 
			182.7,22.2 183.4,20.7 184.3,19.4 185.3,18.1 186.4,17 187.6,16 189,15.1 190.4,14.4 191.9,13.8 193.5,13.4 195.1,13.2 
			196.7,13.2 198.3,13.2 199.8,13.4 201.4,13.8 202.9,14.4 204.3,15.1 205.7,16 206.9,17 208,18.1 209,19.4 209.9,20.7 210.6,22.2 
			211.2,23.7 211.6,25.2 211.9,26.8 212,28.4 212,53.8 222.2,53.8 222.2,28.4 		"/>
	</g>
</g>
</svg>
