<?xml version="1.0" encoding="utf-8"?>
<!-- Generator: Adobe Illustrator 23.0.3, SVG Export Plug-In . SVG Version: 6.00 Build 0)  -->
<svg version="1.1" id="Livello_1" xmlns="http://www.w3.org/2000/svg" xmlns:xlink="http://www.w3.org/1999/xlink" x="0px" y="0px"
	 viewBox="0 0 281.2 56.8" style="enable-background:new 0 0 281.2 56.8;" xml:space="preserve">
<style type="text/css">
	.st0{fill:#FFFFFF;}
	.st1{fill:none;stroke:#FFFFFF;stroke-width:0.41;stroke-linecap:round;stroke-linejoin:round;}
	.st2{fill:#E20E18;}
	.st3{fill:#1B9DD9;}
	.st4{fill:#54AE32;}
</style>
<g>
	<g id="Livello_1-2">
		<polygon class="st0" points="252.8,43.8 227.3,43.8 227.3,54 252.8,54 254.9,53.9 257,53.7 259.1,53.2 261.1,52.6 263.1,51.9 
			265,51 266.8,49.9 268.5,48.6 270.1,47.3 271.6,45.8 273,44.2 274.2,42.4 275.3,40.6 276.2,38.7 276.9,36.8 277.5,34.7 278,32.7 
			278.2,30.6 278.3,28.5 278.2,26.4 278,24.3 277.5,22.2 276.9,20.2 276.2,18.2 275.3,16.3 274.2,14.5 273,12.8 271.6,11.2 
			270.1,9.7 268.5,8.3 266.8,7.1 265,6 263.1,5.1 261.1,4.4 259.1,3.7 257,3.3 254.9,3.1 252.8,3 227.3,3 227.3,13.2 252.8,13.2 
			254.4,13.3 256,13.5 257.5,13.9 259,14.5 260.5,15.2 261.8,16.1 263.1,17.1 264.2,18.2 265.2,19.5 266.1,20.8 266.8,22.3 
			267.4,23.8 267.8,25.3 268,26.9 268.1,28.5 268,30.1 267.8,31.7 267.4,33.2 266.8,34.7 266.1,36.1 265.2,37.5 264.2,38.7 
			263.1,39.9 261.8,40.9 260.5,41.7 259,42.5 257.5,43 256,43.5 254.4,43.7 		"/>
		<polyline class="st1" points="224.7,0.4 252.8,0.4 255,0.5 257.2,0.8 259.3,1.2 261.5,1.8 263.5,2.5 265.6,3.5 267.5,4.5 
			269.3,5.8 271.1,7.1 272.7,8.6 274.2,10.2 275.5,12 276.8,13.8 277.8,15.7 278.8,17.8 279.5,19.8 280.1,21.9 280.5,24.1 
			280.8,26.3 280.9,28.5 280.8,30.7 280.5,32.9 280.1,35 279.5,37.2 278.8,39.2 277.8,41.2 276.8,43.2 275.5,45 274.2,46.7 
			272.7,48.4 271.1,49.8 269.3,51.2 267.5,52.4 265.6,53.5 263.5,54.4 261.5,55.2 259.3,55.8 257.2,56.2 255,56.5 252.8,56.6 
			224.7,56.6 224.7,41.2 252.8,41.2 254.2,41.2 255.6,40.9 257,40.5 258.3,40 259.6,39.3 260.8,38.5 261.8,37.5 262.8,36.4 
			263.6,35.3 264.3,34 264.8,32.7 265.3,31.3 265.5,29.9 265.6,28.5 265.5,27.1 265.3,25.7 264.8,24.3 264.3,22.9 263.6,21.7 
			262.8,20.5 261.8,19.4 260.8,18.5 259.6,17.7 258.3,17 257,16.5 255.6,16 254.2,15.8 252.8,15.7 224.7,15.7 224.7,0.4 		"/>
		<polyline class="st1" points="168.6,56.6 183.9,56.6 183.9,28.5 		"/>
		<polyline class="st1" points="209.4,28.5 209.3,27.1 209.1,25.7 208.7,24.3 208.2,22.9 207.5,21.7 206.6,20.5 205.7,19.4 
			204.6,18.5 203.5,17.7 202.2,17 200.9,16.5 199.5,16 198.1,15.8 196.7,15.7 195.2,15.8 193.8,16 192.4,16.5 191.1,17 189.9,17.7 
			188.7,18.5 187.6,19.4 186.7,20.5 185.9,21.7 185.2,22.9 184.6,24.3 184.2,25.7 184,27.1 183.9,28.5 		"/>
		<polyline class="st1" points="209.4,28.5 209.4,56.6 224.7,56.6 224.7,28.5 224.6,26.3 224.4,24.1 223.9,21.9 223.3,19.8 
			222.6,17.8 221.7,15.7 220.6,13.8 219.4,12 218,10.2 216.5,8.6 214.9,7.1 213.1,5.8 211.3,4.5 209.4,3.4 207.4,2.5 205.3,1.8 
			203.2,1.2 201,0.8 198.9,0.5 196.7,0.4 194.5,0.5 192.3,0.8 190.1,1.2 188,1.8 185.9,2.5 183.9,3.4 182,4.5 180.1,5.8 178.4,7.1 
			176.8,8.6 175.3,10.2 173.9,12 172.7,13.8 171.6,15.7 170.7,17.8 169.9,19.8 169.3,21.9 168.9,24.1 168.7,26.3 168.6,28.5 
			168.6,56.6 		"/>
		<polyline class="st1" points="112.4,0.4 112.4,28.5 112.5,30.7 112.8,32.9 113.2,35 113.8,37.2 114.5,39.2 115.5,41.2 116.6,43.2 
			117.8,45 119.2,46.7 120.6,48.4 122.3,49.8 124,51.2 125.8,52.4 127.8,53.5 129.7,54.4 131.8,55.2 133.9,55.8 136.1,56.2 
			138.3,56.5 140.5,56.6 142.7,56.5 144.9,56.2 147,55.8 149.2,55.2 151.2,54.4 153.2,53.5 155.2,52.4 157,51.2 158.7,49.8 
			160.4,48.4 161.8,46.7 163.2,45 164.4,43.2 165.5,41.2 166.4,39.2 167.2,37.2 167.8,35 168.2,32.9 168.5,30.7 168.6,28.5 
			168.6,0.4 153.3,0.4 153.3,28.5 		"/>
		<polyline class="st1" points="127.7,28.5 127.8,29.9 128.1,31.3 128.5,32.7 129,34 129.7,35.3 130.5,36.4 131.5,37.5 132.5,38.5 
			133.7,39.3 134.9,40 136.3,40.5 137.7,40.9 139,41.2 140.5,41.2 141.9,41.2 143.3,40.9 144.7,40.5 146,40 147.3,39.3 148.5,38.5 
			149.5,37.5 150.5,36.4 151.3,35.3 152,34 152.5,32.7 152.9,31.3 153.2,29.9 153.3,28.5 		"/>
		<polyline class="st1" points="127.7,28.5 127.7,0.4 112.4,0.4 		"/>
		<path class="st1" d="M209.4,56.6l2.5-2.5 M183.8,56.6l-2.5-2.5 M168.6,56.6l2.5-2.5 M166,3l2.5-2.5 M153.3,0.4l2.5,2.5 M112.4,0.4
			l2.5,2.5 M127.7,0.4l-2.5,2.5 M56.3,31l-2.5-2.5 M41,31l2.5-2.5 M12.9,54l2.5,2.5"/>
		<polyline class="st1" points="222.2,54 224.7,56.6 227.3,54 		"/>
		<path class="st1" d="M227.3,3l-2.5-2.5 M227.3,13.2l-2.5,2.5 M224.7,41.2l2.5,2.6"/>
		<polyline class="st1" points="62.2,41.2 60.8,43.8 62,45.6 63.5,47.3 65.1,48.9 66.8,50.4 68.5,51.7 70.4,52.9 72.4,53.9 
			74.5,54.8 76.6,55.5 78.8,56 81,56.4 83.2,56.5 85.4,56.5 87.7,56.4 89.9,56 92.1,55.5 94.2,54.8 96.2,53.9 98.2,52.9 100.1,51.7 
			101.9,50.4 103.6,48.9 105.1,47.3 106.6,45.6 107.9,43.8 106.4,41.2 		"/>
		<line class="st1" x1="97.6" y1="36.1" x2="94.6" y2="36.1"/>
		<polyline class="st1" points="74.1,36.1 75,37.2 76,38.2 77.1,39 78.3,39.8 79.6,40.3 80.9,40.8 82.2,41.1 83.6,41.2 85,41.2 
			86.4,41.1 87.8,40.8 89.1,40.3 90.4,39.8 91.5,39 92.7,38.2 93.6,37.2 94.6,36.1 		"/>
		<line class="st1" x1="74.1" y1="36.1" x2="71.1" y2="36.1"/>
		<line class="st1" x1="106.4" y1="41.2" x2="109.3" y2="41.2"/>
		<polyline class="st1" points="109.3,41.3 110.3,39.2 111,37.2 111.6,35 112.1,32.9 112.3,30.7 112.4,28.5 112.3,26.2 112.1,24 
			111.6,21.8 111,19.7 110.2,17.5 109.3,15.5 108.1,13.6 106.9,11.7 105.5,10 103.9,8.4 102.3,6.9 100.4,5.5 98.6,4.3 96.6,3.2 
			94.5,2.3 92.4,1.6 90.2,1 88,0.6 85.8,0.5 84.3,3 		"/>
		<line class="st1" x1="84.3" y1="13.2" x2="85.9" y2="15.8"/>
		<polyline class="st1" points="97.1,28.5 97,27.1 96.8,25.7 96.4,24.3 95.9,23 95.2,21.7 94.3,20.6 93.4,19.5 92.4,18.5 91.2,17.7 
			89.9,17 88.6,16.5 87.3,16.1 85.9,15.8 		"/>
		<polyline class="st1" points="96.1,33.5 96.5,32.3 96.9,31 97,29.8 97.1,28.5 		"/>
		<line class="st1" x1="96.1" y1="33.5" x2="97.6" y2="36.1"/>
		<line class="st1" x1="71.1" y1="36.1" x2="72.6" y2="33.5"/>
		<polyline class="st1" points="71.6,28.5 71.6,29.8 71.8,31 72.2,32.3 72.6,33.5 		"/>
		<polyline class="st1" points="82.8,15.8 81.4,16.1 80,16.5 78.7,17 77.5,17.7 76.3,18.5 75.3,19.5 74.3,20.6 73.5,21.7 72.8,23 
			72.3,24.3 71.9,25.7 71.6,27.1 71.6,28.5 		"/>
		<line class="st1" x1="82.8" y1="15.8" x2="84.3" y2="13.2"/>
		<polyline class="st1" points="84.3,3 82.9,0.5 80.6,0.6 78.4,1 76.3,1.6 74.2,2.3 72.1,3.2 70.1,4.3 68.2,5.5 66.4,6.9 64.8,8.4 
			63.2,10 61.8,11.7 60.5,13.6 59.4,15.5 58.5,17.5 57.7,19.7 57,21.8 56.6,24 56.3,26.2 56.3,28.5 56.3,30.7 56.6,32.9 57,35 
			57.6,37.2 58.4,39.2 59.3,41.2 62.2,41.2 		"/>
		<path class="st1" d="M85.8,15.8l1.6-2.3 M82.8,15.8l-1.6-2.3 M85.8,0.5l1.4,2.6 M82.9,0.5l-1.4,2.6 M60.8,43.8l3-0.1 M60.9,38.7
			l-1.6,2.5 M72.6,33.5l-2.8-0.2 M74.1,36.1l-1.2,2.5 M104.9,43.6l3,0.1 M94.6,36.1l1.2,2.5 M96.1,33.5l2.8-0.2 M109.3,41.2
			l-1.6-2.5 M97.6,36.2l8.8,5.1 M71.1,36.2l-8.8,5.1 M84.3,3v10.2"/>
		<polyline class="st1" points="0.1,28.5 0.1,56.6 15.4,56.6 15.4,28.5 		"/>
		<polyline class="st1" points="41,28.5 40.9,27.1 40.6,25.7 40.2,24.3 39.7,22.9 39,21.7 38.1,20.5 37.2,19.4 36.1,18.5 34.9,17.7 
			33.7,17 32.4,16.5 31,16 29.6,15.8 28.2,15.7 26.7,15.8 25.3,16 24,16.5 22.6,17 21.4,17.7 20.2,18.5 19.1,19.4 18.2,20.5 
			17.4,21.7 16.7,22.9 16.1,24.3 15.7,25.7 15.5,27.1 15.4,28.5 		"/>
		<polyline class="st1" points="41,28.5 41,31 56.3,31 56.3,28.5 56.2,26.3 55.9,24.1 55.5,21.9 54.9,19.8 54.1,17.8 53.2,15.7 
			52.1,13.8 50.9,12 49.5,10.2 48,8.6 46.4,7.1 44.7,5.8 42.9,4.5 40.9,3.4 38.9,2.5 36.8,1.8 34.7,1.2 32.6,0.8 30.4,0.5 28.2,0.4 
			26,0.5 23.8,0.8 21.6,1.2 19.5,1.8 17.4,2.5 15.4,3.4 13.5,4.5 11.6,5.8 9.9,7.1 8.3,8.6 6.8,10.2 5.5,12 4.2,13.8 3.2,15.7 
			2.2,17.8 1.4,19.8 0.9,21.9 0.4,24.1 0.2,26.3 0.1,28.5 		"/>
		<polygon class="st0" points="12.9,28.5 12.9,54 2.7,54 2.7,28.5 2.7,26.4 3,24.3 3.4,22.2 4,20.2 4.8,18.2 5.7,16.3 6.8,14.5 
			8,12.8 9.4,11.2 10.9,9.7 12.5,8.3 14.2,7.1 16,6 17.9,5.1 19.9,4.4 21.9,3.7 24,3.3 26,3.1 28.2,3 30.3,3.1 32.4,3.3 34.4,3.7 
			36.5,4.4 38.4,5.1 40.3,6 42.1,7.1 43.9,8.3 45.5,9.7 47,11.2 48.3,12.8 49.6,14.5 50.6,16.3 51.5,18.2 52.3,20.2 52.9,22.2 
			53.4,24.3 53.6,26.4 53.7,28.5 43.5,28.5 43.4,26.9 43.2,25.3 42.7,23.8 42.2,22.3 41.4,20.8 40.6,19.5 39.6,18.2 38.4,17.1 
			37.2,16.1 35.8,15.2 34.4,14.5 32.9,13.9 31.4,13.5 29.8,13.3 28.2,13.2 26.6,13.3 25,13.5 23.4,13.9 21.9,14.5 20.5,15.2 
			19.2,16.1 17.9,17.1 16.8,18.2 15.8,19.5 14.9,20.8 14.2,22.3 13.6,23.8 13.2,25.3 12.9,26.9 		"/>
		<line class="st1" x1="2.7" y1="54" x2="0.1" y2="56.6"/>
		<polygon class="st2" points="102,38.7 104.9,43.6 103.6,45.3 102.2,46.8 100.6,48.1 99,49.4 97.2,50.5 95.4,51.5 93.5,52.3 
			91.5,53 89.5,53.5 87.4,53.8 85.4,54 83.3,54 81.2,53.8 79.2,53.5 77.2,53 75.2,52.3 73.3,51.5 71.5,50.5 69.7,49.4 68.1,48.1 
			66.5,46.8 65.1,45.3 63.8,43.6 66.6,38.7 72.9,38.7 74.1,39.8 75.3,40.8 76.7,41.7 78.1,42.5 79.6,43 81.1,43.5 82.7,43.7 
			84.3,43.8 86,43.7 87.5,43.5 89.1,43 90.6,42.5 92,41.7 93.3,40.8 94.6,39.8 95.7,38.7 		"/>
		<polygon class="st3" points="98.9,33.3 102,38.7 107.7,38.7 108.5,36.7 109.1,34.7 109.5,32.7 109.8,30.6 109.9,28.5 109.8,26.4 
			109.5,24.4 109.1,22.3 108.5,20.4 107.8,18.4 106.9,16.5 105.8,14.8 104.7,13.1 103.4,11.5 101.9,10 100.3,8.6 98.7,7.4 96.9,6.3 
			95.1,5.4 93.2,4.6 91.2,3.9 89.2,3.5 87.2,3.1 84.3,8.1 87.5,13.5 89,13.9 90.5,14.5 92,15.2 93.3,16.1 94.6,17.1 95.7,18.2 
			96.7,19.5 97.6,20.8 98.3,22.3 98.9,23.8 99.3,25.3 99.6,26.9 99.7,28.5 99.6,30.1 99.3,31.7 		"/>
		<polygon class="st4" points="69.8,33.3 66.6,38.7 60.9,38.7 60.2,36.7 59.6,34.7 59.2,32.7 58.9,30.6 58.8,28.5 58.9,26.4 
			59.2,24.4 59.5,22.3 60.1,20.4 60.9,18.4 61.7,16.5 62.8,14.8 64,13.1 65.3,11.5 66.7,10 68.3,8.6 70,7.4 71.7,6.3 73.5,5.4 
			75.4,4.6 77.4,3.9 79.4,3.5 81.5,3.1 84.3,8.1 81.2,13.5 79.6,13.9 78.1,14.5 76.7,15.2 75.4,16.1 74.1,17.1 73,18.2 71.9,19.5 
			71.1,20.8 70.4,22.3 69.8,23.8 69.4,25.3 69.1,26.9 69,28.5 69.1,30.1 69.4,31.7 		"/>
		<polygon class="st0" points="155.8,3 155.8,28.5 155.7,30.1 155.5,31.7 155,33.2 154.5,34.7 153.7,36.1 152.9,37.5 151.9,38.7 
			150.8,39.9 149.5,40.9 148.2,41.7 146.7,42.5 145.2,43 143.7,43.5 142.1,43.7 140.5,43.8 138.9,43.7 137.3,43.5 135.8,43 
			134.2,42.5 132.8,41.7 131.5,40.9 130.2,39.9 129.1,38.7 128.1,37.5 127.2,36.1 126.5,34.7 125.9,33.2 125.5,31.7 125.3,30.1 
			125.2,28.5 125.2,3 115,3 115,28.5 115,29.5 115,30.1 115,30.1 115.1,30.6 115.3,32.7 115.7,34.7 116.3,36.8 117.1,38.7 118,40.6 
			119.1,42.4 120.4,44.2 121.7,45.8 123.2,47.3 124.8,48.6 126.5,49.9 128.3,51 130.2,51.9 132.2,52.6 134.2,53.2 136.3,53.7 
			138.4,53.9 140.5,54 142.6,53.9 144.7,53.7 146.7,53.2 148.8,52.6 150.8,51.9 152.7,51 154.4,49.9 156.2,48.6 157.8,47.3 
			159.3,45.8 160.6,44.2 161.9,42.4 162.9,40.6 163.9,38.7 164.6,36.8 165.2,34.7 165.7,32.7 165.9,30.6 166,28.5 166,3 		"/>
		<polygon class="st0" points="222.1,26.4 221.8,24.3 221.4,22.2 220.8,20.2 220,18.2 219.1,16.3 218,14.5 216.8,12.8 215.4,11.2 
			214,9.7 212.3,8.3 210.6,7.1 208.8,6 206.9,5.1 204.9,4.4 202.9,3.7 200.9,3.3 198.7,3.1 196.7,3 194.5,3.1 192.4,3.3 190.4,3.7 
			188.4,4.4 186.4,5.1 184.5,6 182.7,7.1 181,8.3 179.4,9.7 177.9,11.2 176.5,12.8 175.3,14.5 174.2,16.3 173.3,18.2 172.5,20.2 
			171.9,22.2 171.5,24.3 171.2,26.4 171.1,28.5 171.2,29.4 171.1,54 181.3,54 181.3,28.5 181.4,26.9 181.7,25.3 182.1,23.8 
			182.7,22.3 183.4,20.8 184.3,19.5 185.3,18.2 186.4,17.1 187.6,16.1 189,15.2 190.4,14.5 191.9,13.9 193.5,13.5 195.1,13.3 
			196.7,13.2 198.3,13.3 199.8,13.5 201.4,13.9 202.9,14.5 204.3,15.2 205.7,16.1 206.9,17.1 208,18.2 209,19.5 209.9,20.8 
			210.6,22.3 211.2,23.8 211.6,25.3 211.9,26.9 212,28.5 212,54 222.2,54 222.2,28.5 		"/>
		<polyline class="st1" points="102,38.7 104.9,43.6 103.6,45.3 102.2,46.8 100.6,48.1 99,49.4 97.2,50.5 95.4,51.5 93.5,52.3 
			91.5,53 89.5,53.5 87.4,53.8 85.4,54 83.3,54 81.2,53.8 79.2,53.5 77.2,53 75.2,52.3 73.3,51.5 71.5,50.5 69.7,49.4 68.1,48.1 
			66.5,46.8 65.1,45.3 63.8,43.6 66.6,38.7 72.9,38.7 74.1,39.8 75.3,40.8 76.7,41.7 78.1,42.5 79.6,43 81.1,43.5 82.7,43.7 
			84.3,43.8 86,43.7 87.5,43.5 89.1,43 90.6,42.5 92,41.7 93.3,40.8 94.6,39.8 95.7,38.7 102,38.7 		"/>
		<polyline class="st1" points="98.9,33.3 102,38.7 107.7,38.7 108.5,36.7 109.1,34.7 109.5,32.7 109.8,30.6 109.9,28.5 109.8,26.4 
			109.5,24.4 109.1,22.3 108.5,20.4 107.8,18.4 106.9,16.5 105.8,14.8 104.7,13.1 103.4,11.5 101.9,10 100.3,8.6 98.7,7.4 96.9,6.3 
			95.1,5.4 93.2,4.6 91.2,3.9 89.2,3.5 87.2,3.1 84.3,8.1 87.5,13.5 89,13.9 90.5,14.5 92,15.2 93.3,16.1 94.6,17.1 95.7,18.2 
			96.7,19.5 97.6,20.8 98.3,22.3 98.9,23.8 99.3,25.3 99.6,26.9 99.7,28.5 99.6,30.1 99.3,31.7 98.9,33.3 		"/>
		<polyline class="st1" points="69.8,33.3 66.6,38.7 60.9,38.7 60.2,36.7 59.6,34.7 59.2,32.7 58.9,30.6 58.8,28.5 58.9,26.4 
			59.2,24.4 59.5,22.3 60.1,20.4 60.9,18.4 61.7,16.5 62.8,14.8 64,13.1 65.3,11.5 66.7,10 68.3,8.6 70,7.4 71.7,6.3 73.5,5.4 
			75.4,4.6 77.4,3.9 79.4,3.5 81.5,3.1 84.3,8.1 81.2,13.5 79.6,13.9 78.1,14.5 76.7,15.2 75.4,16.1 74.1,17.1 73,18.2 71.9,19.5 
			71.1,20.8 70.4,22.3 69.8,23.8 69.4,25.3 69.1,26.9 69,28.5 69.1,30.1 69.4,31.7 69.8,33.3 		"/>
	</g>
</g>
</svg>
