<?xml version="1.0" encoding="utf-8"?>
<!-- Generator: Adobe Illustrator 23.0.3, SVG Export Plug-In . SVG Version: 6.00 Build 0)  -->
<svg version="1.1" id="Livello_1" xmlns="http://www.w3.org/2000/svg" xmlns:xlink="http://www.w3.org/1999/xlink" x="0px" y="0px"
	 viewBox="0 0 281.2 56.8" style="enable-background:new 0 0 281.2 56.8;" xml:space="preserve">
<style type="text/css">
	.st0{fill:#FFFFFF;}
	.st1{fill:none;stroke:#FFFFFF;stroke-width:0.41;stroke-linecap:round;stroke-linejoin:round;}
	.st2{fill:#E20E18;}
	.st3{fill:#1B9DD9;}
	.st4{fill:#54AE32;}
</style>
<g>
	<g id="Livello_1-2">
		<polygon class="st0" points="252.8,43.6 227.3,43.6 227.3,53.8 252.8,53.8 254.9,53.7 257,53.5 259.1,53 261.1,52.4 263.1,51.7 
			265,50.8 266.8,49.7 268.5,48.4 270.1,47.1 271.6,45.6 273,44 274.2,42.2 275.3,40.4 276.2,38.6 276.9,36.7 277.5,34.6 278,32.6 
			278.2,30.5 278.3,28.4 278.2,26.3 278,24.2 277.5,22.1 276.9,20.1 276.2,18.1 275.3,16.2 274.2,14.4 273,12.8 271.6,11.2 
			270.1,9.7 268.5,8.3 266.8,7.1 265,6 263.1,5.1 261.1,4.4 259.1,3.7 257,3.3 254.9,3.1 252.8,3 227.3,3 227.3,13.2 252.8,13.2 
			254.4,13.2 256,13.4 257.5,13.8 259,14.4 260.5,15.1 261.8,16 263.1,17 264.2,18.1 265.2,19.4 266.1,20.7 266.8,22.2 267.4,23.7 
			267.8,25.2 268,26.8 268.1,28.4 268,30 267.8,31.6 267.4,33.1 266.8,34.6 266.1,36 265.2,37.4 264.2,38.6 263.1,39.7 261.8,40.7 
			260.5,41.5 259,42.3 257.5,42.8 256,43.3 254.4,43.5 		"/>
		<polyline class="st1" points="224.7,0.4 252.8,0.4 255,0.5 257.2,0.8 259.3,1.2 261.5,1.8 263.5,2.5 265.6,3.5 267.5,4.5 
			269.3,5.8 271.1,7.1 272.7,8.6 274.2,10.2 275.5,12 276.8,13.7 277.8,15.6 278.8,17.7 279.5,19.7 280.1,21.8 280.5,24 280.8,26.2 
			280.9,28.4 280.8,30.6 280.5,32.8 280.1,34.9 279.5,37.1 278.8,39 277.8,41 276.8,43 275.5,44.8 274.2,46.5 272.7,48.2 
			271.1,49.6 269.3,51 267.5,52.2 265.6,53.3 263.5,54.2 261.5,55 259.3,55.6 257.2,56 255,56.3 252.8,56.4 224.7,56.4 224.7,41 
			252.8,41 254.2,41 255.6,40.7 257,40.3 258.3,39.8 259.6,39.1 260.8,38.4 261.8,37.4 262.8,36.3 263.6,35.2 264.3,33.9 
			264.8,32.6 265.3,31.2 265.5,29.8 265.6,28.4 265.5,27 265.3,25.6 264.8,24.2 264.3,22.8 263.6,21.6 262.8,20.4 261.8,19.3 
			260.8,18.4 259.6,17.6 258.3,16.9 257,16.4 255.6,15.9 254.2,15.7 252.8,15.6 224.7,15.6 224.7,0.4 		"/>
		<polyline class="st1" points="168.6,56.4 183.9,56.4 183.9,28.4 		"/>
		<polyline class="st1" points="209.4,28.4 209.3,27 209.1,25.6 208.7,24.2 208.2,22.8 207.5,21.6 206.6,20.4 205.7,19.3 
			204.6,18.4 203.5,17.6 202.2,16.9 200.9,16.4 199.5,15.9 198.1,15.7 196.7,15.6 195.2,15.7 193.8,15.9 192.4,16.4 191.1,16.9 
			189.9,17.6 188.7,18.4 187.6,19.3 186.7,20.4 185.9,21.6 185.2,22.8 184.6,24.2 184.2,25.6 184,27 183.9,28.4 		"/>
		<polyline class="st1" points="209.4,28.4 209.4,56.4 224.7,56.4 224.7,28.4 224.6,26.2 224.4,24 223.9,21.8 223.3,19.7 
			222.6,17.7 221.7,15.6 220.6,13.7 219.4,12 218,10.2 216.5,8.6 214.9,7.1 213.1,5.8 211.3,4.5 209.4,3.4 207.4,2.5 205.3,1.8 
			203.2,1.2 201,0.8 198.9,0.5 196.7,0.4 194.5,0.5 192.3,0.8 190.1,1.2 188,1.8 185.9,2.5 183.9,3.4 182,4.5 180.1,5.8 178.4,7.1 
			176.8,8.6 175.3,10.2 173.9,12 172.7,13.7 171.6,15.6 170.7,17.7 169.9,19.7 169.3,21.8 168.9,24 168.7,26.2 168.6,28.4 
			168.6,56.4 		"/>
		<polyline class="st1" points="112.4,0.4 112.4,28.4 112.5,30.6 112.8,32.8 113.2,34.9 113.8,37.1 114.5,39 115.5,41 116.6,43 
			117.8,44.8 119.2,46.5 120.6,48.2 122.3,49.6 124,51 125.8,52.2 127.8,53.3 129.7,54.2 131.8,55 133.9,55.6 136.1,56 138.3,56.3 
			140.5,56.4 142.7,56.3 144.9,56 147,55.6 149.2,55 151.2,54.2 153.2,53.3 155.2,52.2 157,51 158.7,49.6 160.4,48.2 161.8,46.5 
			163.2,44.8 164.4,43 165.5,41 166.4,39 167.2,37.1 167.8,34.9 168.2,32.8 168.5,30.6 168.6,28.4 168.6,0.4 153.3,0.4 153.3,28.4 
					"/>
		<polyline class="st1" points="127.7,28.4 127.8,29.8 128.1,31.2 128.5,32.6 129,33.9 129.7,35.2 130.5,36.3 131.5,37.4 
			132.5,38.4 133.7,39.1 134.9,39.8 136.3,40.3 137.7,40.7 139,41 140.5,41 141.9,41 143.3,40.7 144.7,40.3 146,39.8 147.3,39.1 
			148.5,38.4 149.5,37.4 150.5,36.3 151.3,35.2 152,33.9 152.5,32.6 152.9,31.2 153.2,29.8 153.3,28.4 		"/>
		<polyline class="st1" points="127.7,28.4 127.7,0.4 112.4,0.4 		"/>
		<path class="st1" d="M209.4,56.4l2.5-2.5 M183.8,56.4l-2.5-2.5 M168.6,56.4l2.5-2.5 M166,3l2.5-2.5 M153.3,0.4l2.5,2.5 M112.4,0.4
			l2.5,2.5 M127.7,0.4l-2.5,2.5 M56.3,30.9l-2.5-2.5 M41,30.9l2.5-2.5 M12.9,53.8l2.5,2.5"/>
		<polyline class="st1" points="222.2,53.8 224.7,56.4 227.3,53.8 		"/>
		<path class="st1" d="M227.3,3l-2.5-2.5 M227.3,13.2l-2.5,2.5 M224.7,41l2.5,2.6"/>
		<polyline class="st1" points="62.2,41 60.8,43.6 62,45.4 63.5,47.1 65.1,48.7 66.8,50.2 68.5,51.5 70.4,52.7 72.4,53.7 74.5,54.6 
			76.6,55.3 78.8,55.8 81,56.2 83.2,56.3 85.4,56.3 87.7,56.2 89.9,55.8 92.1,55.3 94.2,54.6 96.2,53.7 98.2,52.7 100.1,51.5 
			101.9,50.2 103.6,48.7 105.1,47.1 106.6,45.4 107.9,43.6 106.4,41 		"/>
		<line class="st1" x1="97.6" y1="36" x2="94.6" y2="36"/>
		<polyline class="st1" points="74.1,36 75,37.1 76,38.1 77.1,38.9 78.3,39.6 79.6,40.1 80.9,40.6 82.2,40.9 83.6,41 85,41 
			86.4,40.9 87.8,40.6 89.1,40.1 90.4,39.6 91.5,38.9 92.7,38.1 93.6,37.1 94.6,36 		"/>
		<line class="st1" x1="74.1" y1="36" x2="71.1" y2="36"/>
		<line class="st1" x1="106.4" y1="41" x2="109.3" y2="41"/>
		<polyline class="st1" points="109.3,41.1 110.3,39 111,37.1 111.6,34.9 112.1,32.8 112.3,30.6 112.4,28.4 112.3,26.1 112.1,23.9 
			111.6,21.7 111,19.6 110.2,17.4 109.3,15.4 108.1,13.5 106.9,11.7 105.5,10 103.9,8.4 102.3,6.9 100.4,5.5 98.6,4.3 96.6,3.2 
			94.5,2.3 92.4,1.6 90.2,1 88,0.6 85.8,0.5 84.3,3 		"/>
		<line class="st1" x1="84.3" y1="13.2" x2="85.9" y2="15.7"/>
		<polyline class="st1" points="97.1,28.4 97,27 96.8,25.6 96.4,24.2 95.9,22.9 95.2,21.6 94.3,20.5 93.4,19.4 92.4,18.4 91.2,17.6 
			89.9,16.9 88.6,16.4 87.3,16 85.9,15.7 		"/>
		<polyline class="st1" points="96.1,33.4 96.5,32.2 96.9,30.9 97,29.7 97.1,28.4 		"/>
		<line class="st1" x1="96.1" y1="33.4" x2="97.6" y2="36"/>
		<line class="st1" x1="71.1" y1="36" x2="72.6" y2="33.4"/>
		<polyline class="st1" points="71.6,28.4 71.6,29.7 71.8,30.9 72.2,32.2 72.6,33.4 		"/>
		<polyline class="st1" points="82.8,15.7 81.4,16 80,16.4 78.7,16.9 77.5,17.6 76.3,18.4 75.3,19.4 74.3,20.5 73.5,21.6 72.8,22.9 
			72.3,24.2 71.9,25.6 71.6,27 71.6,28.4 		"/>
		<line class="st1" x1="82.8" y1="15.7" x2="84.3" y2="13.2"/>
		<polyline class="st1" points="84.3,3 82.9,0.5 80.6,0.6 78.4,1 76.3,1.6 74.2,2.3 72.1,3.2 70.1,4.3 68.2,5.5 66.4,6.9 64.8,8.4 
			63.2,10 61.8,11.7 60.5,13.5 59.4,15.4 58.5,17.4 57.7,19.6 57,21.7 56.6,23.9 56.3,26.1 56.3,28.4 56.3,30.6 56.6,32.8 57,34.9 
			57.6,37.1 58.4,39 59.3,41 62.2,41 		"/>
		<path class="st1" d="M85.8,15.7l1.6-2.3 M82.8,15.7l-1.6-2.3 M85.8,0.5l1.4,2.6 M82.9,0.5l-1.4,2.6 M60.8,43.6l3-0.1 M60.9,38.6
			L59.3,41 M72.6,33.4l-2.8-0.2 M74.1,36l-1.2,2.5 M104.9,43.4l3,0.1 M94.6,36l1.2,2.5 M96.1,33.4l2.8-0.2 M109.3,41l-1.6-2.5
			 M97.6,36.1l8.8,5.1 M71.1,36.1l-8.8,5.1 M84.3,3v10.2"/>
		<polyline class="st1" points="0.1,28.4 0.1,56.4 15.4,56.4 15.4,28.4 		"/>
		<polyline class="st1" points="41,28.4 40.9,27 40.6,25.6 40.2,24.2 39.7,22.8 39,21.6 38.1,20.4 37.2,19.3 36.1,18.4 34.9,17.6 
			33.7,16.9 32.4,16.4 31,15.9 29.6,15.7 28.2,15.6 26.7,15.7 25.3,15.9 24,16.4 22.6,16.9 21.4,17.6 20.2,18.4 19.1,19.3 
			18.2,20.4 17.4,21.6 16.7,22.8 16.1,24.2 15.7,25.6 15.5,27 15.4,28.4 		"/>
		<polyline class="st1" points="41,28.4 41,30.9 56.3,30.9 56.3,28.4 56.2,26.2 55.9,24 55.5,21.8 54.9,19.7 54.1,17.7 53.2,15.6 
			52.1,13.7 50.9,12 49.5,10.2 48,8.6 46.4,7.1 44.7,5.8 42.9,4.5 40.9,3.4 38.9,2.5 36.8,1.8 34.7,1.2 32.6,0.8 30.4,0.5 28.2,0.4 
			26,0.5 23.8,0.8 21.6,1.2 19.5,1.8 17.4,2.5 15.4,3.4 13.5,4.5 11.6,5.8 9.9,7.1 8.3,8.6 6.8,10.2 5.5,12 4.2,13.7 3.2,15.6 
			2.2,17.7 1.4,19.7 0.9,21.8 0.4,24 0.2,26.2 0.1,28.4 		"/>
		<polygon class="st0" points="12.9,28.4 12.9,53.8 2.7,53.8 2.7,28.4 2.7,26.3 3,24.2 3.4,22.1 4,20.1 4.8,18.1 5.7,16.2 6.8,14.4 
			8,12.8 9.4,11.2 10.9,9.7 12.5,8.3 14.2,7.1 16,6 17.9,5.1 19.9,4.4 21.9,3.7 24,3.3 26,3.1 28.2,3 30.3,3.1 32.4,3.3 34.4,3.7 
			36.5,4.4 38.4,5.1 40.3,6 42.1,7.1 43.9,8.3 45.5,9.7 47,11.2 48.3,12.8 49.6,14.4 50.6,16.2 51.5,18.1 52.3,20.1 52.9,22.1 
			53.4,24.2 53.6,26.3 53.7,28.4 43.5,28.4 43.4,26.8 43.2,25.2 42.7,23.7 42.2,22.2 41.4,20.7 40.6,19.4 39.6,18.1 38.4,17 
			37.2,16 35.8,15.1 34.4,14.4 32.9,13.8 31.4,13.4 29.8,13.2 28.2,13.2 26.6,13.2 25,13.4 23.4,13.8 21.9,14.4 20.5,15.1 19.2,16 
			17.9,17 16.8,18.1 15.8,19.4 14.9,20.7 14.2,22.2 13.6,23.7 13.2,25.2 12.9,26.8 		"/>
		<line class="st1" x1="2.7" y1="53.8" x2="0.1" y2="56.4"/>
		<polygon class="st2" points="102,38.6 104.9,43.4 103.6,45.1 102.2,46.6 100.6,47.9 99,49.2 97.2,50.3 95.4,51.3 93.5,52.1 
			91.5,52.8 89.5,53.3 87.4,53.6 85.4,53.8 83.3,53.8 81.2,53.6 79.2,53.3 77.2,52.8 75.2,52.1 73.3,51.3 71.5,50.3 69.7,49.2 
			68.1,47.9 66.5,46.6 65.1,45.1 63.8,43.4 66.6,38.6 72.9,38.6 74.1,39.6 75.3,40.6 76.7,41.5 78.1,42.3 79.6,42.8 81.1,43.3 
			82.7,43.5 84.3,43.6 86,43.5 87.5,43.3 89.1,42.8 90.6,42.3 92,41.5 93.3,40.6 94.6,39.6 95.7,38.6 		"/>
		<polygon class="st3" points="98.9,33.2 102,38.6 107.7,38.6 108.5,36.6 109.1,34.6 109.5,32.6 109.8,30.5 109.9,28.4 109.8,26.3 
			109.5,24.3 109.1,22.2 108.5,20.3 107.8,18.3 106.9,16.4 105.8,14.7 104.7,13.1 103.4,11.5 101.9,10 100.3,8.6 98.7,7.4 96.9,6.3 
			95.1,5.4 93.2,4.6 91.2,3.9 89.2,3.5 87.2,3.1 84.3,8.1 87.5,13.4 89,13.8 90.5,14.4 92,15.1 93.3,16 94.6,17 95.7,18.1 
			96.7,19.4 97.6,20.7 98.3,22.2 98.9,23.7 99.3,25.2 99.6,26.8 99.7,28.4 99.6,30 99.3,31.6 		"/>
		<polygon class="st4" points="69.8,33.2 66.6,38.6 60.9,38.6 60.2,36.6 59.6,34.6 59.2,32.6 58.9,30.5 58.8,28.4 58.9,26.3 
			59.2,24.3 59.5,22.2 60.1,20.3 60.9,18.3 61.7,16.4 62.8,14.7 64,13.1 65.3,11.5 66.7,10 68.3,8.6 70,7.4 71.7,6.3 73.5,5.4 
			75.4,4.6 77.4,3.9 79.4,3.5 81.5,3.1 84.3,8.1 81.2,13.4 79.6,13.8 78.1,14.4 76.7,15.1 75.4,16 74.1,17 73,18.1 71.9,19.4 
			71.1,20.7 70.4,22.2 69.8,23.7 69.4,25.2 69.1,26.8 69,28.4 69.1,30 69.4,31.6 		"/>
		<polygon class="st0" points="155.8,3 155.8,28.4 155.7,30 155.5,31.6 155,33.1 154.5,34.6 153.7,36 152.9,37.4 151.9,38.6 
			150.8,39.7 149.5,40.7 148.2,41.5 146.7,42.3 145.2,42.8 143.7,43.3 142.1,43.5 140.5,43.6 138.9,43.5 137.3,43.3 135.8,42.8 
			134.2,42.3 132.8,41.5 131.5,40.7 130.2,39.7 129.1,38.6 128.1,37.4 127.2,36 126.5,34.6 125.9,33.1 125.5,31.6 125.3,30 
			125.2,28.4 125.2,3 115,3 115,28.4 115,29.4 115,30 115,30 115.1,30.5 115.3,32.6 115.7,34.6 116.3,36.7 117.1,38.6 118,40.4 
			119.1,42.2 120.4,44 121.7,45.6 123.2,47.1 124.8,48.4 126.5,49.7 128.3,50.8 130.2,51.7 132.2,52.4 134.2,53 136.3,53.5 
			138.4,53.7 140.5,53.8 142.6,53.7 144.7,53.5 146.7,53 148.8,52.4 150.8,51.7 152.7,50.8 154.4,49.7 156.2,48.4 157.8,47.1 
			159.3,45.6 160.6,44 161.9,42.2 162.9,40.4 163.9,38.6 164.6,36.7 165.2,34.6 165.7,32.6 165.9,30.5 166,28.4 166,3 		"/>
		<polygon class="st0" points="222.1,26.3 221.8,24.2 221.4,22.1 220.8,20.1 220,18.1 219.1,16.2 218,14.4 216.8,12.8 215.4,11.2 
			214,9.7 212.3,8.3 210.6,7.1 208.8,6 206.9,5.1 204.9,4.4 202.9,3.7 200.9,3.3 198.7,3.1 196.7,3 194.5,3.1 192.4,3.3 190.4,3.7 
			188.4,4.4 186.4,5.1 184.5,6 182.7,7.1 181,8.3 179.4,9.7 177.9,11.2 176.5,12.8 175.3,14.4 174.2,16.2 173.3,18.1 172.5,20.1 
			171.9,22.1 171.5,24.2 171.2,26.3 171.1,28.4 171.2,29.3 171.1,53.8 181.3,53.8 181.3,28.4 181.4,26.8 181.7,25.2 182.1,23.7 
			182.7,22.2 183.4,20.7 184.3,19.4 185.3,18.1 186.4,17 187.6,16 189,15.1 190.4,14.4 191.9,13.8 193.5,13.4 195.1,13.2 
			196.7,13.2 198.3,13.2 199.8,13.4 201.4,13.8 202.9,14.4 204.3,15.1 205.7,16 206.9,17 208,18.1 209,19.4 209.9,20.7 210.6,22.2 
			211.2,23.7 211.6,25.2 211.9,26.8 212,28.4 212,53.8 222.2,53.8 222.2,28.4 		"/>
		<polyline class="st1" points="102,38.6 104.9,43.4 103.6,45.1 102.2,46.6 100.6,47.9 99,49.2 97.2,50.3 95.4,51.3 93.5,52.1 
			91.5,52.8 89.5,53.3 87.4,53.6 85.4,53.8 83.3,53.8 81.2,53.6 79.2,53.3 77.2,52.8 75.2,52.1 73.3,51.3 71.5,50.3 69.7,49.2 
			68.1,47.9 66.5,46.6 65.1,45.1 63.8,43.4 66.6,38.6 72.9,38.6 74.1,39.6 75.3,40.6 76.7,41.5 78.1,42.3 79.6,42.8 81.1,43.3 
			82.7,43.5 84.3,43.6 86,43.5 87.5,43.3 89.1,42.8 90.6,42.3 92,41.5 93.3,40.6 94.6,39.6 95.7,38.6 102,38.6 		"/>
		<polyline class="st1" points="98.9,33.2 102,38.6 107.7,38.6 108.5,36.6 109.1,34.6 109.5,32.6 109.8,30.5 109.9,28.4 109.8,26.3 
			109.5,24.3 109.1,22.2 108.5,20.3 107.8,18.3 106.9,16.4 105.8,14.7 104.7,13.1 103.4,11.5 101.9,10 100.3,8.6 98.7,7.4 96.9,6.3 
			95.1,5.4 93.2,4.6 91.2,3.9 89.2,3.5 87.2,3.1 84.3,8.1 87.5,13.4 89,13.8 90.5,14.4 92,15.1 93.3,16 94.6,17 95.7,18.1 
			96.7,19.4 97.6,20.7 98.3,22.2 98.9,23.7 99.3,25.2 99.6,26.8 99.7,28.4 99.6,30 99.3,31.6 98.9,33.2 		"/>
		<polyline class="st1" points="69.8,33.2 66.6,38.6 60.9,38.6 60.2,36.6 59.6,34.6 59.2,32.6 58.9,30.5 58.8,28.4 58.9,26.3 
			59.2,24.3 59.5,22.2 60.1,20.3 60.9,18.3 61.7,16.4 62.8,14.7 64,13.1 65.3,11.5 66.7,10 68.3,8.6 70,7.4 71.7,6.3 73.5,5.4 
			75.4,4.6 77.4,3.9 79.4,3.5 81.5,3.1 84.3,8.1 81.2,13.4 79.6,13.8 78.1,14.4 76.7,15.1 75.4,16 74.1,17 73,18.1 71.9,19.4 
			71.1,20.7 70.4,22.2 69.8,23.7 69.4,25.2 69.1,26.8 69,28.4 69.1,30 69.4,31.6 69.8,33.2 		"/>
	</g>
</g>
</svg>
