<?xml version="1.0" encoding="utf-8"?>
<!-- Generator: Adobe Illustrator 23.0.3, SVG Export Plug-In . SVG Version: 6.00 Build 0)  -->
<svg version="1.1" id="Livello_1" xmlns="http://www.w3.org/2000/svg" xmlns:xlink="http://www.w3.org/1999/xlink" x="0px" y="0px"
	 viewBox="0 0 281.2 56.8" style="enable-background:new 0 0 281.2 56.8;" xml:space="preserve">
<style type="text/css">
	.st0{fill:none;stroke:#FFFFFF;stroke-width:0.72;stroke-linecap:round;stroke-linejoin:round;}
	.st1{fill:none;stroke:#FFFFFF;stroke-width:0.72;stroke-linecap:round;stroke-linejoin:bevel;}
</style>
<g>
	<g id="Livello_1-2_1_">
		<polyline class="st0" points="227.5,2.8 227.5,13 253,13 		"/>
		<polyline class="st1" points="253,43.5 255,43.4 256.9,43 258.8,42.3 260.6,41.5 262.2,40.4 263.8,39.1 265.1,37.5 266.2,35.8 
			267,34.2 267.7,32.2 268.1,30.3 268.2,28.3 268.1,26.2 267.7,24.3 267,22.4 266.2,20.6 265.1,19 263.8,17.5 262.2,16.2 
			260.6,15.1 258.8,14.2 256.9,13.5 255,13.2 253,13 		"/>
		<polyline class="st0" points="253,43.6 227.5,43.6 227.5,53.8 253,53.8 		"/>
		<polyline class="st1" points="253,53.7 255.6,53.6 258.2,53.1 260.9,52.5 263.3,51.6 265.7,50.4 268,48.9 270,47.2 271.9,45.3 
			273.6,43.3 275,41 276.2,38.6 277.2,36.2 277.8,33.6 278.3,30.9 278.4,28.3 278.3,25.6 277.8,23 277.2,20.4 276.2,18 275,15.6 
			273.6,13.3 271.9,11.2 270,9.3 268,7.6 265.7,6.2 263.3,5 260.9,4 258.2,3.4 255.6,3 253,2.8 		"/>
		<line class="st0" x1="253" y1="2.8" x2="227.5" y2="2.8"/>
		<polyline class="st0" points="171.4,53.8 181.6,53.8 181.6,28.3 		"/>
		<polyline class="st1" points="212.2,28.3 212,26.2 211.7,24.3 211,22.4 210.1,20.6 209,19 207.7,17.5 206.2,16.2 204.6,15.1 
			202.8,14.2 200.9,13.5 199,13.2 196.9,13 194.9,13.2 193,13.5 191,14.2 189.4,15.1 187.7,16.2 186.1,17.5 184.8,19 183.7,20.6 
			182.9,22.4 182.2,24.3 181.8,26.2 181.7,28.3 		"/>
		<polyline class="st0" points="212.2,28.3 212.2,53.8 222.4,53.8 222.4,28.3 		"/>
		<polyline class="st1" points="222.4,28.3 222.2,25.6 221.8,23 221.2,20.4 220.2,18 219,15.6 217.6,13.3 215.9,11.2 214,9.3 
			211.9,7.6 209.6,6.2 207.2,5 204.8,4 202.2,3.4 199.6,3 196.9,2.8 194.3,3 191.6,3.4 189,4 186.6,5 184.2,6.2 181.9,7.6 
			179.9,9.3 178,11.2 176.3,13.3 174.8,15.6 173.6,18 172.7,20.4 172.1,23 171.6,25.6 171.5,28.3 		"/>
		<line class="st0" x1="171.4" y1="28.3" x2="171.4" y2="53.8"/>
		<path class="st0" d="M115.2,2.8v25.4"/>
		<polyline class="st1" points="115.3,28.3 115.4,30.9 115.9,33.6 116.5,36.2 117.5,38.6 118.7,41 120.1,43.3 121.8,45.3 
			123.7,47.2 125.8,48.9 128,50.4 130.4,51.6 132.8,52.5 135.5,53.1 138.1,53.6 140.8,53.7 143.4,53.6 146,53.1 148.7,52.5 
			151.1,51.6 153.5,50.4 155.8,48.9 157.8,47.2 159.7,45.3 161.4,43.3 162.8,41 164,38.6 165,36.2 165.6,33.6 166.1,30.9 
			166.2,28.3 		"/>
		<polyline class="st0" points="166.3,28.3 166.3,2.8 156.1,2.8 156.1,28.3 		"/>
		<polyline class="st1" points="125.5,28.3 125.6,30.3 126,32.2 126.7,34.2 127.6,35.8 128.6,37.5 130,39.1 131.5,40.4 133.2,41.5 
			134.9,42.3 136.8,43 138.7,43.4 140.8,43.5 142.8,43.4 144.7,43 146.6,42.3 148.4,41.5 150,40.4 151.6,39.1 152.9,37.5 154,35.8 
			154.8,34.2 155.5,32.2 155.9,30.3 156,28.3 		"/>
		<polyline class="st0" points="125.4,28.3 125.4,2.8 115.2,2.8 		"/>
		<polyline class="st0" points="3,53.8 13.2,53.8 13.2,28.4 		"/>
		<polyline class="st1" points="43.8,28.4 43.7,26.4 43.3,24.4 42.6,22.5 41.8,20.7 40.7,19.2 39.4,17.6 37.8,16.3 36.2,15.2 
			34.4,14.4 32.5,13.6 30.6,13.3 28.6,13.2 26.5,13.3 24.6,13.6 22.7,14.4 21,15.2 19.3,16.3 17.8,17.6 16.4,19.2 15.4,20.7 
			14.5,22.5 13.8,24.4 13.4,26.4 13.3,28.4 		"/>
		<line class="st0" x1="43.8" y1="28.4" x2="54" y2="28.4"/>
		<polyline class="st1" points="54,28.4 53.9,25.8 53.4,23.1 52.8,20.5 51.8,18.1 50.6,15.7 49.2,13.4 47.5,11.4 45.6,9.4 43.6,7.8 
			41.3,6.3 38.9,5.1 36.5,4.2 33.8,3.6 31.2,3.1 28.6,3 25.9,3.1 23.3,3.6 20.6,4.2 18.2,5.1 15.8,6.3 13.6,7.8 11.5,9.4 9.6,11.4 
			7.9,13.4 6.5,15.7 5.3,18.1 4.3,20.5 3.7,23.1 3.2,25.8 3.1,28.4 		"/>
		<line class="st0" x1="3" y1="28.4" x2="3" y2="53.8"/>
	</g>
</g>
<g>
	<g id="Livello_1-2_2_">
		<g id="Livello_1-2-2">
			<polygon class="st1" points="99.8,28.4 99.7,26.3 99.2,24.3 98.5,22.3 97.6,20.5 96.4,18.8 95,17.2 93.3,15.9 91.5,14.8 89.7,14 
				87.7,13.5 85.6,13.1 83.5,13.1 81.4,13.5 79.4,14 77.6,14.8 75.8,15.9 74.1,17.2 72.7,18.8 71.5,20.5 70.6,22.3 69.9,24.3 
				69.4,26.3 69.3,28.4 69.4,30.4 69.9,32.5 70.6,34.5 71.5,36.3 72.7,38 74.1,39.5 75.8,40.9 77.6,41.9 79.4,42.8 81.4,43.3 
				83.5,43.6 85.6,43.6 87.7,43.3 89.7,42.8 91.5,41.9 93.3,40.9 95,39.5 96.4,38 97.6,36.3 98.5,34.5 99.2,32.5 99.7,30.4 			"/>
			<polygon class="st1" points="110,28.4 109.9,25.7 109.4,23.1 108.8,20.5 107.8,18.1 106.6,15.7 105.2,13.4 103.5,11.3 101.6,9.4 
				99.5,7.7 97.3,6.3 94.9,5.1 92.5,4.1 89.8,3.5 87.2,3.1 84.5,2.9 81.9,3.1 79.3,3.5 76.6,4.1 74.2,5.1 71.8,6.3 69.5,7.7 
				67.5,9.4 65.6,11.3 63.9,13.4 62.5,15.7 61.3,18.1 60.3,20.5 59.7,23.1 59.2,25.7 59.1,28.4 59.2,31 59.7,33.7 60.3,36.3 
				61.3,38.7 62.5,41.1 63.9,43.4 65.6,45.4 67.5,47.3 69.5,49 71.8,50.5 74.2,51.7 76.6,52.6 79.3,53.2 81.9,53.7 84.5,53.8 
				87.2,53.7 89.8,53.2 92.5,52.6 94.9,51.7 97.3,50.5 99.5,49 101.6,47.3 103.5,45.4 105.2,43.4 106.6,41.1 107.8,38.7 108.8,36.3 
				109.4,33.7 109.9,31 			"/>
		</g>
	</g>
</g>
</svg>
