<?xml version="1.0" encoding="utf-8"?>
<!-- Generator: Adobe Illustrator 23.0.3, SVG Export Plug-In . SVG Version: 6.00 Build 0)  -->
<svg version="1.1" id="Livello_1" xmlns="http://www.w3.org/2000/svg" xmlns:xlink="http://www.w3.org/1999/xlink" x="0px" y="0px"
	 viewBox="0 0 281.2 56.8" style="enable-background:new 0 0 281.2 56.8;" xml:space="preserve">
<style type="text/css">
	.st0{fill:none;stroke:#FFFFFF;stroke-width:0.41;stroke-linecap:round;stroke-linejoin:round;}
	.st1{fill:#E20E18;}
	.st2{fill:#1B9DD9;}
	.st3{fill:#54AE32;}
</style>
<g>
	<g id="Livello_1-2">
		<polyline class="st0" points="62.2,41 60.8,43.6 62,45.4 63.5,47.1 65.1,48.7 66.8,50.2 68.5,51.5 70.4,52.7 72.4,53.7 74.5,54.6 
			76.6,55.3 78.8,55.8 81,56.2 83.2,56.3 85.4,56.3 87.7,56.2 89.9,55.8 92.1,55.3 94.2,54.6 96.2,53.7 98.2,52.7 100.1,51.5 
			101.9,50.2 103.6,48.7 105.1,47.1 106.6,45.4 107.9,43.6 106.4,41 		"/>
		<line class="st0" x1="97.6" y1="36" x2="94.6" y2="36"/>
		<polyline class="st0" points="74.1,36 75,37.1 76,38 77.1,38.8 78.3,39.6 79.6,40.1 80.9,40.6 82.2,40.9 83.6,41 85,41 86.4,40.9 
			87.8,40.6 89.1,40.1 90.4,39.6 91.5,38.8 92.7,38 93.6,37.1 94.6,36 		"/>
		<line class="st0" x1="74.1" y1="36" x2="71.1" y2="36"/>
		<line class="st0" x1="106.4" y1="41" x2="109.3" y2="41"/>
		<polyline class="st0" points="109.3,41.1 110.3,39 111,37.1 111.6,34.9 112.1,32.8 112.3,30.6 112.4,28.4 112.3,26.1 112.1,23.9 
			111.6,21.7 111,19.6 110.2,17.4 109.3,15.4 108.1,13.5 106.9,11.7 105.5,10 103.9,8.4 102.3,6.9 100.4,5.5 98.6,4.3 96.6,3.2 
			94.5,2.3 92.4,1.6 90.2,1 88,0.6 85.8,0.5 84.3,3 		"/>
		<line class="st0" x1="84.3" y1="13.1" x2="85.9" y2="15.7"/>
		<polyline class="st0" points="97.1,28.4 97,27 96.8,25.6 96.4,24.2 95.9,22.9 95.2,21.6 94.3,20.5 93.4,19.4 92.4,18.4 91.2,17.6 
			89.9,16.9 88.6,16.4 87.3,16 85.9,15.7 		"/>
		<polyline class="st0" points="96.1,33.4 96.5,32.2 96.9,30.9 97,29.7 97.1,28.4 		"/>
		<line class="st0" x1="96.1" y1="33.4" x2="97.6" y2="36"/>
		<line class="st0" x1="71.1" y1="36" x2="72.6" y2="33.4"/>
		<polyline class="st0" points="71.6,28.4 71.6,29.7 71.8,30.9 72.2,32.2 72.6,33.4 		"/>
		<polyline class="st0" points="82.8,15.7 81.4,16 80,16.4 78.7,16.9 77.5,17.6 76.3,18.4 75.3,19.4 74.3,20.5 73.5,21.6 72.8,22.9 
			72.3,24.2 71.9,25.6 71.6,27 71.6,28.4 		"/>
		<line class="st0" x1="82.8" y1="15.7" x2="84.3" y2="13.1"/>
		<polyline class="st0" points="84.3,3 82.9,0.5 80.6,0.6 78.4,1 76.3,1.6 74.2,2.3 72.1,3.2 70.1,4.3 68.2,5.5 66.4,6.9 64.8,8.4 
			63.2,10 61.8,11.7 60.5,13.5 59.4,15.4 58.5,17.4 57.7,19.6 57,21.7 56.6,23.9 56.3,26.1 56.3,28.4 56.3,30.6 56.6,32.8 57,34.9 
			57.6,37.1 58.4,39 59.3,41 62.2,41 		"/>
		<path class="st0" d="M85.8,15.7l1.6-2.3 M82.8,15.7l-1.6-2.3 M85.8,0.5l1.4,2.6 M82.9,0.5l-1.4,2.6 M60.8,43.6l3-0.1 M60.9,38.5
			L59.3,41 M72.6,33.4l-2.8-0.2 M74.1,36l-1.2,2.5 M104.9,43.4l3,0.1 M94.6,36l1.2,2.5 M96.1,33.4l2.8-0.2 M109.3,41l-1.6-2.5
			 M97.6,36.1l8.8,5.1 M71.1,36.1l-8.8,5.1 M84.3,3v10.2"/>
		<polygon class="st1" points="102,38.5 104.9,43.4 103.6,45.1 102.2,46.6 100.6,47.9 99,49.2 97.2,50.3 95.4,51.3 93.5,52.1 
			91.5,52.8 89.5,53.3 87.4,53.6 85.4,53.8 83.3,53.8 81.2,53.6 79.2,53.3 77.2,52.8 75.2,52.1 73.3,51.3 71.5,50.3 69.7,49.2 
			68.1,47.9 66.5,46.6 65.1,45.1 63.8,43.4 66.6,38.5 72.9,38.5 74.1,39.6 75.3,40.6 76.7,41.5 78.1,42.3 79.6,42.8 81.1,43.3 
			82.7,43.5 84.3,43.6 86,43.5 87.5,43.3 89.1,42.8 90.6,42.3 92,41.5 93.3,40.6 94.6,39.6 95.7,38.5 		"/>
		<polygon class="st2" points="98.9,33.2 102,38.5 107.7,38.5 108.5,36.6 109.1,34.6 109.5,32.6 109.8,30.5 109.9,28.4 109.8,26.3 
			109.5,24.3 109.1,22.2 108.5,20.3 107.8,18.3 106.9,16.4 105.8,14.7 104.7,13 103.4,11.5 101.9,10 100.3,8.6 98.7,7.4 96.9,6.3 
			95.1,5.4 93.2,4.6 91.2,3.9 89.2,3.5 87.2,3.1 84.3,8.1 87.5,13.4 89,13.8 90.5,14.4 92,15.1 93.3,16 94.6,17 95.7,18.1 
			96.7,19.4 97.6,20.7 98.3,22.2 98.9,23.7 99.3,25.2 99.6,26.8 99.7,28.4 99.6,30 99.3,31.6 		"/>
		<polygon class="st3" points="69.8,33.2 66.6,38.5 60.9,38.5 60.2,36.6 59.6,34.6 59.2,32.6 58.9,30.5 58.8,28.4 58.9,26.3 
			59.2,24.3 59.5,22.2 60.1,20.3 60.9,18.3 61.7,16.4 62.8,14.7 64,13 65.3,11.5 66.7,10 68.3,8.6 70,7.4 71.7,6.3 73.5,5.4 
			75.4,4.6 77.4,3.9 79.4,3.5 81.5,3.1 84.3,8.1 81.2,13.4 79.6,13.8 78.1,14.4 76.7,15.1 75.4,16 74.1,17 73,18.1 71.9,19.4 
			71.1,20.7 70.4,22.2 69.8,23.7 69.4,25.2 69.1,26.8 69,28.4 69.1,30 69.4,31.6 		"/>
		<polyline class="st0" points="102,38.5 104.9,43.4 103.6,45.1 102.2,46.6 100.6,47.9 99,49.2 97.2,50.3 95.4,51.3 93.5,52.1 
			91.5,52.8 89.5,53.3 87.4,53.6 85.4,53.8 83.3,53.8 81.2,53.6 79.2,53.3 77.2,52.8 75.2,52.1 73.3,51.3 71.5,50.3 69.7,49.2 
			68.1,47.9 66.5,46.6 65.1,45.1 63.8,43.4 66.6,38.5 72.9,38.5 74.1,39.6 75.3,40.6 76.7,41.5 78.1,42.3 79.6,42.8 81.1,43.3 
			82.7,43.5 84.3,43.6 86,43.5 87.5,43.3 89.1,42.8 90.6,42.3 92,41.5 93.3,40.6 94.6,39.6 95.7,38.5 102,38.5 		"/>
		<polyline class="st0" points="98.9,33.2 102,38.5 107.7,38.5 108.5,36.6 109.1,34.6 109.5,32.6 109.8,30.5 109.9,28.4 109.8,26.3 
			109.5,24.3 109.1,22.2 108.5,20.3 107.8,18.3 106.9,16.4 105.8,14.7 104.7,13 103.4,11.5 101.9,10 100.3,8.6 98.7,7.4 96.9,6.3 
			95.1,5.4 93.2,4.6 91.2,3.9 89.2,3.5 87.2,3.1 84.3,8.1 87.5,13.4 89,13.8 90.5,14.4 92,15.1 93.3,16 94.6,17 95.7,18.1 
			96.7,19.4 97.6,20.7 98.3,22.2 98.9,23.7 99.3,25.2 99.6,26.8 99.7,28.4 99.6,30 99.3,31.6 98.9,33.2 		"/>
		<polyline class="st0" points="69.8,33.2 66.6,38.5 60.9,38.5 60.2,36.6 59.6,34.6 59.2,32.6 58.9,30.5 58.8,28.4 58.9,26.3 
			59.2,24.3 59.5,22.2 60.1,20.3 60.9,18.3 61.7,16.4 62.8,14.7 64,13 65.3,11.5 66.7,10 68.3,8.6 70,7.4 71.7,6.3 73.5,5.4 
			75.4,4.6 77.4,3.9 79.4,3.5 81.5,3.1 84.3,8.1 81.2,13.4 79.6,13.8 78.1,14.4 76.7,15.1 75.4,16 74.1,17 73,18.1 71.9,19.4 
			71.1,20.7 70.4,22.2 69.8,23.7 69.4,25.2 69.1,26.8 69,28.4 69.1,30 69.4,31.6 69.8,33.2 		"/>
	</g>
</g>
</svg>
