<?xml version="1.0" encoding="utf-8"?>
<!-- Generator: Adobe Illustrator 23.0.3, SVG Export Plug-In . SVG Version: 6.00 Build 0)  -->
<svg version="1.1" id="Livello_1" xmlns="http://www.w3.org/2000/svg" xmlns:xlink="http://www.w3.org/1999/xlink" x="0px" y="0px"
	 viewBox="0 0 281.2 56.8" style="enable-background:new 0 0 281.2 56.8;" xml:space="preserve">
<style type="text/css">
	.st0{fill:none;stroke:#FFFFFF;stroke-width:0.41;stroke-linecap:round;stroke-linejoin:round;}
	.st1{fill:#E20E18;}
	.st2{fill:#1B9DD9;}
	.st3{fill:#54AE32;}
	.st4{fill:none;}
</style>
<g>
	<g id="Livello_1-2">
		<polyline class="st0" points="62.2,41.2 60.8,43.8 62,45.6 63.5,47.3 65.1,48.9 66.8,50.4 68.5,51.7 70.4,52.9 72.4,53.9 
			74.5,54.8 76.6,55.5 78.8,56 81,56.4 83.2,56.5 85.4,56.5 87.7,56.4 89.9,56 92.1,55.5 94.2,54.8 96.2,53.9 98.2,52.9 100.1,51.7 
			101.9,50.4 103.6,48.9 105.1,47.3 106.6,45.6 107.9,43.8 106.4,41.2 		"/>
		<line class="st0" x1="97.6" y1="36.1" x2="94.6" y2="36.1"/>
		<polyline class="st0" points="74.1,36.1 75,37.2 76,38.2 77.1,39 78.3,39.8 79.6,40.3 80.9,40.8 82.2,41.1 83.6,41.2 85,41.2 
			86.4,41.1 87.8,40.8 89.1,40.3 90.4,39.8 91.5,39 92.7,38.2 93.6,37.2 94.6,36.1 		"/>
		<line class="st0" x1="74.1" y1="36.1" x2="71.1" y2="36.1"/>
		<line class="st0" x1="106.4" y1="41.2" x2="109.3" y2="41.2"/>
		<polyline class="st0" points="109.3,41.3 110.3,39.2 111,37.2 111.6,35 112.1,32.9 112.3,30.7 112.4,28.5 112.3,26.2 112.1,24 
			111.6,21.8 111,19.7 110.2,17.5 109.3,15.5 108.1,13.6 106.9,11.7 105.5,10 103.9,8.4 102.3,6.9 100.4,5.5 98.6,4.3 96.6,3.2 
			94.5,2.3 92.4,1.6 90.2,1 88,0.6 85.8,0.5 84.3,3 		"/>
		<line class="st0" x1="84.3" y1="13.2" x2="85.9" y2="15.8"/>
		<polyline class="st0" points="97.1,28.5 97,27.1 96.8,25.7 96.4,24.3 95.9,23 95.2,21.7 94.3,20.6 93.4,19.5 92.4,18.5 91.2,17.7 
			89.9,17 88.6,16.5 87.3,16.1 85.9,15.8 		"/>
		<polyline class="st0" points="96.1,33.5 96.5,32.3 96.9,31 97,29.8 97.1,28.5 		"/>
		<line class="st0" x1="96.1" y1="33.5" x2="97.6" y2="36.1"/>
		<line class="st0" x1="71.1" y1="36.1" x2="72.6" y2="33.5"/>
		<polyline class="st0" points="71.6,28.5 71.6,29.8 71.8,31 72.2,32.3 72.6,33.5 		"/>
		<polyline class="st0" points="82.8,15.8 81.4,16.1 80,16.5 78.7,17 77.5,17.7 76.3,18.5 75.3,19.5 74.3,20.6 73.5,21.7 72.8,23 
			72.3,24.3 71.9,25.7 71.6,27.1 71.6,28.5 		"/>
		<line class="st0" x1="82.8" y1="15.8" x2="84.3" y2="13.2"/>
		<polyline class="st0" points="84.3,3 82.9,0.5 80.6,0.6 78.4,1 76.3,1.6 74.2,2.3 72.1,3.2 70.1,4.3 68.2,5.5 66.4,6.9 64.8,8.4 
			63.2,10 61.8,11.7 60.5,13.6 59.4,15.5 58.5,17.5 57.7,19.7 57,21.8 56.6,24 56.3,26.2 56.3,28.5 56.3,30.7 56.6,32.9 57,35 
			57.6,37.2 58.4,39.2 59.3,41.2 62.2,41.2 		"/>
		<path class="st0" d="M85.8,15.8l1.6-2.3 M82.8,15.8l-1.6-2.3 M85.8,0.5l1.4,2.6 M82.9,0.5l-1.4,2.6 M60.8,43.8l3-0.1 M60.9,38.7
			l-1.6,2.5 M72.6,33.5l-2.8-0.2 M74.1,36.1l-1.2,2.5 M104.9,43.6l3,0.1 M94.6,36.1l1.2,2.5 M96.1,33.5l2.8-0.2 M109.3,41.2
			l-1.6-2.5 M97.6,36.2l8.8,5.1 M71.1,36.2l-8.8,5.1 M84.3,3v10.2"/>
		<polygon class="st1" points="102,38.7 104.9,43.6 103.6,45.3 102.2,46.8 100.6,48.1 99,49.4 97.2,50.5 95.4,51.5 93.5,52.3 
			91.5,53 89.5,53.5 87.4,53.8 85.4,54 83.3,54 81.2,53.8 79.2,53.5 77.2,53 75.2,52.3 73.3,51.5 71.5,50.5 69.7,49.4 68.1,48.1 
			66.5,46.8 65.1,45.3 63.8,43.6 66.6,38.7 72.9,38.7 74.1,39.8 75.3,40.8 76.7,41.7 78.1,42.5 79.6,43 81.1,43.5 82.7,43.7 
			84.3,43.8 86,43.7 87.5,43.5 89.1,43 90.6,42.5 92,41.7 93.3,40.8 94.6,39.8 95.7,38.7 		"/>
		<polygon class="st2" points="98.9,33.3 102,38.7 107.7,38.7 108.5,36.7 109.1,34.7 109.5,32.7 109.8,30.6 109.9,28.5 109.8,26.4 
			109.5,24.4 109.1,22.3 108.5,20.4 107.8,18.4 106.9,16.5 105.8,14.8 104.7,13.1 103.4,11.5 101.9,10 100.3,8.6 98.7,7.4 96.9,6.3 
			95.1,5.4 93.2,4.6 91.2,3.9 89.2,3.5 87.2,3.1 84.3,8.1 87.5,13.5 89,13.9 90.5,14.5 92,15.2 93.3,16.1 94.6,17.1 95.7,18.2 
			96.7,19.5 97.6,20.8 98.3,22.3 98.9,23.8 99.3,25.3 99.6,26.9 99.7,28.5 99.6,30.1 99.3,31.7 		"/>
		<polygon class="st3" points="69.8,33.3 66.6,38.7 60.9,38.7 60.2,36.7 59.6,34.7 59.2,32.7 58.9,30.6 58.8,28.5 58.9,26.4 
			59.2,24.4 59.5,22.3 60.1,20.4 60.9,18.4 61.7,16.5 62.8,14.8 64,13.1 65.3,11.5 66.7,10 68.3,8.6 70,7.4 71.7,6.3 73.5,5.4 
			75.4,4.6 77.4,3.9 79.4,3.5 81.5,3.1 84.3,8.1 81.2,13.5 79.6,13.9 78.1,14.5 76.7,15.2 75.4,16.1 74.1,17.1 73,18.2 71.9,19.5 
			71.1,20.8 70.4,22.3 69.8,23.8 69.4,25.3 69.1,26.9 69,28.5 69.1,30.1 69.4,31.7 		"/>
		<polyline class="st0" points="102,38.7 104.9,43.6 103.6,45.3 102.2,46.8 100.6,48.1 99,49.4 97.2,50.5 95.4,51.5 93.5,52.3 
			91.5,53 89.5,53.5 87.4,53.8 85.4,54 83.3,54 81.2,53.8 79.2,53.5 77.2,53 75.2,52.3 73.3,51.5 71.5,50.5 69.7,49.4 68.1,48.1 
			66.5,46.8 65.1,45.3 63.8,43.6 66.6,38.7 72.9,38.7 74.1,39.8 75.3,40.8 76.7,41.7 78.1,42.5 79.6,43 81.1,43.5 82.7,43.7 
			84.3,43.8 86,43.7 87.5,43.5 89.1,43 90.6,42.5 92,41.7 93.3,40.8 94.6,39.8 95.7,38.7 102,38.7 		"/>
		<polyline class="st0" points="98.9,33.3 102,38.7 107.7,38.7 108.5,36.7 109.1,34.7 109.5,32.7 109.8,30.6 109.9,28.5 109.8,26.4 
			109.5,24.4 109.1,22.3 108.5,20.4 107.8,18.4 106.9,16.5 105.8,14.8 104.7,13.1 103.4,11.5 101.9,10 100.3,8.6 98.7,7.4 96.9,6.3 
			95.1,5.4 93.2,4.6 91.2,3.9 89.2,3.5 87.2,3.1 84.3,8.1 87.5,13.5 89,13.9 90.5,14.5 92,15.2 93.3,16.1 94.6,17.1 95.7,18.2 
			96.7,19.5 97.6,20.8 98.3,22.3 98.9,23.8 99.3,25.3 99.6,26.9 99.7,28.5 99.6,30.1 99.3,31.7 98.9,33.3 		"/>
		<polyline class="st0" points="69.8,33.3 66.6,38.7 60.9,38.7 60.2,36.7 59.6,34.7 59.2,32.7 58.9,30.6 58.8,28.5 58.9,26.4 
			59.2,24.4 59.5,22.3 60.1,20.4 60.9,18.4 61.7,16.5 62.8,14.8 64,13.1 65.3,11.5 66.7,10 68.3,8.6 70,7.4 71.7,6.3 73.5,5.4 
			75.4,4.6 77.4,3.9 79.4,3.5 81.5,3.1 84.3,8.1 81.2,13.5 79.6,13.9 78.1,14.5 76.7,15.2 75.4,16.1 74.1,17.1 73,18.2 71.9,19.5 
			71.1,20.8 70.4,22.3 69.8,23.8 69.4,25.3 69.1,26.9 69,28.5 69.1,30.1 69.4,31.7 69.8,33.3 		"/>
	</g>
</g>
<rect x="115.6" y="5.9" class="st4" width="162.2" height="45.8"/>
</svg>
